<svg width="1311" height="972" viewBox="0 0 1311 972" fill="none" xmlns="http://www.w3.org/2000/svg">
<g style="mix-blend-mode:multiply" opacity="0.6">
<path d="M1150.42 972H16.1092C1.25508 972 -5.65531 944.445 5.53909 929.849L19.6828 911.357C34.4508 891.982 53.3736 881.455 72.9638 881.455H1113.29C1128.12 881.455 1142.35 890.066 1153.03 905.458L1164.07 921.41C1176.82 939.795 1168.12 972 1150.42 972Z" fill="#3793FF"/>
</g>
<path d="M634 161C636.363 161.003 638.703 160.427 640.887 159.303C643.07 158.18 645.055 156.531 646.727 154.452C648.398 152.373 649.725 149.904 650.629 147.186C651.534 144.468 652 141.554 652 138.612V3H616V138.612C616 141.554 616.466 144.468 617.371 147.186C618.275 149.904 619.602 152.373 621.273 154.452C622.945 156.531 624.93 158.18 627.113 159.303C629.297 160.427 631.637 161.003 634 161Z" fill="#0060FF"/>
<path d="M502.043 230C510.258 229.972 518.128 225.988 523.931 218.921C529.733 211.854 532.994 202.28 533 192.296V0H471V192.296C471.006 202.298 474.279 211.888 480.1 218.958C485.921 226.028 493.814 230 502.043 230Z" fill="#0060FF"/>
<path d="M577.011 82C579.397 81.9931 581.683 80.8081 583.368 78.705C585.054 76.6019 586 73.7524 586 70.7817V3H568V70.7817C568 73.757 568.949 76.6104 570.639 78.7142C572.329 80.8181 574.621 82 577.011 82Z" fill="#0060FF"/>
<path d="M774.988 156.28C770.112 156.28 765.436 158.217 761.988 161.665C758.54 165.112 756.604 169.789 756.604 174.664V333.259C756.519 335.728 756.932 338.188 757.819 340.494C758.705 342.799 760.047 344.903 761.763 346.679C763.48 348.455 765.536 349.868 767.81 350.833C770.084 351.797 772.529 352.295 774.999 352.295C777.469 352.295 779.914 351.797 782.188 350.833C784.462 349.868 786.518 348.455 788.235 346.679C789.951 344.903 791.293 342.799 792.179 340.494C793.066 338.188 793.479 335.728 793.394 333.259V174.664C793.394 172.248 792.918 169.856 791.993 167.624C791.068 165.392 789.712 163.364 788.002 161.657C786.293 159.949 784.263 158.596 782.03 157.673C779.797 156.75 777.404 156.277 774.988 156.28Z" fill="#0060FF"/>
<path d="M668.334 244.131C670.772 244.131 673.11 243.163 674.834 241.439C676.558 239.715 677.526 237.377 677.526 234.939V155.631C677.526 153.193 676.558 150.855 674.834 149.131C673.11 147.407 670.772 146.438 668.334 146.438C665.896 146.438 663.558 147.407 661.834 149.131C660.11 150.855 659.142 153.193 659.142 155.631V234.939C659.142 237.377 660.11 239.715 661.834 241.439C663.558 243.163 665.896 244.131 668.334 244.131Z" fill="#0060FF"/>
<path d="M677.649 128.648C680.914 128.635 684.149 129.405 687.169 130.914C690.19 132.424 692.936 134.644 695.251 137.448C697.567 140.251 699.406 143.583 700.664 147.252C701.922 150.922 702.574 154.858 702.582 158.834L702.733 217.738C702.681 223.681 704.511 229.42 707.843 233.763C711.175 238.105 715.753 240.716 720.625 241.053C723.09 241.14 725.545 240.625 727.843 239.536C730.142 238.447 732.238 236.807 734.007 234.714C735.775 232.62 737.181 230.116 738.141 227.348C739.101 224.581 739.595 221.607 739.594 218.603V144.856C739.594 136.975 742.164 129.417 746.739 123.845C751.313 118.273 757.518 115.142 763.988 115.142H788.232C794.702 115.142 800.906 118.273 805.481 123.845C810.056 129.417 812.626 136.975 812.626 144.856H813.186V540.579C813.192 543.797 814.244 546.882 816.112 549.157C817.98 551.433 820.513 552.714 823.155 552.721H826.923C829.566 552.721 832.102 554.001 833.972 556.278C835.841 558.555 836.891 561.644 836.891 564.864V602.42C836.891 614.307 840.768 625.707 847.669 634.112C854.569 642.518 863.929 647.24 873.688 647.24C883.447 647.24 892.806 642.518 899.706 634.112C906.607 625.707 910.484 614.307 910.484 602.42V595.942C910.484 587.345 913.287 579.1 918.278 573.021C923.269 566.942 930.038 563.526 937.096 563.526H951.866C955.366 563.516 958.834 564.347 962.07 565.971C965.306 567.596 968.247 569.982 970.725 572.993C973.203 576.004 975.169 579.581 976.511 583.519C977.852 587.457 978.543 591.678 978.543 595.942V627.885C978.543 630.429 978.954 632.948 979.754 635.298C980.554 637.648 981.727 639.782 983.204 641.58C984.682 643.378 986.436 644.803 988.367 645.774C990.297 646.745 992.366 647.243 994.454 647.24H1035.36C1039.55 647.136 1043.54 645.014 1046.45 641.337C1049.36 637.66 1050.96 632.729 1050.89 627.623C1050.94 624.448 1052.02 621.426 1053.88 619.206C1055.74 616.985 1058.25 615.742 1060.85 615.742C1063.5 615.742 1066.03 617.022 1067.9 619.299C1069.77 621.576 1070.82 624.664 1070.82 627.885V701.108C1070.82 704.328 1071.87 707.417 1073.74 709.694C1075.61 711.971 1078.15 713.25 1080.79 713.25C1083.44 713.25 1085.97 711.971 1087.84 709.694C1089.71 707.417 1090.76 704.328 1090.76 701.108V651.882C1090.72 648.803 1091.61 645.812 1093.27 643.488C1094.92 641.163 1097.23 639.669 1099.74 639.293C1101.12 639.125 1102.52 639.311 1103.84 639.841C1105.16 640.37 1106.38 641.231 1107.41 642.368C1108.44 643.505 1109.26 644.892 1109.82 646.44C1110.39 647.989 1110.68 649.664 1110.68 651.357V667.093V727.412C1110.68 733.879 1112.79 740.078 1116.55 744.651C1120.3 749.223 1125.39 751.795 1130.7 751.802C1136.01 751.795 1141.1 749.223 1144.85 744.651C1148.61 740.078 1150.72 733.879 1150.72 727.412V716.922C1150.72 713.701 1151.77 710.613 1153.64 708.336C1155.51 706.059 1158.05 704.779 1160.69 704.779H1180.93C1183.58 704.779 1186.11 706.059 1187.98 708.336C1189.85 710.613 1190.9 713.701 1190.9 716.922V727.412C1190.9 733.881 1193.01 740.085 1196.77 744.659C1200.52 749.233 1205.61 751.802 1210.92 751.802C1216.23 751.795 1221.32 749.223 1225.07 744.649C1228.82 740.076 1230.93 733.876 1230.93 727.412V710.025C1230.86 703.734 1232.75 697.647 1236.22 692.983C1239.69 688.319 1244.47 685.422 1249.62 684.874C1252.35 684.647 1255.09 685.108 1257.68 686.227C1260.26 687.347 1262.63 689.101 1264.63 691.38C1266.63 693.66 1268.23 696.417 1269.32 699.48C1270.41 702.543 1270.97 705.846 1270.97 709.185V769.793C1270.91 776.081 1272.79 782.168 1276.25 786.833C1279.72 791.498 1284.5 794.395 1289.64 794.944C1292.38 795.17 1295.12 794.71 1297.7 793.59C1300.29 792.471 1302.65 790.717 1304.65 788.437C1306.66 786.158 1308.25 783.401 1309.35 780.338C1310.44 777.275 1311 773.972 1311 770.633V3H666.001V114.014C665.955 117.835 667.156 121.523 669.34 124.267C671.524 127.01 674.512 128.586 677.649 128.648Z" fill="#0060FF"/>
<g style="mix-blend-mode:multiply" opacity="0.25">
<path d="M925.134 410.102C915.046 410.076 905.057 412.094 895.77 416.035C886.483 419.975 878.091 425.756 871.1 433.029C869.745 434.439 867.999 435.41 866.088 435.819C864.176 436.228 862.186 436.056 860.373 435.324C858.56 434.593 857.008 433.335 855.915 431.714C854.823 430.093 854.241 428.182 854.244 426.227C854.244 401.24 844.319 377.276 826.653 359.606C808.986 341.936 785.025 332.006 760.038 332C735.059 332.023 711.111 341.963 693.458 359.636C675.805 377.31 665.892 401.269 665.898 426.248V541.895C665.897 534.303 664.366 526.79 661.396 519.803C658.427 512.816 654.079 506.5 648.613 501.231C643.147 495.962 636.676 491.849 629.585 489.137C622.494 486.426 614.929 485.172 607.342 485.449C596.727 485.825 586.449 489.28 577.763 495.395C575.937 496.731 573.777 497.536 571.521 497.723C569.266 497.909 567.003 497.47 564.982 496.452C562.961 495.435 561.259 493.879 560.065 491.957C558.872 490.035 558.232 487.82 558.216 485.557V485.127C558.216 465.235 550.314 446.157 536.248 432.092C522.183 418.026 503.106 410.124 483.214 410.124C473.137 410.111 463.162 412.136 453.887 416.076C444.613 420.016 436.23 425.79 429.244 433.051C427.888 434.453 426.144 435.418 424.236 435.822C422.328 436.227 420.343 436.052 418.534 435.322C416.726 434.591 415.177 433.337 414.086 431.721C412.995 430.104 412.411 428.199 412.409 426.248C412.409 401.261 402.485 377.298 384.818 359.627C367.152 341.957 343.191 332.027 318.204 332.022C305.83 332.022 293.577 334.459 282.145 339.194C270.713 343.929 260.325 350.87 251.576 359.62C242.826 368.37 235.885 378.757 231.15 390.189C226.414 401.621 223.977 413.874 223.977 426.248V541.895C223.976 534.303 222.446 526.79 219.476 519.803C216.506 512.816 212.158 506.5 206.693 501.231C201.227 495.962 194.755 491.849 187.664 489.137C180.573 486.426 173.008 485.172 165.422 485.449C134.809 486.526 111 512.617 111 543.251V829.828C111 843.428 103.383 871.49 113 881.107C124 882 148.4 881.107 162 881.107H931.141C949.439 881.107 966.989 873.838 979.928 860.898C992.868 847.959 1000.14 830.41 1000.14 812.111V485.105C1000.14 465.213 992.235 446.136 978.169 432.07C964.103 418.005 945.026 410.102 925.134 410.102Z" fill="#A0E5FF"/>
</g>
<path opacity="0.61" d="M1278.65 783.848C1276.71 783.848 1275.14 780.705 1275.14 776.808L1277.76 720.492L1282.24 776.744C1282.18 780.769 1280.58 783.848 1278.65 783.848Z" fill="white"/>
<path opacity="0.61" d="M757.588 492.299C755.651 492.299 754.058 489.156 754.058 485.281L756.641 429.007L761.097 485.259C761.097 489.134 759.526 492.299 757.588 492.299Z" fill="white"/>
<path opacity="0.61" d="M1121.3 744.345C1119.36 744.345 1117.79 741.202 1117.79 737.305L1120.35 681.053L1124.91 737.305C1124.91 741.202 1123.23 744.345 1121.3 744.345Z" fill="white"/>
<path opacity="0.61" d="M818.426 583.856C816.811 583.856 815.498 581.229 815.498 578L817.651 531.156L821.375 578C821.375 581.229 820.04 583.856 818.426 583.856Z" fill="white"/>
<path opacity="0.61" d="M713.93 325.674C711.992 325.674 710.399 322.51 710.399 318.635L712.983 262.361L717.439 318.635C717.439 322.51 715.889 325.674 713.93 325.674Z" fill="white"/>
<path d="M1106.01 910.71C1101.24 910.269 1096.44 910.161 1091.65 910.387H955.835C956.093 909.806 956.653 897.772 954.306 899.107C955.507 898.427 956.476 897.404 957.09 896.169C957.704 894.933 957.934 893.542 957.751 892.175C957.466 890.484 956.578 888.953 955.253 887.865C953.927 886.777 952.253 886.205 950.539 886.255H778.317C776.921 886.235 775.542 886.571 774.311 887.23C773.08 887.889 772.036 888.85 771.278 890.022C770.778 890.779 770.461 891.642 770.352 892.543C770.244 893.443 770.347 894.357 770.653 895.21C752.936 895.21 735.24 894.156 717.523 893.854C703.207 893.596 684.607 891.422 671.045 896.653C660.001 900.958 660.862 916.932 673.757 916.932H819.22C820.411 916.949 821.587 917.202 822.679 917.676C823.772 918.151 824.759 918.837 825.584 919.697C826.409 920.556 827.055 921.57 827.486 922.681C827.916 923.792 828.121 924.977 828.089 926.167V940.806C828.089 945.005 829.756 949.031 832.722 952.002C835.689 954.973 839.714 956.645 843.912 956.651H1082.05C1091.8 956.651 1106.89 959.406 1114.92 953.852C1129.54 943.669 1123.79 913.272 1106.01 910.71Z" fill="#0060FF"/>
<path opacity="0.61" d="M842.471 944.875C842.471 942.916 845.614 941.345 849.51 941.366L905.762 943.95L849.51 948.384C845.614 948.384 842.471 946.813 842.471 944.875Z" fill="white"/>
<path opacity="0.61" d="M776.381 894.565C776.381 892.627 779.545 891.056 783.42 891.056L839.694 893.66L783.42 898.074C779.524 898.074 776.381 896.502 776.381 894.565Z" fill="white"/>
<path opacity="0.32" d="M948.733 906.341L978.872 884.21C980.037 883.358 980.986 882.244 981.64 880.957C982.295 879.671 982.637 878.248 982.639 876.805C982.639 875.597 982.401 874.401 981.937 873.285C981.474 872.17 980.794 871.157 979.938 870.305C979.082 869.453 978.066 868.778 976.948 868.32C975.831 867.861 974.633 867.628 973.426 867.634L932.286 867.785L948.733 906.341Z" fill="#606060"/>
<g style="mix-blend-mode:multiply" opacity="0.3">
<path d="M926.172 534.213V632.013H930.09L926.409 808.067C926.336 810.601 925.284 813.008 923.474 814.783C921.663 816.557 919.235 817.561 916.7 817.582H848.134C845.186 817.579 842.267 818.157 839.543 819.283C836.819 820.409 834.344 822.061 832.258 824.144C830.173 826.228 828.519 828.702 827.39 831.424C826.262 834.147 825.681 837.066 825.681 840.014V873.683H838.404V840.014C838.404 837.437 839.426 834.965 841.246 833.141C843.066 831.317 845.536 830.289 848.113 830.283H916.678C922.536 830.257 928.153 827.949 932.337 823.85C936.521 819.75 938.943 814.181 939.089 808.325L942.791 631.41C944.546 630.756 946.057 629.579 947.123 628.04C948.189 626.501 948.758 624.672 948.754 622.799V546.484C948.749 543.227 947.451 540.106 945.146 537.806C942.842 535.505 939.719 534.213 936.462 534.213H926.172Z" fill="#606060"/>
</g>
<g style="mix-blend-mode:multiply" opacity="0.6">
<path d="M754.273 925.285L515.746 923.778L541.687 897.579H726.761L754.273 925.285Z" fill="#FCBE99"/>
</g>
<path d="M539.751 409.848L541.796 554.923C541.796 557.872 567.629 564.029 599.404 564.029C631.179 564.029 657.012 557.872 657.012 554.923L659.165 409.848H539.751Z" fill="#313F5E"/>
<path d="M658.948 417.468H539.491C538.479 417.468 537.507 417.068 536.789 416.354C536.071 415.64 535.665 414.671 535.659 413.658C535.665 412.646 536.071 411.676 536.789 410.962C537.507 410.248 538.479 409.848 539.491 409.848H658.948C659.961 409.848 660.932 410.248 661.65 410.962C662.368 411.676 662.775 412.646 662.78 413.658C662.775 414.671 662.368 415.64 661.65 416.354C660.932 417.068 659.961 417.468 658.948 417.468Z" fill="#313F5E"/>
<g style="mix-blend-mode:multiply" opacity="0.43">
<path d="M581.451 531.565C568.782 536.617 554.735 537.021 541.797 532.706V554.923C541.797 557.872 567.63 564.029 599.405 564.029C631.18 564.029 657.013 557.872 657.013 554.923L658.434 426.898C650.383 465.626 629.178 511.824 581.451 531.565Z" fill="#313F5E"/>
</g>
<path d="M584.227 409.116H554.196C552.814 409.116 551.489 409.665 550.512 410.642C549.535 411.619 548.986 412.944 548.986 414.325V426.532C548.966 427.361 549.241 428.171 549.761 428.817C550.281 429.464 551.013 429.905 551.828 430.062C552.317 430.147 552.819 430.124 553.298 429.994C553.777 429.864 554.222 429.631 554.602 429.311C554.982 428.991 555.286 428.592 555.495 428.141C555.704 427.691 555.812 427.2 555.811 426.704V424.271C555.809 422.713 556.138 421.172 556.775 419.75C557.411 418.328 558.342 417.056 559.505 416.02C560.668 414.983 562.037 414.203 563.523 413.733C565.008 413.263 566.577 413.113 568.124 413.292H568.835C573.156 413.974 577.088 416.186 579.914 419.525C582.739 422.865 584.27 427.109 584.227 431.483V446.143C584.188 448.037 584.871 449.875 586.139 451.283C587.407 452.691 589.164 453.563 591.052 453.721C592.028 453.774 593.005 453.627 593.922 453.289C594.84 452.951 595.679 452.43 596.388 451.757C597.097 451.084 597.662 450.274 598.047 449.375C598.433 448.476 598.631 447.509 598.629 446.531V423.927C598.62 423.095 598.873 422.281 599.352 421.601C599.831 420.921 600.512 420.409 601.299 420.138C601.823 419.983 602.367 419.903 602.913 419.901C603.988 419.901 605.038 420.223 605.927 420.827C606.425 421.187 606.827 421.664 607.098 422.215C607.368 422.767 607.498 423.377 607.477 423.991V458.048C607.484 459.121 607.844 460.162 608.502 461.011C609.159 461.859 610.078 462.467 611.115 462.741C612.537 463.118 613.793 463.958 614.685 465.127C615.578 466.296 616.056 467.729 616.045 469.2V485.84C616.03 487.959 616.798 490.009 618.2 491.598C619.602 493.187 621.54 494.203 623.644 494.452C624.815 494.572 625.999 494.445 627.117 494.079C628.236 493.713 629.265 493.116 630.138 492.326C631.011 491.536 631.708 490.572 632.184 489.496C632.66 488.419 632.905 487.254 632.901 486.077V419.341C632.901 418.352 633.293 417.402 633.991 416.7C634.689 415.998 635.636 415.601 636.626 415.596C636.912 415.573 637.2 415.573 637.487 415.596C638.389 415.773 639.199 416.264 639.774 416.981C640.349 417.698 640.652 418.595 640.63 419.514V444.314C640.59 446.207 641.27 448.044 642.532 449.455C643.795 450.866 645.547 451.744 647.433 451.913C648.41 451.965 649.388 451.819 650.306 451.481C651.225 451.144 652.066 450.623 652.777 449.95C653.488 449.277 654.054 448.467 654.442 447.568C654.83 446.67 655.03 445.701 655.032 444.723V415.423C655.032 413.745 654.365 412.135 653.178 410.948C651.991 409.761 650.381 409.094 648.703 409.094L584.227 409.116Z" fill="#0060FF"/>
<path opacity="0.61" d="M620.373 490.146C620.021 490.149 619.673 490.082 619.348 489.949C619.023 489.816 618.727 489.619 618.479 489.371C618.23 489.122 618.034 488.827 617.901 488.502C617.767 488.176 617.7 487.828 617.703 487.477L619.296 453.678L623.042 487.477C623.042 488.185 622.761 488.864 622.26 489.364C621.76 489.865 621.081 490.146 620.373 490.146Z" fill="white"/>
<path opacity="0.61" d="M643.449 447.37C643.095 447.37 642.755 447.23 642.505 446.98C642.255 446.729 642.114 446.39 642.114 446.036L642.911 429.136L644.784 446.036C644.784 446.39 644.643 446.729 644.393 446.98C644.142 447.23 643.803 447.37 643.449 447.37Z" fill="white"/>
<path opacity="0.61" d="M609.866 461.062C609.472 461.062 609.094 460.906 608.816 460.627C608.537 460.349 608.381 459.971 608.381 459.577L609.264 440.869L611.416 459.577C611.416 459.778 611.376 459.976 611.297 460.161C611.219 460.345 611.103 460.512 610.959 460.651C610.814 460.79 610.642 460.898 610.455 460.968C610.267 461.039 610.067 461.071 609.866 461.062Z" fill="white"/>
<path opacity="0.61" d="M587.047 449.244C586.853 449.244 586.661 449.205 586.482 449.13C586.303 449.055 586.14 448.945 586.004 448.807C585.868 448.669 585.761 448.505 585.688 448.325C585.616 448.145 585.58 447.952 585.583 447.758L586.466 429.051L588.619 447.758C588.619 447.961 588.578 448.161 588.498 448.347C588.418 448.533 588.301 448.701 588.154 448.84C588.006 448.979 587.832 449.087 587.642 449.156C587.452 449.226 587.249 449.255 587.047 449.244Z" fill="white"/>
<path opacity="0.61" d="M550.126 427.565C549.932 427.565 549.746 427.488 549.609 427.35C549.472 427.213 549.395 427.027 549.395 426.833L549.825 417.468L550.88 426.833C550.874 427.029 550.792 427.215 550.652 427.352C550.511 427.488 550.323 427.565 550.126 427.565Z" fill="white"/>
<g style="mix-blend-mode:multiply" opacity="0.43">
<g style="mix-blend-mode:multiply" opacity="0.43">
<path d="M657.013 504.849C654.441 510.151 651.176 515.089 647.304 519.531C637.466 530.618 624.334 536.56 608.274 537.205C584.594 538.174 565.929 531.565 552.711 517.615C548.37 512.974 544.696 507.75 541.797 502.094V513.03C543.835 516.021 546.102 518.85 548.578 521.49C562.076 535.742 580.654 543.018 603.84 543.018C605.368 543.018 606.918 543.018 608.49 543.018C626.164 542.307 640.652 535.72 651.545 523.449C653.526 521.193 655.353 518.805 657.013 516.302V504.849Z" fill="#313F5E"/>
</g>
<g style="mix-blend-mode:multiply" opacity="0.43">
<path d="M654.451 437.748C654.448 438.453 654.71 439.134 655.184 439.656C655.658 440.178 656.311 440.503 657.013 440.568V434.949C656.314 435.013 655.665 435.336 655.191 435.853C654.717 436.371 654.454 437.046 654.451 437.748Z" fill="#313F5E"/>
</g>
<g style="mix-blend-mode:multiply" opacity="0.43">
<path d="M541.797 440.008C542.145 439.742 542.427 439.401 542.621 439.008C542.815 438.616 542.916 438.185 542.916 437.747C542.916 437.31 542.815 436.878 542.621 436.486C542.427 436.094 542.145 435.752 541.797 435.487V440.008Z" fill="#313F5E"/>
</g>
</g>
<path d="M538.05 432.451H527.286C527.286 432.451 517.168 538.389 608.359 534.73C679.185 531.888 671.306 432.451 671.306 432.451H661.403" stroke="#5A657E" stroke-width="2.63" stroke-miterlimit="10" stroke-linecap="round"/>
<g style="mix-blend-mode:multiply" opacity="0.21">
<path d="M658.907 418.954L658.95 417.038H539.858L539.901 418.954H658.907Z" fill="#313F5E"/>
</g>
<g opacity="0.61">
<path opacity="0.61" d="M553.55 410.494L581.794 411.118L553.571 412.539C553.325 412.503 553.101 412.38 552.938 412.192C552.776 412.004 552.687 411.765 552.687 411.516C552.687 411.268 552.776 411.028 552.938 410.84C553.101 410.652 553.325 410.529 553.571 410.494H553.55Z" fill="white"/>
</g>
<path d="M548.986 414.412V417.468H558.157C559.318 415.974 560.846 414.804 562.592 414.072C564.338 413.34 566.244 413.072 568.124 413.292H568.835C572.154 413.776 575.268 415.195 577.812 417.382H633.525C633.872 416.879 634.335 416.465 634.874 416.177C635.413 415.889 636.014 415.734 636.625 415.725C636.912 415.703 637.2 415.703 637.486 415.725C637.977 415.808 638.445 415.992 638.86 416.267C639.275 416.541 639.629 416.899 639.897 417.318H654.967V415.165C654.963 414.011 654.642 412.88 654.038 411.897C653.434 410.913 652.571 410.115 651.544 409.589H551.763C550.888 410.044 550.162 410.74 549.67 411.595C549.178 412.449 548.94 413.427 548.986 414.412Z" fill="#0060FF"/>
<path d="M740.885 682.324H527.825C523.83 682.324 520.592 685.562 520.592 689.557V690.031C520.592 694.026 523.83 697.264 527.825 697.264H740.885C744.88 697.264 748.118 694.026 748.118 690.031V689.557C748.118 685.562 744.88 682.324 740.885 682.324Z" fill="#44291C"/>
<g style="mix-blend-mode:multiply" opacity="0.3">
<path d="M741.099 692.183H527.609C526.136 692.155 524.709 691.664 523.53 690.779C522.352 689.894 521.481 688.66 521.043 687.253C520.75 688.069 520.598 688.927 520.591 689.794C520.533 691.714 521.24 693.58 522.555 694.98C523.871 696.381 525.689 697.202 527.609 697.264H741.099C743.02 697.202 744.838 696.381 746.153 694.98C747.469 693.58 748.175 691.714 748.117 689.794C748.111 688.927 747.958 688.069 747.665 687.253C747.224 688.659 746.353 689.89 745.176 690.775C743.998 691.659 742.572 692.152 741.099 692.183Z" fill="#44291C"/>
</g>
<path d="M736.641 806.043H527.995C524.036 806.043 520.826 809.253 520.826 813.212V813.815C520.826 817.774 524.036 820.984 527.995 820.984H736.641C740.6 820.984 743.81 817.774 743.81 813.815V813.212C743.81 809.253 740.6 806.043 736.641 806.043Z" fill="#44291C"/>
<g style="mix-blend-mode:multiply" opacity="0.3">
<path d="M736.922 815.882H527.694C526.238 815.849 524.829 815.356 523.669 814.475C522.509 813.593 521.658 812.368 521.236 810.973C520.959 811.792 520.814 812.649 520.806 813.514C520.73 815.414 521.41 817.267 522.697 818.667C523.984 820.067 525.773 820.9 527.673 820.984H736.901C738.804 820.905 740.599 820.075 741.891 818.674C743.182 817.273 743.865 815.417 743.789 813.514C743.785 812.647 743.632 811.788 743.337 810.973C742.921 812.363 742.076 813.585 740.925 814.466C739.773 815.348 738.372 815.843 736.922 815.882Z" fill="#44291C"/>
</g>
<path d="M689.884 571.521L726.761 897.579" stroke="#44291C" stroke-width="7.58" stroke-miterlimit="10" stroke-linecap="round"/>
<path d="M541.688 897.579L578.587 571.521" stroke="#44291C" stroke-width="7.58" stroke-miterlimit="10" stroke-linecap="round"/>
<path d="M744.78 556.581H524.164C518.196 556.581 513.357 561.419 513.357 567.388V575.654C513.357 581.623 518.196 586.461 524.164 586.461H744.78C750.749 586.461 755.587 581.623 755.587 575.654V567.388C755.587 561.419 750.749 556.581 744.78 556.581Z" fill="#5B3725"/>
<path d="M751.497 917.966L714.62 571.521" stroke="#5B3725" stroke-width="7.58" stroke-miterlimit="10" stroke-linecap="round"/>
<path d="M516.242 917.966L553.119 571.521" stroke="#5B3725" stroke-width="7.58" stroke-miterlimit="10" stroke-linecap="round"/>
<g style="mix-blend-mode:multiply">
<path d="M755.586 845.827C755.589 844.7 755.179 843.611 754.433 842.766C753.688 841.921 752.658 841.379 751.539 841.242L752.486 850.176C753.391 849.863 754.175 849.276 754.731 848.496C755.286 847.717 755.585 846.784 755.586 845.827Z" fill="#5B3725"/>
</g>
<path d="M735.115 841.177H750.937H751.54L737.784 712.011H721.38L735.115 841.177Z" fill="#5B3725"/>
<path d="M720.39 702.732H736.794L725.987 601.401H709.583L720.39 702.732Z" fill="#5B3725"/>
<path d="M759.613 917.105L752.487 850.175C751.991 850.362 751.467 850.464 750.937 850.476H736.104L743.402 918.848C743.615 920.847 744.56 922.696 746.054 924.039C747.549 925.382 749.487 926.125 751.497 926.125C751.783 926.146 752.071 926.146 752.358 926.125C753.428 926.012 754.465 925.689 755.41 925.174C756.354 924.659 757.188 923.962 757.862 923.124C758.536 922.286 759.038 921.322 759.338 920.289C759.639 919.256 759.732 918.174 759.613 917.105Z" fill="#5B3725"/>
<g style="mix-blend-mode:multiply">
<path d="M725.987 601.401L724.394 586.461H707.99L709.583 601.401H725.987Z" fill="#5B3725"/>
</g>
<g style="mix-blend-mode:multiply">
<path d="M701.403 601.401L699.81 586.461H683.406L684.999 601.401H701.403Z" fill="#5B3725"/>
</g>
<g style="mix-blend-mode:multiply">
<path d="M721.379 712.032H737.783L736.793 702.732H720.389L721.379 712.032Z" fill="#5B3725"/>
</g>
<g style="mix-blend-mode:multiply">
<path d="M752.488 850.176L751.541 841.242H750.938H735.115L736.106 850.542H750.938C751.472 850.508 751.996 850.385 752.488 850.176Z" fill="#5B3725"/>
</g>
<path d="M561.234 572.382C561.362 570.285 560.677 568.22 559.32 566.616C557.964 565.012 556.041 563.993 553.952 563.771C551.864 563.549 549.77 564.142 548.107 565.425C546.443 566.708 545.339 568.583 545.024 570.66L543.323 586.461H559.749L561.234 572.382Z" fill="#5B3725"/>
<path d="M532.627 841.177L546.361 712.011H529.957L516.18 841.521C516.758 841.276 517.381 841.152 518.009 841.155L532.627 841.177Z" fill="#5B3725"/>
<path d="M558.156 601.401H541.752L530.945 702.732H547.349L558.156 601.401Z" fill="#5B3725"/>
<path d="M515.317 849.658L508.127 917.169C508.013 918.235 508.111 919.313 508.414 920.341C508.718 921.369 509.221 922.327 509.894 923.161C510.568 923.995 511.399 924.687 512.341 925.2C513.283 925.712 514.316 926.034 515.382 926.146C515.668 926.168 515.956 926.168 516.243 926.146C518.252 926.147 520.191 925.404 521.686 924.061C523.18 922.717 524.125 920.868 524.337 918.87L531.635 850.498H518.008C517.046 850.505 516.105 850.211 515.317 849.658Z" fill="#5B3725"/>
<g style="mix-blend-mode:multiply">
<path d="M559.73 586.461H543.347L541.754 601.401H558.158L559.73 586.461Z" fill="#5B3725"/>
</g>
<g style="mix-blend-mode:multiply">
<path d="M585.046 586.461H568.642L567.049 601.401H583.453L585.046 586.461Z" fill="#5B3725"/>
</g>
<g style="mix-blend-mode:multiply">
<path d="M547.35 702.732H530.946L529.956 712.032H546.36L547.35 702.732Z" fill="#5B3725"/>
</g>
<g style="mix-blend-mode:multiply">
<path d="M518.008 841.177C517.38 841.173 516.757 841.298 516.179 841.543L515.317 849.594C516.1 850.162 517.041 850.471 518.008 850.477H531.635L532.626 841.177H518.008Z" fill="#5B3725"/>
</g>
<path d="M748.18 705.423H520.827C519.846 705.423 518.874 705.23 517.968 704.855C517.062 704.479 516.238 703.929 515.544 703.235C514.851 702.542 514.3 701.718 513.925 700.812C513.55 699.905 513.356 698.934 513.356 697.953C513.356 695.972 514.143 694.072 515.544 692.671C516.945 691.27 518.845 690.483 520.827 690.483H748.18C750.16 690.489 752.057 691.277 753.456 692.677C754.856 694.077 755.645 695.974 755.651 697.953C755.651 698.934 755.457 699.905 755.082 700.812C754.707 701.718 754.156 702.542 753.463 703.235C752.769 703.929 751.945 704.479 751.039 704.855C750.133 705.23 749.161 705.423 748.18 705.423Z" fill="#5B3725"/>
<g style="mix-blend-mode:multiply" opacity="0.3">
<path d="M748.18 700.321H520.827C519.297 700.323 517.804 699.853 516.552 698.974C515.299 698.096 514.349 696.852 513.83 695.413C513.518 696.224 513.358 697.085 513.356 697.953C513.356 699.934 514.143 701.834 515.544 703.235C516.945 704.636 518.845 705.423 520.827 705.423H748.18C750.162 705.423 752.062 704.636 753.463 703.235C754.864 701.834 755.651 699.934 755.651 697.953C755.639 697.086 755.479 696.226 755.177 695.413C754.656 696.85 753.704 698.092 752.453 698.97C751.201 699.848 749.709 700.32 748.18 700.321Z" fill="#5B3725"/>
</g>
<g style="mix-blend-mode:multiply" opacity="0.29">
<path d="M744.781 578.41H524.165C521.31 578.41 518.573 577.276 516.554 575.258C514.535 573.239 513.401 570.501 513.401 567.646V575.784C513.401 578.639 514.535 581.377 516.554 583.395C518.573 585.414 521.31 586.548 524.165 586.548H744.781C747.636 586.548 750.374 585.414 752.392 583.395C754.411 581.377 755.545 578.639 755.545 575.784V567.646C755.545 570.501 754.411 573.239 752.392 575.258C750.374 577.276 747.636 578.41 744.781 578.41Z" fill="#5B3725"/>
</g>
<path d="M748.185 843.782H520.831C518.85 843.782 516.95 842.995 515.549 841.594C514.148 840.193 513.361 838.293 513.361 836.312C513.361 834.33 514.148 832.43 515.549 831.03C516.95 829.629 518.85 828.842 520.831 828.842H748.185C750.167 828.842 752.067 829.629 753.468 831.03C754.868 832.43 755.655 834.33 755.655 836.312C755.655 838.293 754.868 840.193 753.468 841.594C752.067 842.995 750.167 843.782 748.185 843.782Z" fill="#5B3725"/>
<g style="mix-blend-mode:multiply" opacity="0.3">
<path d="M755.051 833.599C754.512 835 753.561 836.204 752.323 837.053C751.086 837.903 749.62 838.357 748.119 838.357H520.83C519.327 838.353 517.861 837.897 516.621 837.048C515.381 836.2 514.425 834.998 513.876 833.599C513.43 834.731 513.267 835.954 513.403 837.163C513.538 838.372 513.968 839.529 514.654 840.534C515.34 841.538 516.261 842.36 517.338 842.926C518.415 843.492 519.613 843.786 520.83 843.782H748.184C750.165 843.782 752.065 842.995 753.466 841.594C754.867 840.193 755.654 838.293 755.654 836.312C755.634 835.377 755.429 834.455 755.051 833.599Z" fill="#5B3725"/>
</g>
<path d="M681.445 554.879H631.328C630.825 554.857 630.324 554.962 629.871 555.184C629.419 555.406 629.029 555.737 628.738 556.148C628.447 556.559 628.263 557.037 628.204 557.537C628.145 558.038 628.213 558.545 628.4 559.013C628.265 559.225 628.19 559.471 628.185 559.723V563.34C628.18 563.58 628.259 563.815 628.408 564.004C628.557 564.192 628.768 564.323 629.003 564.373C630.402 564.588 630.079 562.909 630.166 562.113C630.163 561.93 630.212 561.75 630.307 561.593C630.402 561.437 630.54 561.311 630.704 561.23C630.888 561.187 631.079 561.187 631.264 561.23C632.819 561.327 634.379 561.327 635.935 561.23C636.925 561.23 637.27 561.467 637.722 562.285C638.149 563.079 638.371 563.967 638.368 564.868V569.174C638.366 569.716 638.569 570.239 638.936 570.638C639.303 571.037 639.808 571.283 640.348 571.326C640.919 571.326 641.467 571.1 641.87 570.696C642.274 570.292 642.501 569.745 642.501 569.174V562.479C642.497 562.237 642.57 562.001 642.71 561.803C642.849 561.606 643.047 561.458 643.276 561.381C643.426 561.358 643.578 561.358 643.728 561.381C644.041 561.377 644.349 561.467 644.611 561.639C644.751 561.749 644.864 561.89 644.943 562.05C645.021 562.21 645.062 562.386 645.063 562.565V572.403C645.062 572.711 645.162 573.011 645.349 573.257C645.536 573.502 645.798 573.678 646.096 573.759C646.506 573.867 646.869 574.107 647.129 574.442C647.39 574.776 647.534 575.187 647.538 575.61V580.454C647.527 581.065 647.74 581.658 648.137 582.122C648.534 582.586 649.087 582.889 649.691 582.973C650.028 583.006 650.368 582.968 650.69 582.862C651.011 582.756 651.307 582.584 651.559 582.357C651.81 582.13 652.011 581.853 652.149 581.544C652.287 581.235 652.359 580.9 652.361 580.562V565.385C652.361 564.588 651.952 561.402 652.77 561.079C653.146 561.004 653.534 561.004 653.911 561.079C654.078 561.075 654.242 561.12 654.384 561.208C654.944 561.596 654.643 562.715 654.643 563.361C654.643 565.105 654.643 566.849 654.643 568.614C654.64 569.153 654.84 569.673 655.203 570.072C655.566 570.47 656.065 570.718 656.602 570.767C657.173 570.767 657.72 570.54 658.124 570.136C658.528 569.732 658.754 569.185 658.754 568.614V564.739C658.754 563.797 659.129 562.893 659.795 562.227C660.461 561.561 661.364 561.187 662.306 561.187H681.445C681.878 561.223 682.314 561.169 682.725 561.027C683.136 560.886 683.513 560.662 683.833 560.367C684.153 560.073 684.408 559.715 684.583 559.317C684.757 558.919 684.847 558.489 684.847 558.055C684.847 557.62 684.757 557.19 684.583 556.792C684.408 556.394 684.153 556.036 683.833 555.742C683.513 555.448 683.136 555.223 682.725 555.082C682.314 554.941 681.878 554.886 681.445 554.922V554.879Z" fill="#0060FF"/>
<path opacity="0.61" d="M648.83 580.562C648.624 580.562 648.427 580.48 648.282 580.335C648.136 580.19 648.055 579.993 648.055 579.787L648.507 570.013L649.583 579.787C649.583 579.989 649.505 580.183 649.364 580.328C649.223 580.472 649.032 580.556 648.83 580.562Z" fill="white"/>
<path opacity="0.61" d="M645.794 572.102C645.68 572.102 645.57 572.056 645.489 571.975C645.409 571.895 645.363 571.785 645.363 571.671L645.622 566.268L646.203 571.671C646.206 571.727 646.197 571.782 646.178 571.834C646.159 571.886 646.129 571.934 646.091 571.974C646.053 572.015 646.007 572.047 645.956 572.069C645.904 572.09 645.849 572.102 645.794 572.102Z" fill="white"/>
<path opacity="0.61" d="M639.185 568.701C639.071 568.701 638.962 568.655 638.881 568.575C638.8 568.494 638.755 568.384 638.755 568.27L639.013 562.867L639.616 568.27C639.616 568.384 639.571 568.494 639.49 568.575C639.409 568.655 639.3 568.701 639.185 568.701Z" fill="white"/>
<path opacity="0.61" d="M628.528 562.414C628.5 562.414 628.472 562.409 628.445 562.398C628.419 562.387 628.396 562.371 628.376 562.351C628.356 562.331 628.34 562.308 628.329 562.281C628.318 562.255 628.312 562.227 628.312 562.199L628.442 559.508L628.743 562.199C628.746 562.228 628.743 562.258 628.734 562.285C628.724 562.313 628.708 562.338 628.688 562.359C628.667 562.38 628.642 562.395 628.614 562.405C628.586 562.415 628.557 562.418 628.528 562.414Z" fill="white"/>
<path d="M849.362 884.512H812.292C810.304 884.542 808.334 884.135 806.52 883.32C804.707 882.504 803.095 881.3 801.799 879.792C800.503 878.285 799.555 876.511 799.02 874.595C798.486 872.68 798.379 870.671 798.708 868.71L802.195 840.466C802.769 836.196 804.837 832.267 808.034 829.378C811.23 826.489 815.348 824.826 819.654 824.686H882.085C886.392 824.551 890.512 822.89 893.709 820C896.907 817.11 898.974 813.179 899.544 808.907L932.459 541.963" stroke="#5B3725" stroke-width="5.91" stroke-miterlimit="10"/>
<path d="M951.833 860.896L828.695 860.659C824.389 860.121 819.438 869.894 817.931 882.51C816.854 891.293 817.672 899.021 819.739 903.09C819.956 904 820.477 904.809 821.218 905.381C821.958 905.953 822.872 906.254 823.808 906.233L947.355 906.104C951.252 905.716 954.158 900.528 954.89 894.608L955.557 871.617C956.268 865.696 957.645 860.896 951.833 860.896Z" fill="#FFD99A"/>
<path d="M951.834 860.896L885.27 860.767C883.557 860.767 881.915 861.447 880.703 862.659C879.492 863.87 878.812 865.513 878.812 867.225C878.812 868.938 878.132 870.581 876.92 871.792C875.709 873.003 874.066 873.684 872.354 873.684H819.632C818.838 876.579 818.262 879.529 817.91 882.51C817.652 884.555 817.523 886.536 817.458 888.43H878.274C881.285 888.421 884.248 889.179 886.885 890.633C889.522 892.086 891.744 894.188 893.343 896.74C895.105 899.597 897.565 901.959 900.491 903.605C903.417 905.251 906.713 906.125 910.07 906.147H947.399C951.296 905.76 954.202 900.572 954.934 894.652L955.601 871.66C956.269 865.697 957.646 860.896 951.834 860.896Z" fill="#0060FF"/>
<g style="mix-blend-mode:multiply" opacity="0.51">
<path d="M943.31 895.964H828.998C827.645 895.987 826.303 895.711 825.069 895.156C823.835 894.6 822.738 893.779 821.858 892.751C820.978 891.723 820.335 890.513 819.977 889.208C819.619 887.902 819.553 886.534 819.784 885.2L818.493 895.555C818.265 896.888 818.334 898.255 818.694 899.559C819.054 900.862 819.696 902.07 820.576 903.098C821.455 904.125 822.55 904.946 823.782 905.503C825.015 906.06 826.354 906.338 827.707 906.319H942.019C944.951 906.222 947.753 905.086 949.925 903.114C952.098 901.143 953.499 898.464 953.88 895.555L955.151 885.2C954.774 888.107 953.377 890.786 951.208 892.758C949.039 894.729 946.24 895.866 943.31 895.964Z" fill="#FFD99A"/>
</g>
<g style="mix-blend-mode:screen" opacity="0.45">
<path d="M817.908 889.312C819.436 876.697 820.341 867.461 828.672 867.461L951.81 867.677C953.963 867.677 955.233 868.409 955.771 869.636C956.46 864.663 956.955 860.895 951.81 860.895L828.672 860.659C824.366 860.12 819.415 869.894 817.908 882.509C817.462 886.079 817.346 889.682 817.564 893.273C817.628 892.003 817.736 890.69 817.908 889.312Z" fill="#0060FF"/>
</g>
<path d="M922.749 633.865H919.821C918.323 633.881 916.84 633.57 915.474 632.952C914.109 632.334 912.896 631.425 911.92 630.289C910.943 629.152 910.227 627.816 909.822 626.373C909.417 624.931 909.332 623.417 909.574 621.938L920.338 535.418C920.77 532.196 922.331 529.231 924.743 527.051C927.156 524.871 930.263 523.617 933.513 523.514H936.441C937.938 523.494 939.421 523.802 940.787 524.418C942.152 525.033 943.365 525.94 944.342 527.075C945.319 528.21 946.035 529.545 946.441 530.986C946.846 532.428 946.93 533.941 946.688 535.418L935.924 621.938C935.497 625.165 933.938 628.135 931.526 630.319C929.113 632.504 926.002 633.76 922.749 633.865Z" fill="#FFD99A"/>
<g style="mix-blend-mode:multiply" opacity="0.51">
<g style="mix-blend-mode:multiply" opacity="0.42">
<path d="M940.747 524.439L930.392 608.397C929.969 611.624 928.411 614.594 925.996 616.775C923.582 618.957 920.47 620.207 917.217 620.302H914.29C912.807 620.301 911.342 619.993 909.984 619.398L909.661 621.895C909.419 623.374 909.504 624.888 909.909 626.33C910.314 627.773 911.03 629.109 912.006 630.246C912.983 631.382 914.196 632.291 915.561 632.909C916.926 633.527 918.41 633.838 919.908 633.822H922.836C926.086 633.718 929.194 632.465 931.606 630.285C934.019 628.105 935.58 625.14 936.011 621.917L946.775 535.397C947.098 533.164 946.685 530.886 945.597 528.908C944.51 526.931 942.807 525.362 940.747 524.439Z" fill="#FFD99A"/>
</g>
</g>
<path d="M958.185 884.469C956.656 897.084 951.726 906.879 947.421 906.319C943.115 905.759 940.661 895.125 942.19 882.51C943.718 869.894 948.648 860.121 952.954 860.659C957.259 861.197 959.735 871.853 958.185 884.469Z" fill="#0060FF"/>
<path d="M954.01 884.102C953.493 888.214 951.491 891.335 949.532 891.099C947.573 890.862 946.346 887.331 946.862 883.241C947.379 879.151 949.36 876.008 951.34 876.244C953.321 876.481 954.505 880.012 954.01 884.102Z" fill="#5B3725"/>
</svg>
