<svg width="100" height="45" viewBox="0 0 100 45" fill="black" xmlns="http://www.w3.org/2000/svg">
<g clip-path="url(#clip0_1_2)">
<path d="M74.4177 25.141H70.8157V20.3785H74.2995C75.4818 20.3785 76.3777 20.5699 76.9616 20.9471C77.5305 21.3149 77.8071 21.8961 77.8071 22.7239C77.8071 24.3504 76.6984 25.141 74.4177 25.141ZM70.8157 13.334H73.4968C74.7418 13.334 75.6759 13.4748 76.2732 13.7528C76.8368 14.0155 77.1107 14.5406 77.1107 15.3583C77.1107 15.7383 77.0193 16.0861 76.8352 16.3979C76.6013 16.8326 76.2736 17.1187 75.8338 17.2727C75.3766 17.4324 74.7134 17.5135 73.8629 17.5135H70.8157V13.334ZM78.5348 18.6979C80.0871 17.856 80.8736 16.578 80.8736 14.8941C80.8736 14.3691 80.7866 13.8637 80.6157 13.3919C80.4448 12.9201 80.193 12.483 79.867 12.0927C79.5429 11.7041 79.1636 11.3779 78.7407 11.1234C78.245 10.8209 77.6777 10.6133 77.0539 10.5068C76.4421 10.4028 75.71 10.35 74.8779 10.35H69.2705C68.4814 10.35 67.8963 10.5366 67.5318 10.9041C67.1668 11.2719 66.9818 11.8695 66.9818 12.6809V23.5397V25.794V28.125H69.2705H70.272H74.5595C75.4757 28.125 76.2893 28.0784 76.977 27.9866C77.6723 27.8944 78.2982 27.7322 78.8396 27.5042C79.7079 27.1199 80.4075 26.5162 80.9186 25.7107C81.4291 24.9059 81.6884 23.9893 81.6884 22.9858C81.6884 20.9245 80.628 19.4836 78.5348 18.6979Z" fill="black"/>
<path d="M55.7082 14.4825L55.7295 14.5411L55.7507 14.4825L58.072 21.0051H55.7295H53.3871L55.7082 14.4825ZM52.3554 23.9769H55.7295H59.1037L60.6146 28.096H64.5841L63.4814 25.286C63.4271 25.142 63.3679 24.9887 63.2993 24.8173L58.438 12.3688C58.2582 11.9057 58.063 11.5143 57.8573 11.2054C57.6443 10.8853 57.3609 10.6227 57.0146 10.4251C56.6659 10.2262 56.2336 10.1252 55.7295 10.1251C55.2254 10.1252 54.7932 10.2262 54.4445 10.4251C54.0982 10.6227 53.8148 10.8853 53.6018 11.2054C53.3961 11.5143 53.2007 11.9057 53.0211 12.3688L48.1598 24.8173C48.0912 24.9887 48.032 25.142 47.9775 25.286L46.875 28.096H50.8445L52.3554 23.9769Z" fill="black"/>
<path d="M91.45 25.141H87.848V20.3785H91.3316C92.5141 20.3785 93.4098 20.5699 93.9937 20.9471C94.5629 21.3149 94.8393 21.8961 94.8393 22.7239C94.8393 24.3504 93.7307 25.141 91.45 25.141ZM87.848 13.334H90.5289C91.7739 13.334 92.708 13.4748 93.3054 13.7528C93.8689 14.0155 94.1429 14.5406 94.1429 15.3583C94.1429 15.7383 94.0514 16.0861 93.8675 16.3979C93.6336 16.8326 93.3059 17.1187 92.8659 17.2727C92.4089 17.4324 91.7455 17.5135 90.8952 17.5135H87.848V13.334ZM95.567 18.6979C97.1193 17.856 97.9057 16.578 97.9057 14.8941C97.9057 14.3691 97.8189 13.8637 97.648 13.3919C97.4771 12.9201 97.2254 12.483 96.8993 12.0927C96.575 11.7041 96.1957 11.3779 95.7729 11.1234C95.2771 10.8209 94.7098 10.6133 94.0861 10.5068C93.4745 10.4028 92.7423 10.35 91.9102 10.35H86.3027C85.5137 10.35 84.9286 10.5366 84.5639 10.9041C84.1989 11.2719 84.0141 11.8695 84.0141 12.6809V23.5397V25.794V28.125H86.3027H87.3043H91.5918C92.508 28.125 93.3214 28.0784 94.0093 27.9866C94.7045 27.8944 95.3304 27.7322 95.8718 27.5042C96.74 27.1199 97.4398 26.5162 97.9509 25.7107C98.4614 24.9059 98.7205 23.9893 98.7205 22.9858C98.7205 20.9245 97.6602 19.4836 95.567 18.6979Z" fill="black"/>
<path d="M8.38023 22.5C5.87554 18.4174 4.53491 13.5867 5.43591 8.69254C5.74329 7.02315 7.0722 5.72625 8.73614 5.4621C10.2249 5.22562 11.301 5.10716 13.4097 5.28379C12.6498 6.55549 12.2002 7.82381 11.7274 9.05647C10.6742 9.01789 9.60121 9.23029 9.26136 9.33592C8.40555 12.5245 9.50991 17.9836 12.8463 22.5H8.38023Z" fill="black"/>
<path d="M12.4634 12.5641C13.5562 7.89194 15.997 3.52051 20.0673 0.702058C21.4557 -0.259369 23.3052 -0.229106 24.6671 0.770008C25.8857 1.66393 26.7296 2.34725 28.097 3.97514C26.6675 4.33265 25.4598 4.9091 24.2609 5.44383C23.543 4.66578 22.6355 4.05119 22.3209 3.88368C19.4791 5.5283 16.4305 10.1758 15.6214 15.7474L12.4634 12.5641Z" fill="black"/>
<path d="M22.3214 8.44787C26.3718 5.92315 31.1639 4.57169 36.0193 5.4799C37.6755 5.78972 38.9621 7.12926 39.2243 8.80652C39.4587 10.3072 39.5762 11.3919 39.4011 13.5176C38.1395 12.7516 36.8812 12.2984 35.6584 11.8218C35.6966 10.7602 35.4859 9.67864 35.3811 9.33606C32.2177 8.47341 26.802 9.5866 22.3214 12.9497V8.44787Z" fill="black"/>
<path d="M32.1795 12.5632C36.8145 13.6648 41.1511 16.125 43.9471 20.2279C44.9011 21.6274 44.8711 23.4916 43.8798 24.8647C42.993 26.093 42.3152 26.9437 40.7002 28.3219C40.3454 26.881 39.7736 25.6637 39.243 24.455C40.015 23.7316 40.6246 22.8166 40.7909 22.4996C39.1591 19.6349 34.5488 16.562 29.0214 15.7465L32.1795 12.5632Z" fill="black"/>
<path d="M36.262 22.4993C38.7668 26.5819 40.1073 31.4125 39.2062 36.3067C38.8989 37.9762 37.57 39.2731 35.9061 39.5374C34.4173 39.7737 33.3412 39.8923 31.2325 39.7156C31.9923 38.4439 32.442 37.1756 32.9148 35.9428C33.968 35.9815 35.0411 35.7691 35.3809 35.6634C36.2366 32.4747 35.1323 27.0157 31.7959 22.4993H36.262Z" fill="black"/>
<path d="M32.1793 32.4364C31.0864 37.1084 28.6457 41.4797 24.5754 44.2982C23.187 45.2597 21.3375 45.2295 19.9755 44.2303C18.757 43.3364 17.913 42.6532 16.5457 41.0252C17.9752 40.6676 19.1829 40.0912 20.3818 39.5566C21.0996 40.3346 22.0073 40.9491 22.3218 41.1167C25.1636 39.472 28.2123 34.8246 29.0212 29.2531L32.1793 32.4364Z" fill="black"/>
<path d="M22.3221 36.5519C18.2718 39.0766 13.4796 40.4278 8.62427 39.5197C6.96802 39.2099 5.68154 37.8704 5.41936 36.1931C5.18487 34.6925 5.06725 33.6076 5.24246 31.4822C6.50418 32.2481 7.76234 32.7013 8.98521 33.1778C8.94704 34.2394 9.15775 35.321 9.26255 35.6636C12.4258 36.5263 17.8416 35.413 22.3221 32.0499V36.5519Z" fill="black"/>
<path d="M12.464 32.436C7.82893 31.3344 3.4923 28.8743 0.696105 24.7712C-0.257689 23.3717 -0.227666 21.5075 0.763629 20.1346C1.65035 18.9063 2.32825 18.0556 3.94332 16.6774C4.298 18.1183 4.86977 19.3356 5.40023 20.5443C4.62836 21.2677 4.01877 22.1825 3.85246 22.4996C5.48405 25.3643 10.0947 28.4373 15.622 29.2527L12.464 32.436Z" fill="black"/>
<path d="M47.7938 33.2519H48.6045L48.1973 32.3024L47.7938 33.2519ZM46.9761 34.1948L48.0123 31.8038H48.3959L49.4321 34.1948H48.9946L48.7559 33.6217H47.6423L47.4 34.1948H46.9761Z" fill="black"/>
<path d="M49.707 34.1948V33.9133L50.7332 32.7398H49.7441V32.4041H51.2514V32.6857L50.2252 33.8591H51.2514V34.1948H49.707Z" fill="black"/>
<path d="M52.8568 33.4253H51.9418C51.9552 33.5633 52.0011 33.6764 52.0796 33.7646C52.158 33.8528 52.2625 33.8967 52.3925 33.8967C52.5159 33.8967 52.6189 33.8539 52.702 33.7678C52.785 33.682 52.8366 33.5678 52.8568 33.4253ZM52.3488 32.3638C52.6089 32.3638 52.8261 32.4504 52.9998 32.6234C53.1736 32.7962 53.2605 33.0185 53.2605 33.2897V33.2964C53.2605 33.5588 53.1788 33.7802 53.015 33.9611C52.8511 34.142 52.6425 34.2326 52.3893 34.2326C52.12 34.2326 51.9109 34.1404 51.7616 33.9561C51.6125 33.7718 51.538 33.543 51.538 33.2692C51.538 33.2467 51.5402 33.2084 51.5446 33.154H52.85C52.8277 33.0095 52.7705 32.8975 52.6786 32.8183C52.5866 32.7391 52.4743 32.6997 52.3421 32.6997C52.1671 32.6997 52.0055 32.771 51.8577 32.9132L51.6188 32.6997C51.8048 32.4758 52.0482 32.3638 52.3488 32.3638Z" fill="black"/>
<path d="M53.6673 34.1948V32.4041H54.0779V32.8077C54.2034 32.5024 54.413 32.3566 54.7068 32.3701V32.8043H54.6834C54.4973 32.8043 54.3496 32.8649 54.2411 32.9857C54.1321 33.1067 54.0779 33.2825 54.0779 33.5131V34.1948H53.6673Z" fill="black"/>
<path d="M55.6089 33.7154C55.7098 33.8227 55.8321 33.8765 55.9755 33.8765C56.1191 33.8765 56.2396 33.8238 56.3371 33.7187C56.4348 33.6137 56.4836 33.4751 56.4836 33.3032V33.2964C56.4836 33.127 56.4343 32.9891 56.3357 32.8828C56.237 32.7764 56.117 32.7235 55.9755 32.7235C55.8321 32.7235 55.7098 32.7771 55.6089 32.8844C55.508 32.9918 55.4575 33.1292 55.4575 33.2964V33.3032C55.4575 33.4706 55.508 33.608 55.6089 33.7154ZM56.0732 34.2326C55.8264 34.2326 55.6246 34.1273 55.4675 33.917V34.1951H55.0571V31.7196H55.4675V32.7029C55.6246 32.4792 55.8264 32.3674 56.0732 32.3674C56.2952 32.3674 56.488 32.4509 56.6518 32.6183C56.8155 32.7856 56.8975 33.0116 56.8975 33.2964V33.3032C56.8975 33.5882 56.8161 33.8143 56.6536 33.9815C56.4909 34.1489 56.2975 34.2326 56.0732 34.2326Z" fill="black"/>
<path d="M57.9437 33.9341C58.0805 33.9341 58.1937 33.8985 58.2836 33.8272C58.3732 33.7561 58.418 33.6641 58.418 33.5509V33.4289C58.297 33.3814 58.1625 33.3576 58.0145 33.3576C57.882 33.3576 57.7795 33.3835 57.7064 33.4355C57.6336 33.4877 57.5973 33.5612 57.5973 33.656V33.6629C57.5973 33.7466 57.6296 33.8126 57.6948 33.8612C57.7598 33.9098 57.8429 33.9341 57.9437 33.9341ZM57.8295 34.2326C57.6521 34.2326 57.5023 34.184 57.3802 34.0868C57.2579 33.9896 57.197 33.8539 57.197 33.6796V33.6731C57.197 33.4831 57.2636 33.3396 57.397 33.2422C57.5304 33.145 57.7093 33.0964 57.9336 33.0964C58.0973 33.0964 58.2566 33.1214 58.4112 33.1711V33.127C58.4112 32.8671 58.2645 32.737 57.9705 32.737C57.8091 32.737 57.6398 32.7742 57.4625 32.8489L57.3516 32.5267C57.5782 32.4295 57.8023 32.3809 58.0245 32.3809C58.2891 32.3809 58.4854 32.4475 58.6132 32.5811C58.7411 32.7098 58.805 32.8943 58.805 33.1339V34.1951H58.408V33.9714C58.2645 34.1456 58.0716 34.2326 57.8295 34.2326Z" fill="black"/>
<path d="M59.9929 33.7334L60.4571 32.4041H60.8811L60.1746 34.2421C60.1027 34.4275 60.0232 34.558 59.9357 34.634C59.8482 34.7096 59.7327 34.7476 59.5893 34.7476C59.4389 34.7476 59.2987 34.7101 59.1686 34.6356L59.3066 34.3337C59.3918 34.3789 59.4714 34.4014 59.5455 34.4014C59.6059 34.4014 59.6548 34.3863 59.6918 34.3559C59.7287 34.3253 59.7641 34.2727 59.7979 34.198L59.0577 32.4041H59.495L59.9929 33.7334Z" fill="black"/>
<path d="M61.95 34.236C61.6875 34.236 61.4689 34.1462 61.2941 33.9665C61.1191 33.7867 61.0316 33.568 61.0316 33.3103V33.3034C61.0316 33.0457 61.1196 32.8253 61.2957 32.6421C61.4718 32.459 61.692 32.3676 61.957 32.3676C62.2371 32.3676 62.4737 32.4704 62.6668 32.6761L62.4111 32.9508C62.2696 32.8016 62.1171 32.7269 61.9534 32.7269C61.8077 32.7269 61.6854 32.7823 61.5866 32.893C61.4879 33.0039 61.4388 33.1384 61.4388 33.2966V33.3034C61.4388 33.464 61.4886 33.5997 61.5884 33.7104C61.6882 33.8211 61.8155 33.8765 61.9704 33.8765C62.1318 33.8765 62.2854 33.8031 62.4312 33.656L62.6768 33.9003C62.5802 34.0088 62.4759 34.092 62.3639 34.1496C62.2516 34.2072 62.1138 34.236 61.95 34.236Z" fill="black"/>
<path d="M63.6757 33.9341C63.8125 33.9341 63.9259 33.8985 64.0155 33.8272C64.1054 33.7561 64.1502 33.6641 64.1502 33.5509V33.4289C64.0289 33.3814 63.8945 33.3576 63.7464 33.3576C63.6141 33.3576 63.5114 33.3835 63.4386 33.4355C63.3657 33.4877 63.3293 33.5612 63.3293 33.656V33.6629C63.3293 33.7466 63.3618 33.8126 63.4268 33.8612C63.492 33.9098 63.5748 33.9341 63.6757 33.9341ZM63.5614 34.2326C63.3843 34.2326 63.2345 34.184 63.1123 34.0868C62.99 33.9896 62.9289 33.8539 62.9289 33.6796V33.6731C62.9289 33.4831 62.9955 33.3396 63.1291 33.2422C63.2625 33.145 63.4414 33.0964 63.6657 33.0964C63.8295 33.0964 63.9887 33.1214 64.1434 33.1711V33.127C64.1434 32.8671 63.9964 32.737 63.7027 32.737C63.5412 32.737 63.3718 32.7742 63.1946 32.8489L63.0837 32.5267C63.3102 32.4295 63.5345 32.3809 63.7566 32.3809C64.0212 32.3809 64.2175 32.4475 64.3454 32.5811C64.4732 32.7098 64.537 32.8943 64.537 33.1339V34.1951H64.14V33.9714C63.9964 34.1456 63.8036 34.2326 63.5614 34.2326Z" fill="black"/>
<path d="M65.0216 34.1948V32.4041H65.4321V32.6788C65.5802 32.4709 65.7652 32.3669 65.9871 32.3669C66.1866 32.3669 66.3421 32.4284 66.453 32.5517C66.5641 32.675 66.6196 32.8417 66.6196 33.052V34.1948H66.2125V33.1774C66.2125 33.0372 66.1795 32.9294 66.1134 32.8534C66.0471 32.7778 65.9536 32.7398 65.8325 32.7398C65.7114 32.7398 65.6143 32.7794 65.5414 32.8586C65.4686 32.9378 65.4321 33.0464 65.4321 33.1843V34.1948H65.0216Z" fill="black"/>
<path d="M70.1198 33.4994V33.4928C70.1198 33.2804 69.9582 33.1738 69.6354 33.1738H68.9791V33.8252H69.6655C69.8091 33.8252 69.9207 33.7973 70.0004 33.7419C70.08 33.6866 70.1198 33.6058 70.1198 33.4994ZM69.9886 32.499V32.4923C69.9886 32.3973 69.9532 32.3233 69.8825 32.2702C69.8118 32.2171 69.7093 32.1905 69.5746 32.1905H68.9791V32.8214H69.5445C69.6836 32.8214 69.7921 32.794 69.8707 32.7398C69.9493 32.6857 69.9886 32.6054 69.9886 32.499ZM68.5721 34.1948V31.8209H69.6286C69.8998 31.8209 70.105 31.891 70.2443 32.0312C70.3496 32.1374 70.4023 32.2684 70.4023 32.4245V32.4313C70.4023 32.6666 70.2902 32.8428 70.0661 32.9603C70.2184 33.0145 70.3345 33.0858 70.4141 33.1738C70.4938 33.2622 70.5336 33.3832 70.5336 33.5369V33.5437C70.5336 33.7516 70.455 33.9122 70.2982 34.0252C70.1411 34.1383 69.9291 34.1948 69.6621 34.1948H68.5721Z" fill="black"/>
<path d="M71.2604 33.1745H72.1721C72.1586 33.0365 72.1127 32.9236 72.0341 32.8352C71.9555 32.7472 71.8512 32.7031 71.7212 32.7031C71.5957 32.7031 71.4918 32.7461 71.41 32.832C71.3282 32.918 71.2782 33.032 71.2604 33.1745ZM71.7684 34.236C71.5082 34.236 71.2911 34.1496 71.1173 33.9764C70.9434 33.8036 70.8566 33.5803 70.8566 33.3068V33.3C70.8566 33.0377 70.9384 32.8167 71.1023 32.6371C71.2659 32.4572 71.4734 32.3674 71.7246 32.3674C71.9937 32.3674 72.2029 32.4596 72.352 32.6437C72.5011 32.828 72.5757 33.057 72.5757 33.3306C72.5757 33.3531 72.5736 33.3916 72.5691 33.4458H71.2636C71.2861 33.5905 71.3432 33.7023 71.4352 33.7815C71.5273 33.8607 71.6404 33.9003 71.775 33.9003C71.9479 33.9003 72.1082 33.829 72.2561 33.6866L72.495 33.9003C72.3066 34.124 72.0645 34.236 71.7684 34.236Z" fill="black"/>
<path d="M73.6684 33.7334L74.1327 32.4041H74.5566L73.85 34.2421C73.7782 34.4275 73.6986 34.558 73.6111 34.634C73.5236 34.7096 73.408 34.7476 73.2646 34.7476C73.1143 34.7476 72.9741 34.7101 72.8441 34.6356L72.9821 34.3337C73.0673 34.3789 73.1468 34.4014 73.2209 34.4014C73.2814 34.4014 73.3304 34.3863 73.3673 34.3559C73.4043 34.3253 73.4396 34.2727 73.4732 34.198L72.733 32.4041H73.1704L73.6684 33.7334Z" fill="black"/>
<path d="M74.9023 34.1948V32.4041H75.3129V32.6788C75.4609 32.4709 75.6459 32.3669 75.8679 32.3669C76.0675 32.3669 76.2229 32.4284 76.3337 32.5517C76.4448 32.675 76.5004 32.8417 76.5004 33.052V34.1948H76.0934V33.1774C76.0934 33.0372 76.0602 32.9294 75.9941 32.8534C75.9279 32.7778 75.8343 32.7398 75.7132 32.7398C75.5921 32.7398 75.4952 32.7794 75.4221 32.8586C75.3493 32.9378 75.3129 33.0464 75.3129 33.1843V34.1948H74.9023Z" fill="black"/>
<path d="M78.2109 33.4253H77.2957C77.3091 33.5633 77.3552 33.6764 77.4337 33.7646C77.5121 33.8528 77.6166 33.8967 77.7466 33.8967C77.8698 33.8967 77.973 33.8539 78.0561 33.7678C78.1389 33.682 78.1907 33.5678 78.2109 33.4253ZM77.7029 32.3638C77.963 32.3638 78.18 32.4504 78.3538 32.6234C78.5275 32.7962 78.6145 33.0185 78.6145 33.2897V33.2964C78.6145 33.5588 78.5327 33.7802 78.3689 33.9611C78.2052 34.142 77.9966 34.2326 77.7432 34.2326C77.4739 34.2326 77.2648 34.1404 77.1157 33.9561C76.9666 33.7718 76.8921 33.543 76.8921 33.2692C76.8921 33.2467 76.8943 33.2084 76.8988 33.154H78.2041C78.1816 33.0095 78.1246 32.8975 78.0325 32.8183C77.9405 32.7391 77.8284 32.6997 77.6961 32.6997C77.5211 32.6997 77.3596 32.771 77.2116 32.9132L76.9729 32.6997C77.1589 32.4758 77.4023 32.3638 77.7029 32.3638Z" fill="black"/>
<path d="M79.0439 31.7192H79.4545V34.1948H79.0439V31.7192Z" fill="black"/>
<path d="M80.2998 32.4041L80.707 33.0044L81.1207 32.4041H81.5546L80.9289 33.2791L81.5816 34.1948H81.1377L80.7002 33.5572L80.2662 34.1948H79.8323L80.4814 33.2825L79.8557 32.4041H80.2998Z" fill="black"/>
<path d="M82.513 33.9341C82.6498 33.9341 82.763 33.8985 82.8529 33.8272C82.9425 33.7561 82.9873 33.6641 82.9873 33.5509V33.4289C82.8663 33.3814 82.7318 33.3576 82.5837 33.3576C82.4512 33.3576 82.3488 33.3835 82.2757 33.4355C82.2029 33.4877 82.1666 33.5612 82.1666 33.656V33.6629C82.1666 33.7466 82.1989 33.8126 82.2641 33.8612C82.3291 33.9098 82.4121 33.9341 82.513 33.9341ZM82.3987 34.2326C82.2214 34.2326 82.0716 34.184 81.9495 34.0868C81.8271 33.9896 81.7663 33.8539 81.7663 33.6796V33.6731C81.7663 33.4831 81.8329 33.3396 81.9662 33.2422C82.0996 33.145 82.2786 33.0964 82.5029 33.0964C82.6666 33.0964 82.8259 33.1214 82.9805 33.1711V33.127C82.9805 32.8671 82.8338 32.737 82.5398 32.737C82.3784 32.737 82.2091 32.7742 82.0318 32.8489L81.9209 32.5267C82.1475 32.4295 82.3716 32.3809 82.5937 32.3809C82.8584 32.3809 83.0546 32.4475 83.1825 32.5811C83.3104 32.7098 83.3743 32.8943 83.3743 33.1339V34.1951H82.9773V33.9714C82.8338 34.1456 82.6409 34.2326 82.3987 34.2326Z" fill="black"/>
<path d="M83.8814 31.7192H84.292V34.1948H83.8814V31.7192Z" fill="black"/>
<path d="M85.6561 33.8765C85.7973 33.8765 85.9186 33.8229 86.0195 33.7154C86.1204 33.608 86.1707 33.4708 86.1707 33.3034V33.2966C86.1707 33.1294 86.1204 32.9922 86.0195 32.8847C85.9186 32.7773 85.7973 32.7236 85.6561 32.7236C85.5125 32.7236 85.3914 32.7762 85.2927 32.8811C85.1939 32.9864 85.1446 33.1249 85.1446 33.2966V33.3034C85.1446 33.473 85.1939 33.611 85.2927 33.7172C85.3914 33.8234 85.5125 33.8765 85.6561 33.8765ZM86.1641 34.7378V33.8969C86.0071 34.1208 85.8052 34.2326 85.5584 34.2326C85.3364 34.2326 85.1436 34.1491 84.9798 33.9818C84.8161 33.8144 84.7343 33.5882 84.7343 33.3034V33.2966C84.7343 33.0118 84.8155 32.7857 84.9782 32.6183C85.1407 32.4511 85.3341 32.3676 85.5584 32.3676C85.8075 32.3676 86.0093 32.4725 86.1641 32.6828V32.4047H86.5713V34.7378H86.1641Z" fill="black"/>
<path d="M90.0225 33.4994V33.4928C90.0225 33.2804 89.8609 33.1738 89.538 33.1738H88.8818V33.8252H89.5682C89.7118 33.8252 89.8234 33.7973 89.903 33.7419C89.9827 33.6866 90.0225 33.6058 90.0225 33.4994ZM89.8912 32.499V32.4923C89.8912 32.3973 89.8559 32.3233 89.7852 32.2702C89.7145 32.2171 89.612 32.1905 89.4773 32.1905H88.8818V32.8214H89.4471C89.5862 32.8214 89.6948 32.794 89.7734 32.7398C89.852 32.6857 89.8912 32.6054 89.8912 32.499ZM88.4748 34.1948V31.8209H89.5312C89.8025 31.8209 90.0077 31.891 90.147 32.0312C90.2523 32.1374 90.305 32.2684 90.305 32.4245V32.4313C90.305 32.6666 90.1929 32.8428 89.9687 32.9603C90.1211 33.0145 90.2371 33.0858 90.3168 33.1738C90.3964 33.2622 90.4362 33.3832 90.4362 33.5369V33.5437C90.4362 33.7516 90.3577 33.9122 90.2009 34.0252C90.0437 34.1383 89.8318 34.1948 89.5648 34.1948H88.4748Z" fill="black"/>
<path d="M91.4818 33.9341C91.6186 33.9341 91.7318 33.8985 91.8214 33.8272C91.9112 33.7561 91.9561 33.6641 91.9561 33.5509V33.4289C91.835 33.3814 91.7004 33.3576 91.5523 33.3576C91.42 33.3576 91.3173 33.3835 91.2446 33.4355C91.1716 33.4877 91.1352 33.5612 91.1352 33.656V33.6629C91.1352 33.7466 91.1677 33.8126 91.2329 33.8612C91.2979 33.9098 91.3809 33.9341 91.4818 33.9341ZM91.3673 34.2326C91.1902 34.2326 91.0404 34.184 90.918 34.0868C90.7959 33.9896 90.7348 33.8539 90.7348 33.6796V33.6731C90.7348 33.4831 90.8014 33.3396 90.935 33.2422C91.0684 33.145 91.2473 33.0964 91.4716 33.0964C91.6354 33.0964 91.7946 33.1214 91.9493 33.1711V33.127C91.9493 32.8671 91.8023 32.737 91.5086 32.737C91.3471 32.737 91.1777 32.7742 91.0005 32.8489L90.8895 32.5267C91.1161 32.4295 91.3404 32.3809 91.5625 32.3809C91.8271 32.3809 92.0234 32.4475 92.1512 32.5811C92.2791 32.7098 92.343 32.8943 92.343 33.1339V34.1951H91.9461V33.9714C91.8023 34.1456 91.6096 34.2326 91.3673 34.2326Z" fill="black"/>
<path d="M92.8275 34.1948V32.4041H93.238V32.6788C93.3861 32.4709 93.5711 32.3669 93.793 32.3669C93.9927 32.3669 94.148 32.4284 94.2591 32.5517C94.37 32.675 94.4255 32.8417 94.4255 33.052V34.1948H94.0186V33.1774C94.0186 33.0372 93.9854 32.9294 93.9193 32.8534C93.853 32.7778 93.7595 32.7398 93.6384 32.7398C93.5171 32.7398 93.4202 32.7794 93.3473 32.8586C93.2745 32.9378 93.238 33.0464 93.238 33.1843V34.1948H92.8275Z" fill="black"/>
<path d="M94.9132 34.1948V31.7192H95.3236V33.1978L96.0604 32.4041H96.555L95.8486 33.1333L96.5786 34.1948H96.1009L95.5759 33.4183L95.3236 33.6827V34.1948H94.9132Z" fill="black"/>
<path d="M96.8959 32.4041H97.3064V34.1948H96.8959V32.4041Z" fill="black"/>
</g>
<defs>
<clipPath id="clip0_1_2">
<rect width="100" height="45" fill="black"/>
</clipPath>
</defs>
</svg>
