<?xml version="1.0" encoding="UTF-8"?>
<svg width="1011px" height="188px" viewBox="0 0 1011 188" version="1.1" xmlns="http://www.w3.org/2000/svg" xmlns:xlink="http://www.w3.org/1999/xlink">
    <title>阿里巴巴图标</title>
    <g id="Page-1" stroke="none" stroke-width="1" fill="none" fill-rule="evenodd">
        <g id="阿里巴巴图标" transform="translate(-0, 0)" fill="#000000" fill-rule="nonzero">
            <path d="M329.219068,173.426009 L325.455396,173.426009 L325.455396,169.026009 L329.67356,169.026009 C330.646216,169.026009 331.3552,169.216829 331.809888,169.616829 C332.255367,170.013689 332.507292,170.583923 332.500708,171.180501 C332.500708,171.625814 332.36438,171.998861 332.137232,172.389486 C331.889694,172.765475 331.525528,173.049767 331.100708,173.198665 C330.490891,173.365234 329.860011,173.441824 329.228052,173.426009 M331.637232,175.544173 C331.32192,175.263195 330.962574,175.035948 330.57356,174.871517 C331.628483,174.772707 332.62329,174.335861 333.409888,173.626009 C334.011136,172.955124 334.335984,172.081419 334.319068,171.180697 C334.331655,170.466098 334.132322,169.763778 333.746216,169.162337 C333.424766,168.572927 332.911595,168.111025 332.291724,167.853158 C331.4175,167.587255 330.504729,167.470518 329.591724,167.507845 L323.682544,167.507845 L323.682544,181.016829 L325.455396,181.016829 L325.455396,175.016829 L327.491724,175.016829 C327.955396,175.016829 328.27356,175.053158 328.47356,175.062337 C328.746216,175.126009 328.991724,175.271322 329.27356,175.444173 C329.546216,175.625814 329.837232,175.916829 330.17356,176.353158 C330.482544,176.789681 330.937232,177.389681 331.446216,178.234994 L333.191724,181.016829 L335.400708,181.016829 L333.082544,177.335189 C332.673344,176.683094 332.188178,176.081882 331.637232,175.544173" id="Shape"></path>
            <path d="M328.66438,185.334994 C322.746411,185.334994 317.937232,180.462337 317.937232,174.507845 C317.937232,168.526009 322.746216,163.662337 328.66438,163.662337 C334.57356,163.662337 339.391724,168.526009 339.391724,174.507845 C339.391724,180.462337 334.573364,185.326009 328.66438,185.326009 M328.66438,161.653158 C321.66438,161.653158 315.97356,167.416829 315.97356,174.507845 C315.97356,181.580501 321.67356,187.344173 328.66438,187.344173 C335.682544,187.344173 341.382544,181.580501 341.382544,174.507845 C341.382544,167.416829 335.682544,161.653158 328.66438,161.653158 M224.309888,159.562337 C209.300708,160.253158 210.819068,152.398665 219.591724,140.289681 C240.182544,112.689681 279.128052,74.1531576 280.47356,46.8896811 C282.846216,11.2531576 247.082544,-0.346647063 210.319068,0.00784512451 C184.682544,0.34417325 158.200708,7.671517 140.16438,14.1441732 C77.9280519,36.1441732 38.8007082,71.4260092 14.1737551,110.462337 C-11.9629637,149.162337 -3.36276837,186.153158 51.7917238,187.353158 C94.1190676,185.644173 121.591724,173.889681 150.282544,159.216829 C150.437232,159.216829 71.0098879,181.898665 41.8372316,165.189486 C41.8007082,165.189486 41.746216,165.162337 41.7007082,165.153158 C38.7007082,163.453158 35.4098879,161.044173 34.5825441,154.489681 C34.4009035,140.671322 57.346216,126.362337 70.1645754,121.762337 L70.1645754,97.8260092 C79.8809661,101.61157 90.2184324,103.550813 100.646216,103.544173 C120.451338,103.566169 139.623064,96.5668443 154.755396,83.7896811 C155.337232,85.8260092 155.628052,88.1349936 155.446216,90.771517 L161.228052,90.771517 C161.97356,84.6260092 158.546411,79.7531576 158.546411,79.7531576 C153.355396,71.4894857 144.27356,71.6349936 144.27356,71.6349936 C144.27356,71.6349936 149.200708,73.771517 152.528052,78.9078451 C132.367745,95.8511491 104.955289,101.33557 79.8280519,93.4529623 L98.6643801,74.7076498 L93.4372316,61.0713217 C131.391724,47.7713217 163.255396,37.5439779 215.200904,28.5166342 L203.56438,18.7894857 L209.637232,15.0439779 C240.97356,23.8984701 261.46438,30.4076498 260.337232,47.062142 C259.809888,49.7894857 258.864575,52.9713217 257.200708,56.5984701 C248.091724,74.662142 220.937036,104.843978 209.982544,117.452962 C202.728052,125.80765 195.646216,133.99847 190.582544,141.834798 C185.355396,149.689486 182.146216,157.00765 181.982544,163.99847 C182.655396,218.707454 343.046216,138.416634 374.07356,117.116634 C328.200708,136.889486 278.800708,155.980306 224.309888,159.571322 M516.728052,157.126009 L544.36438,157.126009 L544.36438,31.1168295 L516.728052,31.1168295 L516.728052,157.126009 Z M565.719068,157.189681 L593.191724,157.189681 L593.191724,67.6623373 L565.719068,67.6623373 L565.719068,157.189681 Z M564.382544,42.4623373 C564.382544,29.5260092 567.028052,28.5260092 579.446216,28.5260092 C592.028247,28.5260092 594.509888,29.5260092 594.509888,42.4531576 C594.509888,55.2260092 592.028052,56.7168295 579.446216,56.7168295 C567.028247,56.7168295 564.382544,55.2260092 564.382544,42.4531576 L564.382544,42.4623373 Z M675.737232,112.389681 C675.737232,96.7986654 673.418872,86.0260092 658.855396,86.0260092 C644.282544,86.0260092 640.809888,95.4805014 640.809888,112.389681 C640.809888,128.480501 644.282544,138.426009 658.855396,138.426009 C673.919068,138.426009 675.737232,126.971517 675.737232,112.389681 M703.719068,112.389681 C703.719068,138.426009 697.091724,158.816829 668.446216,158.816829 C651.57356,158.816829 644.955396,153.680501 641.637232,145.716829 L639.982544,157.153158 L614.819068,157.153158 L614.819068,31.1531576 L642.291724,31.1531576 L642.291724,76.5805014 C645.937232,71.271517 653.219068,65.9623373 668.446216,65.9623373 C697.082544,65.9623373 703.709888,83.7078451 703.709888,112.389681 M773.900708,129.934994 L773.900708,120.980501 L758.17356,120.980501 C747.255396,120.980501 743.109888,122.798861 743.109888,130.098665 C743.109888,135.898665 746.919068,138.053158 754.700708,138.053158 C764.300708,138.053158 771.255396,134.571517 773.900708,129.934994 M801.209888,95.6078451 L801.209888,157.126009 L776.546216,157.126009 L774.228052,147.671517 C770.755396,153.307845 761.982544,158.780501 746.755396,158.780501 C727.391724,158.780501 716.300708,149.989486 716.300708,131.262337 C716.300708,110.534994 728.546216,103.080697 753.37356,103.080697 L773.900904,103.080697 L773.900904,102.580697 C773.900904,91.9623373 770.755396,89.1441732 755.86438,89.1441732 C749.400708,89.1441732 739.437232,89.6441732 733.482544,90.6441732 L733.482544,67.5894857 C740.26438,66.5894857 753.046216,66.0986654 759.337232,66.0986654 C789.955396,66.0986654 801.209888,75.8805014 801.209888,95.6078451 M885.100708,112.362337 C885.100708,96.771517 882.782544,85.9986654 868.219068,85.9986654 C853.655396,85.9986654 850.182544,95.4439779 850.182544,112.362337 C850.182544,128.444173 853.6552,138.389681 868.219068,138.389681 C883.282544,138.389681 885.100708,126.944173 885.100708,112.362337 M913.07356,112.362337 C913.07356,138.389681 906.455396,158.780501 877.819068,158.780501 C860.937232,158.780501 854.319068,153.644173 851.000708,145.689681 L849.346411,157.126009 L824.191724,157.126009 L824.191724,31.1260092 L851.66438,31.1260092 L851.66438,76.5439779 C855.300708,71.2441732 862.591724,65.9349936 877.819068,65.9349936 C906.455396,65.9349936 913.07356,83.6805014 913.07356,112.362337 M456.255396,102.262337 L442.837232,58.6441732 L440.855396,58.6441732 L427.128052,102.262337 L456.255396,102.262337 L456.255396,102.262337 Z M464.200708,127.962337 L419.173364,127.962337 L410.06438,156.916829 L380.109888,156.916829 L422.655396,31.3168295 L461.546216,31.3168295 L503.7552,156.916829 L473.137232,156.916829 L464.200708,127.962337 Z M982.982544,129.934994 L982.982544,120.980501 L967.255396,120.980501 C956.346216,120.980501 952.200708,122.798861 952.200708,130.107845 C952.200708,135.898861 956.009888,138.053158 963.791724,138.053158 C973.391724,138.053158 980.337232,134.571517 982.982544,129.934994 M1010.3009,95.6078451 L1010.3009,157.126009 L985.637232,157.126009 L983.318872,147.671517 C979.837232,153.307845 971.07356,158.789681 955.837232,158.789681 C936.47356,158.789681 925.382544,149.998665 925.382544,131.262337 C925.382544,110.534994 937.637232,103.080697 962.464575,103.080697 L982.982544,103.080697 L982.982544,102.580697 C982.982544,91.9713217 979.837232,89.1441732 964.946216,89.1441732 C958.491724,89.1441732 948.519068,89.6441732 942.56438,90.6441732 L942.56438,67.5894857 C949.355396,66.5894857 962.137232,66.0986654 968.419068,66.0986654 C999.046216,66.0986654 1010.3009,75.8805014 1010.3009,95.6078451" id="Shape"></path>
        </g>
    </g>
</svg>