<svg xmlns="http://www.w3.org/2000/svg" width="120" height="37" viewBox="0 0 120 37" fill="none">
  <path
    d="M6.5648 0.909121C3.42344 1.47328 1.26937 3.37092 0.653915 6.10198C0.564162 6.5251 0.576984 6.66614 0.769312 6.89693C0.96164 7.14055 1.24372 7.20466 2.89774 7.39699C5.1031 7.6406 5.24414 7.61496 5.50058 6.73025C5.85959 5.53782 6.7443 4.84543 8.10342 4.73004C9.42407 4.60182 10.4626 5.21727 10.7704 6.33277C10.8345 6.58921 10.8986 7.25595 10.8986 7.79446C10.8986 8.61506 10.8601 8.79457 10.7063 8.79457C10.5909 8.79457 9.69333 8.88432 8.70605 8.9869C5.24414 9.37155 3.17982 10.1152 1.83353 11.4743C0.576984 12.7309 0 14.231 0 16.2056C0 20.0906 2.65413 22.3345 6.70584 21.8729C8.48808 21.6677 9.6164 21.142 11.0012 19.8855C11.373 19.5521 11.6935 19.2957 11.7192 19.3213C11.732 19.347 11.8859 19.5778 12.0526 19.8214C12.2192 20.065 12.6808 20.6035 13.0655 21.001C14.0912 22.1037 14.1938 22.078 16.2068 20.3343C17.0916 19.5521 17.8224 18.8341 17.8224 18.7443C17.8224 18.6546 17.5403 18.1417 17.1813 17.6032C16.194 16.0902 16.1556 15.8722 16.1556 10.5896C16.1556 5.48653 16.0658 4.75568 15.3606 3.56325C14.0271 1.34507 10.3344 0.229563 6.5648 0.909121ZM10.8601 13.372C10.796 15.2183 10.6934 15.6158 10.1036 16.6159C9.00095 18.4366 6.66737 18.6546 5.80831 17.0134C5.57751 16.5646 5.5134 16.2441 5.5134 15.4619C5.5134 13.0258 7.00074 11.9616 10.6293 11.7564L10.9242 11.7436L10.8601 13.372Z"
    fill="#0B0C0E" />
  <path
    d="M54.9802 0.960127C52.0952 1.5884 50.172 3.24242 49.4411 5.70422C49.1975 6.55046 49.1847 6.62739 49.4026 6.9223C49.5309 7.1018 49.9796 7.20438 51.5439 7.38388C52.7876 7.53775 53.6082 7.57621 53.7364 7.49928C53.8647 7.43517 54.057 7.08898 54.1724 6.72997C54.634 5.33239 55.8136 4.58872 57.3137 4.72976C58.9934 4.88362 59.6217 5.78115 59.6217 8.0378C59.6217 8.67889 59.5832 8.79429 59.4037 8.79429C58.5831 8.79429 55.493 9.23023 54.3775 9.49949C51.4798 10.2047 49.7232 11.6664 48.9667 14.0384C48.5949 15.1924 48.582 17.1157 48.9539 18.2697C49.7232 20.6802 51.6208 21.9111 54.4929 21.8983C56.6727 21.8726 57.8907 21.4238 59.5704 20.0006L60.3782 19.3082L60.7628 19.8596C60.968 20.1545 61.4424 20.7058 61.8142 21.0776C62.7887 22.0521 62.9425 22.0136 64.8658 20.334C66.6481 18.7953 66.6994 18.68 65.9557 17.7183C64.9299 16.372 64.9556 16.5387 64.8658 10.6535C64.8145 6.94794 64.7376 5.24263 64.6222 4.88362C64.0196 2.96034 62.5707 1.66533 60.3012 1.03706C59.1216 0.70369 56.3521 0.665224 54.9802 0.960127ZM59.596 12.7562C59.6473 13.923 59.4422 15.3206 59.1088 16.0515C58.7754 16.8336 57.9035 17.7183 57.2368 17.9747C55.211 18.7441 53.5954 16.7695 54.3006 14.359C54.6981 12.9742 55.9162 12.1536 57.9805 11.8972C59.6089 11.6792 59.5576 11.6536 59.596 12.7562Z"
    fill="#0B0C0E" />
  <path
    d="M28.9774 1.01147C28.5928 1.10122 28.0414 1.30638 27.7594 1.44742C27.0798 1.80643 26.131 2.80653 25.7207 3.60149L25.4001 4.24258L25.3873 3.05015C25.3873 1.96029 25.3617 1.83207 25.0668 1.54999C24.7719 1.24226 24.6949 1.22944 22.964 1.22944C21.0535 1.22944 20.5919 1.33202 20.4637 1.79361C20.4252 1.93465 20.3868 6.33255 20.3868 11.551C20.3868 19.9365 20.4124 21.0777 20.5919 21.3341C20.7843 21.6034 20.8612 21.6162 23.0024 21.6162C24.5411 21.6162 25.2591 21.5649 25.3617 21.4623C25.4771 21.347 25.5155 19.8853 25.5155 15.654C25.5155 12.5512 25.5796 9.4739 25.6437 8.81999C25.8489 6.84542 26.3746 5.99918 27.5542 5.72992C28.6825 5.4863 29.5416 5.90942 30.0545 6.99928C30.3109 7.56345 30.3237 7.75577 30.3622 14.436C30.3878 20.6417 30.4135 21.3085 30.6058 21.4495C30.7597 21.5649 31.4521 21.6162 32.965 21.6162C34.7473 21.6162 35.1447 21.5777 35.3114 21.4111C35.4909 21.2316 35.5166 20.4879 35.5166 15.1027C35.5166 11.5639 35.5679 8.64048 35.6448 8.15325C35.8884 6.65309 36.8501 5.7171 38.1451 5.7171C39.0682 5.7171 39.6196 6.03764 40.0042 6.80695L40.3248 7.44805L40.2863 14.1795C40.2607 19.5262 40.2863 20.9751 40.4145 21.2316L40.594 21.5521L42.8507 21.5906L45.1202 21.6162L45.3253 21.3085C45.5048 21.0392 45.5305 20.1545 45.4792 13.064C45.4407 4.67853 45.4279 4.60159 44.8253 3.42198C44.4662 2.74242 43.4661 1.81925 42.684 1.44742C39.9529 0.16523 36.5808 1.22944 35.3499 3.75535L35.0806 4.30669L34.7473 3.67842C34.0164 2.34495 33.1702 1.56281 32.0547 1.16533C31.2982 0.896076 29.798 0.819143 28.9774 1.01147Z"
    fill="#0B0C0E" />
  <path
    d="M92.0738 0.985859C88.2144 1.57566 85.5988 4.98628 85.1243 10.0766C84.6628 15.0514 86.586 19.5647 89.8813 21.2316C91.5481 22.0778 93.9586 22.283 95.7152 21.7445C99.1899 20.6802 101.588 17.2183 101.921 12.8076C102.113 10.0637 101.639 7.37115 100.562 5.30683C99.472 3.17839 97.5231 1.56284 95.5101 1.11408C94.5997 0.908926 92.9713 0.844818 92.0738 0.985859ZM94.3561 4.94781C95.7152 5.33247 96.2537 6.88392 96.3819 10.7818C96.5486 15.8336 95.6511 18.0518 93.4714 18.0518C92.4456 18.0518 91.9071 17.6543 91.3686 16.4875C90.7916 15.2438 90.6121 13.6923 90.689 10.6535C90.7531 7.8712 90.8557 7.20446 91.3814 6.16589C91.9712 5.02475 93.0739 4.57598 94.3561 4.94781Z"
    fill="#0B0C0E" />
  <path
    d="M113.486 0.985832C112.089 1.21663 110.883 2.19109 110.037 3.74253L109.64 4.49902L109.627 3.12708C109.627 1.80643 109.614 1.75514 109.294 1.49871C108.986 1.25509 108.781 1.22945 107.101 1.22945C105.28 1.22945 105.255 1.22945 104.921 1.56281L104.588 1.89618L104.665 11.5767C104.716 18.8339 104.767 21.2957 104.883 21.4239C105.011 21.5777 105.473 21.6162 107.268 21.6162C109.409 21.6162 109.486 21.6034 109.678 21.3341C109.858 21.0777 109.883 20.2699 109.883 15.1412C109.883 8.89692 109.947 8.12761 110.512 7.02493C111.23 5.61452 112.858 5.1914 113.922 6.11457C114.794 6.88389 114.807 7.01211 114.858 14.5642C114.884 19.0903 114.935 21.3341 115.038 21.4495C115.14 21.5777 115.73 21.6162 117.397 21.6162C119.282 21.6162 119.641 21.5906 119.82 21.3982C120.013 21.2059 120.025 20.5264 119.974 13.423C119.923 5.02472 119.91 4.84521 119.192 3.4348C118.859 2.76807 117.859 1.76796 117.205 1.42177C116.692 1.16534 115.243 0.84479 114.627 0.857611C114.384 0.870432 113.871 0.921722 113.486 0.985832Z"
    fill="#0B0C0E" />
  <path
    d="M69.5715 1.43448C69.4048 1.58834 69.3663 1.96018 69.3663 3.33212C69.3663 4.47327 69.4176 5.07589 69.5202 5.17847C69.6356 5.29386 70.5844 5.33233 72.9949 5.33233C75.6234 5.33233 76.3029 5.3708 76.2516 5.49902C76.226 5.58877 74.5592 7.98646 72.5589 10.8457C69.7766 14.8333 68.8919 16.1925 68.7637 16.6797C68.6739 17.0387 68.597 18.026 68.597 18.9492C68.597 20.4493 68.6226 20.6032 68.8919 20.8981L69.174 21.2314L70.5844 20.6545C72.3538 19.9364 73.5206 19.68 75.3926 19.6031C77.5467 19.5005 79.534 19.8467 81.483 20.6673C83.2908 21.4366 83.3806 21.334 83.3165 18.7953C83.278 16.7694 83.2524 16.7181 82.1241 16.1796C80.6752 15.5001 78.5596 15.0257 76.4696 14.9231L75.8285 14.8846L78.7519 10.7175C80.3546 8.4224 81.9702 6.12729 82.3164 5.61441L82.9575 4.66559V3.16544C82.9575 1.8576 82.919 1.62681 82.7267 1.44731C82.5087 1.25498 81.8676 1.22933 76.1234 1.22933C70.5203 1.22933 69.751 1.25497 69.5715 1.43448Z"
    fill="#0B0C0E" />
  <path
    d="M73.5334 22.7059C71.187 23.0778 68.4944 24.3728 68.6226 25.0523C68.6739 25.3216 69.315 25.3216 72.3794 25.0908C74.0719 24.9498 74.8028 24.9498 75.649 25.0652C76.8799 25.2318 77.3159 25.4755 77.4954 26.0909C77.739 26.95 77.1876 29.181 75.9311 32.4377C75.3669 33.8866 75.3541 33.9635 75.5721 34.1302C75.9055 34.3738 76.3414 34.1174 77.2005 33.1814C79.0468 31.1684 80.5085 27.4757 80.5213 24.7831C80.5213 23.6291 80.4187 23.3727 79.8546 23.0778C78.8417 22.5521 75.6618 22.3597 73.5334 22.7059Z"
    fill="#0B0C0E" />
  <path
    d="M16.9762 23.988C16.8095 24.4112 17.1044 24.8086 18.3609 25.86C25.6181 31.9376 34.0805 35.5149 43.6456 36.5791C46.0305 36.8356 50.6079 36.874 52.8261 36.6432C58.6729 36.0406 64.635 34.3738 69.2766 32.053C71.1357 31.117 71.5717 30.8734 73.2898 29.7322C74.9054 28.668 75.2003 28.2834 74.8284 27.7064C74.7002 27.5269 74.4694 27.3217 74.2899 27.2576C73.9437 27.1166 74.0463 27.0909 71.1614 28.1808C65.9172 30.181 60.2628 31.4632 54.3647 32.0145C52.2748 32.2069 46.4408 32.2069 44.2355 32.0145C35.3371 31.2324 26.5926 28.6552 19.3738 24.6932C17.7326 23.8086 17.1172 23.6162 16.9762 23.988Z"
    fill="#0B0C0E" />
</svg>