<svg xmlns="http://www.w3.org/2000/svg" width="41" height="41" viewBox="0 0 41 41" fill="none">
  <path
    d="M19.6352 0.272404C19.6177 0.289928 19.3899 0.320595 19.1358 0.338123C17.7954 0.421364 16.525 0.592228 16.214 0.723663C16.1658 0.745571 16.0563 0.771858 15.973 0.789383C15.8898 0.802525 15.754 0.824432 15.6795 0.841957C15.6007 0.855099 15.535 0.881386 15.535 0.903294C15.535 0.925198 15.4868 0.942726 15.4298 0.942726C15.3685 0.942726 15.3072 0.960251 15.294 0.986538C15.2809 1.00844 15.2239 1.03035 15.1758 1.03035C15.075 1.03035 14.6632 1.16179 14.3741 1.28884C14.2777 1.33265 14.1113 1.38961 14.0017 1.42028C13.8922 1.45094 13.7433 1.49475 13.6688 1.51666C13.5944 1.53857 13.4936 1.55609 13.441 1.55609C13.3885 1.55609 13.3447 1.57362 13.3447 1.5999C13.3447 1.62181 13.314 1.64371 13.2789 1.64371C13.2439 1.64371 13.1475 1.68314 13.0599 1.73134C12.9723 1.77953 12.8672 1.81896 12.819 1.81896C12.7708 1.81896 12.7314 1.83649 12.7314 1.86277C12.7314 1.88468 12.6919 1.90659 12.6438 1.90659C12.5956 1.90659 12.5561 1.92411 12.5561 1.9504C12.5561 1.97231 12.5167 1.99421 12.4685 1.99421C12.4203 1.99421 12.3809 2.01173 12.3809 2.02926C12.3809 2.05116 12.2889 2.1125 12.175 2.16946C12.0568 2.22203 11.8509 2.3228 11.7151 2.3929C11.5793 2.463 11.4347 2.51995 11.3997 2.51995C11.3602 2.51995 11.3296 2.53748 11.3296 2.56376C11.3296 2.58567 11.3033 2.60758 11.2726 2.60758C11.1938 2.60758 10.9791 2.71272 10.9791 2.74777C10.9791 2.76968 10.9397 2.78282 10.8915 2.78282C10.8433 2.78282 10.8039 2.80035 10.8039 2.82225C10.8039 2.84416 10.7689 2.87045 10.7294 2.88359C10.6111 2.92302 10.4096 3.05445 10.2651 3.18589C10.1906 3.25599 10.1161 3.30857 10.0942 3.30857C10.0723 3.30857 10.0154 3.348 9.96282 3.39619C9.91025 3.44438 9.84016 3.48381 9.8095 3.48381C9.77883 3.48381 9.75255 3.50134 9.75255 3.52763C9.75255 3.54953 9.71312 3.57144 9.66494 3.57144C9.61675 3.57144 9.57732 3.58896 9.57732 3.61525C9.57732 3.63716 9.54666 3.65906 9.50723 3.65906C9.46781 3.65906 9.36267 3.72478 9.27068 3.79926C9.06479 3.98327 8.97718 4.05337 8.78881 4.1848C8.70558 4.24176 8.62673 4.3031 8.61359 4.31624C8.60045 4.32938 8.52159 4.39072 8.43836 4.44767C8.35513 4.50463 8.25438 4.58787 8.21495 4.63168C8.17553 4.6755 8.12296 4.71054 8.10105 4.71054C8.07915 4.71054 7.98278 4.78064 7.8864 4.86389C7.1198 5.55173 6.16044 6.47616 6.16044 6.52436C6.16044 6.5375 6.00274 6.71275 5.80561 6.91428C5.45516 7.26916 5.32374 7.43126 4.70607 8.25931C4.53523 8.48713 4.33372 8.74562 4.25487 8.82886C4.17602 8.91211 4.09279 9.04354 4.07088 9.11364C4.02708 9.24069 3.79491 9.61309 3.49264 10.0337C3.35246 10.2308 2.36682 12.1761 2.16531 12.6536C2.09522 12.8289 1.99447 13.1268 1.94628 13.3196C1.8981 13.5124 1.81048 13.7708 1.75792 13.8891C1.70535 14.0118 1.61774 14.2572 1.56517 14.4368C1.5126 14.6164 1.42937 14.8793 1.38118 15.0151C1.20158 15.5365 0.960644 16.6931 0.925599 17.2188C0.912457 17.4335 0.873031 17.8585 0.837986 18.1608C0.654 19.8081 0.654 20.6274 0.837986 22.3667C0.873031 22.6909 0.912457 23.1247 0.925599 23.3306C0.982547 24.1061 1.26291 25.2364 1.75354 26.6603C1.85429 26.9626 1.99447 27.3744 2.06018 27.5803C2.20036 28.0097 3.30866 30.2748 3.47512 30.4763C3.60216 30.6253 3.82119 30.967 4.03146 31.3482C4.10155 31.4796 4.18916 31.6154 4.22421 31.6505C4.25487 31.6855 4.3162 31.7644 4.35562 31.8257C4.50019 32.0535 4.81997 32.4697 4.93387 32.5749C4.99958 32.6362 5.08719 32.7545 5.13099 32.8378C5.24927 33.07 5.77056 33.6702 5.8538 33.6702C5.90636 33.6702 6.07283 33.8323 6.07283 33.8849C6.07283 33.9462 6.11663 33.9988 6.40575 34.2967C6.69926 34.599 6.89638 34.7655 6.94457 34.7655C6.97085 34.7655 7.04532 34.84 7.11103 34.9276C7.32568 35.2124 7.7068 35.5585 7.95649 35.6855C8.01782 35.7162 8.1361 35.8126 8.21933 35.9002C8.30256 35.9878 8.44274 36.1105 8.52597 36.1675C8.60921 36.2244 8.70996 36.3077 8.74939 36.3515C8.78881 36.3953 8.837 36.4303 8.8589 36.4303C8.88081 36.4303 8.96404 36.4873 9.04727 36.5574C9.1305 36.6319 9.28382 36.7326 9.38896 36.7852C9.49409 36.8378 9.57732 36.8991 9.57732 36.921C9.57732 36.9386 9.60361 36.9561 9.63427 36.9561C9.66494 36.9561 9.73065 36.9911 9.77883 37.0349C9.85768 37.105 9.93653 37.1532 10.1687 37.2803C10.2169 37.3066 10.3089 37.3811 10.3702 37.4468C10.4359 37.5169 10.5192 37.5695 10.5586 37.5695C10.598 37.5695 10.6287 37.5826 10.6287 37.6045C10.6287 37.6396 10.7689 37.7009 11.0448 37.7929C11.1412 37.8279 11.2507 37.8893 11.2901 37.9287C11.3296 37.9725 11.3909 38.0076 11.4303 38.0076C11.4654 38.0076 11.5048 38.0207 11.5136 38.0382C11.5311 38.0864 11.8947 38.2704 11.9691 38.2704C12.0042 38.2704 12.0305 38.288 12.0305 38.3143C12.0305 38.3362 12.0699 38.3581 12.1181 38.3581C12.1663 38.3581 12.2057 38.3756 12.2057 38.3975C12.2057 38.4194 12.2407 38.4457 12.2845 38.4588C12.324 38.472 12.4203 38.5158 12.4904 38.5596C12.7007 38.6779 12.7708 38.7086 12.8409 38.7086C12.8759 38.7086 12.9066 38.7261 12.9066 38.7524C12.9066 38.7743 12.9679 38.7962 13.038 38.7962C13.1125 38.7962 13.2089 38.8137 13.257 38.84C13.3052 38.8619 13.3841 38.9013 13.4323 38.9276C13.4805 38.9495 13.5593 38.9714 13.6075 38.9714C13.6557 38.9714 13.6951 38.989 13.6951 39.0152C13.6951 39.0372 13.7564 39.0591 13.8265 39.0591C13.901 39.0591 13.9579 39.0766 13.9579 39.1029C13.9579 39.1248 14.0061 39.1467 14.0631 39.1467C14.1244 39.1467 14.1857 39.1642 14.1989 39.1905C14.212 39.2124 14.2646 39.2343 14.3128 39.2343C14.3566 39.2343 14.396 39.2518 14.396 39.2781C14.396 39.3 14.4442 39.3219 14.5011 39.3219C14.5625 39.3219 14.6238 39.3395 14.6369 39.3657C14.6501 39.3876 14.7202 39.4096 14.7946 39.4096C14.8647 39.4096 14.9217 39.4271 14.9217 39.4534C14.9217 39.4753 14.983 39.4972 15.0531 39.4972C15.1276 39.4972 15.1845 39.5147 15.1845 39.541C15.1845 39.5629 15.2327 39.5848 15.294 39.5848C15.3554 39.5848 15.4386 39.6023 15.4824 39.6242C15.6138 39.6899 15.8679 39.76 15.9774 39.76C16.0387 39.76 16.1044 39.7776 16.1264 39.7995C16.1526 39.8214 16.2797 39.8521 16.4111 39.8652C16.9893 39.9309 17.3266 39.9747 17.5501 40.0229C17.8041 40.0755 18.1809 40.1237 18.9738 40.2069C19.5739 40.2683 21.8869 40.2683 22.4782 40.2069C23.0872 40.1412 23.5734 40.0755 23.8581 40.0229C24.1166 39.9703 24.5371 39.9134 24.9971 39.8652C25.1548 39.8521 25.2994 39.8214 25.3257 39.7995C25.3476 39.7776 25.422 39.76 25.4877 39.76C25.5578 39.76 25.6498 39.7381 25.698 39.7162C25.7462 39.6943 25.825 39.6549 25.8732 39.6286C25.9214 39.6023 26.009 39.5848 26.066 39.5848C26.1273 39.5848 26.1886 39.5629 26.2018 39.541C26.2149 39.5147 26.2938 39.4972 26.377 39.4972C26.4602 39.4972 26.5391 39.4753 26.5522 39.4534C26.5654 39.4271 26.6267 39.4096 26.688 39.4096C26.745 39.4096 26.7932 39.3876 26.7932 39.3657C26.7932 39.3395 26.8326 39.3219 26.8764 39.3219C26.9246 39.3219 26.9771 39.3 26.9903 39.2781C27.0034 39.2518 27.0648 39.2343 27.1217 39.2343C27.1787 39.2343 27.24 39.2168 27.2531 39.1905C27.2663 39.1686 27.3188 39.1467 27.367 39.1467C27.4108 39.1467 27.4853 39.1292 27.5291 39.1072C27.8752 38.932 27.9978 38.8838 28.0898 38.8838C28.1468 38.8838 28.195 38.8619 28.195 38.84C28.195 38.8137 28.2607 38.7962 28.3439 38.7962C28.4271 38.7962 28.5104 38.7743 28.5235 38.7524C28.5366 38.7261 28.5892 38.7086 28.6374 38.7086C28.6812 38.7086 28.7206 38.6867 28.7206 38.6647C28.7206 38.6385 28.7601 38.6209 28.8039 38.6209C28.8521 38.6209 28.8959 38.6078 28.9046 38.5859C28.9221 38.5421 29.2857 38.3581 29.3602 38.3581C29.3952 38.3581 29.4215 38.3362 29.4215 38.3143C29.4215 38.288 29.461 38.2704 29.5091 38.2704C29.5573 38.2704 29.5968 38.2485 29.5968 38.2266C29.5968 38.2003 29.6362 38.1828 29.6844 38.1828C29.7326 38.1828 29.772 38.1609 29.772 38.139C29.772 38.1127 29.8026 38.0952 29.8421 38.0952C29.8815 38.0952 29.9472 38.0601 29.9866 38.0163C30.0261 37.9769 30.1181 37.9156 30.1881 37.8805C30.2626 37.8498 30.3546 37.806 30.394 37.7841C30.4378 37.7622 30.5123 37.7447 30.5605 37.7447C30.6087 37.7447 30.6481 37.7228 30.6481 37.7009C30.6481 37.6746 30.6788 37.6571 30.7182 37.6571C30.7576 37.6571 30.8452 37.5957 30.9109 37.5256C30.9767 37.4512 31.0643 37.3942 31.1037 37.3942C31.1431 37.3942 31.1738 37.3723 31.1738 37.3504C31.1738 37.3241 31.2044 37.3066 31.2395 37.3066C31.2745 37.3066 31.3052 37.2847 31.3052 37.2628C31.3052 37.2365 31.3359 37.219 31.3709 37.219C31.406 37.219 31.4366 37.1971 31.4366 37.1751C31.4366 37.1489 31.4629 37.1313 31.4936 37.1313C31.5242 37.1313 31.5943 37.0919 31.6469 37.0437C31.6995 36.9955 31.7564 36.9561 31.7739 36.9561C31.7914 36.9561 31.8791 36.8947 31.9623 36.8247C32.0455 36.7546 32.1463 36.6932 32.1857 36.6932C32.2207 36.6932 32.2908 36.6582 32.339 36.6144C32.3828 36.5705 32.4923 36.4873 32.5756 36.4303C32.8253 36.2551 33.0312 36.0755 33.0881 35.9747C33.1319 35.9046 33.5174 35.6417 33.5787 35.6417C33.605 35.6417 33.6269 35.6242 33.6269 35.6067C33.6269 35.5892 33.6795 35.541 33.7496 35.5015C33.916 35.4051 34.065 35.2693 34.065 35.2168C34.065 35.151 34.4242 34.7962 34.56 34.7217C34.7002 34.6516 35.204 34.1302 35.204 34.0601C35.204 33.9988 35.5237 33.6921 35.6814 33.6001C35.7471 33.5607 35.8523 33.4511 35.9092 33.3591C35.9662 33.2627 36.0275 33.1883 36.045 33.1883C36.0669 33.1883 36.0801 33.1664 36.0801 33.1401C36.0801 33.0919 36.321 32.7282 36.413 32.6275C36.4437 32.6012 36.4875 32.5749 36.5094 32.5749C36.5313 32.5749 36.5882 32.5223 36.632 32.4522C36.6715 32.3865 36.7459 32.3033 36.7897 32.2638C36.8335 32.2244 36.8686 32.1762 36.8686 32.1543C36.8686 32.1324 36.9212 32.0535 36.9825 31.9834C37.0438 31.909 37.1227 31.7863 37.1577 31.703C37.1928 31.6198 37.2541 31.5234 37.2979 31.484C37.3373 31.4446 37.3986 31.3613 37.4337 31.2912C37.4687 31.2255 37.5125 31.1729 37.5344 31.1729C37.552 31.1729 37.5695 31.1335 37.5695 31.0853C37.5695 31.0371 37.5914 30.9977 37.6133 30.9977C37.6396 30.9977 37.6571 30.9714 37.6571 30.9407C37.6571 30.91 37.6965 30.8399 37.7447 30.7874C37.7929 30.7348 37.8323 30.6778 37.8323 30.6559C37.8323 30.634 37.8849 30.5596 37.955 30.4895C38.0776 30.3536 38.139 30.2441 38.2266 29.99C38.3054 29.7578 38.3711 29.6264 38.4588 29.5344C38.4982 29.4862 38.5332 29.4204 38.5332 29.3898C38.5332 29.3591 38.5551 29.3328 38.577 29.3328C38.6033 29.3328 38.6208 29.2934 38.6208 29.2452C38.6208 29.197 38.6427 29.1576 38.6646 29.1576C38.6909 29.1576 38.7085 29.1181 38.7085 29.0699C38.7085 29.0218 38.7304 28.9823 38.7523 28.9823C38.7785 28.9823 38.7961 28.9429 38.7961 28.8947C38.7961 28.8465 38.818 28.8071 38.8399 28.8071C38.8661 28.8071 38.8837 28.7808 38.8837 28.7501C38.8837 28.6713 38.9888 28.4566 39.0282 28.4566C39.0458 28.4566 39.0589 28.4259 39.0589 28.3909C39.0589 28.3558 39.0808 28.3251 39.1027 28.3251C39.129 28.3251 39.1465 28.277 39.1465 28.2156C39.1465 28.1543 39.164 28.1061 39.1859 28.1061C39.2078 28.1061 39.2341 28.0404 39.2473 27.9615C39.2955 27.6767 39.3305 27.5541 39.4181 27.3613C39.4663 27.2518 39.5276 27.1159 39.5495 27.0546C39.5758 26.9933 39.6109 26.91 39.6328 26.8706C39.6547 26.8268 39.6722 26.7611 39.6722 26.726C39.6722 26.691 39.6941 26.6165 39.7248 26.5595C39.8299 26.3492 39.8474 26.3098 39.8474 26.2266C39.8474 26.1784 39.8693 26.1258 39.8912 26.1126C39.9175 26.0995 39.935 26.0294 39.935 25.9593C39.935 25.8892 39.9525 25.8191 39.9788 25.806C40.0007 25.7928 40.0226 25.7315 40.0226 25.6745C40.0226 25.6176 40.0445 25.5124 40.0708 25.4467C40.0971 25.381 40.1365 25.2846 40.1584 25.2364C40.176 25.1882 40.2022 25.0787 40.2198 24.9954C40.3118 24.4697 40.3337 24.3251 40.3731 24.0316C40.3994 23.852 40.43 23.6154 40.4432 23.5058C40.4563 23.3963 40.4826 23.2693 40.5045 23.2211C40.5264 23.1729 40.5527 23.0151 40.5658 22.8706C40.5746 22.726 40.6096 22.3799 40.6403 22.1039C40.7192 21.4379 40.7192 19.0852 40.6447 18.4456C40.5308 17.4554 40.5089 17.3021 40.4607 17.0436C40.4344 16.899 40.395 16.6318 40.3731 16.4521C40.3512 16.2725 40.3118 16.014 40.2855 15.8826C40.2592 15.7511 40.2241 15.5671 40.211 15.4751C40.1979 15.3875 40.1716 15.2999 40.1497 15.2867C40.1278 15.2736 40.1102 15.2079 40.1102 15.1334C40.1102 15.0633 40.0927 15.0063 40.0664 15.0063C40.0445 15.0063 40.0226 14.945 40.0226 14.8749C40.0226 14.8004 40.0051 14.7435 39.9788 14.7435C39.9569 14.7435 39.935 14.6997 39.935 14.6471C39.935 14.5945 39.9131 14.4806 39.8868 14.3974C39.808 14.1608 39.7905 14.1082 39.6328 13.7226C39.6109 13.6701 39.5671 13.5474 39.5364 13.451C39.5057 13.3546 39.4619 13.2582 39.4444 13.2363C39.4269 13.21 39.4093 13.1487 39.4093 13.0918C39.4093 13.0348 39.3918 12.991 39.3655 12.991C39.3436 12.991 39.3217 12.9428 39.3217 12.8858C39.3217 12.8245 39.3042 12.7632 39.2779 12.75C39.256 12.7369 39.2341 12.6755 39.2341 12.6142C39.2341 12.5573 39.2166 12.474 39.1947 12.4302C39.1728 12.3908 39.0939 12.2287 39.0151 12.0709C38.577 11.1947 38.4193 10.9012 38.3492 10.8398C38.3054 10.8004 38.2704 10.7259 38.2704 10.6777C38.2704 10.6295 38.2529 10.5726 38.2266 10.5594C38.2047 10.5463 38.1828 10.4893 38.1828 10.4368C38.1828 10.3842 38.1433 10.2922 38.0952 10.2308C38.047 10.1695 38.0075 10.095 38.0075 10.0644C38.0075 10.0381 37.99 10.0118 37.9637 10.0118C37.9418 10.0118 37.9199 9.9855 37.9199 9.95483C37.9199 9.92416 37.8805 9.87158 37.8323 9.83653C37.7841 9.80149 37.7447 9.74891 37.7447 9.71824C37.7447 9.68757 37.7272 9.66129 37.7009 9.66129C37.679 9.66129 37.6571 9.63062 37.6571 9.59557C37.6571 9.56052 37.6396 9.52985 37.6133 9.52985C37.5914 9.52985 37.5695 9.49918 37.5695 9.46413C37.5695 9.42908 37.552 9.39842 37.5257 9.39842C37.5038 9.39842 37.4819 9.36775 37.4819 9.3327C37.4819 9.29765 37.4644 9.26698 37.4381 9.26698C37.4162 9.26698 37.3943 9.24069 37.3943 9.21003C37.3943 9.17936 37.3548 9.10926 37.3066 9.05668C37.2585 9.00411 37.219 8.93401 37.219 8.89458C37.219 8.85953 37.2015 8.82886 37.1752 8.82886C37.1533 8.82886 37.1314 8.79819 37.1314 8.76314C37.1314 8.72809 37.1139 8.69743 37.0964 8.69743C37.0789 8.69743 37.0263 8.64047 36.9869 8.56599C36.9431 8.49589 36.8861 8.41265 36.8554 8.38198C36.8248 8.35131 36.7196 8.2155 36.6145 8.07968C36.5138 7.94386 36.3736 7.78614 36.3079 7.72918C36.2422 7.67223 36.1589 7.56708 36.1239 7.4926C36.0275 7.29983 35.5632 6.78723 35.3135 6.59446C35.2653 6.55941 35.1952 6.47617 35.1645 6.41045C35.0857 6.25711 34.4811 5.67441 34.3015 5.5824C34.2271 5.54297 34.1395 5.45097 34.1044 5.37649C34.0738 5.30639 33.9993 5.21438 33.9336 5.17933C33.8722 5.1399 33.7321 5.02161 33.6138 4.91208C33.4999 4.80255 33.3772 4.71054 33.3422 4.71054C33.3071 4.71054 33.2765 4.68864 33.2765 4.66673C33.2765 4.64045 33.2502 4.62292 33.2195 4.62292C33.1845 4.62292 33.0487 4.51339 32.9085 4.38195C32.7727 4.25052 32.6413 4.14099 32.6194 4.14099C32.5975 4.14099 32.5318 4.0928 32.4704 4.03146C32.4091 3.97012 32.3434 3.92193 32.3215 3.92193C32.2996 3.92193 32.2251 3.86936 32.1507 3.79926C31.993 3.65468 31.8528 3.57144 31.7652 3.57144C31.7301 3.57144 31.6995 3.55391 31.6995 3.53201C31.6995 3.5101 31.66 3.47505 31.6118 3.46191C31.5637 3.44876 31.4979 3.40934 31.4717 3.38305C31.441 3.35238 31.3271 3.28228 31.2176 3.22094C31.1081 3.16399 30.9767 3.07198 30.9241 3.01941C30.8715 2.96684 30.7839 2.90988 30.7357 2.89235C30.6875 2.87921 30.6481 2.84416 30.6481 2.82225C30.6481 2.80035 30.6087 2.78282 30.5605 2.78282C30.5123 2.78282 30.4729 2.76968 30.4729 2.74777C30.4729 2.73025 30.4072 2.69082 30.3327 2.66015C30.0217 2.53748 28.8959 1.9723 28.8959 1.94164C28.8959 1.91973 28.8696 1.90659 28.8389 1.90659C28.8082 1.90659 28.6987 1.86715 28.598 1.81896C28.5016 1.77077 28.3877 1.73134 28.3483 1.73134C28.3132 1.73134 28.2826 1.7182 28.2826 1.69629C28.2826 1.67 27.9365 1.55609 27.4284 1.41589C27.332 1.38522 27.2356 1.35017 27.2137 1.32827C27.1874 1.31075 27.1348 1.29322 27.0954 1.29322C27.056 1.29322 26.9465 1.25817 26.8501 1.20998C26.6355 1.10483 26.3945 1.03035 26.2762 1.03035C26.2281 1.03035 26.1711 1.00844 26.158 0.986538C26.1448 0.960251 26.0747 0.942726 26.0047 0.942726C25.9346 0.942726 25.8689 0.925198 25.8557 0.903294C25.8426 0.881386 25.7769 0.850719 25.7111 0.837578C25.4264 0.767479 25.1855 0.714901 25.0278 0.692997C24.9402 0.679852 24.8525 0.653564 24.8394 0.63166C24.8263 0.609753 24.7518 0.592232 24.6729 0.592232C24.5985 0.592232 24.5152 0.574703 24.4933 0.552799C24.4671 0.530891 24.2918 0.500225 24.0991 0.487083C23.9063 0.473938 23.5208 0.443268 23.2449 0.416981C21.9745 0.294308 21.7116 0.281166 20.726 0.259258C20.1434 0.246117 19.6571 0.254879 19.6352 0.272404ZM22.3687 1.73134C23.039 1.80144 23.4245 1.85401 23.6829 1.90659C24.0027 1.96792 24.3663 2.03364 24.5722 2.06431C24.6598 2.08183 24.7474 2.10812 24.7606 2.13003C24.7737 2.15193 24.8263 2.16946 24.8744 2.16946C24.927 2.16946 25.0278 2.18698 25.1022 2.20889C25.1767 2.23079 25.3257 2.2746 25.4352 2.30089C25.5447 2.33156 25.6673 2.37099 25.7068 2.3929C25.7506 2.4148 25.8207 2.43233 25.8645 2.43233C25.9083 2.43233 25.9608 2.44985 25.9827 2.47176C26.0222 2.50681 26.1142 2.52433 26.6092 2.59005C26.7099 2.6032 26.7932 2.63386 26.7932 2.65577C26.7932 2.67767 26.8326 2.6952 26.8808 2.6952C26.929 2.6952 26.9684 2.71272 26.9684 2.73901C26.9684 2.76092 27.0166 2.78282 27.0735 2.78282C27.1348 2.78282 27.1918 2.80035 27.2049 2.81787C27.2181 2.8354 27.3276 2.87921 27.4459 2.91426C27.5685 2.94493 27.6693 2.98874 27.6693 3.01065C27.6693 3.02817 27.7087 3.04569 27.7569 3.04569C27.8051 3.04569 27.8445 3.05884 27.8445 3.07636C27.8445 3.11579 28.0592 3.22094 28.138 3.22094C28.1687 3.22094 28.195 3.23847 28.195 3.26476C28.195 3.28666 28.2212 3.30857 28.2563 3.30857C28.3877 3.30857 29.7983 3.99203 29.9428 4.12347C29.9998 4.17604 30.1224 4.2549 30.2144 4.3031C30.3064 4.34691 30.3853 4.3951 30.3853 4.40825C30.3853 4.42577 30.4466 4.46082 30.5167 4.49149C30.5912 4.52216 30.6481 4.56158 30.6481 4.58349C30.6481 4.6054 30.6788 4.62292 30.7138 4.62292C30.7883 4.62292 30.9372 4.70178 31.0292 4.78503C31.0643 4.81569 31.1475 4.87265 31.2176 4.91646C31.2921 4.95589 31.349 5.00847 31.349 5.02599C31.349 5.04352 31.3753 5.06104 31.406 5.06104C31.4673 5.06104 31.7345 5.27134 31.9492 5.48602C32.028 5.56488 32.1112 5.6306 32.1331 5.6306C32.2383 5.6306 32.8253 6.12567 33.1451 6.48493C33.2064 6.55064 33.3247 6.65141 33.4079 6.70398C33.6269 6.84418 33.938 7.15087 34.1 7.38745C34.1745 7.50136 34.3015 7.64594 34.3804 7.70728C34.4592 7.76862 34.5469 7.83871 34.5688 7.85624C34.595 7.87814 34.7002 8.00082 34.8097 8.12787C34.9192 8.25493 35.0287 8.38198 35.0506 8.40827C35.0769 8.43456 35.1251 8.51342 35.1601 8.5879C35.1952 8.658 35.2959 8.78943 35.3836 8.87267C35.4668 8.95592 35.607 9.1224 35.6858 9.24508C35.7691 9.36337 35.8698 9.50356 35.9136 9.54738C35.9574 9.59557 36.0187 9.68757 36.045 9.75767C36.0757 9.82339 36.1151 9.88035 36.1326 9.88035C36.1545 9.88035 36.1677 9.90225 36.1677 9.92854C36.1677 9.95045 36.2465 10.0906 36.3429 10.2308C36.4393 10.371 36.5181 10.5112 36.5181 10.5375C36.5181 10.5638 36.5576 10.6295 36.6101 10.6821C36.7416 10.8223 36.9562 11.1377 36.9562 11.1903C36.9562 11.2166 36.9781 11.2385 37 11.2385C37.0263 11.2385 37.0438 11.2779 37.0438 11.3261C37.0438 11.3743 37.0613 11.4138 37.0789 11.4138C37.0964 11.4138 37.1402 11.5058 37.1708 11.6197C37.2059 11.738 37.2628 11.8782 37.3066 11.9395C37.368 12.0359 37.5607 12.4302 37.7184 12.7719C37.7447 12.8333 37.7754 12.8902 37.7885 12.9034C37.8192 12.934 37.9331 13.1969 38.047 13.4817C38.0645 13.5386 38.1039 13.6306 38.1258 13.692C38.2178 13.9198 38.2704 14.117 38.2704 14.2309C38.2704 14.2922 38.2923 14.3579 38.3142 14.3711C38.3405 14.3842 38.358 14.4543 38.358 14.5288C38.358 14.5989 38.3799 14.6558 38.4018 14.6558C38.4281 14.6558 38.4456 14.7128 38.4456 14.7873C38.4456 14.8574 38.4588 14.9187 38.4807 14.9187C38.5201 14.9187 38.6208 15.2342 38.6208 15.3568C38.6208 15.405 38.6427 15.4445 38.6646 15.4445C38.6909 15.4445 38.7085 15.5233 38.7085 15.6153C38.7085 15.7117 38.726 15.7993 38.7479 15.8125C38.7698 15.8256 38.7961 15.8913 38.8092 15.9571C38.8223 16.0272 38.8574 16.1674 38.8837 16.2769C38.9319 16.4653 38.9581 16.5879 39.0589 17.1093C39.3655 18.6602 39.3655 21.8673 39.0589 23.4182C39.0326 23.5497 38.9932 23.7556 38.9669 23.8782C38.945 23.9965 38.9143 24.163 38.8968 24.2419C38.8837 24.3207 38.8574 24.3952 38.8355 24.4084C38.8136 24.4215 38.7961 24.496 38.7961 24.5792C38.7961 24.6625 38.7785 24.7413 38.7523 24.7545C38.7304 24.7676 38.7085 24.8465 38.7085 24.9297C38.7085 25.013 38.6909 25.0918 38.6646 25.105C38.6427 25.1181 38.6208 25.1795 38.6208 25.2408C38.6208 25.2977 38.6033 25.3459 38.577 25.3459C38.5551 25.3459 38.5332 25.3941 38.5332 25.4555C38.5332 25.5168 38.5157 25.6 38.4938 25.6439C38.4719 25.6833 38.4281 25.806 38.4018 25.9155C38.3711 26.025 38.3317 26.1521 38.3142 26.2003C38.2923 26.2485 38.266 26.3405 38.2529 26.4062C38.2397 26.4763 38.2134 26.5814 38.2003 26.6472C38.1872 26.7173 38.1565 26.818 38.1302 26.8794C38.1039 26.9407 38.0689 27.0283 38.0514 27.0765C37.9375 27.3657 37.8937 27.4489 37.8674 27.4489C37.8455 27.4489 37.8323 27.4796 37.8323 27.5146C37.8323 27.5497 37.7929 27.6461 37.7447 27.7337C37.6965 27.8213 37.6571 27.9177 37.6571 27.9527C37.6571 27.9878 37.6396 28.0185 37.6133 28.0185C37.5914 28.0185 37.5695 28.0491 37.5695 28.0842C37.5695 28.1499 37.4381 28.404 37.3023 28.5968C37.2541 28.6581 37.219 28.737 37.219 28.7676C37.219 28.8334 37.1183 29.1269 37.0876 29.1576C37.0745 29.1707 37.0263 29.2496 36.9781 29.3372C36.9299 29.4248 36.8073 29.6176 36.7065 29.7622C36.6014 29.9111 36.5181 30.0513 36.5181 30.0732C36.5181 30.0995 36.5006 30.1214 36.4743 30.1214C36.4524 30.1214 36.4305 30.1521 36.4305 30.1872C36.4305 30.2222 36.413 30.2529 36.3867 30.2529C36.3648 30.2529 36.3429 30.2792 36.3429 30.3054C36.3385 30.3361 36.2816 30.4325 36.2115 30.5157C36.137 30.599 36.0801 30.6997 36.0801 30.7436C36.0801 30.7874 36.0626 30.8224 36.0363 30.8224C36.0144 30.8224 35.9925 30.8531 35.9925 30.8881C35.9925 30.9232 35.9749 30.9539 35.9487 30.9539C35.9268 30.9539 35.9049 30.9845 35.9049 31.0196C35.9049 31.0546 35.8873 31.0853 35.8698 31.0853C35.8479 31.0853 35.8041 31.1379 35.7691 31.2036C35.734 31.2693 35.607 31.427 35.4799 31.5541C35.3573 31.6811 35.2171 31.8564 35.1777 31.9484C35.1339 32.0404 35.0638 32.1455 35.02 32.185C34.9762 32.2244 34.9411 32.2726 34.9411 32.2945C34.9411 32.3164 34.8623 32.404 34.7615 32.4873C34.4373 32.7677 34.1526 33.0656 34.1526 33.1269C34.1526 33.162 34.1351 33.1883 34.1088 33.1883C34.0869 33.1883 34.065 33.2102 34.065 33.2408C34.065 33.3109 33.754 33.6264 33.6839 33.6264C33.6532 33.6264 33.6269 33.6439 33.6269 33.6702C33.6269 33.6921 33.6006 33.714 33.57 33.714C33.5043 33.714 33.1013 34.0776 33.1013 34.139C33.1013 34.1565 33.0224 34.2441 32.926 34.3274C32.8253 34.4106 32.6982 34.5245 32.6413 34.5815C32.5843 34.6341 32.5055 34.6779 32.4661 34.6779C32.431 34.6779 32.4004 34.6954 32.4004 34.7217C32.4004 34.7436 32.3741 34.7655 32.339 34.7655C32.3084 34.7655 32.1463 34.8925 31.9842 35.0503C31.8265 35.208 31.6776 35.335 31.66 35.335C31.6425 35.335 31.568 35.3832 31.4979 35.4446C31.4279 35.5059 31.3446 35.5541 31.3183 35.5541C31.2877 35.5541 31.2614 35.5716 31.2614 35.5979C31.2614 35.6198 31.2307 35.6417 31.1957 35.6417C31.1081 35.6417 30.9679 35.725 30.8102 35.8696C30.7357 35.9397 30.6525 35.9922 30.6218 35.9922C30.5868 35.9922 30.5605 36.0097 30.5605 36.0317C30.5605 36.0536 30.5254 36.0798 30.486 36.093C30.3677 36.1324 30.1662 36.2639 30.0217 36.3953C29.9472 36.4654 29.864 36.518 29.8333 36.518C29.7983 36.518 29.772 36.5355 29.772 36.5618C29.772 36.5837 29.7326 36.6056 29.6844 36.6056C29.6362 36.6056 29.5968 36.6187 29.5968 36.6406C29.5968 36.6713 29.2901 36.7808 29.1981 36.7808C29.1718 36.7808 29.0667 36.8378 28.9616 36.9123C28.8564 36.9868 28.7382 37.0437 28.7031 37.0437C28.6637 37.0437 28.633 37.0612 28.633 37.0875C28.633 37.1094 28.5936 37.1313 28.5454 37.1313C28.4972 37.1313 28.4578 37.1489 28.4578 37.1751C28.4578 37.1971 28.4184 37.219 28.3702 37.219C28.322 37.219 28.2826 37.2365 28.2826 37.2628C28.2826 37.2847 28.2563 37.3066 28.2212 37.3066C28.1906 37.3066 28.0373 37.3679 27.8839 37.4424C27.7306 37.5213 27.5554 37.6001 27.4941 37.622C27.4327 37.6483 27.3495 37.6834 27.3101 37.7053C27.2663 37.7272 27.1743 37.7447 27.1042 37.7447C27.0297 37.7447 26.9596 37.7622 26.9465 37.7885C26.9333 37.8104 26.8632 37.8323 26.7932 37.8323C26.7231 37.8323 26.653 37.8498 26.6398 37.8761C26.6267 37.898 26.5654 37.9199 26.5084 37.9199C26.4515 37.9199 26.3901 37.9375 26.377 37.9638C26.3639 37.9857 26.2938 38.0076 26.2237 38.0076C26.1536 38.0076 26.0835 38.0251 26.0704 38.0514C26.0572 38.0733 25.9959 38.0952 25.9389 38.0952C25.882 38.0952 25.8207 38.1127 25.8075 38.139C25.7944 38.1609 25.7331 38.1828 25.6761 38.1828C25.6192 38.1828 25.5622 38.2003 25.5491 38.2222C25.5228 38.2573 25.4133 38.2836 25.0278 38.3405C24.9402 38.3581 24.8525 38.3844 24.8394 38.4063C24.8263 38.4282 24.7606 38.4457 24.6905 38.4457C24.6204 38.4457 24.5503 38.4676 24.5371 38.4895C24.524 38.5158 24.4145 38.5333 24.3006 38.5333C24.1867 38.5333 24.0772 38.5508 24.0553 38.5727C23.9764 38.6428 23.1485 38.7436 22.1935 38.7962C20.8706 38.8707 19.0219 38.8312 18.1852 38.7129C18.0188 38.6867 17.7822 38.656 17.6596 38.6385C17.5413 38.6253 17.423 38.5947 17.3967 38.5727C17.3748 38.5508 17.2741 38.5333 17.1733 38.5333C17.0682 38.5333 16.9718 38.5158 16.9587 38.4895C16.9455 38.4676 16.8535 38.4457 16.7615 38.4457C16.6695 38.4457 16.5776 38.4282 16.5644 38.4019C16.5513 38.38 16.4812 38.3581 16.4111 38.3581C16.341 38.3581 16.2709 38.3362 16.2578 38.3143C16.2446 38.288 16.1658 38.2704 16.0825 38.2704C15.9993 38.2704 15.9205 38.2485 15.9073 38.2266C15.8942 38.2003 15.8241 38.1828 15.7496 38.1828C15.6795 38.1828 15.6226 38.1609 15.6226 38.139C15.6226 38.1127 15.5744 38.0952 15.5174 38.0952C15.4561 38.0952 15.3948 38.0733 15.3816 38.0514C15.3685 38.0251 15.2984 38.0076 15.2239 38.0076C15.1539 38.0076 15.0969 37.9857 15.0969 37.9638C15.0969 37.9375 15.04 37.9199 14.9655 37.9199C14.8954 37.9199 14.8341 37.898 14.8341 37.8761C14.8341 37.8498 14.7552 37.8323 14.6588 37.8323C14.5625 37.8323 14.4836 37.8104 14.4836 37.7885C14.4836 37.7622 14.4267 37.7447 14.3566 37.7447C14.2821 37.7447 14.212 37.7228 14.1989 37.7009C14.1857 37.6746 14.1244 37.6571 14.0631 37.6571C14.0061 37.6571 13.9579 37.6396 13.9579 37.622C13.9579 37.6045 13.866 37.5607 13.7521 37.53C13.6338 37.495 13.533 37.4555 13.5199 37.4424C13.4805 37.3942 12.9373 37.1313 12.8803 37.1313C12.8453 37.1313 12.819 37.1094 12.819 37.0875C12.819 37.0612 12.7796 37.0437 12.7314 37.0437C12.6832 37.0437 12.6438 37.0218 12.6438 36.9999C12.6438 36.9736 12.6087 36.9561 12.5693 36.9561C12.5255 36.9561 12.4422 36.9167 12.3809 36.8685C12.3196 36.8203 12.2364 36.7808 12.1969 36.7808C12.1531 36.7808 12.1181 36.7589 12.1181 36.737C12.1181 36.7107 12.0787 36.6932 12.0305 36.6932C11.9823 36.6932 11.8728 36.6494 11.7808 36.5968C11.6888 36.5486 11.5705 36.4829 11.5179 36.4522C11.461 36.4216 11.3646 36.3471 11.3033 36.2858C11.2376 36.22 11.1587 36.1675 11.1281 36.1675C11.093 36.1675 11.0667 36.1499 11.0667 36.128C11.0667 36.1061 11.0317 36.0798 10.9923 36.0667C10.8959 36.036 10.6769 35.9046 10.5936 35.8301C10.563 35.7995 10.4622 35.7425 10.3746 35.6987C10.287 35.6593 10.2038 35.6111 10.1906 35.5979C10.1775 35.5848 10.0986 35.5234 10.0154 35.4665C9.93215 35.4051 9.82264 35.3263 9.77883 35.2825C9.73065 35.2387 9.6737 35.2036 9.65179 35.2036C9.62989 35.2036 9.516 35.1072 9.39334 34.9846C9.27068 34.8663 9.14802 34.7655 9.11298 34.7655C9.07793 34.7655 9.05165 34.7436 9.05165 34.7217C9.05165 34.6954 9.02537 34.6779 8.9947 34.6779C8.96404 34.6779 8.86766 34.6122 8.78005 34.5333C8.44274 34.231 8.23685 34.0295 8.10982 33.8805C8.03973 33.7972 7.93021 33.7009 7.87326 33.6702C7.75061 33.6089 7.16798 33.0262 7.16798 32.9736C7.16798 32.9517 6.97524 32.737 6.73868 32.5004C6.50651 32.2595 6.26557 31.9791 6.20425 31.8783C6.14292 31.7731 6.03778 31.6286 5.96331 31.5497C5.89322 31.4752 5.80561 31.3613 5.77056 31.2912C5.73552 31.2255 5.69171 31.1729 5.66981 31.1729C5.65229 31.1729 5.63477 31.1423 5.63477 31.1072C5.63477 31.0722 5.61724 31.0415 5.59972 31.0415C5.5603 31.0415 5.10909 30.4062 5.10909 30.3493C5.10909 30.3273 5.03024 30.1872 4.93387 30.0382C4.83749 29.8892 4.75864 29.7534 4.75864 29.7403C4.75864 29.7227 4.71922 29.6702 4.67541 29.622C4.55275 29.4905 4.16726 28.8027 4.10155 28.6055C4.0446 28.4347 3.77738 27.8476 3.52769 27.3394C3.31742 26.9144 3.05896 26.2003 3.0283 25.9724C3.01515 25.8585 2.95383 25.6132 2.89688 25.4336C1.91562 22.3098 1.85867 18.9538 2.72165 15.7029C2.80488 15.3919 2.8925 15.0983 2.9144 15.0545C2.94068 15.0151 2.98011 14.8399 3.00639 14.6734C3.05896 14.3623 3.15972 14.0162 3.22104 13.9329C3.23857 13.911 3.33056 13.692 3.42255 13.451C3.51893 13.21 3.62406 12.9691 3.66349 12.9165C3.70291 12.8683 3.80805 12.6405 3.90004 12.4127C4.17164 11.7336 4.55275 11.0107 4.7455 10.8004C4.80245 10.7391 4.93825 10.5112 5.04338 10.2922C5.1529 10.0731 5.27994 9.85844 5.3325 9.81025C5.38507 9.76644 5.51649 9.59995 5.626 9.44223C5.7399 9.28451 5.84065 9.14869 5.8538 9.13555C5.86694 9.1224 5.92827 9.04354 5.98522 8.9603C6.55031 8.14978 8.16238 6.49369 9.05165 5.80584C9.20935 5.68317 9.35829 5.56926 9.3802 5.55173C9.40648 5.53421 9.49409 5.46849 9.57732 5.41153C9.66056 5.3502 9.76131 5.26696 9.80074 5.22314C9.84016 5.18372 9.89273 5.14866 9.91463 5.14866C9.93653 5.14866 10.0636 5.05228 10.195 4.92961C10.3264 4.81131 10.4666 4.71493 10.506 4.71054C10.5454 4.71054 10.5936 4.68864 10.6068 4.66673C10.6199 4.64045 10.6725 4.62292 10.7207 4.62292C10.7645 4.62292 10.8039 4.60102 10.8039 4.57911C10.8039 4.55282 10.8302 4.5353 10.8608 4.5353C10.8915 4.5353 10.9616 4.49587 11.0142 4.44767C11.0667 4.39948 11.1281 4.36005 11.1587 4.36005C11.185 4.36005 11.2639 4.29871 11.3296 4.22861C11.3953 4.15414 11.4829 4.09718 11.5223 4.09718C11.5617 4.09718 11.5924 4.07527 11.5924 4.05337C11.5924 4.02708 11.6318 4.00956 11.6756 4.00956C11.7238 4.00956 11.7676 3.99641 11.7764 3.97451C11.7983 3.93069 12.4992 3.57144 12.5737 3.57144C12.6087 3.57144 12.7489 3.5101 12.8847 3.44C13.0205 3.36552 13.1607 3.30857 13.1913 3.30857C13.222 3.30857 13.257 3.29542 13.2658 3.27352C13.2833 3.22971 13.6469 3.04569 13.7214 3.04569C13.7564 3.04569 13.7827 3.02379 13.7827 3.00188C13.7827 2.97559 13.8221 2.95807 13.8703 2.95807C13.9185 2.95807 13.993 2.94054 14.0368 2.91864C14.0762 2.89673 14.1857 2.84854 14.2777 2.80911C14.3653 2.76968 14.5055 2.71272 14.5844 2.67767C14.7202 2.61634 14.856 2.59005 15.2634 2.53748C15.3641 2.51995 15.4474 2.49805 15.4474 2.48052C15.4474 2.45424 15.6094 2.40166 16.0168 2.30089C16.1001 2.27899 16.2797 2.23079 16.4111 2.18698C16.5425 2.14755 16.744 2.09498 16.8623 2.07745C16.9762 2.05555 17.1733 2.01611 17.3004 1.99421C17.9355 1.86715 18.5488 1.77953 19.1621 1.73572C19.46 1.71381 19.7185 1.67876 19.7316 1.66562C19.7754 1.62619 21.8606 1.67438 22.3687 1.73134Z"
    fill="#0B0C0E" />
  <path
    d="M19.3779 3.07259C19.3648 3.09011 19.1764 3.1164 18.9661 3.13831C18.7559 3.16021 18.4448 3.19526 18.274 3.22155C17.8578 3.2785 17.6651 3.31793 16.916 3.48442C16.8065 3.50632 16.6269 3.55014 16.513 3.57204C16.3947 3.59833 16.1888 3.629 16.0486 3.64652C15.9128 3.65967 15.7858 3.68595 15.7727 3.70786C15.7595 3.72977 15.7026 3.74729 15.6412 3.74729C15.5843 3.74729 15.5361 3.76481 15.5361 3.7911C15.5361 3.81301 15.4967 3.83492 15.4529 3.83492C15.4047 3.83492 15.3521 3.85244 15.339 3.87873C15.3258 3.90063 15.2645 3.92254 15.2076 3.92254C15.1506 3.92254 15.0893 3.94006 15.0761 3.96635C15.063 3.98825 15.0017 4.01016 14.9447 4.01016C14.8878 4.01016 14.8264 4.02768 14.8133 4.05397C14.8002 4.07588 14.7388 4.09779 14.6775 4.09779C14.6206 4.09779 14.5724 4.11093 14.5724 4.12845C14.5724 4.16788 14.3577 4.27303 14.2789 4.27303C14.2482 4.27303 14.2219 4.29056 14.2219 4.31684C14.2219 4.33875 14.1956 4.36066 14.165 4.36066C14.1343 4.36066 14.0248 4.40009 13.924 4.44828C13.8277 4.49647 13.7138 4.5359 13.6743 4.5359C13.6393 4.5359 13.6086 4.55343 13.6086 4.57095C13.6086 4.58848 13.5166 4.63229 13.4027 4.66734C13.175 4.73306 12.8508 4.8864 12.8289 4.93897C12.8201 4.96088 12.7763 4.97402 12.7281 4.97402C12.6843 4.97402 12.6449 4.99155 12.6449 5.01783C12.6449 5.03974 12.6055 5.06165 12.5617 5.06165C12.5135 5.06165 12.4697 5.07479 12.4609 5.09669C12.4127 5.21061 11.6505 5.67501 11.5147 5.67501C11.484 5.67501 11.357 5.76264 11.2256 5.86778C11.0985 5.96855 10.8795 6.13066 10.7437 6.22266C10.6079 6.31029 10.4414 6.44172 10.3757 6.5162C10.31 6.5863 10.1918 6.67392 10.1129 6.70459C10.0341 6.73964 9.94206 6.79222 9.91139 6.82288C9.88073 6.85355 9.77121 6.94994 9.66608 7.03318C9.56094 7.11642 9.42076 7.24348 9.35944 7.31358C9.0747 7.6334 9.02213 7.6816 8.89509 7.74731C8.74615 7.82179 8.17667 8.40887 8.17667 8.48773C8.17667 8.53155 8.06277 8.64984 7.82184 8.85575C7.61157 9.03538 7.12532 9.64875 7.12532 9.74076C7.12532 9.76266 7.06837 9.82838 7.00266 9.88533C6.88877 9.98172 6.51203 10.4987 6.51203 10.5557C6.51203 10.5688 6.43756 10.6608 6.34119 10.7616C6.24919 10.8623 6.14406 11.0244 6.1134 11.1252C6.08273 11.2216 6.04331 11.3136 6.03016 11.3267C6.01702 11.3399 5.98198 11.3925 5.95131 11.445C5.81551 11.6948 5.78485 11.743 5.71038 11.8262C5.61839 11.9313 5.13652 12.8952 4.98758 13.2808C4.93063 13.421 4.80797 13.7057 4.71598 13.9116C4.62398 14.1176 4.49257 14.433 4.43124 14.6126C4.36991 14.7923 4.29106 14.9982 4.26039 15.0727C4.19906 15.2172 4.14212 15.4538 4.03698 15.9927C3.99756 16.1855 3.92747 16.5097 3.88366 16.7156C3.3317 19.1472 3.36237 21.7934 3.97127 24.1855C4.01508 24.352 4.06327 24.6105 4.08079 24.7551C4.10707 25.0092 4.47942 26.1658 4.60646 26.3936C4.69407 26.5514 5.01386 27.2874 5.12776 27.6029C5.28108 28.0147 5.50449 28.4616 5.57458 28.4879C5.60962 28.501 5.63591 28.536 5.63591 28.5711C5.63591 28.6061 5.65343 28.6324 5.67095 28.6324C5.69286 28.6324 5.73228 28.7025 5.76733 28.7858C5.80237 28.869 5.8418 28.9391 5.8637 28.9391C5.88122 28.9391 5.89875 28.9654 5.89875 28.9917C5.89875 29.0224 5.93817 29.0968 5.98636 29.1582C6.03454 29.2195 6.07397 29.294 6.07397 29.3247C6.07397 29.3904 6.59526 30.179 6.65221 30.2009C6.66973 30.2097 6.68726 30.236 6.68726 30.2622C6.68726 30.2885 6.76611 30.3849 6.86686 30.4813C6.96324 30.5733 7.09903 30.7529 7.16474 30.88C7.32683 31.1911 7.47139 31.3619 7.8306 31.6774C7.97516 31.8044 8.07591 31.9227 8.22047 32.1374C8.32561 32.2995 8.7111 32.6631 8.77243 32.6631C8.8031 32.6631 9.21049 33.075 9.33753 33.2327C9.44267 33.3641 9.7055 33.57 9.97272 33.7234C10.0822 33.7891 10.2837 33.9512 10.4239 34.0826C10.5685 34.2185 10.7043 34.328 10.7262 34.328C10.7525 34.328 10.805 34.363 10.8445 34.4068C10.8839 34.4463 10.9671 34.5076 11.0372 34.5427C11.1029 34.5777 11.1555 34.6215 11.1555 34.6434C11.1555 34.661 11.1949 34.6785 11.2431 34.6785C11.2913 34.6785 11.3307 34.696 11.3307 34.7223C11.3307 34.7442 11.3614 34.7661 11.3964 34.7661C11.4358 34.7661 11.5059 34.8055 11.5585 34.8537C11.6111 34.9019 11.6812 34.9413 11.7118 34.9413C11.7425 34.9413 11.7688 34.9589 11.7688 34.9808C11.7688 35.0027 11.8038 35.029 11.8476 35.0421C11.9265 35.0684 12.1674 35.2086 12.2068 35.2524C12.3164 35.3751 12.7369 35.5985 13.0173 35.6818C13.1969 35.7387 13.394 35.822 13.4334 35.8614C13.486 35.914 13.6568 35.9928 13.7182 35.9928C13.7532 35.9928 13.7839 36.0104 13.7839 36.0366C13.7839 36.0585 13.8101 36.0805 13.8408 36.0805C13.8715 36.0805 13.981 36.1199 14.0817 36.1681C14.1781 36.2163 14.2833 36.2557 14.3095 36.2557C14.3358 36.2557 14.3971 36.2951 14.4497 36.3433C14.5023 36.3915 14.5899 36.431 14.6468 36.431C14.7038 36.431 14.7476 36.4485 14.7476 36.4748C14.7476 36.4967 14.8089 36.5186 14.879 36.5186C14.9535 36.5186 15.0104 36.5361 15.0104 36.5624C15.0104 36.5843 15.0718 36.6062 15.1419 36.6062C15.2163 36.6062 15.2733 36.6237 15.2733 36.6456C15.2733 36.6675 15.339 36.6938 15.4178 36.707C15.4923 36.7245 15.6675 36.7552 15.7989 36.7814C15.9304 36.8077 16.1056 36.8384 16.1844 36.8559C16.2633 36.8691 16.3378 36.8954 16.3509 36.9173C16.364 36.9392 16.421 36.9567 16.4779 36.9567C16.5349 36.9567 16.5918 36.9742 16.605 36.9961C16.6181 37.018 16.7057 37.0443 16.7933 37.0618C16.8853 37.075 17.0387 37.0969 17.135 37.11C17.2314 37.1276 17.3497 37.1538 17.3979 37.1758C17.4942 37.2152 17.63 37.2459 18.0769 37.3116C18.734 37.408 19.0625 37.443 19.8729 37.4824C21.2178 37.5525 22.8123 37.4474 23.8374 37.2196C24.0958 37.1626 24.4375 37.0925 24.639 37.0575C24.7179 37.0443 24.7924 37.018 24.8055 36.9961C24.8186 36.9742 24.8843 36.9567 24.9544 36.9567C25.0245 36.9567 25.0946 36.9348 25.1078 36.9129C25.1209 36.8866 25.191 36.8691 25.2611 36.8691C25.3312 36.8691 25.4013 36.8472 25.4144 36.8253C25.4275 36.799 25.5195 36.7814 25.6115 36.7814C25.7035 36.7814 25.7955 36.7639 25.8087 36.7376C25.8218 36.7157 25.9138 36.6938 26.0058 36.6938C26.0978 36.6938 26.1898 36.6719 26.2029 36.65C26.2161 36.6237 26.2774 36.6062 26.3343 36.6062C26.3913 36.6062 26.4526 36.5887 26.4658 36.5624C26.4789 36.5405 26.5402 36.5186 26.6016 36.5186C26.6585 36.5186 26.7067 36.4967 26.7067 36.4748C26.7067 36.4485 26.7461 36.431 26.7943 36.431C26.8425 36.431 26.8819 36.409 26.8819 36.3871C26.8819 36.3609 26.9213 36.3433 26.9695 36.3433C27.0177 36.3433 27.0571 36.3214 27.0571 36.2995C27.0571 36.2732 27.0878 36.2557 27.1228 36.2557C27.1973 36.2557 27.7931 36.0016 27.8456 35.949C27.8895 35.9052 28.2662 35.7343 28.437 35.6818C28.6999 35.6029 28.8181 35.546 28.9846 35.4145C29.0678 35.3444 29.1598 35.2918 29.1905 35.2918C29.2212 35.2918 29.2474 35.2743 29.2474 35.2524C29.2474 35.2305 29.2825 35.2042 29.3263 35.1911C29.4314 35.1516 29.7906 34.937 29.9352 34.8187C30.0009 34.7661 30.1061 34.7048 30.1674 34.6916C30.2243 34.6785 30.3119 34.6259 30.3601 34.5821C30.4083 34.5383 30.474 34.5032 30.5047 34.5032C30.5354 34.5032 30.5616 34.4857 30.5616 34.4682C30.5616 34.4507 30.6142 34.4025 30.6843 34.363C30.75 34.3236 30.9033 34.1965 31.026 34.0783C31.1443 33.96 31.4071 33.7672 31.6042 33.6489C31.8014 33.5306 31.9634 33.4123 31.9634 33.3904C31.9634 33.3641 32.0072 33.2896 32.0642 33.2283C32.1956 33.075 32.8001 32.5755 32.8483 32.5755C32.9053 32.5755 32.9797 32.4923 33.0542 32.3477C33.1769 32.1111 33.7332 31.524 33.8296 31.524C33.8646 31.524 33.8909 31.4934 33.8909 31.4583C33.8909 31.4233 33.9084 31.3926 33.9303 31.3926C33.9479 31.3926 34.0136 31.3006 34.0705 31.1867C34.1275 31.0728 34.1975 30.9545 34.2195 30.9282C34.2457 30.9019 34.3114 30.8143 34.3728 30.7354C34.4341 30.6565 34.5436 30.5295 34.6181 30.455C34.7846 30.2841 35.1175 29.7978 35.1175 29.719C35.1175 29.6883 35.1788 29.5919 35.2489 29.5087C35.319 29.4254 35.3803 29.329 35.3803 29.2984C35.3803 29.2721 35.3978 29.2458 35.4197 29.2458C35.4416 29.2458 35.4679 29.2108 35.4811 29.1669C35.5074 29.0925 35.6432 28.8515 35.687 28.8077C35.7001 28.7945 35.7351 28.7332 35.7702 28.6675C35.8052 28.6018 35.8666 28.5054 35.9148 28.4616C35.9586 28.4134 35.9936 28.3433 35.9936 28.3038C35.9936 28.2688 36.0155 28.2381 36.0374 28.2381C36.0637 28.2381 36.0812 28.1899 36.0812 28.133C36.0812 28.0716 36.1031 28.0103 36.125 27.9972C36.1513 27.984 36.1688 27.9139 36.1688 27.8394C36.1688 27.7693 36.1907 27.7124 36.2126 27.7124C36.2389 27.7124 36.2564 27.673 36.2564 27.6248C36.2564 27.5766 36.2783 27.5371 36.3002 27.5371C36.3265 27.5371 36.3441 27.5065 36.3441 27.4714C36.3441 27.4364 36.366 27.4057 36.3879 27.4057C36.4141 27.4057 36.4317 27.3663 36.4317 27.3181C36.4317 27.2699 36.4536 27.2305 36.4755 27.2305C36.5018 27.2305 36.5193 27.2042 36.5193 27.1691C36.5193 27.1341 36.5631 27.0202 36.6113 26.915C36.6638 26.8142 36.7208 26.6872 36.7383 26.639C36.7558 26.5908 36.8172 26.4506 36.8697 26.3323C37.0011 26.0432 37.0274 25.9731 37.0888 25.7409C37.115 25.6313 37.1588 25.4824 37.1808 25.4079C37.2027 25.3334 37.2202 25.2107 37.2202 25.1362C37.2202 25.0574 37.2421 24.996 37.264 24.996C37.2903 24.996 37.3078 24.9303 37.3078 24.8471C37.3078 24.7638 37.3297 24.6806 37.3516 24.6675C37.3779 24.6543 37.3954 24.5842 37.3954 24.5141C37.3954 24.444 37.4173 24.3739 37.4392 24.3608C37.4655 24.3476 37.483 24.2775 37.483 24.2074C37.483 24.1373 37.5049 24.0672 37.5268 24.0541C37.5531 24.041 37.5706 23.9446 37.5706 23.8394C37.5706 23.7386 37.5882 23.6379 37.6101 23.6116C37.632 23.5897 37.6626 23.4933 37.6758 23.3969C37.6889 23.3005 37.7196 23.0946 37.7459 22.9369C37.8554 22.214 37.8817 21.9818 37.9255 21.1494C37.978 20.2425 37.9342 18.8492 37.8335 18.1921C37.8116 18.03 37.7721 17.7759 37.7459 17.6225C37.7239 17.4736 37.6933 17.272 37.6801 17.1756C37.6626 17.0792 37.6363 16.961 37.6144 16.9128C37.5794 16.8251 37.5443 16.6762 37.5005 16.3651C37.4874 16.2819 37.4611 16.168 37.4348 16.111C37.3034 15.7956 37.3078 15.8087 37.2202 15.3574C37.1983 15.2479 37.1632 15.0814 37.1369 14.985C37.1107 14.8886 37.08 14.7572 37.0625 14.6871C37.0493 14.6214 37.0187 14.5557 36.9968 14.5425C36.9749 14.5294 36.9573 14.4724 36.9573 14.4111C36.9573 14.3541 36.9398 14.306 36.9135 14.306C36.8916 14.306 36.8697 14.2621 36.8697 14.2052C36.8697 14.1526 36.8303 14.0606 36.7821 13.9993C36.7339 13.9379 36.6945 13.8547 36.6945 13.8153C36.6945 13.7758 36.677 13.7276 36.6507 13.7145C36.6288 13.7013 36.6069 13.6488 36.6069 13.6006C36.6069 13.5568 36.5894 13.5173 36.5631 13.5173C36.5412 13.5173 36.5193 13.4779 36.5193 13.4297C36.5193 13.3815 36.5018 13.3421 36.4755 13.3421C36.4536 13.3421 36.4317 13.3027 36.4317 13.2501C36.4317 13.2019 36.3747 13.0748 36.3002 12.9697C36.2302 12.8645 36.1688 12.7375 36.1688 12.6893C36.1688 12.6411 36.1513 12.5885 36.125 12.5754C36.1031 12.5622 36.0812 12.514 36.0812 12.4702C36.0812 12.3695 35.8972 12.0102 35.7658 11.8569C35.6694 11.743 35.6344 11.686 35.503 11.445C35.4723 11.3925 35.4373 11.3399 35.4241 11.3267C35.3978 11.3005 35.3058 11.1384 35.1876 10.9105C35.135 10.8141 35.0605 10.6959 35.0211 10.652C34.9773 10.6038 34.9423 10.5381 34.9423 10.5075C34.9423 10.4768 34.9247 10.4505 34.8984 10.4505C34.8765 10.4505 34.8546 10.4198 34.8546 10.3848C34.8546 10.3497 34.8371 10.3191 34.8196 10.3191C34.8021 10.3191 34.7495 10.2577 34.7057 10.1789C34.6575 10.1044 34.5305 9.94667 34.4122 9.83276C34.2983 9.71885 34.1713 9.55236 34.1275 9.46036C34.0179 9.23254 33.8033 8.98719 33.4441 8.67612C33.3609 8.60164 33.1988 8.42202 33.0893 8.27744C32.879 8.00142 32.6074 7.73417 32.5329 7.73417C32.5066 7.73417 32.2788 7.52387 32.0248 7.26976C31.7137 6.96308 31.4816 6.77031 31.3282 6.70021C31.2056 6.63887 31.0304 6.5162 30.9427 6.4242C30.7631 6.23581 30.0491 5.74511 29.6855 5.56548C29.4183 5.42966 29.1029 5.23251 29.081 5.17994C29.0722 5.16241 29.0416 5.14927 29.0109 5.14927C28.9802 5.14927 28.9189 5.11422 28.8707 5.07041C28.7612 4.96964 28.2443 4.71115 28.1567 4.71115C28.1172 4.71115 27.9245 4.63229 27.723 4.5359C27.5259 4.43952 27.3463 4.36066 27.3287 4.36066C27.2937 4.36066 26.9651 4.21608 26.8293 4.1416C26.7855 4.11531 26.7198 4.09779 26.6848 4.09779C26.6497 4.09779 26.6191 4.08026 26.6191 4.06273C26.6191 4.04521 26.5271 4.00578 26.4132 3.97511C26.2949 3.94006 26.1679 3.89625 26.1284 3.87434C26.0846 3.85244 26.0189 3.83492 25.9839 3.83492C25.9488 3.83492 25.8831 3.81739 25.8393 3.79548C25.6597 3.70348 25.5327 3.66405 25.3487 3.64214C24.8887 3.5808 24.7967 3.56328 24.7135 3.52823C24.6653 3.50632 24.5558 3.48004 24.4726 3.46251C24.3105 3.43623 24.0696 3.38803 23.706 3.30917C23.4431 3.2566 23.0094 3.19088 22.5013 3.12516C22.072 3.07697 19.4217 3.02877 19.3779 3.07259ZM14.5154 6.0036C14.7038 6.09999 14.9228 6.3541 14.9228 6.48553C14.9228 6.54687 14.9447 6.59506 14.9666 6.59506C14.9929 6.59506 15.0104 6.62573 15.0104 6.66078C15.0104 6.69583 14.9929 6.7265 14.9666 6.7265C14.9447 6.7265 14.9228 6.78345 14.9228 6.85793C14.9228 7.03756 14.5592 7.38806 14.1913 7.55454C14.1431 7.57645 14.0861 7.62026 14.0686 7.64217C14.0555 7.66845 13.9941 7.69036 13.9372 7.69036C13.8802 7.69036 13.8189 7.70788 13.8058 7.73417C13.7926 7.75608 13.7357 7.77798 13.6787 7.77798C13.6262 7.77798 13.5254 7.83932 13.4509 7.9138C13.3808 7.98828 13.2845 8.06714 13.2363 8.08905C13.1005 8.15477 12.9691 8.23363 12.8858 8.30373C12.8026 8.37383 12.6668 8.45269 12.5354 8.51402C12.4872 8.54031 12.4083 8.60164 12.3602 8.65422C12.312 8.71117 12.1937 8.79004 12.0973 8.83385C12.0009 8.87766 11.8651 8.97405 11.7951 9.04415C11.7206 9.11863 11.6417 9.17996 11.6198 9.17996C11.5936 9.17996 11.4183 9.33769 11.2256 9.53046C11.0372 9.72323 10.8576 9.88095 10.8269 9.88095C10.7656 9.88095 10.2794 10.3804 10.2794 10.4461C10.2794 10.5075 9.90701 10.8886 9.84568 10.8886C9.82378 10.8886 9.77121 10.9412 9.73179 11.0069C9.68798 11.0683 9.58723 11.1865 9.50838 11.2698C9.42514 11.3487 9.32001 11.502 9.27182 11.6071C9.22364 11.7167 9.13602 11.8393 9.07469 11.8875C9.01337 11.9357 8.96518 12.0014 8.96518 12.0365C8.96518 12.0672 8.92575 12.1241 8.87757 12.1592C8.82938 12.1942 8.78995 12.2424 8.78995 12.2687C8.78995 12.295 8.75491 12.3563 8.71548 12.4045C8.67168 12.4483 8.61035 12.5403 8.5753 12.6061C8.54026 12.6762 8.49645 12.7287 8.47455 12.7287C8.45703 12.7287 8.4395 12.7638 8.4395 12.8076C8.4395 12.8514 8.40008 12.9127 8.35189 12.9478C8.30371 12.9828 8.26428 13.0442 8.26428 13.088C8.26428 13.1318 8.24676 13.1668 8.22047 13.1668C8.19857 13.1668 8.17667 13.1931 8.17667 13.2238C8.17667 13.3027 8.07153 13.5173 8.03649 13.5173C8.01458 13.5173 8.00144 13.5568 8.00144 13.605C8.00144 13.6532 7.98392 13.6926 7.95764 13.6926C7.93573 13.6926 7.91383 13.7233 7.91383 13.7583C7.91383 13.8328 7.59404 14.1614 7.44072 14.249C7.32683 14.3147 6.86248 14.3235 6.86248 14.2621C6.86248 14.2359 6.83182 14.2183 6.79677 14.2183C6.75735 14.2183 6.66097 14.1482 6.57774 14.065C6.43756 13.9292 6.42442 13.8941 6.42442 13.6532C6.42442 13.3859 6.53832 13.0924 6.7004 12.9434C6.73982 12.904 6.77487 12.847 6.77487 12.8207C6.77487 12.7901 6.81429 12.7287 6.86248 12.6761C6.91067 12.6236 6.95009 12.5535 6.95009 12.5228C6.95009 12.4921 6.972 12.4659 6.9939 12.4659C7.02018 12.4659 7.03771 12.4264 7.03771 12.3782C7.03771 12.33 7.05961 12.2906 7.08151 12.2906C7.1078 12.2906 7.12532 12.2424 7.12532 12.1855C7.12532 12.1329 7.18665 12.0234 7.25674 11.9489C7.33121 11.87 7.38816 11.7824 7.38816 11.7517C7.38816 11.7211 7.42758 11.6685 7.47577 11.6334C7.52395 11.5984 7.56338 11.5414 7.56338 11.502C7.56338 11.4626 7.60281 11.4056 7.65099 11.3706C7.69918 11.3355 7.73861 11.2786 7.73861 11.2479C7.73861 11.2128 7.83498 11.0902 7.95764 10.9719C8.08029 10.8536 8.17667 10.7265 8.17667 10.6915C8.17667 10.6564 8.19857 10.6258 8.22047 10.6258C8.24676 10.6258 8.26428 10.5951 8.26428 10.5557C8.26428 10.4461 8.76367 9.83714 8.85566 9.83714C8.91699 9.83714 9.19297 9.52608 9.28058 9.35959C9.35943 9.20625 9.68798 8.89519 9.85444 8.81194C9.9333 8.77689 10.1436 8.59288 10.3232 8.40887C10.6123 8.11095 10.8094 7.95323 11.0766 7.79551C11.1248 7.76922 11.2081 7.7035 11.2694 7.65093C11.3263 7.60274 11.392 7.55892 11.4096 7.55892C11.4315 7.55892 11.4928 7.51073 11.5497 7.44939C11.6067 7.38806 11.6768 7.33986 11.7031 7.33986C11.7337 7.33986 11.7907 7.30043 11.8345 7.25224C11.8783 7.20405 11.9352 7.16462 11.9659 7.16462C11.9966 7.16462 12.0535 7.12519 12.0973 7.07699C12.1411 7.0288 12.1981 6.98937 12.2287 6.98937C12.255 6.98937 12.3339 6.93241 12.3996 6.86231C12.4697 6.79221 12.5748 6.72211 12.6405 6.70459C12.8289 6.6564 13.2275 6.45486 13.3546 6.34095C13.4159 6.284 13.5955 6.17009 13.7488 6.09122C14.0555 5.92912 14.3095 5.90283 14.5154 6.0036ZM14.3314 15.927C14.3446 15.9489 14.4103 15.9708 14.476 15.9708C14.603 15.9708 14.7783 16.1022 14.8703 16.2643C14.9097 16.3388 14.9228 16.72 14.9228 17.7452V19.1253H15.0542C15.1287 19.1253 15.1857 19.1034 15.1857 19.0814C15.1857 19.0552 15.2251 19.0376 15.2733 19.0376C15.3215 19.0376 15.3609 19.0157 15.3609 18.9938C15.3609 18.9675 15.4266 18.95 15.5098 18.95C15.5931 18.95 15.6763 18.9281 15.6894 18.9062C15.707 18.8799 15.9391 18.8624 16.2414 18.8624C16.5612 18.8624 16.7627 18.8799 16.7627 18.9062C16.7627 18.9281 16.8415 18.95 16.9379 18.95C17.0343 18.95 17.1131 18.9675 17.1131 18.9938C17.1131 19.0157 17.1745 19.0376 17.2445 19.0376C17.319 19.0376 17.376 19.0552 17.376 19.0814C17.376 19.1034 17.4242 19.1253 17.4855 19.1253C17.5468 19.1253 17.595 19.1428 17.595 19.1691C17.595 19.191 17.6388 19.2129 17.6958 19.2129C17.7483 19.2129 17.8228 19.2523 17.8578 19.3005C17.8929 19.3487 17.9454 19.3881 17.9805 19.3881C18.0506 19.3881 18.3003 19.6379 18.3791 19.7956C18.4142 19.8613 18.458 19.9139 18.4799 19.9139C18.4974 19.9139 18.5149 19.9533 18.5149 20.0015C18.5149 20.0497 18.5368 20.0891 18.5587 20.0891C18.585 20.0891 18.6025 20.1285 18.6025 20.1767C18.6025 20.2249 18.6244 20.2644 18.6463 20.2644C18.6726 20.2644 18.6902 20.3038 18.6902 20.352C18.6902 20.4002 18.7121 20.4396 18.734 20.4396C18.7602 20.4396 18.7778 20.4966 18.7778 20.571C18.7778 20.6411 18.7953 20.7025 18.8172 20.7025C18.8785 20.7025 18.9179 21.0574 18.9355 21.881C18.9486 22.3805 18.9398 22.6609 18.9092 22.6915C18.8873 22.7135 18.8654 22.8098 18.8654 22.9018C18.8654 22.9938 18.8479 23.0683 18.8216 23.0683C18.7997 23.0683 18.7778 23.1078 18.7778 23.156C18.7778 23.2041 18.7602 23.2436 18.734 23.2436C18.7121 23.2436 18.6902 23.283 18.6902 23.3312C18.6902 23.3794 18.6726 23.4188 18.6463 23.4188C18.6244 23.4188 18.6025 23.4758 18.6025 23.5503C18.6025 23.6204 18.585 23.6817 18.5587 23.6817C18.5368 23.6817 18.5149 23.7211 18.5149 23.7693C18.5149 23.8175 18.4974 23.8569 18.4711 23.8569C18.4492 23.8569 18.4273 23.8876 18.4273 23.927C18.4273 24.019 18.1075 24.3213 17.9104 24.4134C17.8228 24.4528 17.7177 24.5185 17.6826 24.5579C17.6476 24.593 17.5643 24.6499 17.4986 24.685C17.4285 24.72 17.376 24.7638 17.376 24.7858C17.376 24.8033 17.3365 24.8208 17.2927 24.8208C17.2445 24.8208 17.192 24.8383 17.1788 24.8646C17.1657 24.8865 17.1044 24.9084 17.0474 24.9084C16.9905 24.9084 16.9291 24.926 16.916 24.9522C16.9029 24.9741 16.8109 24.996 16.7189 24.996C16.6269 24.996 16.5349 25.0136 16.5217 25.0399C16.5042 25.0661 16.1713 25.0837 15.6631 25.0837C15.1419 25.0837 14.8352 25.0661 14.8352 25.0399C14.8352 25.0136 14.7564 24.996 14.66 24.996C14.5636 24.996 14.4848 24.9741 14.4848 24.9522C14.4848 24.926 14.4366 24.9084 14.3796 24.9084C14.3183 24.9084 14.257 24.8865 14.2438 24.8646C14.2307 24.8383 14.1781 24.8208 14.1299 24.8208C14.0861 24.8208 14.0467 24.7989 14.0467 24.777C14.0467 24.7507 14.0204 24.7332 13.9897 24.7332C13.9109 24.7332 13.6962 24.628 13.6962 24.5886C13.6962 24.5711 13.6656 24.5579 13.6305 24.5579C13.5123 24.5579 13.2582 24.2469 13.2582 24.0979C13.2582 24.0629 13.2407 24.0322 13.2144 24.0322C13.1837 24.0322 13.1706 22.7047 13.1706 20.1329C13.1706 17.5612 13.1837 16.2337 13.2144 16.2337C13.2407 16.2337 13.2582 16.2074 13.2582 16.1723C13.2582 16.0891 13.4509 15.9708 13.5867 15.9708C13.6481 15.9708 13.6962 15.9489 13.6962 15.927C13.6962 15.9007 13.8277 15.8832 13.9985 15.8832C14.1694 15.8832 14.3183 15.9007 14.3314 15.927ZM21.8354 16.1241C22.0063 16.2118 22.2823 16.5184 22.2823 16.6192C22.2823 16.663 22.3042 16.72 22.3304 16.7463C22.3962 16.812 22.3962 17.2326 22.3261 17.4473C22.2472 17.7014 21.8573 18.0738 21.6734 18.0738C21.6033 18.0738 21.5288 18.0913 21.5157 18.1176C21.5025 18.1395 21.4237 18.1614 21.3404 18.1614C21.2572 18.1614 21.1783 18.1395 21.1652 18.1176C21.1521 18.0913 21.0513 18.0738 20.9418 18.0738C20.7929 18.0738 20.7184 18.0475 20.6395 17.9642C20.5782 17.9073 20.53 17.8328 20.53 17.8021C20.53 17.7671 20.4906 17.7145 20.4424 17.6795C20.3942 17.6444 20.3548 17.5831 20.3548 17.5393C20.3548 17.4955 20.3373 17.4604 20.311 17.4604C20.2847 17.4604 20.2672 17.2983 20.2672 17.0661C20.2672 16.8339 20.2847 16.6718 20.311 16.6718C20.3373 16.6718 20.3548 16.6367 20.3548 16.5929C20.3548 16.5491 20.3942 16.4878 20.4424 16.4527C20.4906 16.4177 20.53 16.3651 20.53 16.3301C20.53 16.2512 20.6395 16.146 20.7228 16.146C20.7622 16.146 20.7929 16.1241 20.7929 16.1022C20.7929 16.0278 21.6777 16.0497 21.8354 16.1241ZM25.7211 17.0661C25.7342 17.088 25.8043 17.1099 25.8788 17.1099C25.9488 17.1099 26.0058 17.1274 26.0058 17.1537C26.0058 17.1756 26.0321 17.1975 26.0627 17.1975C26.089 17.1975 26.1679 17.2852 26.238 17.3947C26.3519 17.5918 26.3562 17.6137 26.3562 18.2709V18.95H26.9651C27.3287 18.95 27.5872 18.9675 27.6047 18.9938C27.6179 19.0157 27.6792 19.0376 27.7405 19.0376C27.7975 19.0376 27.8456 19.0552 27.8456 19.0814C27.8456 19.1034 27.8763 19.1253 27.9157 19.1253C28.0121 19.1253 28.1085 19.2348 28.1085 19.3399C28.1085 19.3881 28.1304 19.4407 28.1523 19.4538C28.1786 19.467 28.1961 19.5984 28.1961 19.743C28.1961 19.8876 28.1786 20.0015 28.1523 20.0015C28.1304 20.0015 28.1085 20.0322 28.1085 20.0672C28.1085 20.1066 28.0384 20.203 27.9552 20.2863L27.8062 20.4396H27.079H26.3562V21.7715C26.3562 22.6171 26.3738 23.1165 26.4 23.134C26.4263 23.1472 26.4439 23.191 26.4439 23.2304C26.4439 23.2699 26.4964 23.3443 26.5665 23.4013C26.6716 23.4933 26.7286 23.5064 27.0484 23.5064C27.2586 23.5064 27.4076 23.4889 27.4076 23.4626C27.4076 23.4363 27.5127 23.4188 27.6398 23.4188C27.8413 23.4188 27.8938 23.4363 28.034 23.5678C28.1216 23.6466 28.1961 23.7474 28.1961 23.7825C28.1961 23.8175 28.218 23.8569 28.2399 23.8657C28.2662 23.8745 28.2925 24.019 28.2925 24.1899L28.3012 24.501L28.0953 24.7025C27.9815 24.8164 27.8632 24.9084 27.8281 24.9084C27.7931 24.9084 27.7493 24.926 27.7361 24.9522C27.723 24.9741 27.6441 24.996 27.5653 24.996C27.4908 24.996 27.4032 25.018 27.3769 25.0442C27.3156 25.1056 25.9926 25.1056 25.9707 25.0399C25.962 25.018 25.9226 24.996 25.8788 24.996C25.7211 24.996 25.3443 24.7638 25.0683 24.4878C24.8405 24.2644 24.7792 24.1768 24.7792 24.0716C24.7792 24.0015 24.7617 23.9095 24.7398 23.8657C24.604 23.5985 24.5865 23.3969 24.5646 21.9511L24.5383 20.4615L24.144 20.4484L23.7498 20.4352L23.5439 20.2293L23.3336 20.0278V19.6948C23.3336 19.3881 23.3424 19.3531 23.4563 19.2436C23.522 19.1778 23.6008 19.1253 23.6315 19.1253C23.6622 19.1253 23.6841 19.1034 23.6841 19.0814C23.6841 19.0552 23.7322 19.0376 23.7892 19.0376C23.8505 19.0376 23.9119 19.0157 23.925 18.9938C23.9381 18.9675 24.0871 18.95 24.2535 18.95H24.5514L24.5689 18.1921L24.5821 17.4297L24.7135 17.272C24.8099 17.1537 24.88 17.1143 24.9851 17.1143C25.0596 17.1099 25.1384 17.088 25.1516 17.0661C25.1647 17.0398 25.2961 17.0223 25.4363 17.0223C25.5765 17.0223 25.7079 17.0398 25.7211 17.0661ZM21.6909 18.9062C21.704 18.9281 21.7566 18.95 21.8048 18.95C21.8486 18.95 21.888 18.9675 21.888 18.9938C21.888 19.0157 21.9099 19.0376 21.9318 19.0376C21.9581 19.0376 22.0282 19.0814 22.0895 19.1384L22.199 19.2392V21.9205C22.199 24.9698 22.2253 24.7682 21.8092 24.9829C21.6558 25.0661 21.5463 25.0837 21.2484 25.0837C21.0338 25.0837 20.8805 25.0661 20.8805 25.0399C20.8805 25.0136 20.8454 24.996 20.806 24.996C20.7052 24.996 20.53 24.8252 20.53 24.7244C20.53 24.6806 20.5125 24.6456 20.4862 24.6456C20.4555 24.6456 20.4424 23.7167 20.4424 21.9511V19.2611L20.5826 19.1034C20.6614 19.0201 20.7622 18.95 20.8016 18.95C20.8454 18.95 20.8805 18.9281 20.8805 18.9062C20.8805 18.8799 21.0382 18.8624 21.2703 18.8624C21.4894 18.8624 21.6777 18.8799 21.6909 18.9062Z"
    fill="#0B0C0E" />
  <path
    d="M15.4483 20.3083C15.4483 20.3302 15.3914 20.3521 15.3169 20.3521C15.2468 20.3521 15.1855 20.3696 15.1855 20.3959C15.1855 20.4178 15.1548 20.4397 15.1154 20.4397C14.9314 20.4397 14.9227 20.4967 14.9227 21.9729C14.9227 23.4974 14.9227 23.5061 15.1592 23.5061C15.2205 23.5061 15.2731 23.5237 15.2731 23.5499C15.2731 23.5762 15.4615 23.5938 15.755 23.5938C16.0485 23.5938 16.2368 23.5762 16.2368 23.5499C16.2368 23.5237 16.2719 23.5061 16.3157 23.5061C16.3595 23.5061 16.4208 23.4667 16.4559 23.4185C16.4909 23.3703 16.5435 23.3309 16.5785 23.3309C16.6574 23.3309 16.9377 23.0418 16.9377 22.9586C16.9377 22.9235 16.9596 22.8929 16.9815 22.8929C17.0078 22.8929 17.0254 22.8315 17.0254 22.7614C17.0254 22.687 17.0473 22.63 17.0692 22.63C17.0954 22.63 17.113 22.5424 17.113 22.4329C17.113 22.3234 17.1349 22.1963 17.1655 22.1481C17.2093 22.0824 17.2093 22.0343 17.1655 21.916C17.1349 21.8371 17.113 21.6794 17.113 21.5743C17.113 21.3815 17.0341 21.1406 16.9728 21.1406C16.9509 21.1406 16.9377 21.1012 16.9377 21.053C16.9377 21.0048 16.9202 20.9654 16.8939 20.9654C16.872 20.9654 16.8501 20.9347 16.8501 20.8997C16.8501 20.7858 16.3814 20.3521 16.2587 20.3521C16.1974 20.3521 16.1492 20.3302 16.1492 20.3083C16.1492 20.282 16.0047 20.2645 15.7988 20.2645C15.5929 20.2645 15.4483 20.282 15.4483 20.3083Z"
    fill="#0B0C0E" />
</svg>