<svg xmlns="http://www.w3.org/2000/svg" width="201" height="35" viewBox="0 0 201 35" fill="none">
  <path
    d="M29.4355 15.3251C29.4355 23.7515 29.4964 30.6348 29.5573 30.6348C29.6182 30.6348 30.735 30.3708 32.0345 30.0459C33.334 29.7211 34.6538 29.3962 34.9786 29.3353L35.5269 29.2134L35.4862 15.4673L35.4253 1.72106L33.801 1.25406C32.9076 0.990095 31.5675 0.604309 30.8162 0.401262L29.4355 0.0154743V15.3251Z"
    fill="#0B0C0E" />
  <path
    d="M0.399963 15.3043C0.399963 25.5987 0.460877 29.2129 0.623314 29.2129C0.765446 29.2129 1.49641 29.0301 2.24768 28.8068C3.01925 28.5834 4.29844 28.218 5.07001 27.9946L6.49133 27.5682L6.49133 15.3246L6.49133 3.08091L3.54717 2.22812C1.94311 1.78141 0.582704 1.39563 0.501486 1.39563C0.440573 1.39563 0.399963 7.64944 0.399963 15.3043Z"
    fill="#0B0C0E" />
  <path
    d="M47.1003 16.1169V27.792H51.9328C57.1511 27.792 58.1663 27.6499 60.1156 26.6549C61.3541 26.0255 62.6943 24.726 63.2425 23.6296C63.547 23.0204 63.6486 22.4113 63.6486 21.193C63.6486 19.7717 63.5673 19.4265 63.0394 18.4925C62.3694 17.2539 61.3948 16.4214 59.8922 15.7514L58.8567 15.2844L59.7704 14.6549C62.3491 12.8275 62.5724 9.41636 60.278 6.97981C58.3897 4.98996 56.278 4.44174 50.4303 4.44174H47.1003V16.1169ZM54.9582 7.30468C57.2323 7.71077 58.2882 8.82752 58.2882 10.8377C58.2882 12.4011 57.7196 13.2742 56.278 13.924C55.344 14.3707 54.8567 14.4316 52.9278 14.4722L50.6536 14.4925L50.5927 11.0407C50.5724 9.1524 50.5927 7.48742 50.6333 7.34529C50.7755 7.02042 53.1511 7.00011 54.9582 7.30468ZM56.7044 17.5179C58.9176 18.0458 60.0953 19.2641 60.0953 21.0712C60.0953 22.8377 59.08 24.0966 57.1917 24.6448C56.542 24.8275 55.08 24.9697 53.3948 24.99L50.6536 25.0509L50.5927 21.1321L50.5521 17.2336H53.0293C54.41 17.2336 56.0547 17.3554 56.7044 17.5179Z"
    fill="#0B0C0E" />
  <path
    d="M113.05 4.56299C112.948 4.64421 112.887 9.9234 112.887 16.2787V27.832L117.314 27.7305C122.004 27.6493 123.019 27.4869 125.273 26.4513C127.791 25.294 129.497 23.4462 130.492 20.766C131.182 18.898 131.365 14.9995 130.877 12.9082C129.923 8.80665 127.263 6.18736 122.898 5.03C121.639 4.68482 120.502 4.5833 117.253 4.50208C115.019 4.44117 113.131 4.46147 113.05 4.56299ZM121.009 7.50715C124.217 8.01477 126.755 10.0046 127.527 12.6036C128.603 16.2787 127.893 20.3396 125.821 22.4716C124.177 24.1772 122.065 24.8879 118.471 24.9894L116.238 25.0503L116.177 16.1569L116.136 7.28381H117.903C118.898 7.28381 120.278 7.38533 121.009 7.50715Z"
    fill="#0B0C0E" />
  <path
    d="M84.2579 9.82213V11.7308L81.4762 11.7917L78.6742 11.8526L76.5016 16.9287C75.3036 19.7105 74.126 22.614 73.862 23.3653C73.6184 24.1369 73.3544 24.746 73.2732 24.746C73.192 24.746 73.0295 24.3196 72.9077 23.7714C72.7656 23.2435 71.6285 20.3399 70.3696 17.3348L68.0752 11.8526L66.4102 11.7917C65.5168 11.7511 64.7656 11.7917 64.7656 11.8729C64.7656 11.9338 66.2884 15.5277 68.1361 19.8323C70.3899 25.0506 71.4661 27.7917 71.3849 28.0962C71.3239 28.3399 70.6742 29.8627 69.9635 31.5074L68.6437 34.4922H70.2072L71.7706 34.4719L76.3392 24.3399L80.8874 14.1876H82.5727H84.2579V19.6089C84.2579 26.4516 84.3798 26.9795 86.1869 27.812C86.7757 28.0962 87.4864 28.1978 88.8874 28.1978H90.7554V26.878V25.5582H89.6793C89.0498 25.5582 88.4407 25.4363 88.1564 25.2333C87.7097 24.9287 87.7097 24.8678 87.7097 19.548V14.1876H89.2326H90.7554V12.9693V11.7511H89.2326H87.7097V9.82213V7.8932H85.9838H84.2579V9.82213Z"
    fill="#0B0C0E" />
  <path
    d="M22.9989 10.4924L20.2984 11.203L20.2984 17.7614V24.3198L21.7806 24.7462C22.5725 24.9898 23.7908 25.3553 24.4608 25.5583L25.6791 25.9238L25.74 21.8832C25.7603 19.6497 25.7603 16.0355 25.74 13.8223L25.6791 9.802L22.9989 10.4924Z"
    fill="#0B0C0E" />
  <path
    d="M98.1664 11.6094C94.8973 12.4622 92.8872 14.7972 92.339 18.3911C91.872 21.3759 92.806 24.2185 94.8973 26.1272C96.3999 27.4876 97.8212 28.0358 100.217 28.1576C103.121 28.2997 105.435 27.447 107.222 25.6195L108.116 24.7261L107.506 24.2185C106.085 23.0206 106.105 23.0206 105.253 23.8327C103.831 25.1322 102.897 25.4571 100.603 25.4571C98.7552 25.4571 98.4913 25.4165 97.6182 24.8886C97.0902 24.584 96.4202 24.0155 96.1156 23.6297C95.5674 22.8987 94.938 21.1728 95.141 20.8683C95.2019 20.7668 98.3085 20.6855 102.045 20.6855H108.826V20.0155C108.826 18.8378 108.237 16.6246 107.669 15.5891C106.897 14.1475 105.05 12.5028 103.608 11.9546C102.166 11.4063 99.5877 11.2439 98.1664 11.6094ZM102.146 14.2287C103.628 14.6551 105.05 16.2591 105.456 17.8835L105.578 18.452H100.298H95.0192L95.141 17.8835C95.4862 16.4013 96.7248 14.9799 98.2679 14.3099C99.1207 13.9444 101.07 13.9038 102.146 14.2287Z"
    fill="#0B0C0E" />
  <path
    d="M173.862 11.6499C172.258 12.0966 171.222 12.6854 170.146 13.7819C166.288 17.6194 167.121 24.4012 171.771 27.122C173.557 28.1778 176.725 28.523 178.898 27.8732C179.852 27.589 182.126 26.2895 182.126 26.0458C182.126 25.9849 181.7 25.4976 181.192 24.9494L180.258 23.9342L179.608 24.4824C178.654 25.2946 177.72 25.5991 176.238 25.5991C174.126 25.5991 172.684 24.7869 171.629 22.9595C171.182 22.2286 171.06 21.721 170.999 20.3402C170.938 19.3656 170.999 18.2895 171.141 17.7819C171.527 16.4012 172.603 15.122 173.882 14.4925C174.877 14.0052 175.202 13.9443 176.502 14.0255C177.781 14.0864 178.167 14.188 179.101 14.7768L180.197 15.4468L181.09 14.4722L181.964 13.4976L181.293 12.9291C179.71 11.6093 176.156 11.0001 173.862 11.6499Z"
    fill="#0B0C0E" />
  <path
    d="M189.436 11.6494C187.892 12.0961 186.816 12.7661 185.618 14.0859C184.319 15.5072 183.73 16.9895 183.608 19.2839C183.364 23.0402 185.029 25.8829 188.38 27.4463C190.999 28.6646 194.897 28.4006 197.354 26.8169C198.43 26.1265 199.588 25.0707 199.588 24.7864C199.588 24.6849 199.182 24.2585 198.674 23.8524L197.781 23.1011L196.603 24.0148C195.1 25.1925 193.963 25.5783 192.116 25.5783C189.212 25.5783 186.897 23.7915 186.552 21.294L186.491 20.7864L193.456 20.7255L200.4 20.6849V19.8118C200.4 18.6341 199.892 16.7661 199.243 15.5478C198.471 14.1468 196.603 12.4819 195.182 11.9539C193.639 11.3651 190.979 11.223 189.436 11.6494ZM194.207 14.4717C194.776 14.7357 195.466 15.2027 195.771 15.5275C196.319 16.1164 197.131 17.7204 197.151 18.1874C197.151 18.3905 195.953 18.4514 191.791 18.4514H186.43L186.633 17.7001C187.04 16.2179 188.441 14.756 189.943 14.228C191.08 13.822 193.09 13.9438 194.207 14.4717Z"
    fill="#0B0C0E" />
  <path
    d="M138.126 11.8523C135.933 12.5223 134.228 14.1061 133.395 16.2381C132.969 17.3548 132.887 17.8624 132.887 19.7711C132.887 21.7812 132.948 22.1264 133.436 23.1822C134.187 24.7863 135.019 25.8015 136.299 26.634C137.943 27.7101 139.222 28.0553 141.294 27.9538C143.324 27.8523 144.481 27.4056 145.761 26.2685L146.593 25.5172V26.6543V27.7914L148.014 27.7914H149.436V19.7711V11.7507H148.116L146.796 11.7507V12.9893V14.2279L145.781 13.2939C144.339 12.0147 142.979 11.5477 140.745 11.568C139.771 11.568 138.593 11.6898 138.126 11.8523ZM143.71 14.5731C144.664 15.0604 145.903 16.4005 146.349 17.4157C146.816 18.5325 146.776 21.1518 146.248 22.3497C144.684 25.8218 139.953 26.6543 137.314 23.8929C136.258 22.7964 135.832 21.6391 135.832 19.7507C135.832 18.4106 135.913 17.9436 136.36 17.0705C136.989 15.7914 138.228 14.6746 139.486 14.2888C140.664 13.903 142.674 14.0452 143.71 14.5731Z"
    fill="#0B0C0E" />
  <path
    d="M157.659 11.8529C157.212 12.0356 156.501 12.4417 156.095 12.7666C155.689 13.1118 155.303 13.3757 155.243 13.3757C155.182 13.3757 155.121 13.0103 155.121 12.5636V11.7514H153.699H152.278V19.7717V27.792H153.679H155.1L155.161 22.4519C155.222 17.4976 155.263 17.0712 155.669 16.1778C155.953 15.5483 156.4 15.0407 156.968 14.6549C157.72 14.1473 158.024 14.0864 159.364 14.0864C161.171 14.0864 161.923 14.4925 162.552 15.7514C162.897 16.4417 162.938 17.1321 162.999 22.1473L163.06 27.792H164.583H166.105L166.024 22.0458C165.984 18.2895 165.882 16.056 165.72 15.5686C165.293 14.3301 164.217 12.9087 163.161 12.2793C162.288 11.7311 161.984 11.6702 160.319 11.6092C159.04 11.5686 158.227 11.6499 157.659 11.8529Z"
    fill="#0B0C0E" />
  <path
    d="M10.0648 13.944C9.98354 14.0049 9.94293 17.5582 9.94293 21.8425C9.94293 29.0506 9.96324 29.6191 10.2881 29.6191C10.4912 29.6191 11.8516 29.3755 13.3338 29.0709L16.0343 28.5024L15.9937 21.9034L15.9328 15.3044L13.0495 14.5735C11.4658 14.1674 10.1257 13.8831 10.0648 13.944Z"
    fill="#0B0C0E" />
</svg>