<svg height="26" width="110" xmlns="http://www.w3.org/2000/svg" xmlns:xlink="http://www.w3.org/1999/xlink">
  <path d="m19.9 4.6c-3.9 0-6.4 2.6-6.4 6.2 0 3.8 2.5 6.3 6.6 6.3 1.8 0 3.9-.6 5.1-1.9l-1.9-1.8c-.7.7-2.1 1.1-3.2 1.1-2.1 0-3.4-1.1-3.5-2.5h9.4c.5-5-2.1-7.4-6.1-7.4zm-3.2 4.9c.5-1.5 1.8-2.3 3.4-2.3 1.7 0 2.9.8 3.1 2.3zm15.2 4.8c-.9 0-1.5-.5-1.5-1.7v-5.1h3.3v-2.5h-3.3v-3.3l-3 .3v10.7c0 3 1.7 4.4 4.3 4.3.9 0 1.6-.2 2.5-.5l-.9-2.5c-.4.2-.9.3-1.4.3zm22.4-9.7c-1.2 0-2.5.2-3.4 1.7l-.2-1.3h-2.8v11.9h3v-6.2c0-2.2 1.5-3 3-3 1 0 1.4.2 2 .6l1.3-2.5c-.6-.8-1.7-1.1-2.9-1.2zm8.7.1c-3.8 0-6.2 2.8-6.2 6.2s2.3 6.2 6.2 6.2 6.2-2.7 6.2-6.2c.1-3.4-2.4-6.2-6.2-6.2zm.1 9.7c-2.1 0-3.2-1.7-3.2-3.5s1.2-3.5 3.2-3.5 3.2 1.8 3.2 3.5c0 1.8-1.1 3.5-3.2 3.5zm16.3-3.4c0 1.8-1.2 3.4-3.1 3.4s-2.9-1.4-2.9-3.2v-6.2h-3v6.2c0 3.7 2.1 5.8 4.9 5.8 1.7 0 2.8-.6 4.1-1.8l.2 1.6h2.6v-11.8h-2.9zm11.3-6.3c-1.5 0-2.7.6-3.9 1.8l-.2-1.6h-2.6v11.9h2.9v-6.1c0-1.8 1.2-3.4 3.1-3.4s2.9 1.4 2.9 3.2v6.2h3v-6.2c-.1-3.6-2.3-5.8-5.2-5.8zm16.3-4.7v6.6c-.7-1.2-2.7-1.9-3.9-1.9-3.5 0-6.1 2.1-6.1 6.2 0 3.9 2.6 6.2 6.1 6.2 1.5 0 2.9-.5 3.8-1.9l.2 1.6h2.8v-16.8zm-3.7 14.3c-1.9 0-3.4-1.4-3.4-3.5s1.5-3.4 3.4-3.4c1.8 0 3.5 1.4 3.5 3.4 0 2.2-1.6 3.5-3.5 3.5zm-59-9.2c-1.4-.8-4.2-.8-5.8-.5-1.9.5-3.1 2-3.2 3.8l2.8.6c.3-1.3.6-1.8 1.9-2 .8-.2 2.1-.1 2.8.6.4.4.4.5.4 1.2 0 .3-.6.4-1 .5-1.3.3-3.4.5-4.7.8-2.5.7-2.9 3.7-1.6 5.3s4.6 2 6.4.8c.3-.2.5-.4.9-.6v1.1h3.1v-3c0-1.8.1-3.6 0-5.4-.1-1.4-.8-2.5-2-3.2zm-2.3 9c-.4.2-.8.3-1.2.5-.5.1-1.2.2-1.7.1-.4-.1-.8-.3-1-.6-.2-.2-.2-.4-.2-.7 0-.2.1-.4.2-.6s.4-.4.6-.5c.8-.3 1.6-.5 2.5-.5l1.4-.2h.4c.1 0 .1 0 .1.1 0 .2 0 .4-.1.6 0 .2-.1.4-.2.6-.1.4-.4.8-.8 1.2zm-35.8 3c-3.9 0-6.2-2.7-6.2-6.2s2.4-6.2 6.2-6.2h7.4s-.3 1.9-2.1 2.7h-5.3c-2.1 0-3.3 1.8-3.3 3.5 0 1.8 1.1 3.5 3.2 3.5s3.2-1.7 3.2-3.5c0-1-.4-2-1.1-2.6h3.5c.4.8.5 1.7.5 2.6 0 2-.8 3.7-2.1 4.8 1.7 1 2.1 2.4 2.1 3.8 0 3.4-2.6 5.5-6.1 5.5-3.4 0-5.9-1.9-6.2-4.8l3-.3c.2 1.4 1.5 2.4 3.2 2.4 1.8 0 3.1-.9 3.1-2.7.2-1.8-1.4-2.5-3-2.5z" />
</svg>
