<svg xmlns="http://www.w3.org/2000/svg" viewBox="0 0 432 80"><path d="M46 39.7h3.5c6.8 0 12 0 17.1 4.8 5.6 7.2 5 14.8 4.4 23.5a15.8 15.8 0 0 1-6.8 10.2c-5.6 3-12 2.3-18.3 2.2h-3.8c-7.9 0-13-.5-19-6L21 72l-2 1c-9.2 5-9.2 5-15 4-2.8-2.1-3.9-3.3-4.5-6.8V60l-.1-3.6v-6.6c.6-2.8.6-2.8 3-5.2C5 43 5 43 8.3 43c3.6 1 6.5 2.4 9.8 4.3 2 1 2 1 4.8-.3l2.4-2.4c5.9-5.8 12.7-5 20.5-5ZM31.1 50.3c-2.1 3-1.7 6.6-1.7 10.2v2.3c-.1 3.5 0 5.6 2.3 8.2 4.8 1.5 9.3 1.4 14.3 1.3h3c6.2 0 6.2 0 11.9-2.3 1.6-3.1 1.2-6.5 1.3-10v-2c.1-4 .1-4-1.5-7.6-2.6-1.8-4.5-1.7-7.7-1.7H35.7c-2.7.2-2.7.2-4.5 1.7ZM9 53c-1.3 1.1-1.3 1.1-1.1 4v7.2L8 67l2 1c2.7-1.2 2.7-1.2 5.6-3 1-.5 2-1 3-1.7L21 62v-4l-4.9-2.5-2.7-1.4C11 52.9 11 52.9 9 53Z" fill="black"/><path d="M34.1.8A64 64 0 0 1 44 8l2.5-1.5c5.2-2.2 9.2-2.3 14.6-.4 4.4 2.9 8 6 9.6 11.1.8 5.3 0 9-2.7 13.8-3.3 3.8-6.2 6.6-11.4 7.3A26 26 0 0 1 40 33l-2.3 2c-5.1 3.9-10.5 3.5-16.7 3-5.8-1.8-9.6-6.1-13-11a21.5 21.5 0 0 1 .6-16.1C13.8 1.5 23.6-3 34 .8ZM17 14c-1.8 3.5-1 7.3 0 11 2.3 2.6 4.2 3.7 7.4 5 3.8 0 6.3-1.1 9.6-3 2.3-2.7 3-4.5 3.4-8-.5-3.8-2-6-4.4-9-6.3-3.1-11.9-1.4-16 4Zm31 2c-2.3 2.9-2.3 2.9-2 6.6 1.1 4 1.1 4 4 6.4 2.6 1.1 3.8 1 6.6.3 2.8-1.5 4-2.4 5.4-5.3 0-3.8-.2-6-2.7-9-4.5-2-7.2-1.8-11.2 1Z" fill="black"/><path d="M373.4 20c6 4.5 9 8.7 10.6 16 1 9.3 1.4 20-4 28a21.7 21.7 0 0 1-15 8.2 26 26 0 0 1-15-3.2 25.8 25.8 0 0 1-8.3-19 42 42 0 0 1 5-24.8c7.5-7.1 17-8.2 26.7-5.1Zm-17.8 10a36.6 36.6 0 0 0-2.6 24c1.5 4.1 3 7 7 9 3.9.4 6.9.4 10-2 3.3-5.2 3.5-9.6 3.4-15.5V43c0-5-.5-8.7-3.4-13-4.6-3-9.9-3.6-14.4-.1ZM293 19h10v22h20V19h10v52h-10V50h-20v21h-10V19Zm-95.8-.1h7.8l3 .1 1.5 4.6 1 3A20873.2 20873.2 0 0 1 223.3 67c.6 2.1.6 2.1.6 4.1h-11l-4-12-17-1-1.4 6c-1.5 5.9-1.5 5.9-2.6 7a91.5 91.5 0 0 1-7.8 0H178a205 205 0 0 1 5-19l.9-2.8A3333 3333 0 0 1 190 29l.9-2.7.7-2.5.7-2.1c1-3 1.4-2.7 4.8-2.8ZM200 29l-2.5 8.9-.7 2.5-.7 2.5-.6 2.2c-.6 1.9-.6 1.9-.5 3.9h11c-.6-7-2.9-13.4-5-20h-1ZM91 19h10l1 21 6.2-10c5.2-8.5 5.2-8.5 7.8-11 2.8-.5 2.8-.5 5.8-.3l3 .1 2.2.2a40.2 40.2 0 0 1-6.9 12.3 561.5 561.5 0 0 1-5.5 8l-1.7 2.4c-1.2 2.3-1.2 2.3-.2 4.8a56 56 0 0 0 4.3 6.8l1.7 2.3 1.8 2.5 3.5 4.7 1.6 2.2c1.3 2 2.4 3.9 3.4 6-4.5 1.4-8.7 2.2-13 0-5.8-6-9.9-13.7-14-21l-1 21H91V19Zm302 0h10v3.3a2003.5 2003.5 0 0 0 .5 25.1v2.4c.1 4.5.7 7.6 3.5 11.2 2.6 1.1 5.2 1.2 8 1 3-1 3-1 5-3 1.3-4 1.2-8.1 1.3-12.3v-2.4A3016.2 3016.2 0 0 0 422 19h10a2178.6 2178.6 0 0 1 .3 29v2.4c0 6.6-1.3 11.1-5.5 16.4a24.6 24.6 0 0 1-17.6 5.5c-5.3-.7-9.5-2.2-13.1-6.3a15 15 0 0 1-3.2-10.1v-5.2A348983952.3 348983952.3 0 0 0 393 19Zm-259 0h10v3.1a2772 2772 0 0 0 .6 25.9c.1 4.3.7 8 2.4 12 3.1 2.4 6.2 2.2 10 2 2.3-.4 2.3-.4 4-1 1.2-4.2 1.2-8.4 1.3-12.7v-2.5A3346.3 3346.3 0 0 0 163 19h10a2446.8 2446.8 0 0 1 .3 30.7v2.5c0 5-.5 8.4-3.3 12.8a23.5 23.5 0 0 1-17 7.3 20 20 0 0 1-13.8-5c-3.5-3.9-5.3-7-5.3-12.3v-5a331551677.3 331551677.3 0 0 0 .1-31Zm145.8 2 3.2 2a18 18 0 0 1-5 9l-6-3-4-.2h-2.1c-2.1 0-2.1 0-3.9 2.2-.3 2.5-.3 2.5 1 5 2.4 1.9 5 3.2 7.8 4.5 12 6.2 12 6.2 14.2 12.5.5 5 0 8.3-2.7 12.4-3 3.6-7.6 6-12.3 6.6a30 30 0 0 1-22-6c1.5-3.1 3.2-6 5-9l1.6.8L257 59l3.3 1.7a18 18 0 0 0 11.7.3c1.2-1 1.2-1 1.6-3.3-.3-2.7-.3-2.7-2-4a120 120 0 0 0-9-5c-5-2.6-8.7-4.7-11.6-9.7-1-5-.6-8.8 1.6-13.4a22.2 22.2 0 0 1 27.2-4.6ZM230 19h11v52h-11V19Z" fill="black"/></svg>