<svg width="231" height="137" viewBox="0 0 231 137" fill="none" xmlns="http://www.w3.org/2000/svg">
  <path
    d="M205.6 66.4224V63.2568H201.669V58.3356L201.536 58.3764L197.844 59.5061L197.771 59.5282V63.257H191.944V61.1797C191.944 60.2125 192.16 59.4723 192.586 58.9786C193.01 58.4909 193.615 58.243 194.387 58.243C194.942 58.243 195.517 58.3737 196.095 58.6316L196.241 58.6964V55.3626L196.172 55.3376C195.633 55.1436 194.899 55.0459 193.989 55.0459C192.842 55.0459 191.801 55.2954 190.892 55.7899C189.983 56.2851 189.268 56.9921 188.767 57.8909C188.268 58.7887 188.014 59.8256 188.014 60.9731V63.2568H185.277V66.4224H188.014V79.7583H191.944V66.4224H197.771V74.8972C197.771 78.3875 199.418 80.1562 202.665 80.1562C203.198 80.1562 203.76 80.0937 204.333 79.9713C204.917 79.8456 205.314 79.72 205.548 79.5859L205.6 79.5553V76.3605L205.44 76.4662C205.227 76.6083 204.961 76.7244 204.65 76.8108C204.337 76.8987 204.076 76.9428 203.874 76.9428C203.113 76.9428 202.55 76.7378 202.201 76.3333C201.848 75.9252 201.669 75.2114 201.669 74.213V66.4224H205.6ZM176.502 76.9433C175.076 76.9433 173.951 76.4704 173.159 75.5388C172.361 74.6025 171.957 73.2677 171.957 71.5718C171.957 69.822 172.361 68.4525 173.159 67.4997C173.952 66.5532 175.066 66.0728 176.47 66.0728C177.832 66.0728 178.917 66.5316 179.694 67.4372C180.475 68.3475 180.871 69.706 180.871 71.4762C180.871 73.2681 180.498 74.6445 179.764 75.5653C179.034 76.4791 177.937 76.9433 176.502 76.9433ZM176.677 62.8593C173.956 62.8593 171.794 63.6566 170.253 65.2291C168.713 66.8018 167.933 68.9782 167.933 71.6983C167.933 74.282 168.695 76.3601 170.198 77.8741C171.702 79.3887 173.747 80.1559 176.279 80.1559C178.916 80.1559 181.035 79.3474 182.575 77.7531C184.115 76.1606 184.895 74.0048 184.895 71.3482C184.895 68.7241 184.163 66.6305 182.718 65.1266C181.273 63.622 179.24 62.8593 176.677 62.8593ZM161.597 62.8593C159.746 62.8593 158.215 63.3328 157.046 64.2662C155.869 65.2053 155.272 66.4369 155.272 67.9272C155.272 68.7019 155.401 69.39 155.654 69.9737C155.909 70.5592 156.304 71.0748 156.829 71.5075C157.349 71.9367 158.152 72.3863 159.217 72.8437C160.112 73.212 160.779 73.5235 161.203 73.769C161.618 74.0097 161.912 74.2515 162.078 74.4871C162.239 74.7176 162.321 75.0331 162.321 75.4225C162.321 76.5311 161.491 77.0706 159.783 77.0706C159.149 77.0706 158.426 76.9382 157.635 76.6774C156.849 76.4205 156.107 76.0443 155.435 75.562L155.272 75.4449V79.2281L155.332 79.256C155.887 79.5126 156.589 79.7291 157.415 79.8994C158.239 80.0698 158.989 80.1565 159.639 80.1565C161.648 80.1565 163.265 79.6808 164.446 78.7418C165.633 77.7963 166.235 76.5357 166.235 74.9938C166.235 73.8815 165.911 72.9277 165.273 72.1584C164.638 71.3954 163.537 70.6949 162.002 70.0757C160.778 69.5847 159.995 69.177 159.671 68.8641C159.359 68.5619 159.201 68.1344 159.201 67.593C159.201 67.1132 159.397 66.7287 159.798 66.4174C160.202 66.1045 160.764 65.9453 161.47 65.9453C162.125 65.9453 162.794 66.0487 163.461 66.2514C164.126 66.4541 164.711 66.7256 165.199 67.0576L165.36 67.1673V63.5786L165.298 63.5522C164.848 63.3591 164.254 63.1938 163.533 63.0597C162.815 62.9265 162.164 62.8593 161.597 62.8593ZM145.028 76.9433C143.602 76.9433 142.477 76.4704 141.685 75.5388C140.888 74.6025 140.484 73.2681 140.484 71.5718C140.484 69.822 140.888 68.4525 141.686 67.4997C142.478 66.5532 143.592 66.0728 144.997 66.0728C146.359 66.0728 147.443 66.5316 148.22 67.4372C149.001 68.3475 149.397 69.706 149.397 71.4762C149.397 73.2681 149.025 74.6445 148.29 75.5653C147.56 76.4791 146.463 76.9433 145.028 76.9433ZM145.203 62.8593C142.482 62.8593 140.32 63.6566 138.78 65.2291C137.24 66.8018 136.459 68.9782 136.459 71.6983C136.459 74.283 137.221 76.3601 138.725 77.8741C140.228 79.3887 142.274 80.1559 144.805 80.1559C147.443 80.1559 149.561 79.3474 151.102 77.7531C152.641 76.1606 153.422 74.0048 153.422 71.3482C153.422 68.7241 152.69 66.6305 151.244 65.1266C149.799 63.622 147.766 62.8593 145.203 62.8593ZM130.494 66.1146V63.2568H126.613V79.758H130.494V71.317C130.494 69.8817 130.819 68.7026 131.462 67.8119C132.096 66.9319 132.94 66.486 133.972 66.486C134.322 66.486 134.714 66.5436 135.139 66.6576C135.56 66.771 135.865 66.8941 136.044 67.0237L136.207 67.1419V63.2286L136.145 63.2017C135.783 63.0481 135.272 62.9706 134.625 62.9706C133.649 62.9706 132.776 63.284 132.029 63.9011C131.372 64.4435 130.898 65.1872 130.535 66.1146H130.494ZM119.661 62.8593C117.881 62.8593 116.292 63.2412 114.941 63.9939C113.587 64.7484 112.54 65.8255 111.828 67.1952C111.119 68.5615 110.759 70.1575 110.759 71.9374C110.759 73.4965 111.108 74.9273 111.798 76.1883C112.488 77.4514 113.466 78.4395 114.702 79.1249C115.938 79.8093 117.365 80.1564 118.946 80.1564C120.791 80.1564 122.366 79.7876 123.628 79.0603L123.679 79.031V75.4749L123.516 75.594C122.944 76.0107 122.305 76.3433 121.617 76.5828C120.931 76.8223 120.306 76.9433 119.757 76.9433C118.234 76.9433 117.012 76.4667 116.124 75.5271C115.235 74.5863 114.784 73.2653 114.784 71.6029C114.784 69.9301 115.254 68.5751 116.181 67.5753C117.105 66.5784 118.33 66.0728 119.821 66.0728C121.097 66.0728 122.34 66.5048 123.517 67.358L123.679 67.4762V63.7292L123.627 63.6996C123.184 63.4519 122.581 63.2473 121.831 63.0921C121.085 62.9373 120.355 62.8593 119.661 62.8593ZM108.085 63.257H104.204V79.758H108.085V63.257ZM106.184 56.2275C105.546 56.2275 104.988 56.445 104.531 56.8759C104.071 57.3081 103.838 57.8522 103.838 58.4944C103.838 59.1265 104.068 59.6607 104.523 60.0814C104.976 60.5008 105.535 60.7134 106.185 60.7134C106.834 60.7134 107.395 60.5008 107.853 60.0821C108.314 59.6607 108.547 59.1266 108.547 58.4944C108.547 57.8747 108.32 57.3361 107.872 56.8933C107.424 56.4514 106.856 56.2275 106.184 56.2275ZM96.4996 62.0396V79.758H100.461V56.7326H94.9783L88.0096 73.8352L81.2468 56.7326H75.541V79.7578H79.2635V62.0378H79.3913L86.5327 79.758H89.342L96.3718 62.0396H96.4996Z"
    fill="#0B0C0E" />
  <path d="M43.8599 67.299H25.6V49.0391H43.8599V67.299Z" fill="#0B0C0E" />
  <path d="M64.0216 67.299H45.762V49.0391H64.0216V67.299Z" fill="#0B0C0E" />
  <path d="M43.8594 87.4668H25.6V69.207H43.8594V87.4668Z" fill="#0B0C0E" />
  <path d="M64.0216 87.4668H45.762V69.207H64.0216V87.4668Z" fill="#0B0C0E" />
</svg>