<?xml version="1.0" encoding="UTF-8"?>
<svg id="Layer_1" data-name="Layer 1" xmlns="http://www.w3.org/2000/svg" viewBox="0 0 703 258">
  <defs>
    <style>
      .cls-1 {
        fill: #fff;
        fill-rule: evenodd;
      }

      .cls-2 {
        fill: #020504;
      }
    </style>
  </defs>
  <g>
    <path class="cls-2" d="M532.37,131.55v56.75h23.22v-53.26c0-23.74,32.28-23.74,32.28-23.74v-23.07s-9.01.42-16.14,2.03c-20.2,4.53-39.36,14.53-39.36,41.34v-.05Z"/>
    <path class="cls-2" d="M357.16,87.03c9.06,0,20.36,5.1,26.5,14.11,6.35-8.17,16.87-13.75,29.83-13.95,16.45-.21,36.81,10.05,36.81,40.77v60.19h-23.22v-60.19c0-10.26-7.39-17.6-18.48-17.6s-18.49,7.34-18.49,17.6v60.19h-23.22v-60.19c0-10.26-7.39-17.6-18.48-17.6s-18.69,7.34-18.69,17.6v60.19h-24.42v-98.15h24.42v9.84c6.61-7.97,16.24-12.91,27.54-12.91l-.1.1Z"/>
    <path class="cls-2" d="M503.79,91.3v96.95h-23.64v-96.95h23.64Z"/>
    <path class="cls-2" d="M491.91,75.89c7.29,0,13.17-5.88,13.17-13.12s-5.88-13.12-13.17-13.12-13.17,5.88-13.17,13.12,5.88,13.12,13.17,13.12Z"/>
    <path class="cls-2" d="M650.98,86.83c-28.64,0-51.81,23.07-51.81,51.55s23.22,51.55,51.81,51.55,51.81-23.07,51.81-51.55-23.22-51.55-51.81-51.55ZM650.98,166.75c-16.19,0-29.31-13.07-29.31-29.21s13.12-29.21,29.31-29.21,29.32,13.07,29.32,29.21-13.12,29.21-29.32,29.21Z"/>
  </g>
  <g>
    <path class="cls-2" d="M.5,64.85C.5,29.45,29.24.7,64.64.7h128.3c35.41,0,64.15,28.74,64.15,64.15v128.29c0,35.41-28.74,64.15-64.15,64.15H64.64C29.24,257.3.5,228.55.5,193.15V64.85Z"/>
    <path class="cls-1" d="M171.07,49.65h-23.27l19.42,34.1-42.7-34.1h-23.27l21.35,41.65-44.62-41.65h-23.27l23.27,53.06-23.27,106.11h23.27l44.62-113.66-21.35,113.66h23.27l42.7-121.27-19.42,121.27h23.27l42.7-132.62-42.7-26.5v-.05Z"/>
  </g>
</svg>