<svg xmlns="http://www.w3.org/2000/svg" x="0px" y="0px" viewBox="0 0 1556.9 540" style="enable-background:new 0 0 1556.9 540;">
<g>
	<g>
		<path d="M552.4,420.8c-23.7-23.7-95.5-95.5-107.7-107.7c-22.5-22.5-20.6-21.7-52.5-21.7H190.4c-31.9,0-30-0.8-52.5,21.7
			C125.8,325.3,54,397,30.3,420.8c24.8,50.1,63.1,91.1,109.1,119.2c27.6-27.6,110.2-110.2,124-124c11.3-11.3,16.3-15.7,22.4-17.5
			c1.9-0.6,3.5-1,5.5-1c2,0,3.5,0.4,5.5,1c6.1,1.9,11.1,6.2,22.4,17.5c13.8,13.8,96.5,96.5,124,124
			C489.4,511.8,527.6,470.9,552.4,420.8z"/>
		<path d="M153.6,280.8c8.1-8.8,7-16.2,14.9-36.9c7.2-18.7,18.4-35.2,32.6-48.5c25-23.5,57.4-35.8,90.3-35.8s65.3,12.3,90.3,35.8
			c14.1,13.3,25.4,29.8,32.6,48.5c8,20.6,6.8,28.1,14.9,36.9c7.9,8.5,16.2,10.6,42.1,10.6h111.5c0-84.2-36.2-161.3-94.4-214.7
			C433.5,26.3,362.8,0,291.4,0c-71.4,0-142.1,26.3-197,76.7C36.2,130.1,0,207.2,0,291.4h111.5C137.3,291.4,145.6,289.4,153.6,280.8z
			"/>
	</g>
	<g>
		<g>
			<path d="M1395.3,131.5c-89.1,0-161.6,71.6-161.6,159.7c0,88.1,72.5,159.7,161.6,159.7c89.1,0,161.7-71.6,161.7-159.7
				C1556.9,203.2,1484.4,131.5,1395.3,131.5z M1395.6,374.9c-46.1,0-83.7-37.5-83.7-83.7s37.5-83.7,83.7-83.7
				c46.1,0,83.7,37.5,83.7,83.7S1441.7,374.9,1395.6,374.9z"/>
		</g>
		<path d="M1111.9,165c0,92.4,0,184.7,0,277.1c25.2,0,50.4,0,75.7,0c0-100.9,0-201.8,0-302.7c-16.7,0-33.3,0-50,0
			c-4.4,0-7.6,0.1-11,1.1c-3.2,1-6.1,2.7-8.5,5.1c-2.4,2.4-4.1,5.3-5.1,8.5C1112,157.4,1111.9,160.5,1111.9,165z"/>
		<path d="M742.4,139.4c0,100.9,0,201.8,0,302.7c16.7,0,33.5,0,50.2,0c4.4,0,7.6-0.1,11-1.1c3.2-1,6.1-2.7,8.5-5.1s4.1-5.3,5.1-8.5
			c1-3.4,1.1-6.5,1.1-11c0-53.5,0-106.9,0-160.4C868.1,313.1,918.1,370,968,427c4.7,5.3,8.6,9.5,14.6,12.2c6.1,2.8,11.7,3,18.8,3
			c18.4,0,36.8,0,55.2,0c0-100.9,0-201.8,0-302.7c-16.7,0-33.5,0-50.2,0c-4.4,0-7.6,0.1-11,1.1c-3.2,1-6.1,2.7-8.5,5.1
			c-2.4,2.4-4.1,5.3-5.1,8.5c-1,3.4-1.1,6.5-1.1,11c0,53.5,0,106.9,0,160.4c-49.9-57-99.9-113.9-149.8-170.8
			c-4.7-5.3-8.6-9.5-14.6-12.2c-6.1-2.8-11.7-3-18.8-3C779.1,139.4,760.8,139.4,742.4,139.4z"/>
	</g>
</g>
</svg>
