<svg viewBox="0 0 144 35" fill="none" xmlns="http://www.w3.org/2000/svg">
<path d="M21.3632 11.55C21.8644 11.55 22.271 11.144 22.271 10.6435C22.271 10.143 21.8644 9.737 21.3632 9.737C20.862 9.737 20.4554 10.143 20.4554 10.6435C20.4554 11.144 20.862 11.55 21.3632 11.55ZM25.1872 16.1315C25.6884 16.1315 26.095 15.7255 26.095 15.225C26.095 14.7245 25.6884 14.3185 25.1872 14.3185C24.686 14.3185 24.2794 14.7245 24.2794 15.225C24.2759 15.7255 24.686 16.1315 25.1872 16.1315ZM13.7187 12.026C13.2175 12.026 12.8109 12.432 12.8109 12.9325C12.8109 13.433 13.2175 13.839 13.7187 13.839C14.2199 13.839 14.6265 13.433 14.6265 12.9325C14.6265 12.4355 14.2199 12.026 13.7187 12.026ZM21.3632 20.713C21.8644 20.713 22.271 20.307 22.271 19.8065C22.271 19.306 21.8644 18.9 21.3632 18.9C20.862 18.9 20.4554 19.306 20.4554 19.8065C20.4554 20.307 20.862 20.713 21.3632 20.713ZM18.4505 6.062C18.4505 5.5615 18.0439 5.1555 17.5427 5.1555C17.0415 5.1555 16.6349 5.5615 16.6349 6.062C16.6349 6.5625 17.0415 6.9685 17.5427 6.9685C18.0404 6.972 18.4505 6.5625 18.4505 6.062ZM35.0819 17.514C35.0819 7.8435 27.2272 0 17.5392 0C7.8548 0 0 7.8435 0 17.514C0 26.9815 7.52182 34.671 16.9188 35V22.715H15.7727C15.5063 23.597 14.6861 24.241 13.7152 24.241C12.5305 24.241 11.5666 23.2785 11.5666 22.0955C11.5666 20.9125 12.5305 19.95 13.7152 19.95C14.6861 19.95 15.5063 20.594 15.7727 21.476H16.9188V18.1335H11.9522C11.6858 19.0155 10.8656 19.6595 9.89473 19.6595C8.71002 19.6595 7.74614 18.697 7.74614 17.514C7.74614 16.331 8.71002 15.3685 9.89473 15.3685C10.8656 15.3685 11.6858 16.0125 11.9522 16.8945H16.9188V13.552H15.7727C15.5063 14.434 14.6861 15.078 13.7152 15.078C12.5305 15.078 11.5666 14.1155 11.5666 12.9325C11.5666 11.7495 12.5305 10.787 13.7152 10.787C14.6861 10.787 15.5063 11.431 15.7727 12.313H16.9188V8.1165C16.0356 7.8505 15.3906 7.0315 15.3906 6.062C15.3906 4.879 16.3545 3.9165 17.5392 3.9165C18.7239 3.9165 19.6878 4.879 19.6878 6.062C19.6878 7.0315 19.0429 7.8505 18.1596 8.1165V10.024H19.3058C19.5721 9.142 20.3923 8.498 21.3632 8.498C22.5479 8.498 23.5118 9.4605 23.5118 10.6435C23.5118 11.8265 22.5479 12.789 21.3632 12.789C20.3923 12.789 19.5721 12.145 19.3058 11.263H18.1596V14.6055H23.1263C23.3926 13.7235 24.2128 13.0795 25.1837 13.0795C26.3684 13.0795 27.3323 14.042 27.3323 15.225C27.3323 16.408 26.3684 17.3705 25.1837 17.3705C24.2128 17.3705 23.3926 16.7265 23.1263 15.8445H18.1596V19.187H19.3058C19.5721 18.305 20.3923 17.661 21.3632 17.661C22.5479 17.661 23.5118 18.6235 23.5118 19.8065C23.5118 20.9895 22.5479 21.952 21.3632 21.952C20.3923 21.952 19.5721 21.308 19.3058 20.426H18.1596V35C27.5601 34.671 35.0819 26.9815 35.0819 17.514ZM9.89473 16.6075C9.39351 16.6075 8.98692 17.0135 8.98692 17.514C8.98692 18.0145 9.39351 18.4205 9.89473 18.4205C10.3959 18.4205 10.8025 18.0145 10.8025 17.514C10.806 17.017 10.3959 16.6075 9.89473 16.6075ZM13.7187 21.189C13.2175 21.189 12.8109 21.595 12.8109 22.0955C12.8109 22.596 13.2175 23.002 13.7187 23.002C14.2199 23.002 14.6265 22.596 14.6265 22.0955C14.6265 21.595 14.2199 21.189 13.7187 21.189ZM52.0078 17.717C52.7964 18.4205 53.1925 19.446 53.1925 20.7935C53.1925 22.141 52.6878 23.233 51.6748 24.073C50.6618 24.913 49.3299 25.3295 47.6791 25.3295C45.2956 25.3295 43.147 24.4475 41.2368 22.6835L43.2417 20.2335C44.8645 21.6545 46.3647 22.3615 47.7422 22.3615C48.359 22.3615 48.8427 22.2285 49.1967 21.9625C49.5472 21.6965 49.726 21.3395 49.726 20.888C49.726 20.4365 49.5402 20.0795 49.1652 19.8135C48.7902 19.5475 48.0541 19.278 46.9465 19.005C45.194 18.5885 43.9146 18.0495 43.1015 17.381C42.2883 16.716 41.8852 15.666 41.8852 14.2415C41.8852 12.8135 42.4005 11.7145 43.4239 10.941C44.4509 10.1675 45.7303 9.779 47.269 9.779C48.2749 9.779 49.2809 9.9505 50.2833 10.297C51.2893 10.64 52.1655 11.1265 52.9121 11.76L51.2121 14.2135C49.9048 13.223 48.5553 12.7295 47.1603 12.7295C46.5995 12.7295 46.1579 12.8625 45.8354 13.1285C45.5129 13.3945 45.3517 13.7445 45.3517 14.182C45.3517 14.6195 45.548 14.966 45.9441 15.225C46.3401 15.484 47.2514 15.7885 48.678 16.1385C50.1081 16.485 51.2192 17.0135 52.0078 17.717ZM59.4875 22.1795H67.2056V25.1405H56.1332V10.1395H66.9673V13.1215H59.4875V16.212H66.2172V19.068H59.4875V22.1795ZM83.6127 24.843C83.441 24.9725 83.2096 25.0845 82.9257 25.1755C82.6383 25.2665 82.3439 25.3155 82.0425 25.3155C81.741 25.3155 81.4501 25.242 81.1732 25.0915C80.8928 24.941 80.6895 24.759 80.5598 24.5455C81.9058 23.9295 82.9783 22.9985 83.774 21.756C84.5696 20.51 84.9657 19.11 84.9657 17.549C84.9657 15.344 84.2051 13.503 82.6874 12.0225C81.1662 10.542 79.298 9.8 77.0758 9.8C74.8536 9.8 72.9855 10.542 71.4643 12.0225C69.9466 13.503 69.186 15.3475 69.186 17.549C69.186 19.754 69.9466 21.595 71.4643 23.0755C72.9855 24.556 74.8536 25.298 77.0758 25.298C77.521 26.1555 78.1589 26.8205 78.9896 27.293C79.8203 27.7655 80.665 28 81.5272 28C83.3744 28 84.9166 27.349 86.1504 26.047L84.4084 23.9645C84.2506 24.248 83.9843 24.542 83.6127 24.843ZM77.0899 22.3755C75.835 22.3755 74.78 21.9065 73.9178 20.9685C73.0591 20.0305 72.6279 18.893 72.6279 17.556C72.6279 16.219 73.0591 15.078 73.9178 14.133C74.7765 13.188 75.835 12.7155 77.0899 12.7155C78.3447 12.7155 79.3997 13.188 80.2584 14.133C81.1171 15.078 81.5483 16.219 81.5483 17.556C81.5483 18.893 81.1171 20.0305 80.2584 20.9685C79.3997 21.9065 78.3411 22.3755 77.0899 22.3755ZM97.1457 10.1395H100.5V18.5325C100.5 20.7095 99.8971 22.379 98.6949 23.5445C97.4927 24.71 95.9505 25.2945 94.0718 25.2945C92.1931 25.2945 90.6509 24.7065 89.4381 23.534C88.2254 22.3615 87.6225 20.692 87.6225 18.5325V10.1395H90.9768V18.424C90.9768 19.6245 91.2572 20.573 91.8145 21.2695C92.3718 21.9625 93.1254 22.3125 94.0718 22.3125C95.0181 22.3125 95.7647 21.966 96.3185 21.2695C96.8688 20.5765 97.1457 19.628 97.1457 18.424V10.1395ZM111.033 9.7965C108.81 9.7965 106.942 10.5385 105.421 12.019C103.9 13.4995 103.143 15.344 103.143 17.5455C103.143 19.7505 103.9 21.5915 105.421 23.072C106.939 24.5525 108.81 25.2945 111.033 25.2945C113.255 25.2945 115.123 24.5525 116.644 23.072C118.162 21.5915 118.923 19.747 118.923 17.5455C118.923 15.3405 118.162 13.4995 116.644 12.019C115.123 10.535 113.255 9.7965 111.033 9.7965ZM114.215 20.9685C113.356 21.9065 112.298 22.3755 111.043 22.3755C109.788 22.3755 108.733 21.9065 107.871 20.9685C107.012 20.0305 106.581 18.893 106.581 17.556C106.581 16.219 107.012 15.078 107.871 14.133C108.73 13.188 109.788 12.7155 111.043 12.7155C112.298 12.7155 113.353 13.188 114.215 14.133C115.074 15.078 115.505 16.219 115.505 17.556C115.505 18.893 115.074 20.0305 114.215 20.9685ZM121.818 10.1395H125.172V25.144H121.818V10.1395ZM136.802 10.1395H133.556L127.065 25.144H130.633L132.031 21.903H138.33L139.728 25.144H143.297L136.802 10.1395ZM133.297 18.9595L135.189 14.602L137.058 18.9595H133.297Z" fill="black"/>
</svg>
