<svg xmlns="http://www.w3.org/2000/svg" viewBox="0 0 432 165.25" fill="none">
    <defs>
        <style>
            .cls-1 {
            fill: black;
            }

            .cls-2 {
            fill: black;
            }
        </style>
    </defs>
    <title>logo_reg</title>
    <g id="Layer_2" data-name="Layer 2">
        <g id="Layer_1-2" data-name="Layer 1">
            <path class="cls-1" d="M252.83,156q-5.79,9.22-17.57,9.23-8.83,0-13.94-5.79t-5.11-15q0-12,4.72-34.46L240.66,16H265l-20.23,97.87q-4.32,20.93-4.32,29.85a11.69,11.69,0,0,0,3.53,9A12.49,12.49,0,0,0,252.83,156Z"/>
            <path class="cls-1" d="M299.61,156q-5.78,9.22-17.56,9.23-8.85,0-13.95-5.79t-5.1-15q0-12,4.71-34.46L287.44,16h24.35l-20.22,97.87q-4.32,20.93-4.32,29.85a11.69,11.69,0,0,0,3.53,9A12.5,12.5,0,0,0,299.61,156Z"/>
            <path class="cls-1" d="M338.58,143.69c0-6,1.77-16.22,4.65-30.16l3.66-17.65h0l7.8-36.82h-35.3l-4.12,19.73h10.35l-5.31,24.65-1.26,6.47q-4.71,22.5-4.72,34.46,0,9.23,5.11,15t13.94,5.79q11.78,0,17.57-9.24a12.46,12.46,0,0,1-8.83-3.28A11.66,11.66,0,0,1,338.58,143.69Z"/>
            <path class="cls-1" d="M206.65,63.83Q198.19,57,183,57a47.62,47.62,0,0,0-28,8.78q-12.51,8.78-19.82,24.87a83,83,0,0,0-7.32,34.79q0,18.8,10.43,29.27t29,10.48h.12v0c.18,0,.67-.07,2.17-.28,7.39-.8,15-3.75,19.89-10.2,3.14-4.08,3.8-12,1-18a14.39,14.39,0,0,1-2.21,2.64c-.17.17-.35.31-.51.46a8.42,8.42,0,0,1-.87.71c-12.59,10.4-34.37-.23-36.38-12.3-.07-.92-.19-1.81-.19-2.81v-2.74l.19-2.92h4.06q29.07,0,44.79-9.68t15.72-26.86Q215.09,70.68,206.65,63.83Zm-23,34.65q-10,5.05-27.75,5h-2.74q3.5-13.31,11.47-21.42t17-8.13q6,0,9,2.69a9.52,9.52,0,0,1,3,7.51Q193.67,93.43,183.65,98.48Z"/>
            <path class="cls-1" d="M41.68,59.21,48.59,27.5,20.67,37.71l-4.59,21.5H4.22L0,78.94H11.81L5.15,110.11C2.52,122.66,0,132.09,0,141A24.23,24.23,0,0,0,15.45,163h0l.13,0c.76.3,1.55.58,2.39.82l.74.19c.72.2,1.45.37,2.22.53.58.1,1.19.17,1.8.26.45.06.86.15,1.33.2h.06a42.31,42.31,0,0,0,4.34.23l.3,0c1.26,0,2.43-.08,3.54-.18l.45-.07a29.84,29.84,0,0,0,3.11-.49h0c5.1-1.09,8.5-3.27,10.73-5.85.39-.5.77-1,1.11-1.51l.08-.1a18.49,18.49,0,0,0,.92-1.61c.1-.2.21-.39.3-.59a6.66,6.66,0,0,0,.31-.73,21,21,0,0,0,1.42-8.63c0-.53-.06-1.06-.13-1.6a14.35,14.35,0,0,1-2.9,1.86c-.21.12-.42.2-.62.3l-.12.05c-9.9,4.83-20.5.4-21.35-5.12a22,22,0,0,1,.39-8.24l1.66-7.89,0-.15v0l9.67-45.72H65.77L70,59.22H41.68Z"/>
            <path class="cls-1" d="M132.57,57.1c-10.45,0-20.37,3.92-29,11.2l1.81-9.09H81.25l-10.62,50.7q-4.71,22.5-4.71,34.46,0,9.23,5.1,15t14,5.79q11.77,0,17.57-9.24a12.5,12.5,0,0,1-8.84-3.28,11.67,11.67,0,0,1-3.53-9c0-6,.61-15.35,3.49-29.28L96.12,103l1.23-3.47a45.82,45.82,0,0,1,9.44-13.69q7.92-8.3,17.43-8.29a18.79,18.79,0,0,1,8.19,1.27l4.42-21.37A40,40,0,0,0,132.57,57.1Z"/>
            <path class="cls-1" d="M417.05,106.55q-5.71-3.18-16.35-8.58c-7.1-3.61-10.65-7.33-10.65-11.2q0-4.71,4.47-7.51a19.39,19.39,0,0,1,10.55-2.8q9.81,0,21.59,10.31l.18-.34L432,61.87C421.78,58,413.24,56,406.44,56q-17.78,0-30,9.09T364.23,89.52a23,23,0,0,0,3.68,12.71A29.75,29.75,0,0,0,378.66,112c2.84,1.6,6,3.31,9.33,5.11,4.27,2.19,20.81,6.6,15.17,19.06l-.15.3c-5.83,12.37-24.16,9.28-27.4,8.35a23,23,0,0,1-8.64-4.22c-.3-.21-.58-.46-.87-.71s-.34-.3-.51-.47a14.38,14.38,0,0,1-2.21-2.63c-2.8,5.95-2.27,13.58,1,18,4.62,6.26,12.51,9.34,19.89,10.14l2.17.3h.12q12.17,0,20.83-4.5A43.67,43.67,0,0,0,417,155.1q13-10,13-27.39a22.06,22.06,0,0,0-3.63-12.52A26.88,26.88,0,0,0,417.05,106.55Z"/>
            <path class="cls-2" d="M367.64,0C363.78,9.77,354,12.53,346.36,12.47c-5.87,0-14.06-.83-19.8,8.85l0,.05h0l0,0A17.8,17.8,0,0,0,324,30.64c0,1.66,1.4,8.18,3.23,6.4A40.61,40.61,0,0,1,340,28c9.39-4,25-4.73,27.85-19.82.1-.5.4-.68.39-.1-.55,11.33-5,16.47-22.46,22.57-7.41,2.59-15.85,8.18-15.72,11.91s5.87,6.14,11.83,6C364,47.9,372.55,31,372.55,17.26S367.64,0,367.64,0Z"/>
        </g>
    </g>
</svg>
