<?xml version="1.0" encoding="utf-8"?>
<svg xmlns="http://www.w3.org/2000/svg" fill="none" height="20" viewBox="0 0 118 20" width="118">
<path d="M117.78 16.4589H115.607V14.8791C115.26 15.3698 114.823 15.7887 114.297 16.1358C113.782 16.4829 113.142 16.6564 112.376 16.6564C111.813 16.6564 111.269 16.5487 110.742 16.3333C110.215 16.1178 109.749 15.8007 109.342 15.3817C108.935 14.9509 108.606 14.4302 108.354 13.8198C108.103 13.2094 107.977 12.5092 107.977 11.7193C107.977 10.9293 108.097 10.2291 108.336 9.61873C108.588 9.00832 108.917 8.49366 109.324 8.07475C109.731 7.64387 110.198 7.32071 110.724 7.10527C111.263 6.88983 111.813 6.78211 112.376 6.78211C113.154 6.78211 113.8 6.94967 114.315 7.2848C114.829 7.61993 115.26 8.00892 115.607 8.45177V4.54991C115.607 3.88889 116.143 3.35303 116.804 3.35303H117.78V16.4589ZM115.643 11.7193C115.643 11.2525 115.566 10.8336 115.41 10.4625C115.266 10.0915 115.069 9.77433 114.818 9.51101C114.566 9.23573 114.273 9.02627 113.938 8.88265C113.603 8.73902 113.256 8.66721 112.897 8.66721C112.525 8.66721 112.172 8.73902 111.837 8.88265C111.514 9.0143 111.227 9.21179 110.976 9.47511C110.724 9.73842 110.527 10.0616 110.383 10.4446C110.239 10.8156 110.168 11.2405 110.168 11.7193C110.168 12.1861 110.239 12.611 110.383 12.994C110.527 13.365 110.724 13.6822 110.976 13.9455C111.227 14.2088 111.514 14.4123 111.837 14.5559C112.172 14.6995 112.525 14.7713 112.897 14.7713C113.256 14.7713 113.603 14.6995 113.938 14.5559C114.273 14.4123 114.566 14.2088 114.818 13.9455C115.069 13.6702 115.266 13.347 115.41 12.976C115.566 12.605 115.643 12.1861 115.643 11.7193Z" fill="black"/>
<path d="M99.7367 11.1089V16.5786H97.5643V6.97959H99.7367V8.45176C99.8923 8.22435 100.06 8.0149 100.239 7.8234C100.431 7.61993 100.646 7.44039 100.886 7.2848C101.137 7.1292 101.406 7.00951 101.694 6.92573C101.993 6.82998 102.328 6.7821 102.699 6.7821C103.776 6.7821 104.608 7.11125 105.194 7.76954C105.781 8.42782 106.074 9.31352 106.074 10.4266V16.5786H105.099C104.438 16.5786 103.902 16.0428 103.902 15.3817V11.0729C103.902 10.3309 103.722 9.76235 103.363 9.36738C103.016 8.96044 102.519 8.75697 101.873 8.75697C101.239 8.75697 100.724 8.96642 100.329 9.38533C99.9342 9.79228 99.7367 10.3668 99.7367 11.1089Z" fill="black"/>
<path d="M95.1706 16.5786H92.8965V7.00354H95.1706V16.5786Z" fill="black"/>
<path d="M84.5201 12.7486C84.6 12.7486 84.6746 12.7088 84.719 12.6424L88.1988 7.44642V16.5787H90.4071V3.77197H88.0552L84.2311 9.83421L80.4071 3.77197H78.0552V16.5787H80.2275V7.48232L83.6727 12.6422C83.7171 12.7087 83.7918 12.7486 83.8717 12.7486H84.5201Z" fill="black"/>
<path d="M93.9139 5.61515H94.0336C94.6616 5.61515 95.1706 5.10608 95.1706 4.47811C95.1706 3.85014 94.6616 3.34106 94.0336 3.34106H93.9139C93.2859 3.34106 92.7769 3.85014 92.7769 4.47811C92.7769 5.10608 93.2859 5.61515 93.9139 5.61515Z" fill="black"/>
<path d="M72.4123 12.3297V6.97961H74.5847V16.5786H73.6092C72.9482 16.5786 72.4123 16.0428 72.4123 15.3818V14.9868C72.1012 15.4416 71.7122 15.8366 71.2454 16.1717C70.7786 16.4949 70.1802 16.6564 69.4501 16.6564C68.3729 16.6564 67.541 16.3273 66.9545 15.669C66.3681 15.0107 66.0748 14.125 66.0748 13.0119V6.97961H67.0503C67.7113 6.97961 68.2472 7.51548 68.2472 8.1765V12.3656C68.2472 13.1077 68.4207 13.6822 68.7678 14.0891C69.1269 14.4841 69.6296 14.6816 70.2759 14.6816C70.9103 14.6816 71.4249 14.4781 71.8199 14.0712C72.2149 13.6523 72.4123 13.0718 72.4123 12.3297Z" fill="black"/>
<path d="M63.8122 11.7193C63.8122 12.4015 63.6812 13.0418 63.4193 13.6403C63.1693 14.2387 62.8181 14.7653 62.3657 15.2202C61.9252 15.663 61.3954 16.0161 60.7764 16.2794C60.1573 16.5427 59.4847 16.6744 58.7584 16.6744C58.0441 16.6744 57.3774 16.5487 56.7584 16.2974C56.1512 16.034 55.6214 15.681 55.1691 15.2381C54.7286 14.7833 54.3833 14.2627 54.1333 13.6762C53.8833 13.0777 53.7583 12.4374 53.7583 11.7552C53.7583 11.0729 53.8833 10.4326 54.1333 9.83417C54.3952 9.22375 54.7464 8.69712 55.1869 8.25428C55.6393 7.79946 56.1691 7.44039 56.7762 7.17708C57.3953 6.91376 58.0679 6.7821 58.7942 6.7821C59.5204 6.7821 60.1871 6.91376 60.7942 7.17708C61.4133 7.42842 61.9431 7.78151 62.3835 8.23632C62.8359 8.67917 63.1871 9.19982 63.4371 9.79826C63.6871 10.3967 63.8122 11.037 63.8122 11.7193ZM61.6514 11.7552C61.6514 11.3363 61.5799 10.9413 61.4371 10.5703C61.2942 10.1992 61.0918 9.87606 60.8299 9.60077C60.5799 9.31352 60.2763 9.0921 59.9192 8.9365C59.5739 8.76894 59.187 8.68516 58.7584 8.68516C58.3299 8.68516 57.937 8.76894 57.5798 8.9365C57.2346 9.0921 56.937 9.30754 56.687 9.58282C56.4369 9.85811 56.2465 10.1813 56.1155 10.5523C55.9846 10.9114 55.9191 11.3004 55.9191 11.7193C55.9191 12.1382 55.9905 12.5391 56.1334 12.9221C56.2762 13.2932 56.4727 13.6163 56.7227 13.8916C56.9846 14.1669 57.2882 14.3883 57.6334 14.5559C57.9906 14.7115 58.3775 14.7893 58.7942 14.7893C59.2346 14.7893 59.6275 14.7115 59.9728 14.5559C60.3299 14.3883 60.6335 14.1669 60.8835 13.8916C61.1335 13.6163 61.324 13.2992 61.4549 12.9401C61.5859 12.5691 61.6514 12.1741 61.6514 11.7552Z" fill="black"/>
<path d="M48.9708 11.45V16.5787H46.7446V11.5039L41.7535 3.77197H43.69C44.1045 3.77197 44.4895 3.98647 44.7077 4.33895L47.8756 9.45719L51.0788 4.33432C51.2975 3.98448 51.681 3.77197 52.0936 3.77197H53.9618L48.9708 11.45Z" fill="black"/>
<path clip-rule="evenodd" d="M5.33333 4.06667C5.33333 1.82071 3.51262 0 1.26667 0H0V13.8333C0 17.2391 2.7609 20 6.16667 20C9.57243 20 12.3333 17.2391 12.3333 13.8333L12.3333 12.0333L12.3333 8.01667L12.3333 6.73334C12.3333 4.85557 13.8556 3.33334 15.7333 3.33334C17.6111 3.33334 19.1333 4.85557 19.1333 6.73334V17.3333C19.1333 18.8061 20.3272 20 21.8 20H24.7333V7.03334C24.7333 3.14893 21.5844 7.80279e-06 17.7 7.80279e-06C13.8156 7.80279e-06 10.6667 3.14893 10.6667 7.03334L10.6667 8.01667L10.6667 12.0333L10.6667 14C10.6667 15.4728 9.47275 16.6667 8 16.6667C6.52725 16.6667 5.33333 15.4728 5.33333 14V4.06667ZM25.5866 3.49163C27.2184 4.77318 28.3 6.76418 28.3 9V17.3333C28.3 18.8061 29.4939 20 30.9666 20H33.3333V9.66667C33.3333 9.44151 33.3216 9.21909 33.2986 9C32.9655 5.81556 30.2726 3.33334 26.9999 3.33334C26.5432 3.33334 26.0978 3.38169 25.6684 3.47355C25.6411 3.4794 25.6138 3.48543 25.5866 3.49163Z" fill="black" fill-rule="evenodd"/>
</svg>