<?xml version="1.0" encoding="UTF-8"?>
<svg width="184px" height="40px" viewBox="0 0 184 40" version="1.1" xmlns="http://www.w3.org/2000/svg" xmlns:xlink="http://www.w3.org/1999/xlink">
    <!-- Generator: Sketch 46.2 (44496) - http://www.bohemiancoding.com/sketch -->
    <title>logo white</title>
    <desc>Created with Sketch.</desc>
    <defs>
        <path d="M17.9392659,0 L36,6.50624455 L33.1656565,31.1618902 L17.9392659,40 L2.83536,31.2793345 L0,6.62283781 L17.9392659,0 Z M14.5797317,17.2190476 L14.5797317,11.2761905 L20.5303344,11.2761905 C21.5221064,11.2761905 22.280509,11.4974114 22.8055648,11.9398598 C23.3306206,12.3823082 23.5931446,13.1465259 23.5931446,14.2325357 C23.5931446,15.1978777 23.3014513,15.9369566 22.7180559,16.4497945 C22.1346606,16.9626325 21.4054274,17.2190476 20.5303344,17.2190476 L14.5797317,17.2190476 Z M10.6363636,8.16326531 L10.6363636,29.3877551 L20.1721274,29.3877551 C21.5094668,29.3877551 22.6626624,29.2341714 23.631749,28.9269994 C24.6008355,28.6198273 25.3954745,28.203665 26.0156899,27.6785 C26.6359053,27.1533349 27.0913691,26.5290914 27.3820951,25.8057509 C27.672821,25.0824103 27.8181818,24.3045831 27.8181818,23.472246 C27.8181818,22.0255649 27.4886973,20.8216668 26.8297185,19.8605156 C26.1707397,18.8993645 25.2016677,18.2800753 23.9224735,18.0026296 L23.9224735,17.9431773 C24.8721783,17.5270087 25.6038276,16.9374455 26.1174435,16.1744698 C26.6310593,15.4114941 26.8878634,14.4949462 26.8878634,13.4247985 C26.8878634,11.6610366 26.3258017,10.3431893 25.2016613,9.47121706 C24.0775209,8.59924486 22.5851501,8.16326531 20.7245039,8.16326531 L10.6363636,8.16326531 Z M14.5797317,26.2748299 L14.5797317,19.7659864 L20.9689132,19.7659864 C22.067511,19.7659864 22.920357,20.0432662 23.5274768,20.5978341 C24.1345967,21.152402 24.438152,21.945325 24.438152,22.9766267 C24.438152,24.027387 24.1345967,24.8397681 23.5274768,25.4137946 C22.920357,25.987821 22.067511,26.2748299 20.9689132,26.2748299 L14.5797317,26.2748299 Z" id="path-1"></path>
    </defs>
    <g id="Page-1" stroke="none" stroke-width="1" fill="none" fill-rule="evenodd">
        <g id="Desktop" transform="translate(-20.000000, -15.000000)">
            <g id="Header">
                <g id="logo" transform="translate(20.000000, 15.000000)">
                    <g id="logo-white">
                        <g id="symbol">
                            <mask id="mask-2" fill="white">
                                <use xlink:href="#path-1"></use>
                            </mask>
                            <use id="Combined-Shape" fill="#FFFFFF" xlink:href="#path-1"></use>
                            <rect id="cover" fill-opacity="0.049999997" fill="#000000" mask="url(#mask-2)" x="18" y="0" width="20" height="40"></rect>
                        </g>
                        <g id="text" transform="translate(46.000000, 10.000000)" fill="#FFFFFF">
                            <path d="M0,4.28726877 L2.33861604,4.28726877 L2.33861604,5.94124048 L2.38192374,5.98476605 C2.75725906,5.36089641 3.2480748,4.87123863 3.85438569,4.51577802 C4.46069658,4.16031741 5.13195929,3.98258977 5.86819395,3.98258977 C7.09525171,3.98258977 8.06244743,4.3017741 8.76981014,4.94015234 C9.47717285,5.57853058 9.8308489,6.53608357 9.8308489,7.81284004 L9.8308489,15.5386289 L7.36230975,15.5386289 L7.36230975,8.46572361 C7.3334378,7.58069924 7.14577296,6.93870348 6.79930959,6.53971708 C6.45284622,6.14073069 5.91150533,5.94124048 5.17527068,5.94124048 C4.75662744,5.94124048 4.38129776,6.01740947 4.04927036,6.16974973 C3.71724297,6.32208999 3.4357457,6.53246148 3.20477013,6.80087051 C2.97379455,7.06927954 2.79334758,7.38483678 2.66342382,7.74755169 C2.53350006,8.11026659 2.46853915,8.49473863 2.46853915,8.90097933 L2.46853915,15.5386289 L0,15.5386289 L0,4.28726877 Z M22.5542915,14.9510337 C22.5542915,16.6485395 22.0815205,17.9143955 21.1359642,18.7486398 C20.190408,19.5828841 18.8298378,20 17.0542131,20 C16.4912101,20 15.9246067,19.9419665 15.3543857,19.8258977 C14.7841647,19.7098289 14.2644775,19.5139658 13.7953083,19.2383025 C13.3261392,18.9626392 12.9327648,18.5999297 12.6151734,18.1501632 C12.297582,17.7003967 12.1099171,17.1490783 12.0521732,16.4961915 L14.5207124,16.4961915 C14.5928923,16.8443978 14.7155962,17.1273112 14.8888279,17.3449402 C15.0620596,17.5625691 15.2677691,17.7330425 15.5059627,17.8563656 C15.7441562,17.9796887 16.0076088,18.0594848 16.2963283,18.0957563 C16.5850477,18.1320277 16.8881986,18.1501632 17.2057901,18.1501632 C18.2018722,18.1501632 18.930878,17.9035208 19.3928291,17.4102285 C19.8547803,16.9169362 20.0857524,16.2060257 20.0857524,15.2774755 L20.0857524,13.5582155 L20.0424447,13.5582155 C19.6959813,14.1820851 19.2232103,14.6681158 18.6241174,15.0163221 C18.0250245,15.3645284 17.3790243,15.5386289 16.6860976,15.5386289 C15.7910672,15.5386289 15.029581,15.3826639 14.4016162,15.0707291 C13.7736513,14.7587942 13.2539641,14.3307971 12.8425388,13.7867247 C12.4311136,13.2426523 12.1315716,12.615165 11.943904,11.9042437 C11.7562363,11.1933225 11.6624039,10.4316326 11.6624039,9.61915125 C11.6624039,8.86470424 11.7778899,8.1465395 12.0088655,7.46463547 C12.2398411,6.78273145 12.5718635,6.18426083 13.0049427,5.66920566 C13.4380219,5.15415049 13.968536,4.74428879 14.5965009,4.43960827 C15.2244657,4.13492775 15.9354268,3.98258977 16.7294053,3.98258977 C17.436768,3.98258977 18.0863771,4.13130065 18.678252,4.42872688 C19.2701269,4.7261531 19.7248533,5.19404831 20.0424447,5.83242655 L20.0857524,5.83242655 L20.0857524,4.28726877 L22.5542915,4.28726877 L22.5542915,14.9510337 Z M17.0758669,13.5799782 C17.6244339,13.5799782 18.0899871,13.4675383 18.4725404,13.2426551 C18.8550937,13.0177718 19.1654625,12.7203501 19.4036561,12.3503808 C19.6418496,11.9804116 19.8150787,11.5596687 19.9233485,11.0881393 C20.0316183,10.6166099 20.0857524,10.1414605 20.0857524,9.66267682 C20.0857524,9.18389314 20.0280094,8.71962503 19.9125216,8.26985854 C19.7970338,7.82009206 19.6201958,7.42111164 19.3820022,7.07290533 C19.1438086,6.72469902 18.8334399,6.44903983 18.4508866,6.24591948 C18.0683333,6.04279913 17.609998,5.94124048 17.0758669,5.94124048 C16.5272999,5.94124048 16.0653557,6.05730751 15.6900204,6.28944505 C15.3146851,6.52158259 15.0115342,6.82263145 14.7805586,7.19260065 C14.549583,7.56256986 14.3835718,7.98331284 14.28252,8.45484222 C14.1814682,8.9263716 14.130943,9.39426681 14.130943,9.85854189 C14.130943,10.322817 14.1886861,10.7762038 14.3041739,11.218716 C14.4196616,11.6612282 14.5964997,12.0565815 14.8346932,12.4047878 C15.0728868,12.7529941 15.3760377,13.0359075 15.744155,13.2535365 C16.1122724,13.4711654 16.5561719,13.5799782 17.0758669,13.5799782 Z M27.828809,9.61915125 L23.9527695,4.28726877 L26.9410011,4.28726877 L29.2796171,7.74755169 L31.7265024,4.28726877 L34.5848109,4.28726877 L30.7737329,9.48857454 L35.0611957,15.5386289 L32.0946179,15.5386289 L29.2579633,11.3819369 L26.5079241,15.5386289 L23.6063079,15.5386289 L27.828809,9.61915125 Z M35.9832889,8.44396083 L42.2845599,8.44396083 L42.2845599,10.7943417 L35.9832889,10.7943417 L35.9832889,8.44396083 Z M44.4842303,0 L46.9527695,0 L46.9527695,5.74537541 L46.9960772,5.74537541 C47.1693089,5.46971208 47.3786274,5.22306964 47.6240389,5.0054407 C47.8694505,4.78781175 48.1401209,4.60282992 48.4360584,4.45048966 C48.7319958,4.2981494 49.0423646,4.18208237 49.367174,4.10228509 C49.6919834,4.02248781 50.013179,3.98258977 50.3307704,3.98258977 C51.2113648,3.98258977 51.9800689,4.13855484 52.6369057,4.45048966 C53.2937425,4.76242448 53.8386923,5.19042165 54.2717715,5.73449402 C54.7048507,6.27856638 55.0296553,6.91330794 55.2461949,7.63873776 C55.4627345,8.36416757 55.5710027,9.14036583 55.5710027,9.96735582 C55.5710027,10.7218028 55.4735613,11.454476 55.2786757,12.1653972 C55.08379,12.8763184 54.787857,13.5038058 54.3908677,14.0478781 C53.9938785,14.5919505 53.4922359,15.0272018 52.885925,15.3536453 C52.2796141,15.6800887 51.5650441,15.8433079 50.7421936,15.8433079 C50.3668583,15.8433079 49.9879197,15.8179183 49.6053664,15.7671382 C49.2228131,15.7163581 48.8583102,15.6184266 48.5118469,15.4733406 C48.1653835,15.3282546 47.8514058,15.1396457 47.5699043,14.9075082 C47.2884028,14.6753706 47.0538217,14.3706947 46.8661541,13.9934712 L46.8228464,13.9934712 L46.8228464,15.5386289 L44.4842303,15.5386289 L44.4842303,0 Z M53.1024635,9.92383025 C53.1024635,9.41602938 53.0375026,8.9227445 52.9075789,8.44396083 C52.7776551,7.96517715 52.5827724,7.54080707 52.3229248,7.17083787 C52.0630773,6.80086866 51.7382728,6.5034469 51.3485015,6.27856366 C50.9587302,6.05368041 50.5112217,5.94124048 50.0059627,5.94124048 C48.9665726,5.94124048 48.1834327,6.30394995 47.6565197,7.02937976 C47.1296067,7.75480958 46.8661541,8.71961676 46.8661541,9.92383025 C46.8661541,10.4896655 46.9347239,11.0155942 47.0718657,11.5016322 C47.2090074,11.9876702 47.414717,12.4047861 47.6890005,12.7529924 C47.963284,13.1011987 48.2916974,13.3768579 48.6742507,13.5799782 C49.056804,13.7830986 49.5007036,13.8846572 50.0059627,13.8846572 C50.5689656,13.8846572 51.0453456,13.7685902 51.4351169,13.5364527 C51.8248882,13.3043151 52.1460838,13.0032663 52.3987133,12.6332971 C52.6513429,12.2633279 52.8317898,11.8425849 52.9400596,11.3710555 C53.0483294,10.8995261 53.1024635,10.4171225 53.1024635,9.92383025 Z M62.5561745,15.8433079 C61.6611441,15.8433079 60.8635685,15.6945971 60.1634238,15.3971708 C59.4632791,15.0997446 58.8714131,14.6898829 58.3878079,14.1675734 C57.9042028,13.645264 57.536091,13.0214037 57.2834615,12.2959739 C57.0308319,11.5705441 56.9045191,10.7725832 56.9045191,9.90206746 C56.9045191,9.04606028 57.0308319,8.25535365 57.2834615,7.52992383 C57.536091,6.80449402 57.9042028,6.18063373 58.3878079,5.65832427 C58.8714131,5.1360148 59.4632791,4.7261531 60.1634238,4.42872688 C60.8635685,4.13130065 61.6611441,3.98258977 62.5561745,3.98258977 C63.4512049,3.98258977 64.2487804,4.13130065 64.9489252,4.42872688 C65.6490699,4.7261531 66.2409359,5.1360148 66.724541,5.65832427 C67.2081462,6.18063373 67.576258,6.80449402 67.8288875,7.52992383 C68.081517,8.25535365 68.2078299,9.04606028 68.2078299,9.90206746 C68.2078299,10.7725832 68.081517,11.5705441 67.8288875,12.2959739 C67.576258,13.0214037 67.2081462,13.645264 66.724541,14.1675734 C66.2409359,14.6898829 65.6490699,15.0997446 64.9489252,15.3971708 C64.2487804,15.6945971 63.4512049,15.8433079 62.5561745,15.8433079 Z M62.5561745,13.8846572 C63.1047415,13.8846572 63.5811215,13.7685902 63.9853287,13.5364527 C64.389536,13.3043151 64.7215584,12.9996392 64.9814059,12.6224157 C65.2412535,12.2451922 65.4325272,11.8208221 65.555233,11.3492927 C65.6779388,10.8777633 65.7392908,10.3953597 65.7392908,9.90206746 C65.7392908,9.42328379 65.6779388,8.94450729 65.555233,8.46572361 C65.4325272,7.98693993 65.2412535,7.56256986 64.9814059,7.19260065 C64.7215584,6.82263145 64.389536,6.52158259 63.9853287,6.28944505 C63.5811215,6.05730751 63.1047415,5.94124048 62.5561745,5.94124048 C62.0076075,5.94124048 61.5312275,6.05730751 61.1270202,6.28944505 C60.722813,6.52158259 60.3907906,6.82263145 60.130943,7.19260065 C59.8710955,7.56256986 59.6798217,7.98693993 59.557116,8.46572361 C59.4344102,8.94450729 59.3730582,9.42328379 59.3730582,9.90206746 C59.3730582,10.3953597 59.4344102,10.8777633 59.557116,11.3492927 C59.6798217,11.8208221 59.8710955,12.2451922 60.130943,12.6224157 C60.3907906,12.9996392 60.722813,13.3043151 61.1270202,13.5364527 C61.5312275,13.7685902 62.0076075,13.8846572 62.5561745,13.8846572 Z M75.1713479,15.8433079 C74.2763175,15.8433079 73.4787419,15.6945971 72.7785972,15.3971708 C72.0784525,15.0997446 71.4865864,14.6898829 71.0029813,14.1675734 C70.5193762,13.645264 70.1512644,13.0214037 69.8986349,12.2959739 C69.6460053,11.5705441 69.5196925,10.7725832 69.5196925,9.90206746 C69.5196925,9.04606028 69.6460053,8.25535365 69.8986349,7.52992383 C70.1512644,6.80449402 70.5193762,6.18063373 71.0029813,5.65832427 C71.4865864,5.1360148 72.0784525,4.7261531 72.7785972,4.42872688 C73.4787419,4.13130065 74.2763175,3.98258977 75.1713479,3.98258977 C76.0663782,3.98258977 76.8639538,4.13130065 77.5640985,4.42872688 C78.2642433,4.7261531 78.8561093,5.1360148 79.3397144,5.65832427 C79.8233195,6.18063373 80.1914313,6.80449402 80.4440609,7.52992383 C80.6966904,8.25535365 80.8230033,9.04606028 80.8230033,9.90206746 C80.8230033,10.7725832 80.6966904,11.5705441 80.4440609,12.2959739 C80.1914313,13.0214037 79.8233195,13.645264 79.3397144,14.1675734 C78.8561093,14.6898829 78.2642433,15.0997446 77.5640985,15.3971708 C76.8639538,15.6945971 76.0663782,15.8433079 75.1713479,15.8433079 Z M75.1713479,13.8846572 C75.7199149,13.8846572 76.1962949,13.7685902 76.6005021,13.5364527 C77.0047094,13.3043151 77.3367318,12.9996392 77.5965793,12.6224157 C77.8564268,12.2451922 78.0477006,11.8208221 78.1704064,11.3492927 C78.2931122,10.8777633 78.3544642,10.3953597 78.3544642,9.90206746 C78.3544642,9.42328379 78.2931122,8.94450729 78.1704064,8.46572361 C78.0477006,7.98693993 77.8564268,7.56256986 77.5965793,7.19260065 C77.3367318,6.82263145 77.0047094,6.52158259 76.6005021,6.28944505 C76.1962949,6.05730751 75.7199149,5.94124048 75.1713479,5.94124048 C74.6227809,5.94124048 74.1464009,6.05730751 73.7421936,6.28944505 C73.3379864,6.52158259 73.005964,6.82263145 72.7461164,7.19260065 C72.4862689,7.56256986 72.2949951,7.98693993 72.1722893,8.46572361 C72.0495836,8.94450729 71.9882316,9.42328379 71.9882316,9.90206746 C71.9882316,10.3953597 72.0495836,10.8777633 72.1722893,11.3492927 C72.2949951,11.8208221 72.4862689,12.2451922 72.7461164,12.6224157 C73.005964,12.9996392 73.3379864,13.3043151 73.7421936,13.5364527 C74.1464009,13.7685902 74.6227809,13.8846572 75.1713479,13.8846572 Z M81.528558,4.28726877 L83.3907893,4.28726877 L83.3907893,0.914036997 L85.8593284,0.914036997 L85.8593284,4.28726877 L88.0896752,4.28726877 L88.0896752,6.13710555 L85.8593284,6.13710555 L85.8593284,12.1436344 C85.8593284,12.4047891 85.8701552,12.629669 85.8918092,12.8182807 C85.9134632,13.0068925 85.9639883,13.1664847 86.0433862,13.297062 C86.122784,13.4276394 86.241879,13.5255709 86.4006747,13.5908596 C86.5594704,13.6561483 86.7760068,13.6887922 87.0502903,13.6887922 C87.223522,13.6887922 87.3967511,13.6851651 87.5699827,13.6779108 C87.7432144,13.6706565 87.9164435,13.6452668 88.0896752,13.601741 L88.0896752,15.5168662 C87.8153917,15.5458834 87.5483302,15.5749001 87.2884827,15.6039173 C87.0286351,15.6329345 86.7615736,15.6474429 86.4872901,15.6474429 C85.8376713,15.6474429 85.3143751,15.5857823 84.9173858,15.4624592 C84.5203966,15.3391361 84.2100278,15.1577814 83.9862702,14.9183896 C83.7625126,14.6789977 83.6109372,14.3779489 83.5315393,14.0152339 C83.4521415,13.652519 83.4052252,13.2390303 83.3907893,12.7747552 L83.3907893,6.13710555 L81.528558,6.13710555 L81.528558,4.28726877 Z M91.5019614,11.9260065 C91.5741413,12.6514363 91.8484207,13.1592296 92.3248078,13.4494015 C92.8011949,13.7395734 93.3714073,13.8846572 94.0354621,13.8846572 C94.2664377,13.8846572 94.5298903,13.8665218 94.8258277,13.8302503 C95.1217652,13.7939788 95.3996535,13.725064 95.659501,13.6235038 C95.9193485,13.5219436 96.132276,13.3732328 96.2982897,13.1773667 C96.4643034,12.9815007 96.5400911,12.7239769 96.5256551,12.4047878 C96.5112191,12.0855987 96.3957331,11.8244479 96.1791935,11.6213275 C95.9626539,11.4182072 95.6847655,11.2549879 95.3455202,11.1316649 C95.0062748,11.0083418 94.6201183,10.903156 94.1870391,10.8161045 C93.7539599,10.7290529 93.3136693,10.6347484 92.8661541,10.5331882 C92.4042029,10.4316281 91.9603034,10.3083069 91.5344422,10.1632209 C91.108581,10.0181349 90.7260334,9.82227182 90.386788,9.57562568 C90.0475426,9.32897954 89.7768722,9.01342231 89.5747686,8.6289445 C89.3726649,8.2444667 89.2716146,7.7693173 89.2716146,7.20348205 C89.2716146,6.594121 89.4195811,6.08270065 89.7155186,5.66920566 C90.0114561,5.25571066 90.3867857,4.92201795 90.8415189,4.66811752 C91.2962521,4.41421708 91.8015036,4.23648945 92.3572886,4.13492927 C92.9130735,4.0333691 93.4435876,3.98258977 93.9488467,3.98258977 C94.5262856,3.98258977 95.0784534,4.04425038 95.6053664,4.16757345 C96.1322794,4.29089652 96.6086594,4.49038672 97.0345206,4.76605005 C97.4603819,5.04171338 97.8140579,5.40079576 98.0955594,5.84330794 C98.3770609,6.28582013 98.5538989,6.81900305 98.6260788,7.44287269 L96.0492704,7.44287269 C95.9337826,6.84802024 95.6631121,6.44903983 95.2372509,6.24591948 C94.8113897,6.04279913 94.3241829,5.94124048 93.7756159,5.94124048 C93.6023842,5.94124048 93.3966747,5.95574886 93.1584811,5.98476605 C92.9202875,6.01378324 92.6965333,6.06818966 92.4872117,6.14798694 C92.2778901,6.22778422 92.101052,6.34385125 91.9566923,6.49619151 C91.8123326,6.64853177 91.7401538,6.84802198 91.7401538,7.09466812 C91.7401538,7.39934864 91.844813,7.64599108 92.0541346,7.83460283 C92.2634562,8.02321458 92.5377356,8.17917965 92.876981,8.30250272 C93.2162264,8.42582579 93.6023829,8.53101153 94.0354621,8.61806311 C94.4685413,8.70511469 94.9160498,8.79941915 95.3780009,8.90097933 C95.8255161,9.0025395 96.2658067,9.12586072 96.6988859,9.27094668 C97.1319651,9.41603264 97.5181216,9.61189576 97.857367,9.85854189 C98.1966124,10.105188 98.4708918,10.4171182 98.6802134,10.7943417 C98.889535,11.1715652 98.9941943,11.6358333 98.9941943,12.18716 C98.9941943,12.8545554 98.8426188,13.4203822 98.5394634,13.8846572 C98.2363079,14.3489323 97.8429335,14.7261502 97.3593284,15.0163221 C96.8757233,15.306494 96.3379914,15.5168655 95.7461164,15.6474429 C95.1542415,15.7780202 94.5695933,15.8433079 93.9921544,15.8433079 C93.2847917,15.8433079 92.6315737,15.7635119 92.0324808,15.6039173 C91.4333879,15.4443227 90.9137006,15.2013074 90.4734034,14.874864 C90.0331062,14.5484206 89.6866481,14.142186 89.4340185,13.656148 C89.181389,13.17011 89.0478582,12.593402 89.0334222,11.9260065 L91.5019614,11.9260065 Z M99.5265181,4.28726877 L101.388749,4.28726877 L101.388749,0.914036997 L103.857289,0.914036997 L103.857289,4.28726877 L106.087635,4.28726877 L106.087635,6.13710555 L103.857289,6.13710555 L103.857289,12.1436344 C103.857289,12.4047891 103.868115,12.629669 103.889769,12.8182807 C103.911423,13.0068925 103.961948,13.1664847 104.041346,13.297062 C104.120744,13.4276394 104.239839,13.5255709 104.398635,13.5908596 C104.557431,13.6561483 104.773967,13.6887922 105.04825,13.6887922 C105.221482,13.6887922 105.394711,13.6851651 105.567943,13.6779108 C105.741175,13.6706565 105.914404,13.6452668 106.087635,13.601741 L106.087635,15.5168662 C105.813352,15.5458834 105.54629,15.5749001 105.286443,15.6039173 C105.026595,15.6329345 104.759534,15.6474429 104.48525,15.6474429 C103.835631,15.6474429 103.312335,15.5857823 102.915346,15.4624592 C102.518357,15.3391361 102.207988,15.1577814 101.98423,14.9183896 C101.760473,14.6789977 101.608897,14.3779489 101.529499,14.0152339 C101.450102,13.652519 101.403185,13.2390303 101.388749,12.7747552 L101.388749,6.13710555 L99.5265181,6.13710555 L99.5265181,4.28726877 Z M107.63769,4.28726877 L109.954652,4.28726877 L109.954652,6.46354733 L109.99796,6.46354733 C110.07014,6.15886681 110.210889,5.86144505 110.42021,5.57127312 C110.629532,5.2811012 110.882158,5.01632329 111.178095,4.77693145 C111.474033,4.53753961 111.802446,4.34530359 112.163345,4.20021763 C112.524245,4.05513166 112.892357,3.98258977 113.267692,3.98258977 C113.556411,3.98258977 113.754903,3.98984396 113.863173,4.00435256 C113.971443,4.01886115 114.08332,4.03336953 114.198807,4.04787813 L114.198807,6.44178455 C114.025576,6.41276736 113.848738,6.38737769 113.668288,6.3656148 C113.487838,6.3438519 113.311,6.33297062 113.137769,6.33297062 C112.719125,6.33297062 112.325751,6.4163938 111.957634,6.58324266 C111.589516,6.75009151 111.268321,6.99673395 110.994037,7.32317737 C110.719754,7.64962078 110.503217,8.05222829 110.344422,8.53101197 C110.185626,9.00979565 110.106229,9.56111404 110.106229,10.1849837 L110.106229,15.5386289 L107.63769,15.5386289 L107.63769,4.28726877 Z M124.410403,13.0359086 C124.410403,13.3405891 124.450102,13.5582148 124.529499,13.6887922 C124.608897,13.8193695 124.764082,13.8846572 124.995057,13.8846572 L125.254903,13.8846572 C125.355955,13.8846572 125.471441,13.8701489 125.601365,13.8411317 L125.601365,15.5603917 C125.514749,15.5894089 125.402872,15.6220528 125.26573,15.6583243 C125.128589,15.6945958 124.98784,15.7272396 124.84348,15.7562568 C124.699121,15.785274 124.554763,15.8070366 124.410403,15.8215452 C124.266044,15.8360538 124.14334,15.8433079 124.042288,15.8433079 C123.537029,15.8433079 123.118392,15.7417493 122.786364,15.5386289 C122.454337,15.3355086 122.237801,14.9800533 122.136749,14.4722524 C121.645926,14.9510361 121.043233,15.2992372 120.328652,15.5168662 C119.614071,15.7344951 118.924764,15.8433079 118.260709,15.8433079 C117.75545,15.8433079 117.271852,15.7743931 116.809901,15.6365615 C116.34795,15.4987298 115.94014,15.2956125 115.586458,15.0272035 C115.232777,14.7587945 114.95128,14.4178476 114.741958,14.0043526 C114.532637,13.5908576 114.427977,13.108454 114.427977,12.5571273 C114.427977,11.8607147 114.55429,11.2948879 114.80692,10.85963 C115.059549,10.4243721 115.391572,10.0834252 115.802997,9.83677911 C116.214422,9.59013297 116.676366,9.41240533 117.188844,9.30359086 C117.701321,9.19477639 118.217399,9.11135321 118.737094,9.05331882 C119.184609,8.96626725 119.610464,8.90460664 120.014671,8.86833515 C120.418879,8.83206366 120.776164,8.77040305 121.086537,8.68335147 C121.39691,8.59629989 121.642318,8.46209739 121.822768,8.28073993 C122.003218,8.09938248 122.093441,7.82735038 122.093441,7.46463547 C122.093441,7.14544635 122.017653,6.88429554 121.866076,6.68117519 C121.714498,6.47805484 121.526833,6.32208977 121.303075,6.2132753 C121.079318,6.10446083 120.830301,6.03191893 120.556018,5.99564744 C120.281734,5.95937595 120.02189,5.94124048 119.776479,5.94124048 C119.083552,5.94124048 118.51334,6.08632427 118.065825,6.37649619 C117.618309,6.66666812 117.365684,7.11642786 117.30794,7.7257889 L114.839401,7.7257889 C114.882709,7.00035909 115.055938,6.39826137 115.359093,5.91947769 C115.662248,5.44069402 116.048405,5.05622198 116.517574,4.76605005 C116.986743,4.47587813 117.517257,4.27276083 118.109132,4.15669206 C118.701007,4.04062329 119.307309,3.98258977 119.928056,3.98258977 C120.476623,3.98258977 121.017964,4.04062329 121.552095,4.15669206 C122.086226,4.27276083 122.566215,4.46136975 122.992076,4.72252448 C123.417937,4.98367922 123.760786,5.32099902 124.020634,5.73449402 C124.280481,6.14798901 124.410403,6.65215517 124.410403,7.24700762 L124.410403,13.0359086 Z M121.941864,9.90206746 C121.566529,10.1487136 121.104585,10.2974245 120.556018,10.3482046 C120.007451,10.3989847 119.458892,10.4751536 118.910325,10.5767138 C118.650477,10.6202396 118.397852,10.6819002 118.15244,10.7616975 C117.907028,10.8414948 117.690492,10.9503076 117.502824,11.0881393 C117.315157,11.2259709 117.16719,11.4073257 117.05892,11.6322089 C116.950651,11.8570922 116.896517,12.1291243 116.896517,12.4483134 C116.896517,12.7239767 116.975913,12.9561108 117.134709,13.1447225 C117.293505,13.3333343 117.484778,13.4820452 117.708536,13.5908596 C117.932294,13.6996741 118.177701,13.7758431 118.444767,13.8193689 C118.711832,13.8628947 118.953631,13.8846572 119.170171,13.8846572 C119.444455,13.8846572 119.740388,13.8483863 120.057979,13.7758433 C120.37557,13.7033003 120.675112,13.5799791 120.956614,13.405876 C121.238115,13.2317728 121.472696,13.01052 121.660364,12.742111 C121.848032,12.473702 121.941864,12.1436363 121.941864,11.7519042 L121.941864,9.90206746 Z M126.913228,4.28726877 L129.251844,4.28726877 L129.251844,5.81066376 L129.295151,5.81066376 C129.641615,5.15777693 130.125213,4.68988172 130.74596,4.40696409 C131.366706,4.12404646 132.037969,3.98258977 132.759768,3.98258977 C133.640362,3.98258977 134.409066,4.13855484 135.065903,4.45048966 C135.72274,4.76242448 136.26769,5.19042165 136.700769,5.73449402 C137.133848,6.27856638 137.458653,6.91330794 137.675192,7.63873776 C137.891732,8.36416757 138,9.14036583 138,9.96735582 C138,10.7218028 137.902559,11.454476 137.707673,12.1653972 C137.512787,12.8763184 137.216854,13.5038058 136.819865,14.0478781 C136.422876,14.5919505 135.921233,15.0272018 135.314922,15.3536453 C134.708611,15.6800887 133.994041,15.8433079 133.171191,15.8433079 C132.810292,15.8433079 132.449398,15.8106641 132.088498,15.7453754 C131.727599,15.6800867 131.381141,15.574901 131.049113,15.429815 C130.717086,15.2847291 130.410326,15.0997472 130.128825,14.874864 C129.847323,14.6499807 129.612742,14.3852028 129.425075,14.0805223 L129.381767,14.0805223 L129.381767,19.695321 L126.913228,19.695321 L126.913228,4.28726877 Z M135.531461,9.92383025 C135.531461,9.41602938 135.4665,8.9227445 135.336576,8.44396083 C135.206652,7.96517715 135.01177,7.54080707 134.751922,7.17083787 C134.492075,6.80086866 134.16727,6.5034469 133.777499,6.27856366 C133.387728,6.05368041 132.940219,5.94124048 132.43496,5.94124048 C131.39557,5.94124048 130.61243,6.30394995 130.085517,7.02937976 C129.558604,7.75480958 129.295151,8.71961676 129.295151,9.92383025 C129.295151,10.4896655 129.363721,11.0155942 129.500863,11.5016322 C129.638005,11.9876702 129.843714,12.4047861 130.117998,12.7529924 C130.392281,13.1011987 130.720695,13.3768579 131.103248,13.5799782 C131.485801,13.7830986 131.929701,13.8846572 132.43496,13.8846572 C132.997963,13.8846572 133.474343,13.7685902 133.864114,13.5364527 C134.253886,13.3043151 134.575081,13.0032663 134.827711,12.6332971 C135.08034,12.2633279 135.260787,11.8425849 135.369057,11.3710555 C135.477327,10.8995261 135.531461,10.4171225 135.531461,9.92383025 Z" id="ngx-bootstrap"></path>
                        </g>
                    </g>
                </g>
            </g>
        </g>
    </g>
</svg>