<svg width="184" height="40" viewBox="0 0 184 40" fill="none" xmlns="http://www.w3.org/2000/svg">
  <rect x="5" y="7" width="24" height="23" fill="white"/>
  <mask id="mask0" style="mask-type:alpha" maskUnits="userSpaceOnUse" x="0" y="0" width="36" height="40">
    <path d="M17.9393 0L36 6.48405L33.1657 31.0556L17.9393 39.8635L2.83536 31.1726L0 6.60025L17.9393 0ZM14.5797 17.1603V11.2377H20.5303C21.5221 11.2377 22.2805 11.4582 22.8056 11.8991C23.3306 12.3401 23.5931 13.1017 23.5931 14.184C23.5931 15.146 23.3015 15.8826 22.7181 16.3937C22.1347 16.9048 21.4054 17.1603 20.5303 17.1603H14.5797ZM10.6364 8.13542V29.2875H20.1721C21.5095 29.2875 22.6627 29.1344 23.6317 28.8283C24.6008 28.5222 25.3955 28.1075 26.0157 27.5841C26.6359 27.0607 27.0914 26.4386 27.3821 25.7177C27.6728 24.9968 27.8182 24.2217 27.8182 23.3922C27.8182 21.9504 27.4887 20.7506 26.8297 19.7928C26.1707 18.8349 25.2017 18.2177 23.9225 17.9412V17.882C24.8722 17.4672 25.6038 16.8797 26.1174 16.1193C26.6311 15.3589 26.8879 14.4455 26.8879 13.379C26.8879 11.6213 26.3258 10.3079 25.2017 9.43891C24.0775 8.56991 22.5852 8.13542 20.7245 8.13542H10.6364ZM14.5797 26.1852V19.6986H20.9689C22.0675 19.6986 22.9204 19.9749 23.5275 20.5276C24.1346 21.0802 24.4382 21.8705 24.4382 22.8982C24.4382 23.9454 24.1346 24.755 23.5275 25.3271C22.9204 25.8992 22.0675 26.1852 20.9689 26.1852H14.5797Z" fill="white"/>
  </mask>
  <g mask="url(#mask0)">
    <path d="M17.9393 0L36 6.48405L33.1657 31.0556L17.9393 39.8635L2.83536 31.1726L0 6.60025L17.9393 0ZM14.5797 17.1603V11.2377H20.5303C21.5221 11.2377 22.2805 11.4582 22.8056 11.8991C23.3306 12.3401 23.5931 13.1017 23.5931 14.184C23.5931 15.146 23.3015 15.8826 22.7181 16.3937C22.1347 16.9048 21.4054 17.1603 20.5303 17.1603H14.5797ZM10.6364 8.13542V29.2875H20.1721C21.5095 29.2875 22.6627 29.1344 23.6317 28.8283C24.6008 28.5222 25.3955 28.1075 26.0157 27.5841C26.6359 27.0607 27.0914 26.4386 27.3821 25.7177C27.6728 24.9968 27.8182 24.2217 27.8182 23.3922C27.8182 21.9504 27.4887 20.7506 26.8297 19.7928C26.1707 18.8349 25.2017 18.2177 23.9225 17.9412V17.882C24.8722 17.4672 25.6038 16.8797 26.1174 16.1193C26.6311 15.3589 26.8879 14.4455 26.8879 13.379C26.8879 11.6213 26.3258 10.3079 25.2017 9.43891C24.0775 8.56991 22.5852 8.13542 20.7245 8.13542H10.6364ZM14.5797 26.1852V19.6986H20.9689C22.0675 19.6986 22.9204 19.9749 23.5275 20.5276C24.1346 21.0802 24.4382 21.8705 24.4382 22.8982C24.4382 23.9454 24.1346 24.755 23.5275 25.3271C22.9204 25.8992 22.0675 26.1852 20.9689 26.1852H14.5797Z" fill="#CB2B39"/>
    <path d="M38 0H18V39.8635H38V0Z" fill="#B32535"/>
  </g>
  <path fill-rule="evenodd" clip-rule="evenodd" d="M46 14.2385H48.3386V15.8868L48.3819 15.9302C48.7573 15.3084 49.2481 14.8204 49.8544 14.4662C50.4607 14.1119 51.132 13.9348 51.8682 13.9348C53.0953 13.9348 54.0624 14.2529 54.7698 14.8891C55.4772 15.5253 55.8308 16.4796 55.8308 17.752V25.4514H53.3623V18.4027C53.3334 17.5207 53.1458 16.8809 52.7993 16.4832C52.4528 16.0856 51.9115 15.8868 51.1753 15.8868C50.7566 15.8868 50.3813 15.9627 50.0493 16.1145C49.7172 16.2663 49.4357 16.476 49.2048 16.7435C48.9738 17.011 48.7933 17.3255 48.6634 17.6869C48.5335 18.0484 48.4685 18.4316 48.4685 18.8364V25.4514H46V14.2385ZM68.5543 24.8658C68.5543 26.5576 68.0815 27.8191 67.136 28.6505C66.1904 29.4819 64.8298 29.8976 63.0542 29.8976C62.4912 29.8976 61.9246 29.8398 61.3544 29.7241C60.7842 29.6084 60.2645 29.4132 59.7953 29.1385C59.3261 28.8638 58.9328 28.5023 58.6152 28.0541C58.2976 27.6058 58.1099 27.0564 58.0522 26.4057H60.5207C60.5929 26.7528 60.7156 27.0347 60.8888 27.2516C61.0621 27.4685 61.2678 27.6384 61.506 27.7613C61.7442 27.8842 62.0076 27.9637 62.2963 27.9998C62.585 28.036 62.8882 28.0541 63.2058 28.0541C64.2019 28.0541 64.9309 27.8083 65.3928 27.3167C65.8548 26.825 66.0858 26.1166 66.0858 25.1912V23.4778H66.0424C65.696 24.0995 65.2232 24.5839 64.6241 24.9309C64.025 25.2779 63.379 25.4514 62.6861 25.4514C61.7911 25.4514 61.0296 25.296 60.4016 24.9851C59.7737 24.6743 59.254 24.2477 58.8425 23.7055C58.4311 23.1633 58.1316 22.5379 57.9439 21.8295C57.7562 21.121 57.6624 20.3619 57.6624 19.5522C57.6624 18.8003 57.7779 18.0846 58.0089 17.405C58.2398 16.7254 58.5719 16.129 59.0049 15.6157C59.438 15.1024 59.9685 14.6939 60.5965 14.3903C61.2245 14.0866 61.9354 13.9348 62.7294 13.9348C63.4368 13.9348 64.0864 14.083 64.6783 14.3794C65.2701 14.6758 65.7249 15.1421 66.0424 15.7783H66.0858V14.2385H68.5543V24.8658ZM63.0759 23.4995C63.6244 23.4995 64.09 23.3874 64.4725 23.1633C64.8551 22.9392 65.1655 22.6428 65.4037 22.2741C65.6418 21.9054 65.8151 21.4861 65.9233 21.0161C66.0316 20.5462 66.0858 20.0727 66.0858 19.5955C66.0858 19.1184 66.028 18.6557 65.9125 18.2075C65.797 17.7592 65.6202 17.3616 65.382 17.0146C65.1438 16.6676 64.8334 16.3929 64.4509 16.1904C64.0683 15.988 63.61 15.8868 63.0759 15.8868C62.5273 15.8868 62.0654 16.0025 61.69 16.2338C61.3147 16.4652 61.0115 16.7652 60.7806 17.1339C60.5496 17.5026 60.3836 17.9219 60.2825 18.3918C60.1815 18.8617 60.1309 19.328 60.1309 19.7907C60.1309 20.2534 60.1887 20.7053 60.3042 21.1463C60.4197 21.5873 60.5965 21.9813 60.8347 22.3283C61.0729 22.6753 61.376 22.9573 61.7442 23.1741C62.1123 23.391 62.5562 23.4995 63.0759 23.4995ZM73.8288 19.5522L69.9528 14.2385H72.941L75.2796 17.6869L77.7265 14.2385H80.5848L76.7737 19.422L81.0612 25.4514H78.0946L75.258 21.3089L72.5079 25.4514H69.6063L73.8288 19.5522ZM81.9833 18.381H88.2846V20.7233H81.9833V18.381ZM90.4842 9.96582H92.9528V15.6916H92.9961C93.1693 15.4169 93.3786 15.1711 93.624 14.9542C93.8695 14.7373 94.1401 14.5529 94.4361 14.4011C94.732 14.2493 95.0424 14.1336 95.3672 14.0541C95.692 13.9746 96.0132 13.9348 96.3308 13.9348C97.2114 13.9348 97.9801 14.0903 98.6369 14.4011C99.2937 14.712 99.8387 15.1385 100.272 15.6808C100.705 16.223 101.03 16.8555 101.246 17.5785C101.463 18.3015 101.571 19.075 101.571 19.8992C101.571 20.651 101.474 21.3812 101.279 22.0897C101.084 22.7982 100.788 23.4236 100.391 23.9658C99.9939 24.508 99.4922 24.9418 98.8859 25.2671C98.2796 25.5924 97.565 25.7551 96.7422 25.7551C96.3669 25.7551 95.9879 25.7298 95.6054 25.6792C95.2228 25.6286 94.8583 25.531 94.5118 25.3864C94.1654 25.2418 93.8514 25.0538 93.5699 24.8225C93.2884 24.5911 93.0538 24.2875 92.8662 23.9116H92.8228V25.4514H90.4842V9.96582ZM99.1025 19.8558C99.1025 19.3497 99.0375 18.8581 98.9076 18.381C98.7777 17.9038 98.5828 17.4809 98.3229 17.1122C98.0631 16.7435 97.7383 16.4471 97.3485 16.223C96.9587 15.9988 96.5112 15.8868 96.006 15.8868C94.9666 15.8868 94.1834 16.2483 93.6565 16.9712C93.1296 17.6942 92.8662 18.6557 92.8662 19.8558C92.8662 20.4197 92.9347 20.9438 93.0719 21.4282C93.209 21.9126 93.4147 22.3283 93.689 22.6753C93.9633 23.0223 94.2917 23.297 94.6743 23.4995C95.0568 23.7019 95.5007 23.8031 96.006 23.8031C96.569 23.8031 97.0453 23.6874 97.4351 23.4561C97.8249 23.2247 98.1461 22.9247 98.3987 22.556C98.6513 22.1873 98.8318 21.768 98.9401 21.2981C99.0483 20.8282 99.1025 20.3474 99.1025 19.8558ZM108.556 25.7551C107.661 25.7551 106.864 25.6069 106.163 25.3105C105.463 25.0141 104.871 24.6056 104.388 24.0851C103.904 23.5645 103.536 22.9428 103.283 22.2198C103.031 21.4969 102.905 20.7017 102.905 19.8341C102.905 18.981 103.031 18.193 103.283 17.4701C103.536 16.7471 103.904 16.1254 104.388 15.6048C104.871 15.0843 105.463 14.6758 106.163 14.3794C106.864 14.083 107.661 13.9348 108.556 13.9348C109.451 13.9348 110.249 14.083 110.949 14.3794C111.649 14.6758 112.241 15.0843 112.725 15.6048C113.208 16.1254 113.576 16.7471 113.829 17.4701C114.082 18.193 114.208 18.981 114.208 19.8341C114.208 20.7017 114.082 21.4969 113.829 22.2198C113.576 22.9428 113.208 23.5645 112.725 24.0851C112.241 24.6056 111.649 25.0141 110.949 25.3105C110.249 25.6069 109.451 25.7551 108.556 25.7551ZM108.556 23.8031C109.105 23.8031 109.581 23.6874 109.985 23.4561C110.39 23.2247 110.722 22.9211 110.981 22.5452C111.241 22.1692 111.433 21.7463 111.555 21.2764C111.678 20.8065 111.739 20.3257 111.739 19.8341C111.739 19.357 111.678 18.8798 111.555 18.4027C111.433 17.9255 111.241 17.5026 110.981 17.1339C110.722 16.7652 110.39 16.4652 109.985 16.2338C109.581 16.0025 109.105 15.8868 108.556 15.8868C108.008 15.8868 107.531 16.0025 107.127 16.2338C106.723 16.4652 106.391 16.7652 106.131 17.1339C105.871 17.5026 105.68 17.9255 105.557 18.4027C105.434 18.8798 105.373 19.357 105.373 19.8341C105.373 20.3257 105.434 20.8065 105.557 21.2764C105.68 21.7463 105.871 22.1692 106.131 22.5452C106.391 22.9211 106.723 23.2247 107.127 23.4561C107.531 23.6874 108.008 23.8031 108.556 23.8031ZM121.171 25.7551C120.276 25.7551 119.479 25.6069 118.779 25.3105C118.078 25.0141 117.487 24.6056 117.003 24.0851C116.519 23.5645 116.151 22.9428 115.899 22.2198C115.646 21.4969 115.52 20.7017 115.52 19.8341C115.52 18.981 115.646 18.193 115.899 17.4701C116.151 16.7471 116.519 16.1254 117.003 15.6048C117.487 15.0843 118.078 14.6758 118.779 14.3794C119.479 14.083 120.276 13.9348 121.171 13.9348C122.066 13.9348 122.864 14.083 123.564 14.3794C124.264 14.6758 124.856 15.0843 125.34 15.6048C125.823 16.1254 126.191 16.7471 126.444 17.4701C126.697 18.193 126.823 18.981 126.823 19.8341C126.823 20.7017 126.697 21.4969 126.444 22.2198C126.191 22.9428 125.823 23.5645 125.34 24.0851C124.856 24.6056 124.264 25.0141 123.564 25.3105C122.864 25.6069 122.066 25.7551 121.171 25.7551ZM121.171 23.8031C121.72 23.8031 122.196 23.6874 122.601 23.4561C123.005 23.2247 123.337 22.9211 123.597 22.5452C123.856 22.1692 124.048 21.7463 124.17 21.2764C124.293 20.8065 124.354 20.3257 124.354 19.8341C124.354 19.357 124.293 18.8798 124.17 18.4027C124.048 17.9255 123.856 17.5026 123.597 17.1339C123.337 16.7652 123.005 16.4652 122.601 16.2338C122.196 16.0025 121.72 15.8868 121.171 15.8868C120.623 15.8868 120.146 16.0025 119.742 16.2338C119.338 16.4652 119.006 16.7652 118.746 17.1339C118.486 17.5026 118.295 17.9255 118.172 18.4027C118.05 18.8798 117.988 19.357 117.988 19.8341C117.988 20.3257 118.05 20.8065 118.172 21.2764C118.295 21.7463 118.486 22.1692 118.746 22.5452C119.006 22.9211 119.338 23.2247 119.742 23.4561C120.146 23.6874 120.623 23.8031 121.171 23.8031ZM127.529 14.2385H129.391V10.8767H131.859V14.2385H134.09V16.082H131.859V22.068C131.859 22.3283 131.87 22.5524 131.892 22.7404C131.913 22.9283 131.964 23.0874 132.043 23.2175C132.123 23.3477 132.242 23.4452 132.401 23.5103C132.559 23.5754 132.776 23.6079 133.05 23.6079C133.224 23.6079 133.397 23.6043 133.57 23.5971C133.743 23.5898 133.916 23.5645 134.09 23.5212V25.4297C133.815 25.4587 133.548 25.4876 133.288 25.5165C133.029 25.5454 132.762 25.5599 132.487 25.5599C131.838 25.5599 131.314 25.4984 130.917 25.3755C130.52 25.2526 130.21 25.0719 129.986 24.8333C129.763 24.5947 129.611 24.2947 129.532 23.9332C129.452 23.5718 129.405 23.1597 129.391 22.697V16.082H127.529V14.2385ZM137.502 21.8511C137.574 22.5741 137.848 23.0802 138.325 23.3693C138.801 23.6585 139.371 23.8031 140.035 23.8031C140.266 23.8031 140.53 23.785 140.826 23.7489C141.122 23.7127 141.4 23.6441 141.66 23.5428C141.919 23.4416 142.132 23.2934 142.298 23.0982C142.464 22.903 142.54 22.6464 142.526 22.3283C142.511 22.0102 142.396 21.7499 142.179 21.5475C141.963 21.3451 141.685 21.1824 141.346 21.0595C141.006 20.9366 140.62 20.8318 140.187 20.745C139.754 20.6583 139.314 20.5643 138.866 20.4631C138.404 20.3619 137.96 20.239 137.534 20.0944C137.109 19.9498 136.726 19.7546 136.387 19.5088C136.048 19.263 135.777 18.9485 135.575 18.5653C135.373 18.1822 135.272 17.7086 135.272 17.1447C135.272 16.5374 135.42 16.0278 135.716 15.6157C136.011 15.2036 136.387 14.871 136.842 14.618C137.296 14.365 137.802 14.1879 138.357 14.0866C138.913 13.9854 139.444 13.9348 139.949 13.9348C140.526 13.9348 141.078 13.9963 141.605 14.1192C142.132 14.2421 142.609 14.4409 143.035 14.7156C143.46 14.9903 143.814 15.3482 144.096 15.7892C144.377 16.2302 144.554 16.7616 144.626 17.3833H142.049C141.934 16.7905 141.663 16.3929 141.237 16.1904C140.811 15.988 140.324 15.8868 139.776 15.8868C139.602 15.8868 139.397 15.9013 139.158 15.9302C138.92 15.9591 138.697 16.0133 138.487 16.0928C138.278 16.1724 138.101 16.288 137.957 16.4398C137.812 16.5917 137.74 16.7905 137.74 17.0363C137.74 17.3399 137.845 17.5857 138.054 17.7737C138.263 17.9617 138.538 18.1171 138.877 18.24C139.216 18.3629 139.602 18.4677 140.035 18.5545C140.469 18.6412 140.916 18.7352 141.378 18.8364C141.826 18.9376 142.266 19.0605 142.699 19.2051C143.132 19.3497 143.518 19.5449 143.857 19.7907C144.197 20.0365 144.471 20.3474 144.68 20.7233C144.89 21.0993 144.994 21.562 144.994 22.1114C144.994 22.7765 144.843 23.3404 144.539 23.8031C144.236 24.2658 143.843 24.6417 143.359 24.9309C142.876 25.2201 142.338 25.4297 141.746 25.5599C141.154 25.69 140.57 25.7551 139.992 25.7551C139.285 25.7551 138.632 25.6756 138.032 25.5165C137.433 25.3575 136.914 25.1153 136.473 24.7899C136.033 24.4646 135.687 24.0598 135.434 23.5754C135.181 23.091 135.048 22.5163 135.033 21.8511H137.502ZM145.527 14.2385H147.389V10.8767H149.857V14.2385H152.088V16.082H149.857V22.068C149.857 22.3283 149.868 22.5524 149.89 22.7404C149.911 22.9283 149.962 23.0874 150.041 23.2175C150.121 23.3477 150.24 23.4452 150.399 23.5103C150.557 23.5754 150.774 23.6079 151.048 23.6079C151.221 23.6079 151.395 23.6043 151.568 23.5971C151.741 23.5898 151.914 23.5645 152.088 23.5212V25.4297C151.813 25.4587 151.546 25.4876 151.286 25.5165C151.027 25.5454 150.76 25.5599 150.485 25.5599C149.836 25.5599 149.312 25.4984 148.915 25.3755C148.518 25.2526 148.208 25.0719 147.984 24.8333C147.76 24.5947 147.609 24.2947 147.529 23.9332C147.45 23.5718 147.403 23.1597 147.389 22.697V16.082H145.527V14.2385ZM153.638 14.2385H155.955V16.4073H155.998C156.07 16.1037 156.211 15.8073 156.42 15.5181C156.63 15.2289 156.882 14.965 157.178 14.7265C157.474 14.4879 157.802 14.2963 158.163 14.1517C158.524 14.0071 158.892 13.9348 159.268 13.9348C159.556 13.9348 159.755 13.9421 159.863 13.9565C159.971 13.971 160.083 13.9854 160.199 13.9999V16.3856C160.026 16.3567 159.849 16.3314 159.668 16.3097C159.488 16.288 159.311 16.2772 159.138 16.2772C158.719 16.2772 158.326 16.3603 157.958 16.5266C157.59 16.6929 157.268 16.9387 156.994 17.264C156.72 17.5893 156.503 17.9906 156.344 18.4677C156.186 18.9449 156.106 19.4943 156.106 20.1161V25.4514H153.638V14.2385ZM170.41 22.9573C170.41 23.2609 170.45 23.4778 170.529 23.6079C170.609 23.738 170.764 23.8031 170.995 23.8031H171.255C171.356 23.8031 171.471 23.7887 171.601 23.7597V25.4731C171.515 25.502 171.403 25.5346 171.266 25.5707C171.129 25.6069 170.988 25.6394 170.843 25.6683C170.699 25.6972 170.555 25.7189 170.41 25.7334C170.266 25.7478 170.143 25.7551 170.042 25.7551C169.537 25.7551 169.118 25.6539 168.786 25.4514C168.454 25.249 168.238 24.8948 168.137 24.3887C167.646 24.8659 167.043 25.2129 166.329 25.4297C165.614 25.6466 164.925 25.7551 164.261 25.7551C163.755 25.7551 163.272 25.6864 162.81 25.549C162.348 25.4117 161.94 25.2093 161.586 24.9418C161.233 24.6743 160.951 24.3345 160.742 23.9224C160.533 23.5103 160.428 23.0296 160.428 22.4801C160.428 21.7861 160.554 21.2222 160.807 20.7884C161.06 20.3546 161.392 20.0148 161.803 19.769C162.214 19.5232 162.676 19.3461 163.189 19.2377C163.701 19.1292 164.217 19.0461 164.737 18.9883C165.185 18.9015 165.61 18.84 166.015 18.8039C166.419 18.7678 166.776 18.7063 167.087 18.6195C167.397 18.5328 167.642 18.399 167.823 18.2183C168.003 18.0376 168.093 17.7665 168.093 17.405C168.093 17.0869 168.018 16.8266 167.866 16.6242C167.714 16.4218 167.527 16.2663 167.303 16.1579C167.079 16.0495 166.83 15.9772 166.556 15.941C166.282 15.9049 166.022 15.8868 165.776 15.8868C165.084 15.8868 164.513 16.0314 164.066 16.3206C163.618 16.6097 163.366 17.058 163.308 17.6653H160.839C160.883 16.9423 161.056 16.3423 161.359 15.8651C161.662 15.388 162.048 15.0048 162.518 14.7156C162.987 14.4264 163.517 14.224 164.109 14.1083C164.701 13.9927 165.307 13.9348 165.928 13.9348C166.477 13.9348 167.018 13.9927 167.552 14.1083C168.086 14.224 168.566 14.412 168.992 14.6722C169.418 14.9325 169.761 15.2687 170.021 15.6808C170.28 16.0928 170.41 16.5953 170.41 17.1881V22.9573ZM167.942 19.8341C167.567 20.0799 167.105 20.2281 166.556 20.2787C166.007 20.3293 165.459 20.4052 164.91 20.5065C164.65 20.5498 164.398 20.6113 164.152 20.6908C163.907 20.7703 163.69 20.8788 163.503 21.0161C163.315 21.1535 163.167 21.3342 163.059 21.5583C162.951 21.7825 162.897 22.0536 162.897 22.3717C162.897 22.6464 162.976 22.8777 163.135 23.0657C163.294 23.2537 163.485 23.4019 163.709 23.5103C163.932 23.6188 164.178 23.6947 164.445 23.738C164.712 23.7814 164.954 23.8031 165.17 23.8031C165.444 23.8031 165.74 23.767 166.058 23.6947C166.376 23.6224 166.675 23.4995 166.957 23.326C167.238 23.1525 167.473 22.932 167.66 22.6645C167.848 22.397 167.942 22.068 167.942 21.6776V19.8341ZM172.913 14.2385H175.252V15.7567H175.295C175.642 15.106 176.125 14.6397 176.746 14.3577C177.367 14.0758 178.038 13.9348 178.76 13.9348C179.64 13.9348 180.409 14.0903 181.066 14.4011C181.723 14.712 182.268 15.1385 182.701 15.6808C183.134 16.223 183.459 16.8555 183.675 17.5785C183.892 18.3015 184 19.075 184 19.8992C184 20.651 183.903 21.3812 183.708 22.0897C183.513 22.7982 183.217 23.4236 182.82 23.9658C182.423 24.508 181.921 24.9418 181.315 25.2671C180.709 25.5924 179.994 25.7551 179.171 25.7551C178.81 25.7551 178.449 25.7225 178.089 25.6575C177.728 25.5924 177.381 25.4876 177.049 25.343C176.717 25.1984 176.41 25.0141 176.129 24.7899C175.847 24.5658 175.613 24.3019 175.425 23.9983H175.382V29.5939H172.913V14.2385ZM181.531 19.8558C181.531 19.3497 181.467 18.8581 181.337 18.381C181.207 17.9038 181.012 17.4809 180.752 17.1122C180.492 16.7435 180.167 16.4471 179.777 16.223C179.388 15.9988 178.94 15.8868 178.435 15.8868C177.396 15.8868 176.612 16.2483 176.086 16.9712C175.559 17.6942 175.295 18.6557 175.295 19.8558C175.295 20.4197 175.364 20.9438 175.501 21.4282C175.638 21.9126 175.844 22.3283 176.118 22.6753C176.392 23.0223 176.721 23.297 177.103 23.4995C177.486 23.7019 177.93 23.8031 178.435 23.8031C178.998 23.8031 179.474 23.6874 179.864 23.4561C180.254 23.2247 180.575 22.9247 180.828 22.556C181.08 22.1873 181.261 21.768 181.369 21.2981C181.477 20.8282 181.531 20.3474 181.531 19.8558Z" fill="white"/>
</svg>
