<svg width="273" height="153" viewBox="0 0 273 153" fill="none" xmlns="http://www.w3.org/2000/svg">
  <path d="M205.527 78.5082C205.071 78.2805 204.615 78.0528 204.083 77.9769C200.893 77.2938 197.854 77.7492 194.739 78.0528C192.536 78.2805 188.662 78.3564 188.89 75.2444C189.421 68.7925 197.778 68.7166 201.956 65.984C202.488 65.6804 202.868 65.0732 202.944 64.466C202.944 64.0864 202.868 63.7069 202.716 63.3274C198.614 52.7008 188.358 45.8694 178.102 41.9983C170.277 39.0381 163.212 37.8995 154.932 39.7212C153.032 40.1766 151.133 40.7079 149.234 41.3911C147.715 41.9224 146.043 42.6055 144.372 43.2887C141.485 44.7309 136.243 47.1598 134.572 43.061C131.533 35.5465 127.127 27.6524 121.429 21.656C117.859 17.9367 112.617 16.1909 107.603 17.1776C101.83 18.3921 98.8668 22.9464 95.2963 27.197C93.473 29.3223 87.4715 35.8501 85.1164 30.6127C84.2048 28.6392 84.8126 26.438 84.3568 24.3885C83.0653 18.468 77.2157 16.7981 71.8979 16.874C67.1878 16.9499 62.4778 17.7849 57.9956 19.3789C53.5135 20.9729 49.4111 23.5536 44.7011 24.6922C38.1678 26.2862 31.6345 19.8343 24.5694 22.5668C22.974 23.0982 21.5306 23.8572 20.1632 24.9199C17.5802 26.8175 15.757 29.6259 15.0733 32.8139C14.9973 33.0416 14.9973 33.1934 14.9213 33.4211C13.4779 43.1369 10.5152 52.0177 7.70431 60.6707C4.43765 70.4624 1.09503 80.6335 0.107435 91.7156C0.0314663 92.7023 -0.0445012 93.6891 0.0314675 94.6758C0.0314675 94.6758 0.0314675 94.7517 0.0314675 94.8276C0.411311 103.025 6.033 109.933 14.0097 111.906C16.2128 114.031 19.4035 116.233 23.7337 116.233C23.8856 116.233 24.1136 116.233 24.2655 116.233C27.3802 116.005 30.343 114.715 32.622 112.513C35.129 109.629 37.56 106.669 39.915 103.708C44.3972 109.249 52.3739 112.134 59.1351 111.147C59.591 111.147 60.0468 111.147 60.5026 111.147C67.5677 111.754 74.025 107.731 80.5583 107.731C87.2436 108.339 94.0048 108.49 100.386 107.504C102.513 107.2 104.564 106.745 106.616 106.137C107.451 107.959 109.047 109.325 110.946 109.933C112.997 110.464 115.124 110.616 117.251 110.312C122.037 109.401 127.735 106.972 131.002 108.566C135.788 110.919 141.181 111.299 146.803 110.843C148.626 110.692 150.526 110.388 152.425 110.084C166.099 107.807 180.761 105.378 191.321 95.5867C191.321 101.128 178.634 103.177 182.432 109.401C182.812 110.084 194.132 105.151 195.271 104.619C198.766 103.101 203.552 101.431 205.527 97.9397C205.755 97.5602 205.907 97.1048 205.983 96.5734C206.135 94.524 203.4 93.3096 202.488 91.6397C201.349 89.7421 201.501 87.3131 202.944 85.6432C203.856 84.5806 204.843 83.6697 205.983 82.9107C207.502 81.848 207.654 79.7986 205.527 78.5082Z" fill="#E22741"/>
  <path d="M74.2575 36.4571C75.3211 35.5463 75.7769 34.7872 75.701 33.6487C75.473 28.8667 68.7878 25.2992 64.5336 25.5269C62.6343 25.6028 60.6591 26.286 59.8235 28.1077C51.5429 40.2523 33.3864 73.1189 24.8019 84.8081C24.4221 85.1876 23.9663 85.3394 23.4345 85.4153C23.0546 85.4153 22.8267 85.2635 22.8267 84.8081C22.8267 84.5804 22.8267 84.4286 22.9027 84.2009C25.3337 77.0659 33.1585 50.7271 40.2995 40.48C40.9832 39.7969 41.3631 38.8861 41.3631 37.9752C41.1352 33.9523 33.9182 31.3715 30.2717 31.5234C28.1445 31.5993 25.1058 32.5101 24.574 35.0909C21.2314 56.9513 11.5074 73.7261 9.7601 92.9298C9.68413 93.4612 9.68413 93.9925 9.7601 94.5238C10.064 99.9889 14.3182 102.873 18.9523 103.025C20.8515 105.378 22.2949 106.744 23.7383 106.669C25.0298 106.593 26.3213 105.454 27.9926 102.721C35.8174 89.666 50.7832 58.2416 74.2575 36.4571Z" fill="white"/>
  <path d="M179.393 60.1394C179.089 60.1394 178.937 60.3671 178.633 60.7466C176.962 63.1755 167.922 75.0166 165.263 78.2046C161.54 82.6829 156.526 88.148 155.539 88.9829C154.931 89.742 154.171 90.1974 153.26 90.4251C152.652 90.4251 152.12 89.9697 152.12 88.907C151.816 82.6829 161.388 70.7659 164.503 66.4394C165.187 65.5285 165.567 64.4659 165.643 63.4032C165.491 59.8357 158.274 59.6839 155.387 57.8622C155.615 57.8622 156.982 54.3706 156.83 51.6381C156.754 49.7405 155.843 48.0706 153.336 48.2224C144.903 48.6778 138.218 54.5983 138.446 59.4562C138.598 62.1129 140.573 64.4659 145.283 65.6045C145.131 65.8322 144.903 66.0599 144.675 66.3635C143.232 68.1093 141.484 70.0828 140.117 71.7527C137.154 75.3961 133.888 76.9142 131.153 77.066H130.925C134.647 70.3864 137.154 64.39 137.078 62.6442C136.926 59.5321 133.204 55.7369 128.19 55.9646C125.531 54.5983 123.936 51.714 121.657 51.8658C115.883 52.0935 106.387 67.0466 102.74 80.254C102.512 80.5576 102.209 80.8612 102.057 81.0889C99.2458 84.96 95.9032 88.5275 92.2567 91.6396C92.0288 91.7914 91.8009 91.9432 91.573 91.9432C90.9652 91.9432 90.6614 91.336 90.5854 90.501C90.2815 85.1118 106.159 53.6116 116.263 41.0874C118.922 37.7476 119.909 35.091 119.833 33.0416C119.605 27.8042 112.768 26.0584 109.426 26.2102C106.615 26.362 105.779 26.7415 105.855 27.3487C105.855 28.0319 106.919 29.0186 106.995 30.1572C106.995 30.5367 106.919 30.9921 106.691 31.2958C99.2458 44.7308 84.356 73.8021 82.0009 86.2504C81.925 86.2504 81.849 86.1745 81.849 86.1745C80.9374 87.2372 77.1389 91.0324 75.0878 91.1083C73.8723 91.1842 72.8847 90.2733 72.8087 89.0588C72.6568 85.4913 79.1901 74.637 81.2412 71.8286C81.6211 71.3732 81.849 70.7659 81.925 70.2346C81.849 68.2611 78.2025 66.4394 73.9483 66.6671C72.8847 66.6671 71.7452 66.8948 70.7576 67.1984C69.3901 76.0033 59.8181 94.9794 53.9685 95.283C53.2848 95.283 52.9809 94.5999 52.9049 93.3854C52.601 86.7058 60.2739 65.8322 74.632 65.149C76.2273 65.0731 77.8227 65.3008 79.418 65.6804C79.7978 65.7563 80.1777 65.8322 80.4816 65.8322C82.1529 65.7563 83.5963 62.796 83.4443 59.6839C83.2924 56.2682 81.2412 52.8526 75.5436 53.0803C58.3747 53.8393 45.1561 81.013 45.8398 95.1312C46.0677 99.5336 50.246 101.963 54.5762 101.811C57.2351 101.659 61.6413 98.5469 65.5917 93.7649C66.0475 97.4083 68.0987 99.0782 71.0614 99.0023C74.2521 98.8505 78.4304 96.3456 82.0769 91.4119C83.0645 95.5866 86.635 100.748 90.3575 100.596C91.4211 100.52 92.4087 100.065 93.1683 99.3059C95.5993 97.1806 98.7141 93.2336 101.449 89.6661C101.449 90.1974 101.449 90.7287 101.449 91.1842C101.753 96.8011 104.412 100.596 110.641 100.293C115.579 100.065 122.264 91.8673 127.734 83.1383C128.418 83.2901 129.178 83.2901 129.937 83.2142C134.495 82.9865 139.737 80.3299 143.536 74.713C145.435 71.9045 147.334 68.9442 148.853 66.4394C149.689 66.5912 150.601 66.5912 151.512 66.6671C148.018 74.1057 142.852 87.0094 143.232 94.448C143.384 97.9396 144.827 100.141 148.17 99.9891C154.399 99.6854 164.047 88.0721 168.149 81.9998C173.391 74.4852 178.785 66.3635 181.216 62.1888C180.988 61.8092 180.304 60.0634 179.393 60.1394ZM120.441 75.3202C120.517 76.5347 120.821 77.7491 121.429 78.8877C118.086 86.1745 112.009 94.7517 109.35 94.9035C108.742 94.9035 108.362 94.5999 108.286 93.7649C107.754 82.9865 117.478 68.7165 121.657 68.4888H121.96C120.897 70.5382 120.365 72.9672 120.441 75.3202Z" fill="white"/>
  <path d="M23.7297 128.302H18.8677V127.239C18.8677 126.252 18.6398 125.19 18.108 124.355C17.5002 123.52 16.5126 123.064 15.4491 123.14C14.9173 123.14 14.3096 123.216 13.8537 123.52C13.4739 123.747 13.094 124.051 12.8661 124.506C12.6382 124.962 12.4103 125.417 12.3344 125.949C12.2584 126.48 12.1824 127.011 12.1824 127.618C12.1824 128.15 12.1824 128.757 12.2584 129.288C12.3344 129.668 12.4103 130.123 12.6382 130.503C12.8661 130.882 13.0941 131.186 13.4739 131.414C13.9297 131.717 14.4615 131.945 14.9933 132.173L18.7157 133.615C19.6274 133.918 20.539 134.45 21.3746 135.057C22.0584 135.588 22.5901 136.272 22.97 136.955C23.3498 137.79 23.5777 138.625 23.6537 139.535C23.8056 140.598 23.8816 141.737 23.8056 142.875C23.8056 144.241 23.6537 145.532 23.3498 146.822C23.1219 147.961 22.6661 149.023 21.9824 149.934C21.2987 150.845 20.387 151.528 19.3235 152.06C18.108 152.591 16.7406 152.895 15.3731 152.819C14.2336 152.819 13.094 152.591 12.1065 152.211C11.1189 151.832 10.2072 151.225 9.44755 150.466C8.68786 149.707 8.15608 148.872 7.70027 147.885C7.24446 146.898 7.01655 145.835 7.09252 144.697V142.875H11.9545V144.393C11.9545 145.228 12.1824 146.139 12.7142 146.822C13.3979 147.581 14.3855 147.961 15.3731 147.885C16.0568 147.885 16.6646 147.809 17.2723 147.505C17.7281 147.278 18.108 146.898 18.3359 146.519C18.6398 146.063 18.7917 145.456 18.7917 144.925C18.8677 144.317 18.8677 143.634 18.8677 142.875C18.8677 142.116 18.8677 141.433 18.7917 140.674C18.7917 140.219 18.6398 139.687 18.4119 139.308C18.184 138.928 17.8801 138.7 17.5002 138.473C17.0444 138.169 16.5126 137.941 16.0568 137.79L12.5623 136.347C10.4351 135.512 9.06771 134.374 8.30802 132.932C7.54833 131.262 7.16849 129.44 7.24446 127.618C7.24446 126.404 7.3964 125.19 7.77624 123.975C8.08011 122.912 8.6119 121.926 9.37158 121.015C10.0553 120.18 10.9669 119.497 11.9545 119.041C13.0941 118.51 14.3855 118.282 15.677 118.282C16.8165 118.282 17.956 118.51 19.0196 118.965C20.0072 119.421 20.8429 119.952 21.6025 120.711C22.97 122.077 23.8056 123.975 23.8056 125.949L23.7297 128.302Z" fill="#010101"/>
  <path d="M27.0767 126.556C27.0767 125.341 27.3047 124.051 27.7605 122.912C28.2163 121.926 28.824 121.015 29.6597 120.256C30.4194 119.573 31.331 119.041 32.2426 118.738C35.1294 117.675 38.3961 118.282 40.7511 120.256C41.5108 121.015 42.1945 121.85 42.5744 122.912C43.1061 124.051 43.334 125.265 43.2581 126.556V144.469C43.2581 145.76 43.0302 146.974 42.5744 148.113C42.1185 149.099 41.5108 149.934 40.7511 150.617C39.9914 151.301 39.0798 151.832 38.0922 152.211C36.193 152.895 34.1418 152.895 32.2426 152.211C31.255 151.832 30.4194 151.301 29.6597 150.617C28.824 149.934 28.2163 149.099 27.7605 148.113C27.2287 146.974 27.0008 145.684 27.0767 144.469V126.556ZM31.9387 144.469C31.8628 145.456 32.2426 146.367 32.9263 147.05C34.2938 148.188 36.193 148.188 37.5604 147.05C38.2441 146.367 38.624 145.456 38.548 144.469V126.556C38.624 125.569 38.2441 124.658 37.5604 123.975C36.193 122.836 34.2938 122.836 32.9263 123.975C32.2426 124.658 31.8628 125.569 31.9387 126.556V144.469Z" fill="#010101"/>
  <path d="M47.6621 152.439V118.51H62.1721V123.064H52.5241V133.387H60.8807V137.941H52.5241V152.439H47.6621Z" fill="#010101"/>
  <path d="M70.151 152.439V123.064H64.5293V118.51H80.6347V123.064H75.013V152.439H70.151Z" fill="#010101"/>
  <path d="M109.583 118.585L104.493 152.515H99.9348L96.2123 130.502H96.1363L92.4898 152.515H87.9317L82.8418 118.585H88.0077L90.4387 140.142H90.5146L94.3131 118.585H98.0355L101.986 140.674H102.062L104.417 118.585H109.583Z" fill="#010101"/>
  <path d="M109.043 152.439L116.64 118.51H120.666L128.263 152.439H123.401L121.958 145.152H115.348L113.905 152.439H109.043ZM121.046 140.598L118.691 128.301H118.615L116.26 140.598H121.046Z" fill="#010101"/>
  <path d="M132.297 152.439V118.51H140.122C145.819 118.51 148.706 121.85 148.706 128.453C148.782 130.199 148.402 131.945 147.794 133.539C147.111 134.981 145.971 136.195 144.528 136.954L149.77 152.439H144.604L140.046 137.941H137.159V152.439H132.297ZM137.159 123.14V133.691H139.894C140.577 133.691 141.261 133.615 141.945 133.311C142.401 133.083 142.857 132.704 143.16 132.248C143.464 131.717 143.616 131.186 143.692 130.579C143.844 129.06 143.844 127.542 143.692 126.024C143.616 125.417 143.388 124.886 143.084 124.354C142.477 123.444 141.337 122.988 139.666 122.988L137.159 123.14Z" fill="#010101"/>
  <path d="M153.412 152.439V118.51H167.922V123.064H158.274V133.007H166.631V137.562H158.274V147.581H167.922V152.439H153.412Z" fill="#010101"/>
  <path d="M223.458 18.4678H207.656V27.4245H223.458V18.4678Z" fill="#FECB3D"/>
  <path d="M247.766 125.493L240.169 124.886L235.155 120.559L211.985 123.519L200.665 123.595L200.438 147.429H216.923C218.062 147.05 228.47 144.697 233.104 144.924C237.738 145.152 245.563 146.594 247.842 147.429C247.842 147.429 255.743 147.201 258.63 146.594C261.516 145.987 267.898 142.723 267.898 142.723L247.766 125.493Z" fill="#E22741"/>
  <path d="M199.903 148.188C197.776 148.188 195.801 149.479 195.041 151.528C195.041 151.528 210.235 151.604 210.615 151.604C211.45 151.452 212.21 150.997 212.742 150.39C213.046 149.707 213.349 148.948 213.501 148.188H199.903Z" fill="#FFEFD1"/>
  <path d="M270.707 149.403C270.251 148.947 269.644 148.568 269.036 148.34C268.428 148.112 267.82 147.96 267.137 147.96C266.985 147.96 266.833 147.96 266.605 147.96H265.997C265.693 147.96 265.314 147.96 265.01 147.885C263.642 147.733 262.351 147.277 261.135 146.594L260.907 146.442L254.07 148.112C253.994 148.947 254.146 149.782 254.45 150.541C254.906 151.452 257.033 151.756 257.793 151.756L271.391 151.604V150.997C271.467 150.389 271.163 149.858 270.707 149.403Z" fill="#FFEFD1"/>
  <path d="M246.701 117.22L251.107 108.718C251.107 108.718 255.134 109.477 257.033 110.54C257.641 110.844 260.072 112.438 260.3 113.197C260.527 113.956 259.388 116.612 259.312 116.992C260.3 117.751 260.679 119.041 260.224 120.18C259.54 121.546 256.729 121.091 255.59 120.939C254.45 120.787 246.701 117.22 246.701 117.22Z" fill="#FFEFD1"/>
  <path d="M210.613 92.778C205.447 92.778 200.358 92.0949 195.42 90.5768C193.748 90.0455 192.153 89.4382 190.634 88.6792C189.874 88.2997 189.114 87.8443 188.43 87.3888C188.127 87.1611 187.823 86.8575 187.519 86.6298C187.519 86.6298 187.519 86.6298 187.443 86.5539H187.291L187.139 86.0985L187.595 85.8708L187.139 86.0985L186.987 85.643L186.683 84.5804C186.151 82.9105 185.62 81.2406 185.012 79.5707C185.088 80.102 185.164 80.7093 185.24 81.3165L185.392 82.0755L184.632 81.9996C183.417 81.9237 182.353 81.4683 181.365 80.7093C180.226 79.7984 179.238 78.584 178.555 77.2936C177.339 74.9405 176.2 68.7164 176.124 67.426C176.048 66.3634 176.124 65.3766 176.275 64.314C176.351 63.6308 176.579 62.9477 176.807 62.2646C176.959 61.7332 177.415 61.2778 178.023 61.0501C178.327 60.9742 178.631 60.9742 178.934 60.9742C179.922 60.9742 180.986 61.3537 181.745 61.9609C182.809 62.8718 183.644 64.0103 184.252 65.3007C184.632 66.0598 184.86 66.8947 185.012 67.7297C185.468 66.8947 186.227 65.4525 186.987 64.0863C189.95 58.3175 194.888 48.6018 200.206 45.7933L200.282 45.7174H200.358C202.333 45.262 204.384 44.9584 206.435 44.7307C208.714 44.503 210.993 44.3512 213.348 44.3512H213.424C217.982 44.3512 222.616 44.8066 227.099 45.6415H227.175C227.251 45.6415 227.326 45.6415 227.326 45.6415H227.402C229.833 44.8066 232.264 44.0476 234.695 43.4403C236.975 42.8331 239.254 42.4536 241.609 42.3018H241.912L242.14 42.5295C242.52 43.0608 242.824 43.5921 243.204 44.1994C243.584 44.9584 243.964 45.7174 244.268 46.5524C244.875 48.1464 245.407 49.8163 245.787 51.4862C246.471 54.9019 246.774 58.3175 246.698 61.8091C246.623 62.1127 246.85 62.3405 247.154 62.4164C247.382 62.4164 247.61 62.3405 247.686 62.1127V62.0368C247.914 61.4296 248.294 60.8983 248.674 60.291V60.2151C249.054 59.6079 249.585 59.0766 250.117 58.6212C251.181 57.7103 252.624 57.4067 253.991 57.7103C254.447 57.7862 254.903 58.2416 255.207 58.9248C255.511 59.6079 255.663 60.291 255.739 60.9742C255.891 61.9609 255.967 63.0236 255.891 64.0863L255.739 65.7561C255.435 68.5646 254.599 71.3731 253.308 73.8779C252.624 75.1683 251.636 76.3068 250.497 77.2177C249.433 77.9767 248.218 78.4321 246.926 78.4321C246.774 78.4321 246.699 78.4321 246.547 78.4321H246.015V77.9008C246.015 77.2177 245.939 76.5345 245.939 75.8514C245.787 76.6863 245.559 77.4454 245.483 78.1285C245.407 78.584 245.331 79.0394 245.255 79.4948C245.179 79.8743 245.103 80.2538 245.027 80.7093L244.799 81.9996C244.799 82.1515 244.723 82.3792 244.723 82.531V82.6069H244.571L244.723 82.6828V82.7587L244.647 82.8346C244.647 82.9105 244.571 82.9105 244.571 82.9864C244.04 83.5936 243.508 84.125 242.824 84.5804C242.14 85.1117 241.457 85.5671 240.697 85.9467C239.178 86.7816 237.658 87.5406 236.063 88.1479C229.606 90.6527 222.844 92.1708 216.007 92.6262C214.032 92.7021 212.285 92.778 210.613 92.778Z" fill="#FFEFD1"/>
  <path d="M228.463 114.107C228.387 114.107 228.463 114.107 228.463 114.107C229.375 115.094 232.186 117.826 232.186 117.826L219.879 118.965C218.739 116.992 216.232 116.232 214.257 117.371C213.574 117.751 213.042 118.282 212.662 118.965L203.09 118.51C203.09 118.51 212.054 109.325 213.877 106.82C215.701 104.316 222.31 92.854 222.31 92.854C222.31 92.854 232.642 98.0155 237.352 100.141C242.518 102.418 252.09 105.91 252.09 105.91L245.784 116.84C245.784 116.84 241.606 114.183 240.466 116.46C239.327 118.737 244.797 120.787 244.797 120.787L240.39 123.747C240.466 123.747 229.831 115.094 228.463 114.107Z" fill="white"/>
  <path d="M203.325 93.689L200.362 93.1577L180.838 119.041C180.838 119.041 188.055 124.354 189.65 125.113C192.385 126.48 199.374 128.529 199.374 128.529C199.374 128.529 199.754 111.071 200.058 108.566C200.362 111.071 200.666 118.206 200.666 118.206L203.477 118.434C203.477 118.434 208.035 113.955 209.478 111.982C210.314 110.995 214.036 104.543 214.036 104.543L203.325 93.689Z" fill="white"/>
  <path d="M208.108 120.18C205.829 120.104 203.55 120.028 201.195 119.876C201.195 120.559 201.195 121.242 201.271 121.925C203.778 122.077 206.361 122.077 208.944 122.077C209.856 122.077 210.767 122.077 211.679 122.001C211.603 121.622 211.527 121.242 211.527 120.863C211.527 120.635 211.527 120.407 211.603 120.104C210.464 120.255 209.324 120.255 208.108 120.18Z" fill="#FCBD19"/>
  <path d="M204.688 93.9169L220.869 93.6133C219.046 97.7121 216.691 101.507 213.804 104.923C210.233 101.735 207.118 98.0157 204.688 93.9169Z" fill="#F9BC8D"/>
  <path d="M255.441 109.173L260.303 101.735L263.114 103.557L258.404 110.843L255.441 109.173Z" fill="#FCBD19"/>
  <path d="M233.56 119.952C233.028 119.497 232.496 118.965 231.964 118.51C228.242 119.193 224.519 119.648 220.797 119.876C220.873 120.256 220.949 120.559 220.949 120.939C220.949 121.166 220.949 121.47 220.873 121.698C225.203 121.394 229.381 120.863 233.56 119.952Z" fill="#FCBD19"/>
  <path d="M230.061 124.582C230.061 124.582 237.809 138.017 249.281 143.558C249.357 143.558 231.504 125.189 230.061 124.582Z" fill="#010101"/>
  <path d="M236.068 142.268C231.357 139.991 227.255 136.423 224.064 132.932L226.192 132.249C231.13 137.182 236.068 142.268 236.068 142.268Z" fill="#010101"/>
  <path d="M216.315 124.202C218.214 124.202 219.734 122.684 219.734 120.787C219.734 118.889 218.214 117.371 216.315 117.371C214.416 117.371 212.896 118.889 212.896 120.787C212.896 122.684 214.416 124.202 216.315 124.202Z" fill="#FECB3D"/>
  <path d="M212.289 119.648L200.59 119.345L200.666 122.609L212.441 122.76L212.289 119.648Z" fill="#FECB3D"/>
  <path d="M232.192 117.902L220.113 119.345L220.189 122.381C225.127 122.457 230.141 121.773 234.851 120.331L232.192 117.902Z" fill="#FECB3D"/>
  <path d="M218.591 124.354L214.717 124.962L215.704 135.892L223.985 132.476L218.591 124.354Z" fill="#FECB3D"/>
  <path d="M188.811 129.971C186 127.77 186.076 123.216 186.076 123.216L194.585 127.618C194.585 127.618 191.622 132.173 188.811 129.971Z" fill="#FFEFD1"/>
  <path d="M198.614 144.166C196.411 144.014 190.03 143.027 190.03 143.027C189.65 143.179 213.124 138.093 218.822 135.057C225.583 132.704 243.132 123.14 245.867 121.318L248.526 122.761C246.323 125.797 236.751 133.008 232.648 135.361C228.09 138.169 213.58 145.456 213.58 145.456C213.58 145.456 199.45 144.241 198.614 144.166Z" fill="white"/>
  <path d="M254.984 126.176C253.617 125.872 241.462 118.889 241.462 118.889C240.702 118.434 240.399 117.447 240.702 116.612C241.234 115.549 242.829 115.625 243.209 115.853C243.209 115.853 256.276 122.76 256.884 123.595C257.491 124.43 257.719 125.037 257.34 125.72C256.96 126.404 256.352 126.555 254.984 126.176Z" fill="#FCBD19"/>
  <path d="M184.86 113.652L182.201 117.295C182.201 117.295 191.317 123.747 199.218 126.024V121.015C199.294 120.939 190.026 117.599 184.86 113.652Z" fill="#E22741"/>
  <path d="M201.123 93.5371L199.984 93.3853L198.236 95.7383C201.351 101.887 210.619 109.932 210.619 109.932L213.43 106.213C206.973 102.57 201.123 93.5371 201.123 93.5371Z" fill="#E22741"/>
  <path d="M224.594 93.8408C224.594 93.8408 215.554 113.12 205.146 119.117L211.528 119.269C211.528 119.269 222.012 112.134 229.532 97.2565L224.594 93.8408Z" fill="#E22741"/>
  <path d="M243.895 116.081C243.895 116.081 249.137 107.731 249.896 104.999C249.972 104.771 243.667 102.722 243.667 102.722C241.692 110.16 235.234 119.572 235.234 119.572L239.717 122.988C240.704 121.85 241.616 120.559 242.451 119.345C242.451 119.345 240.096 118.054 241.084 116.46C242.072 114.866 243.895 116.081 243.895 116.081Z" fill="#E22741"/>
  <path d="M179.169 67.578C173.7 66.819 176.662 73.5745 176.662 73.5745L179.017 78.1287C179.017 78.1287 177.27 74.5612 180.157 74.0299C183.044 73.4986 184.107 76.6865 184.107 76.6865C184.107 76.6865 184.563 68.413 179.169 67.578Z" fill="#F9BC8D"/>
  <path d="M255.666 66.4396C255.742 64.1625 253.159 64.542 250.424 65.5287C247.689 66.5155 246.094 75.0927 246.094 75.0927L246.626 77.3698C246.626 77.3698 248.753 69.4758 251.563 69.3998C254.374 69.3239 253.919 73.271 253.919 73.271C253.919 73.271 255.59 68.7167 255.666 66.4396Z" fill="#F9BC8D"/>
  <path d="M193.596 84.1249C195.495 82.3032 196.634 79.8743 196.862 77.2935C197.09 73.0429 195.115 67.7296 195.951 66.591C195.951 66.591 209.625 67.2742 211.828 66.591C214.031 65.9079 215.93 61.05 211.828 57.6343C212.284 59.0765 212.512 60.5187 212.664 62.0368C212.816 63.0994 212.588 64.0862 212.208 65.073C212.208 65.073 211.068 65.1489 205.599 62.4922C203.396 61.5055 201.193 60.3669 199.141 59.1524C199.141 59.1524 204.155 51.3343 202.484 46.021L198.61 46.2487C198.61 46.2487 196.71 53.7632 195.267 56.0404C193.824 58.3175 189.493 64.9211 190.557 68.2609C191.62 71.6007 193.824 77.3694 193.9 78.8116C193.976 80.2538 193.596 84.1249 193.596 84.1249Z" fill="#F9BC8D"/>
  <path d="M231.201 62.6441C231.201 62.6441 232.417 54.0669 239.482 50.8789C235.228 50.4994 231.125 52.397 228.618 55.8127C224.288 61.7332 222.085 63.1754 222.085 63.1754C222.085 63.1754 218.742 63.479 217.907 59.3043L217.527 61.0501C217.375 61.2778 218.211 66.0598 220.87 67.1224C223.528 68.1851 229.15 66.4393 229.15 66.4393H242.369C239.71 63.1754 235.38 61.7332 231.201 62.6441Z" fill="#F9BC8D"/>
  <path d="M212.672 75.0928C212.672 75.0928 214.039 80.482 216.926 80.9374C219.813 81.3928 221.712 75.0928 221.712 75.0928C221.712 75.0928 219.281 77.5217 217.002 77.3699C214.723 77.2181 212.672 75.0928 212.672 75.0928Z" fill="#F9BC8D"/>
  <path d="M210.16 86.5541C210.16 86.5541 217.985 87.9963 222.999 85.5674C222.999 85.5674 220.492 89.5144 216.01 89.4385C211.528 89.3626 210.16 86.5541 210.16 86.5541Z" fill="#F9BC8D"/>
  <path d="M271.472 148.72C270.94 148.188 270.257 147.733 269.497 147.429C268.813 147.126 268.053 146.974 267.294 146.898C266.458 146.822 265.926 146.822 265.319 146.746C264.711 146.67 264.179 146.442 263.647 146.215C265.395 145.456 267.142 144.545 268.661 143.406C268.737 143.406 268.737 143.33 268.813 143.254C269.117 142.951 269.041 142.42 268.737 142.192L248.985 124.582C249.137 124.43 249.289 124.278 249.441 124.203C249.897 124.43 250.353 124.734 250.809 124.962L253.012 126.252L254.151 126.935C254.379 127.087 254.607 127.163 254.835 127.315C255.139 127.466 255.443 127.466 255.747 127.542H255.823C257.266 127.542 258.481 126.404 258.481 124.962C258.481 124.278 258.254 123.671 257.798 123.216C257.646 123.064 257.57 122.912 257.418 122.836L257.266 122.684L257.114 122.533L256.582 122.229C256.43 122.153 256.354 122.077 256.202 122.001C256.506 122.001 256.734 122.077 257.038 122.077C257.95 122.153 258.861 122.001 259.697 121.698C260.229 121.47 260.609 121.09 260.912 120.559C261.14 120.104 261.292 119.496 261.14 118.965C260.988 118.206 260.533 117.447 259.849 117.068C260.153 116.688 260.381 116.308 260.609 115.853C260.988 115.246 261.216 114.639 261.444 114.031C261.52 113.804 261.52 113.5 261.52 113.272C261.52 113.196 261.444 113.045 261.444 112.969L261.368 112.817C261.292 112.741 261.216 112.589 261.216 112.513C260.988 112.21 260.76 111.906 260.457 111.678C260.229 111.451 260.001 111.299 259.773 111.071L264.331 104.012C264.559 103.632 264.483 103.101 264.103 102.873L260.912 100.824C260.533 100.596 260.001 100.672 259.773 101.052L254.987 108.339C254.227 108.035 253.467 107.807 252.708 107.58L253.316 106.365C253.316 106.289 253.392 106.289 253.392 106.213C253.543 105.758 253.24 105.302 252.86 105.226C247.846 103.481 242.908 101.431 238.046 99.1542C234.171 97.3325 230.297 95.4349 226.423 93.4613C229.993 92.7023 233.412 91.6396 236.754 90.1975C238.426 89.5143 240.021 88.6794 241.54 87.7685C242.3 87.3131 243.06 86.7818 243.819 86.2504C244.655 85.6432 245.339 84.9601 245.947 84.1251C246.023 83.9733 246.099 83.8215 246.174 83.6697C246.174 83.5938 246.25 83.5179 246.25 83.3661L246.326 83.2143V83.1384C246.402 82.8348 246.402 82.6829 246.478 82.4552C246.554 81.9998 246.554 81.5444 246.63 81.089C246.63 80.6335 246.63 80.1781 246.706 79.7986C248.302 79.8745 249.897 79.4191 251.188 78.5082C252.48 77.5215 253.619 76.307 254.455 74.8648C255.974 72.1323 256.962 69.0202 257.342 65.9081C257.57 64.3141 257.57 62.7201 257.418 61.1262C257.342 60.2912 257.114 59.4563 256.81 58.6213C256.582 58.1659 256.354 57.7105 255.974 57.331C255.747 57.1032 255.595 56.9514 255.291 56.7996C255.139 56.7237 254.987 56.6478 254.835 56.5719C254.683 56.496 254.607 56.496 254.455 56.4201C253.543 56.1924 252.632 56.1924 251.72 56.4201C251.188 56.5719 250.733 56.7237 250.277 57.0273C250.505 55.737 250.657 54.4466 250.733 53.1562C250.885 50.7273 250.885 48.2224 250.733 45.7935C250.657 45.1863 250.657 44.579 250.581 43.8959C250.581 43.5923 250.505 43.2128 250.429 42.9092C250.353 42.6055 250.277 42.226 250.201 41.9224C249.821 40.7079 249.213 39.4935 248.53 38.4308C247.086 36.3055 245.415 34.4838 243.44 32.8898C239.565 29.7777 235.235 27.3488 230.525 25.7548C229.689 25.4512 228.93 25.2235 228.094 24.9958C229.841 23.5536 232.12 21.1247 232.576 17.8608C233.032 14.9005 232.12 9.96674 228.93 6.09562C226.802 3.51488 222.852 0.326906 215.939 0.0232888C210.317 -0.204424 205.759 1.23776 202.492 4.34983C199.378 7.38599 197.63 11.5607 197.63 15.8873C197.554 20.4415 200.669 23.6295 202.872 25.2994C202.341 25.4512 201.885 25.603 201.353 25.8307C196.643 27.5765 192.389 30.4609 189.046 34.1802C187.375 36.0778 186.083 38.3549 185.172 40.7079C184.412 43.061 183.88 45.5658 183.728 48.0706C183.424 52.9285 183.728 57.7105 184.564 62.4924C184.564 62.5683 184.564 62.5683 184.564 62.6442C184.108 62.037 183.576 61.5057 182.969 60.9744C182.209 60.3671 181.373 59.9876 180.462 59.7599C179.55 59.5322 178.562 59.5322 177.651 59.7599C177.499 59.7599 177.347 59.8358 177.271 59.9117C177.119 59.9876 176.967 60.0635 176.815 60.1394C176.587 60.2912 176.359 60.5189 176.131 60.7466C175.827 61.1262 175.524 61.5816 175.296 62.037C174.992 62.872 174.764 63.7069 174.688 64.5418C174.536 66.1358 174.536 67.7298 174.764 69.3238C175.144 72.4359 176.131 75.548 177.727 78.2805C178.562 79.7227 179.626 80.9371 180.993 81.848C182.209 82.607 183.576 83.0625 185.02 82.9866C185.248 84.1251 185.475 85.2637 185.779 86.4023L185.855 86.7059L185.931 86.8577C185.931 86.9336 186.007 87.0095 186.007 87.0854C186.159 87.389 186.311 87.6926 186.539 87.9203C186.843 88.2999 187.223 88.6035 187.679 88.9071C188.438 89.4384 189.198 89.9697 190.034 90.4252C191.629 91.2601 193.3 92.0192 194.972 92.5505C196.111 92.93 197.251 93.2336 198.39 93.5372L180.158 118.889C179.93 119.193 180.006 119.648 180.31 119.876C181.753 121.015 183.196 122.077 184.64 123.064C184.64 123.216 184.64 123.292 184.64 123.443C184.792 124.81 185.172 126.176 185.703 127.466C186.235 128.909 187.071 130.123 188.286 131.11C188.666 131.338 189.046 131.565 189.426 131.717C189.654 131.793 189.882 131.869 190.11 131.869H190.262H190.413H190.717C191.553 131.869 192.389 131.641 193.072 131.262C194.06 130.654 194.82 129.744 195.199 128.681C196.339 129.136 197.554 129.44 198.77 129.744C198.77 132.324 198.77 134.905 198.77 137.486C198.77 138.624 198.77 139.687 198.846 140.826C195.655 141.585 192.389 142.268 189.122 142.875C188.894 142.875 188.742 143.103 188.742 143.254C188.666 143.482 188.894 143.786 189.122 143.786C192.389 144.317 195.655 144.773 198.922 145.152C198.922 145.987 198.998 146.822 198.998 147.657C198.542 147.809 198.162 147.961 197.706 148.112C197.099 148.416 196.567 148.72 196.035 149.099C195.427 149.555 194.972 150.086 194.668 150.769C194.592 150.997 194.516 151.3 194.516 151.528C194.592 151.908 194.744 152.211 194.972 152.439C195.351 152.743 195.807 152.894 196.263 152.818H198.01H201.505C203.784 152.818 206.139 152.894 208.494 152.97C209.102 152.97 209.634 152.97 210.241 152.97C210.925 152.97 211.685 152.818 212.292 152.515C213.052 152.211 213.66 151.68 214.04 150.997C214.344 150.465 214.572 149.858 214.647 149.251H216.927C217.078 149.251 217.23 149.251 217.382 149.175C219.737 148.112 222.168 147.353 224.675 146.898C227.258 146.442 229.841 146.215 232.424 146.139C235.007 146.139 237.59 146.367 240.173 146.898C242.68 147.353 245.187 148.112 247.466 149.175C247.542 149.251 247.694 149.251 247.77 149.251H247.846C248.226 149.251 248.605 149.251 248.985 149.251C250.201 149.251 251.416 149.175 252.556 149.099C252.632 149.479 252.708 149.782 252.784 150.162C252.936 150.617 253.164 150.997 253.467 151.376C253.999 152.059 254.835 152.591 255.671 152.818C256.43 152.97 257.19 153.046 257.95 152.97L260.001 152.894C262.736 152.818 265.395 152.818 268.129 152.818H270.181H270.712C270.94 152.818 271.168 152.818 271.32 152.818C271.7 152.743 272.004 152.591 272.232 152.287C272.46 152.059 272.536 151.68 272.536 151.376C272.46 150.238 272.08 149.327 271.472 148.72ZM259.697 113.5V113.424C259.697 113.424 259.697 113.424 259.697 113.5ZM257.722 111.982C258.178 112.286 258.709 112.589 259.089 112.893C259.317 113.045 259.469 113.196 259.621 113.348L259.697 113.424C259.469 114.563 259.089 115.701 258.709 116.764L258.633 116.916C258.557 117.068 258.709 117.295 258.861 117.371C259.317 117.751 259.545 118.282 259.545 118.889C259.545 119.345 259.241 119.724 258.861 119.8C258.254 119.952 257.646 119.952 257.038 119.876C256.354 119.8 255.595 119.648 254.911 119.496C253.467 119.117 252.1 118.662 250.733 118.13C249.669 117.675 248.605 117.295 247.542 116.764L251.416 109.249C253.619 110.084 255.747 110.919 257.722 111.982ZM237.134 100.748C241.768 102.873 246.478 104.695 251.264 106.289L245.643 116.081L245.187 115.853L244.047 115.246C243.516 114.942 242.984 114.715 242.376 114.715C240.933 114.715 239.793 115.853 239.869 117.295C239.869 117.902 240.097 118.586 240.553 119.041C240.705 119.193 240.781 119.269 240.933 119.345C241.009 119.421 241.085 119.421 241.085 119.421L241.237 119.496L241.844 119.8L243.743 120.787C242.756 121.47 241.692 122.229 240.629 122.912C239.413 121.774 238.198 120.711 236.906 119.648C235.615 118.586 234.323 117.523 232.956 116.536C231.588 115.549 230.297 114.487 228.854 113.576C227.486 112.589 226.119 111.678 224.675 110.767C225.739 112.058 226.954 113.272 228.094 114.487C229.006 115.474 229.993 116.46 230.981 117.371C227.41 117.902 223.84 118.206 220.269 118.282C218.826 116.081 215.863 115.549 213.736 116.992C213.204 117.371 212.748 117.827 212.368 118.358C211.001 118.358 209.634 118.282 208.266 118.206C207.051 118.13 205.911 118.054 204.696 117.978C206.291 116.612 207.81 115.17 209.178 113.652C210.089 112.589 211.001 111.602 211.913 110.464C212.748 109.401 213.584 108.263 214.42 107.124C216.015 104.923 217.61 102.646 219.054 100.293C220.345 98.2433 221.561 96.0421 222.7 93.9168H222.776C227.486 96.2698 232.272 98.5469 237.134 100.748ZM232.196 127.77C232.12 127.77 226.878 130.427 224.295 131.641C223.46 130.427 222.7 129.212 222.016 127.846C221.333 126.48 220.725 125.037 220.117 123.595C225.131 123.216 230.069 122.381 234.931 121.242C235.007 121.318 237.362 123.368 238.426 124.203C236.526 125.341 234.627 126.404 232.652 127.466C231.74 126.48 230.829 125.493 229.993 124.506C230.753 125.645 231.437 126.783 232.196 127.77ZM211.685 122.153C210.773 122.153 209.861 122.153 208.95 122.153C206.367 122.153 203.86 122.077 201.277 122.001C201.277 121.318 201.277 120.635 201.201 119.952C203.48 120.104 205.835 120.18 208.114 120.256C209.254 120.256 210.393 120.256 211.609 120.256C211.533 120.483 211.533 120.711 211.533 120.939C211.533 121.318 211.609 121.774 211.685 122.153ZM201.353 126.404C201.353 125.645 201.353 124.886 201.353 124.203C203.024 124.278 204.696 124.278 206.367 124.278V125.113V126.783C206.443 127.846 206.443 128.984 206.519 130.047C206.595 131.11 206.671 132.248 206.823 133.311C206.975 134.374 207.127 135.512 207.354 136.575C207.582 135.512 207.734 134.374 207.886 133.311C208.038 132.248 208.114 131.11 208.19 130.047C208.266 128.984 208.342 127.846 208.342 126.783L208.418 125.113V124.278C208.57 124.278 211.457 124.203 212.672 124.127C212.824 124.278 212.976 124.43 213.128 124.582C213.128 124.582 213.128 124.582 213.128 124.658C213.28 126.631 213.432 128.605 213.736 130.578C213.964 132.324 214.268 133.994 214.723 135.664C210.317 137.334 205.759 138.7 201.201 139.915C201.201 139.004 201.277 138.169 201.277 137.258C201.353 133.615 201.353 130.047 201.353 126.404ZM214.04 122.077C213.736 121.47 213.66 120.787 213.888 120.18C214.268 118.889 215.711 118.13 217.002 118.586C217.686 118.813 218.294 119.345 218.522 120.028C218.674 120.331 218.674 120.635 218.674 120.939C218.674 121.242 218.598 121.546 218.522 121.85C218.446 122.077 218.294 122.305 218.142 122.457C218.066 122.609 217.99 122.684 217.838 122.76C217.382 123.14 216.775 123.368 216.167 123.368C215.331 123.443 214.496 122.912 214.04 122.077ZM216.243 125.645L219.054 133.918C218.75 134.07 218.522 134.146 218.218 134.298C217.61 134.525 216.927 134.753 216.319 135.057C216.015 133.539 215.787 131.945 215.711 130.351C215.559 128.757 215.559 127.163 215.483 125.645C215.711 125.645 215.939 125.645 216.243 125.645ZM218.294 125.189C218.37 125.189 218.446 125.113 218.522 125.113C219.206 126.328 219.889 127.542 220.649 128.757C221.409 129.971 222.244 131.11 223.156 132.248C222.168 132.704 221.181 133.083 220.117 133.539L218.294 125.189ZM220.877 119.876C224.599 119.648 228.322 119.193 232.044 118.51C232.576 119.041 233.108 119.496 233.64 119.952C229.461 120.787 225.207 121.394 220.953 121.698C221.029 121.09 221.029 120.483 220.877 119.876ZM213.736 103.936C213.052 103.253 212.444 102.57 211.837 101.887C210.925 100.9 210.089 99.8373 209.254 98.7746C208.114 97.4084 207.051 96.0421 206.063 94.5999C209.406 94.9035 212.672 94.9794 216.015 94.7517C217.306 94.6758 218.522 94.524 219.813 94.3722C217.838 97.6361 215.787 100.824 213.736 103.936ZM213.052 21.8837C214.116 21.2006 215.331 20.821 216.623 20.7451H217.078H217.61C217.914 20.7451 218.218 20.821 218.522 20.821C219.13 20.8969 219.661 21.1247 220.193 21.4283C220.649 21.7319 221.029 22.1873 221.257 22.6427C221.333 22.7945 221.409 22.9464 221.409 23.1741C219.509 22.8704 217.61 22.7186 215.711 22.7945C214.344 22.7945 213.052 22.8705 211.685 23.0223C212.065 22.6427 212.52 22.1873 213.052 21.8837ZM195.579 90.0457C193.984 89.5902 192.389 88.9071 190.945 88.148C190.186 87.7685 189.502 87.389 188.818 86.9336C188.514 86.7059 188.21 86.4782 187.982 86.2504C187.906 86.1745 187.755 86.0227 187.755 86.0227L187.679 85.9468L187.603 85.795L187.527 85.4914C186.539 82.1516 185.4 78.8877 183.956 75.6998C184.032 77.6733 184.26 79.5709 184.564 81.4685C183.5 81.3926 182.513 80.9371 181.677 80.3299C180.613 79.4191 179.702 78.3564 179.094 77.066C177.803 74.5612 177.043 71.9046 176.815 69.0961C177.119 68.8684 177.423 68.7925 177.803 68.7166C178.107 68.7166 178.334 68.7166 178.638 68.7166C178.714 68.7166 178.79 68.7166 178.79 68.7166C178.866 68.7166 178.942 68.7166 179.018 68.7925C179.17 68.7925 179.246 68.8684 179.398 68.8684C180.006 69.0961 180.538 69.3238 181.069 69.6274C181.677 70.007 182.361 70.3865 183.12 70.766C183.044 68.8684 181.829 67.2744 180.006 66.6672C179.778 66.5913 179.474 66.5154 179.246 66.5154C179.17 66.5154 179.018 66.5154 178.942 66.5154C178.79 66.5154 178.638 66.5154 178.562 66.5154C178.031 66.5913 177.575 66.7431 177.119 67.0467C176.967 67.1226 176.891 67.1985 176.739 67.3503C176.663 66.0599 176.739 64.8455 176.967 63.5551C177.043 62.6442 177.727 61.8852 178.638 61.6575C179.626 61.5816 180.613 61.8852 181.449 62.4924C182.437 63.2515 183.88 65.7563 183.88 65.7563C183.956 65.9081 184.108 65.984 184.26 66.1358C184.336 67.0467 184.488 67.9575 184.716 68.7925C185.324 70.9178 186.159 73.0431 187.299 74.9407C187.831 75.9275 188.362 76.8383 188.97 77.7492C189.578 78.5841 190.034 79.495 190.489 80.4058C191.173 82.3034 190.869 84.4287 189.73 86.0986C189.654 86.1745 189.654 86.2505 189.654 86.3264C189.654 86.3264 189.654 86.3263 189.654 86.4023C189.654 86.5541 189.806 86.7059 190.034 86.63H190.11C191.097 86.4782 192.085 86.0227 192.844 85.4155C193.68 84.7324 194.364 83.8215 194.668 82.8348C195.124 80.8612 195.124 78.7359 194.516 76.8383C194.06 74.9407 193.452 73.119 192.996 71.3732C192.768 70.5383 192.541 69.6274 192.389 68.7925C192.237 67.9575 192.237 67.1226 192.313 66.2876C192.541 64.5418 193.072 62.872 193.832 61.3539C193.984 60.9744 194.212 60.6707 194.364 60.2912L194.592 60.3671L195.731 60.5948C196.491 60.7466 197.251 60.9743 198.01 61.1262C199.53 61.5057 201.049 61.8093 202.492 62.2647C203.936 62.7201 205.455 63.0997 206.975 63.631C208.418 64.1623 209.861 64.5419 211.381 65.0732C210.165 64.0864 208.874 63.2515 207.582 62.4924C206.215 61.6575 204.772 60.8984 203.404 60.2153C202.037 59.5322 200.517 58.849 198.998 58.2418C198.238 57.9382 197.479 57.7105 196.719 57.4069L196.339 57.255C196.491 57.1032 196.567 56.8755 196.719 56.7237C197.251 55.9647 197.782 55.2815 198.314 54.2189C198.77 53.308 199.15 52.3972 199.454 51.4104C199.986 49.8164 200.365 48.1465 200.669 46.4767C202.644 46.0212 204.696 45.7176 206.671 45.4899C208.95 45.2622 211.229 45.1863 213.508 45.1104C218.066 45.1104 222.624 45.5658 227.106 46.4007C227.334 46.4767 227.486 46.4007 227.714 46.3248C230.069 45.4899 232.5 44.7309 235.007 44.1236C237.21 43.5164 239.489 43.2128 241.844 42.9851C242.224 43.5164 242.528 44.0477 242.832 44.579C243.212 45.3381 243.592 46.0971 243.895 46.8562C244.503 48.4502 245.035 50.0441 245.339 51.714C246.023 55.0538 246.326 58.4695 246.174 61.8852C246.099 62.4924 246.554 63.0238 247.162 63.0238C247.39 63.0238 247.694 62.9479 247.846 62.7961C247.922 62.7201 247.998 62.7201 248.074 62.6442C248.15 62.5683 248.226 62.4924 248.226 62.4165C248.226 62.4165 248.226 62.4165 248.226 62.3406V62.2647C248.454 61.6575 248.757 61.1262 249.137 60.6707C249.517 60.1394 249.973 59.6081 250.505 59.1527C251.34 58.4695 252.404 58.1659 253.467 58.2418C254.455 58.3936 254.911 59.3804 255.063 60.2912C255.139 60.7466 255.215 61.278 255.291 61.7334C255.367 62.1129 255.367 62.4924 255.367 62.872C255.367 63.0997 255.367 63.2515 255.367 63.4792C255.367 63.5551 255.291 64.0105 255.367 64.0105C255.215 63.8587 255.139 63.7828 254.987 63.631C254.531 63.3274 254.075 63.1756 253.543 63.0997C253.392 63.0997 253.24 63.0997 253.164 63.0997C253.088 63.0997 252.936 63.0997 252.86 63.0997C252.556 63.0997 252.328 63.1756 252.1 63.2515C250.353 63.8587 249.061 65.4527 248.985 67.3503C249.821 66.9708 250.429 66.5154 251.036 66.2117C251.568 65.9081 252.1 65.6045 252.708 65.4527C252.86 65.4527 253.012 65.3768 253.088 65.3768C253.164 65.3768 253.24 65.3768 253.316 65.3009H253.467C253.771 65.3009 253.999 65.3009 254.303 65.3009C254.683 65.3768 255.063 65.4527 255.367 65.6804C255.063 68.413 254.303 71.1455 253.012 73.5744C252.404 74.7889 251.492 75.8516 250.353 76.7624C249.365 77.5215 248.074 77.901 246.858 77.8251C246.858 76.1552 246.706 74.4853 246.326 72.8154C245.795 74.4853 245.339 76.2311 245.035 77.9769C244.883 78.8118 244.731 79.7227 244.579 80.5576L244.351 81.7721C244.351 81.9998 244.275 82.1516 244.199 82.3793V82.4552C244.199 82.4552 244.123 82.5311 244.123 82.607C243.668 83.1384 243.136 83.6697 242.528 84.1251C241.844 84.5806 241.161 85.036 240.477 85.4914C239.033 86.3263 237.514 87.0095 235.919 87.6926C229.537 90.1216 222.852 91.6396 216.015 92.0951C208.95 92.6264 202.113 91.9433 195.579 90.0457ZM192.009 129.288C191.173 129.668 190.186 129.592 189.426 129.06C188.666 128.301 188.058 127.391 187.679 126.328C187.451 125.721 187.223 125.113 187.071 124.506C187.831 124.962 188.514 125.341 189.274 125.797C190.717 126.556 192.161 127.239 193.68 127.922C193.3 128.529 192.693 128.984 192.009 129.288ZM198.618 126.404C198.618 126.631 198.618 126.859 198.618 127.087C195.731 126.328 192.92 125.341 190.262 123.975C188.666 123.216 187.071 122.305 185.551 121.394C184.26 120.635 182.893 119.8 181.677 118.889L200.593 93.765C201.353 93.9168 202.189 94.0686 202.948 94.2204C204.544 96.1939 206.215 98.0156 207.886 99.9132C209.482 101.659 211.229 103.329 213.128 104.771C212.9 105.151 212.672 105.454 212.444 105.834C211.685 106.972 210.925 108.035 210.089 109.174C209.33 110.236 208.494 111.375 207.658 112.437C206.215 114.335 204.696 116.157 203.1 117.902C202.417 117.827 201.809 117.827 201.125 117.751C201.125 117.068 201.125 116.384 201.049 115.701C200.973 112.058 200.593 108.49 199.91 104.923C199.226 108.49 198.846 112.058 198.77 115.701C198.694 119.269 198.618 122.836 198.618 126.404ZM198.694 143.634C196.643 143.482 194.592 143.33 192.541 143.103C194.592 142.799 196.567 142.42 198.618 141.964C199.53 141.812 200.365 141.585 201.277 141.433C202.265 141.205 203.252 140.977 204.164 140.75C209.178 139.459 214.04 138.017 218.902 136.195C223.764 134.45 228.474 132.4 233.032 130.047C233.184 129.971 233.412 129.819 233.564 129.744C233.792 129.592 234.095 129.44 234.323 129.364C238.35 127.239 242.224 124.886 245.871 122.153L246.326 122.381C246.706 122.609 247.086 122.836 247.466 122.988C245.339 125.037 243.06 127.011 240.629 128.757C239.337 129.744 237.97 130.654 236.602 131.565C236.299 131.793 235.995 131.945 235.767 132.172C234.475 133.007 233.184 133.842 231.892 134.601C225.891 138.169 219.737 141.433 213.28 144.317C209.254 144.241 205.303 144.089 201.277 143.862C200.365 143.71 199.53 143.634 198.694 143.634ZM212.14 149.706C211.989 150.01 211.685 150.314 211.305 150.465C210.925 150.693 210.469 150.769 210.013 150.769C209.482 150.769 195.959 150.921 195.883 150.921C196.111 150.541 196.415 150.238 196.719 150.01C197.099 149.706 197.63 149.479 198.086 149.327C198.618 149.099 199.226 149.023 199.834 148.947H212.292C212.368 149.327 212.292 149.555 212.14 149.706ZM253.164 146.746C251.492 146.898 249.821 146.898 248.15 146.822C245.643 145.987 243.136 145.304 240.477 144.924C237.818 144.469 235.083 144.317 232.424 144.317C229.765 144.317 227.03 144.545 224.371 145C223.004 145.228 221.713 145.456 220.421 145.759C219.206 146.063 217.914 146.367 216.699 146.822H201.049C201.049 146.291 201.125 145.683 201.125 145.152C205.151 145.532 209.254 145.835 213.356 146.063C213.508 146.063 213.584 146.063 213.736 145.987C217.003 144.545 220.193 142.951 223.384 141.357C225.739 140.142 228.094 138.852 230.373 137.562L230.829 137.258C231.437 136.879 232.044 136.575 232.728 136.195C234.171 135.36 235.539 134.45 236.982 133.615C237.514 134.146 238.046 134.677 238.578 135.209C241.844 138.397 245.415 141.205 249.289 143.558C245.947 140.522 242.604 137.486 239.337 134.374C238.882 133.918 238.35 133.463 237.894 132.932C239.185 132.097 240.477 131.262 241.692 130.351C243.592 128.984 245.491 127.542 247.238 126.024L266.838 142.647C264.103 144.014 261.14 145.152 258.178 145.987C256.582 146.367 254.911 146.594 253.164 146.746ZM270.105 150.997H268.053C265.319 150.997 262.66 150.997 259.925 150.921H257.874C257.266 150.921 256.734 150.845 256.126 150.693C255.671 150.541 255.291 150.314 255.063 149.934C254.911 149.782 254.835 149.555 254.759 149.327C254.683 149.099 254.683 148.947 254.683 148.72C255.974 148.492 257.342 148.264 258.633 147.961C259.393 147.733 260.153 147.505 260.912 147.277C262.204 147.961 263.571 148.416 265.015 148.644C265.774 148.72 266.534 148.644 267.066 148.72C267.674 148.72 268.205 148.871 268.813 149.099C269.345 149.327 269.801 149.63 270.257 150.01C270.56 150.314 270.788 150.693 270.94 151.149L270.105 150.997Z" fill="#010101"/>
  <path d="M214.267 77.5217C215.103 78.1289 216.166 78.4326 217.23 78.4326C218.294 78.4326 219.281 78.053 220.117 77.4458C220.952 76.9145 221.56 76.0795 221.788 75.0928C220.345 75.7 218.749 76.0795 217.154 76.1554C215.559 76.1554 214.039 75.7759 212.672 75.0928C212.824 76.0795 213.432 76.9904 214.267 77.5217Z" fill="#010101"/>
  <path d="M211.144 82.7587C211.979 82.9105 212.815 83.1382 213.575 83.3659C214.41 83.5936 216.31 84.125 216.386 84.125C216.386 84.125 221.475 82.3033 222.311 81.9997C222.463 81.9238 222.615 81.9237 222.843 81.8478C222.995 81.8478 223.147 81.8478 223.299 81.9237C223.754 82.0756 224.21 82.2274 224.666 82.3792L227.477 83.5936C226.793 82.7587 226.11 81.9996 225.274 81.3165C224.818 80.937 224.362 80.6334 223.83 80.4057C223.527 80.2539 223.147 80.178 222.843 80.1021C222.539 80.1021 222.159 80.102 221.855 80.1779C220.792 80.4057 219.804 80.7852 218.817 81.2406C217.981 81.696 217.145 82.1515 216.461 82.7587C215.778 82.3033 215.018 81.9238 214.258 81.6201C213.347 81.2406 212.359 81.0129 211.372 80.937C210.84 80.937 210.232 81.0129 209.7 81.1647C209.244 81.3924 208.789 81.6201 208.333 81.9237C207.573 82.531 206.889 83.2141 206.434 84.0491C207.345 83.6695 208.181 83.29 208.941 82.9864C209.624 82.7587 210.384 82.6828 211.144 82.7587Z" fill="#010101"/>
  <path d="M203.706 65.5285C202.491 65.3767 201.275 65.3008 199.984 65.3008C198.768 65.3008 197.477 65.3767 196.262 65.5285C194.97 65.6803 193.755 65.9839 192.539 66.4393C193.755 66.8948 194.97 67.1984 196.262 67.3502C197.477 67.502 198.693 67.5779 199.984 67.5779C201.199 67.5779 202.491 67.502 203.706 67.3502C204.998 67.1984 206.213 66.8948 207.429 66.4393C206.213 65.9839 204.922 65.6803 203.706 65.5285Z" fill="#010101"/>
  <path d="M234.095 65.3008C232.727 65.3008 231.284 65.3767 229.917 65.5285C228.473 65.6803 227.106 65.9839 225.738 66.4393C227.106 66.8948 228.473 67.1984 229.917 67.3502C231.284 67.502 232.651 67.5779 234.095 67.5779C235.462 67.5779 236.906 67.502 238.273 67.3502C239.717 67.1984 241.084 66.8948 242.451 66.4393C241.084 65.9839 239.717 65.6803 238.273 65.5285C236.906 65.3767 235.538 65.3008 234.095 65.3008Z" fill="#010101"/>
  <path d="M229.609 56.1922C232.42 53.915 235.61 52.1692 239.105 51.0307C239.257 50.9548 239.409 50.9548 239.561 50.8789C239.561 50.8789 238.953 48.6776 235.61 49.3608C236.598 48.5258 237.13 47.3114 237.13 46.021H237.054C235.154 46.9318 233.331 48.1463 231.66 49.5126C230.065 50.8789 228.621 52.321 227.33 53.915C226.038 55.509 224.899 57.103 223.835 58.8488C222.772 60.5187 221.936 62.3404 221.328 64.238C223.911 61.3536 226.646 58.6211 229.609 56.1922Z" fill="#010101"/>
  <path d="M212.06 65.0734C212.516 64.618 212.895 64.0107 213.123 63.3276C213.351 62.6444 213.427 61.9613 213.351 61.2782C213.275 60.595 213.123 59.9119 212.895 59.3047C212.667 58.6974 212.212 58.0902 211.756 57.6348C211.984 59.001 212.212 60.1396 212.288 61.3541C212.288 62.6444 212.212 63.8589 212.06 65.0734Z" fill="#010101"/>
  <path d="M218.445 63.3274C218.901 63.7828 219.433 64.1624 220.116 64.3142C219.433 63.4033 218.901 62.3407 218.521 61.278C218.217 60.1394 217.913 59.0009 217.837 57.8623C217.534 58.3936 217.306 59.0768 217.23 59.684C217.154 60.3671 217.23 60.9744 217.458 61.6575C217.685 62.2647 217.989 62.872 218.445 63.3274Z" fill="#010101"/>
  <path d="M256.126 124.279C256.126 124.279 256.202 124.279 256.202 124.354L256.277 124.43C256.429 124.582 256.505 124.734 256.505 124.886C256.505 125.265 256.202 125.645 255.746 125.645H255.822C255.67 125.645 255.594 125.645 255.442 125.569C255.366 125.569 255.138 125.417 254.986 125.341L253.846 124.734L251.567 123.52C251.188 123.292 250.808 123.14 250.428 122.912C249.82 122.609 249.136 122.229 248.529 121.85C247.997 121.546 247.541 121.318 247.009 121.015L246.705 120.863L245.034 119.876L242.527 118.434C242.147 118.206 241.691 117.979 241.691 117.827C241.54 117.675 241.464 117.447 241.54 117.219C241.54 116.764 241.919 116.46 242.375 116.46C242.603 116.46 242.679 116.536 243.135 116.764L244.274 117.447L244.73 117.675L245.414 118.054L246.554 118.662C246.554 118.662 246.629 118.662 246.629 118.738C248.073 119.573 249.592 120.407 251.036 121.242C252.555 122.077 254.074 122.912 255.594 123.671L256.202 123.975L256.126 124.279C256.05 124.203 256.126 124.279 256.126 124.279Z" fill="#FECB3D"/>
  <path d="M260.526 102.57L262.273 103.708L258.247 110.008C257.639 109.629 257.031 109.249 256.348 108.946L260.526 102.57Z" fill="#FECB3D"/>
</svg>
