<svg width="32" height="32" viewBox="0 0 32 32" fill="none" xmlns="http://www.w3.org/2000/svg">
  <path
    d="M8.29943 9.03942V9.3998L8.64132 9.51376C9.55212 9.81736 10.1739 10.5283 10.4914 11.3752C11.1151 13.0383 10.2845 14.772 8.65029 15.2827L8.29943 15.3924V15.76V26.8008C8.29943 27.0472 8.21948 27.2137 8.11585 27.3173C8.01222 27.421 7.84574 27.5009 7.59934 27.5009C7.35293 27.5009 7.18645 27.421 7.08282 27.3173C6.97919 27.2137 6.89924 27.0472 6.89924 26.8008V15.76V15.4135L6.5748 15.2918C5.72799 14.9742 5.01701 14.3525 4.71341 13.4417L4.71048 13.4329L4.70723 13.4242C4.08354 11.761 4.91422 10.0273 6.54838 9.51666L6.89924 9.40702V9.03942V5.19912C6.89924 4.95271 6.97919 4.78623 7.08282 4.6826C7.18645 4.57898 7.35293 4.49902 7.59934 4.49902C7.84574 4.49902 8.01222 4.57898 8.11585 4.6826C8.21948 4.78623 8.29943 4.95271 8.29943 5.19912V9.03942ZM27.2866 13.7579L27.2895 13.7667L27.2928 13.7753C27.9165 15.4385 27.0858 17.1722 25.4516 17.6829L25.1008 17.7925V18.1601V26.8008C25.1008 27.0472 25.0208 27.2137 24.9172 27.3173C24.8136 27.421 24.6471 27.5009 24.4007 27.5009C24.1543 27.5009 23.9878 27.421 23.8842 27.3173C23.7805 27.2137 23.7006 27.0472 23.7006 26.8008V18.1601V17.8136L23.3761 17.692C22.5293 17.3744 21.8183 16.7527 21.5147 15.8419L21.5118 15.8331L21.5086 15.8244C20.8849 14.1612 21.7156 12.4275 23.3497 11.9169L23.7006 11.8072V11.4396V5.19912C23.7006 4.95271 23.7805 4.78623 23.8841 4.6826C23.9878 4.57898 24.1543 4.49902 24.4007 4.49902C24.6471 4.49902 24.8136 4.57898 24.9172 4.6826C25.0208 4.78623 25.1008 4.95271 25.1008 5.19912V11.4396V11.7861L25.4252 11.9078C26.272 12.2253 26.983 12.8471 27.2866 13.7579ZM16.7001 18.6402V19.0006L17.042 19.1145C17.9528 19.4181 18.5745 20.1291 18.8921 20.9759C19.5158 22.6391 18.6851 24.3728 17.051 24.8835L16.7001 24.9931V25.3607V26.8008C16.7001 27.0472 16.6201 27.2137 16.5165 27.3173C16.4129 27.421 16.2464 27.5009 16 27.5009C15.7536 27.5009 15.5871 27.421 15.4835 27.3173C15.3799 27.2137 15.2999 27.0472 15.2999 26.8008V25.3607V25.0142L14.9755 24.8925C14.1287 24.575 13.4177 23.9532 13.1141 23.0424L13.1111 23.0336L13.1079 23.025C12.4842 21.3618 13.3149 19.6281 14.949 19.1174L15.2999 19.0078V18.6402V5.19912C15.2999 4.95271 15.3799 4.78623 15.4835 4.6826C15.5871 4.57898 15.7536 4.49902 16 4.49902C16.2464 4.49902 16.4129 4.57898 16.5165 4.6826C16.6201 4.78623 16.7001 4.95271 16.7001 5.19912V18.6402Z"
    fill="#0B0C0E" stroke="#0B0C0E" />
</svg>