<svg xmlns="http://www.w3.org/2000/svg" xmlns:xlink="http://www.w3.org/1999/xlink" viewBox="0 0 128 128" width="424"
  height="424" preserveAspectRatio="xMidYMid meet"
  style="width: 100%; height: 100%; transform: translate3d(0px, 0px, 0px); content-visibility: visible; background-color: transparent;">
  <defs>
    <clipPath id="__lottie_element_33">
      <rect width="128" height="128" x="0" y="0" />
    </clipPath>
  </defs>
  <g clip-path="url(#__lottie_element_33)">
    <g transform="matrix(0.7400000095367432,0,0,0.7400000095367432,23.299999237060547,38.84000015258789)" opacity="1"
      style="display: block;">
      <g opacity="1" transform="matrix(1,0,0,1,27,34)">
        <path stroke-linecap="round" stroke-linejoin="miter" fill-opacity="0" stroke-miterlimit="4"
          stroke="rgb(255,138,0)" stroke-opacity="1" stroke-width="5"
          d=" M10,-27 C10,-27 14,-27 14,-27 C16.827999114990234,-27 18.243000030517578,-27 19.121000289916992,-26.121000289916992 C20,-25.243000030517578 20,-23.827999114990234 20,-21 C20,-21 20,-13.5 20,-13.5 M-10,-27 C-10,-27 -14,-27 -14,-27 C-16.827999114990234,-27 -18.243000030517578,-27 -19.121000289916992,-26.121000289916992 C-20,-25.243000030517578 -20,-23.827999114990234 -20,-21 C-20,-21 -20,-13.5 -20,-13.5 M-20,13.5 C-20,13.5 -20,21 -20,21 C-20,23.827999114990234 -20,25.243000030517578 -19.121000289916992,26.121000289916992 C-18.243000030517578,27 -16.827999114990234,27 -14,27 C-14,27 -10,27 -10,27 M10,27 C10,27 14,27 14,27 C16.827999114990234,27 18.243000030517578,27 19.121000289916992,26.121000289916992 C20,25.243000030517578 20,23.827999114990234 20,21 C20,21 20,13.5 20,13.5" />
      </g>
    </g>
    <g transform="matrix(0.7400000095367432,0,0,0.7400000095367432,64.73999786376953,38.84000015258789)" opacity="1"
      style="display: block;">
      <g opacity="1" transform="matrix(1,0,0,1,27,34)">
        <path stroke-linecap="round" stroke-linejoin="miter" fill-opacity="0" stroke-miterlimit="4"
          stroke="rgb(255,138,0)" stroke-opacity="1" stroke-width="5"
          d=" M-20,-13.5 C-20,-13.5 -20,-21 -20,-21 C-20,-23.827999114990234 -20,-25.243000030517578 -19.121000289916992,-26.121000289916992 C-18.243000030517578,-27 -16.827999114990234,-27 -14,-27 C-14,-27 14,-27 14,-27 C16.827999114990234,-27 18.243000030517578,-27 19.121000289916992,-26.121000289916992 C20,-25.243000030517578 20,-23.827999114990234 20,-21 C20,-21 20,21 20,21 C20,23.827999114990234 20,25.243000030517578 19.121000289916992,26.121000289916992 C18.243000030517578,27 16.827999114990234,27 14,27 C14,27 -14,27 -14,27 C-16.827999114990234,27 -18.243000030517578,27 -19.121000289916992,26.121000289916992 C-20,25.243000030517578 -20,23.827999114990234 -20,21 C-20,21 -20,13.5 -20,13.5" />
      </g>
    </g>
    <g transform="matrix(0.7400000095367432,0,0,0.7400000095367432,40.689998626708984,52.900001525878906)" opacity="1"
      style="display: block;">
      <g opacity="1" transform="matrix(1,0,0,1,58.5,15)">
        <path stroke-linecap="round" stroke-linejoin="round" fill-opacity="0" stroke="rgb(249,57,32)" stroke-opacity="1"
          stroke-width="6" d=" M-4,8 C-4,8 4,0 4,0 C4,0 -4,-8 -4,-8" />
      </g>
      <g opacity="1" transform="matrix(1,0,0,1,0,0)">
        <path stroke-linecap="round" stroke-linejoin="miter" fill-opacity="0" stroke-miterlimit="4"
          stroke="rgb(249,57,32)" stroke-opacity="1" stroke-width="6" d=" M3.5,15 C3.5,15 62.5,15 62.5,15" />
      </g>
    </g>
  </g>
</svg>