<svg xmlns="http://www.w3.org/2000/svg" xmlns:xlink="http://www.w3.org/1999/xlink" viewBox="0 0 500 500" width="424"
  height="424" preserveAspectRatio="xMidYMid meet"
  style="width: 100%; height: 100%; transform: translate3d(0px, 0px, 0px); content-visibility: visible; background-color: transparent;">
  <defs>
    <clipPath id="__lottie_element_63">
      <rect width="500" height="500" x="0" y="0" />
    </clipPath>
    <g id="__lottie_element_65">
      <g transform="matrix(1.0061625242233276,0,0,0.9938374161720276,250.00027465820312,250)" opacity="1"
        style="display: block;">
        <g opacity="1" transform="matrix(1,0,0,1,0,0)">
          <path stroke-linecap="butt" stroke-linejoin="miter" fill-opacity="0" stroke-miterlimit="4"
            stroke="rgb(255,255,255)" stroke-opacity="1" stroke-width="40"
            d=" M-75,-17 C-75,-17 -19,39.5 -19,39.5 C-19,39.5 76.5,-53.5 76.5,-53.5" />
        </g>
      </g>
    </g>
    <g id="__lottie_element_74">
      <g style="display: none;">
        <g>
          <path stroke-linecap="butt" stroke-linejoin="miter" fill-opacity="0" stroke-miterlimit="4" />
        </g>
      </g>
    </g>
    <mask id="__lottie_element_74_1" mask-type="alpha">
      <use xmlns:ns1="http://www.w3.org/1999/xlink" ns1:href="#__lottie_element_74" />
    </mask>
    <mask id="__lottie_element_65_1" mask-type="alpha">
      <use xmlns:ns2="http://www.w3.org/1999/xlink" ns2:href="#__lottie_element_65" />
    </mask>
  </defs>
  <g clip-path="url(#__lottie_element_63)">
    <g transform="matrix(5,0,0,5,261.4599914550781,239.63499450683594)" opacity="1" style="display: block;">
      <g opacity="1" transform="matrix(1,0,0,1,0,0)">
        <g opacity="1" transform="matrix(1,0,0,1,0,0)">
          <g opacity="1" transform="matrix(1,0,0,1,0,0)">
            <g opacity="1" transform="matrix(1,0,0,1,0,0)">
              <path stroke-linecap="round" stroke-linejoin="round" fill-opacity="0" stroke="rgb(249,57,32)"
                stroke-opacity="1" stroke-width="0.5"
                d=" M-12.093000411987305,-14.88700008392334 C-13.126999855041504,-16.679000854492188 -18.301000595092773,-25.639999389648438 -18.301000595092773,-25.639999389648438" />
            </g>
          </g>
          <g opacity="1" transform="matrix(1,0,0,1,0,0)">
            <g opacity="1" transform="matrix(1,0,0,1,0,0)">
              <path stroke-linecap="round" stroke-linejoin="round" fill-opacity="0" stroke="rgb(249,57,32)"
                stroke-opacity="1" stroke-width="0.5"
                d=" M-21.884000778198242,2.072999954223633 C-23.952999114990234,2.072999954223633 -34.30099868774414,2.072999954223633 -34.30099868774414,2.072999954223633" />
            </g>
          </g>
          <g opacity="1" transform="matrix(1,0,0,1,0,0)">
            <g opacity="1" transform="matrix(1,0,0,1,0,0)">
              <path stroke-linecap="round" stroke-linejoin="round" fill-opacity="0" stroke="rgb(249,57,32)"
                stroke-opacity="1" stroke-width="0.5"
                d=" M-12.093000411987305,19.033000946044922 C-13.126999855041504,20.825000762939453 -18.301000595092773,29.785999298095703 -18.301000595092773,29.785999298095703" />
            </g>
          </g>
          <g opacity="1" transform="matrix(1,0,0,1,0,0)">
            <g opacity="1" transform="matrix(1,0,0,1,0,0)">
              <path stroke-linecap="round" stroke-linejoin="round" fill-opacity="0" stroke="rgb(249,57,32)"
                stroke-opacity="1" stroke-width="0.5"
                d=" M7.491000175476074,19.033000946044922 C8.524999618530273,20.825000762939453 13.699000358581543,29.785999298095703 13.699000358581543,29.785999298095703" />
            </g>
          </g>
          <g opacity="1" transform="matrix(1,0,0,1,0,0)">
            <g opacity="1" transform="matrix(1,0,0,1,0,0)">
              <path stroke-linecap="round" stroke-linejoin="round" fill-opacity="0" stroke="rgb(249,57,32)"
                stroke-opacity="1" stroke-width="0.5"
                d=" M17.281999588012695,2.072999954223633 C19.35099983215332,2.072999954223633 29.698999404907227,2.072999954223633 29.698999404907227,2.072999954223633" />
            </g>
          </g>
          <g opacity="1" transform="matrix(1,0,0,1,0,0)">
            <g opacity="1" transform="matrix(1,0,0,1,0,0)">
              <path stroke-linecap="round" stroke-linejoin="round" fill-opacity="0" stroke="rgb(249,57,32)"
                stroke-opacity="1" stroke-width="0.5"
                d=" M7.491000175476074,-14.88700008392334 C8.524999618530273,-16.679000854492188 13.699000358581543,-25.639999389648438 13.699000358581543,-25.639999389648438" />
            </g>
          </g>
        </g>
        <g opacity="1" transform="matrix(1,0,0,1,0,0)">
          <g opacity="1" transform="matrix(1,0,0,1,0,0)">
            <g opacity="1" transform="matrix(1,0,0,1,0,0)">
              <g opacity="1" transform="matrix(1,0,0,1,0,0)">
                <path stroke-linecap="round" stroke-linejoin="round" fill-opacity="0" stroke="rgb(249,57,32)"
                  stroke-opacity="1" stroke-width="0.5"
                  d=" M-2.302000045776367,-21.732999801635742 C-2.302000045776367,-22.617000579833984 -2.302000045776367,-27.040000915527344 -2.302000045776367,-27.040000915527344" />
              </g>
            </g>
            <g opacity="1" transform="matrix(1,0,0,1,0,0)">
              <g opacity="1" transform="matrix(1,0,0,1,0,0)">
                <path stroke-linecap="round" stroke-linejoin="round" fill-opacity="0" stroke="rgb(249,57,32)"
                  stroke-opacity="1" stroke-width="0.5"
                  d=" M-22.90399932861328,-9.826000213623047 C-23.67099952697754,-10.269000053405762 -27.50200080871582,-12.479999542236328 -27.50200080871582,-12.479999542236328" />
              </g>
            </g>
            <g opacity="1" transform="matrix(1,0,0,1,0,0)">
              <g opacity="1" transform="matrix(1,0,0,1,0,0)">
                <path stroke-linecap="round" stroke-linejoin="round" fill-opacity="0" stroke="rgb(249,57,32)"
                  stroke-opacity="1" stroke-width="0.5"
                  d=" M-22.90399932861328,13.97599983215332 C-23.67099952697754,14.416999816894531 -27.50200080871582,16.6200008392334 -27.50200080871582,16.6200008392334" />
              </g>
            </g>
            <g opacity="1" transform="matrix(1,0,0,1,0,0)">
              <g opacity="1" transform="matrix(1,0,0,1,0,0)">
                <path stroke-linecap="round" stroke-linejoin="round" fill-opacity="0" stroke="rgb(249,57,32)"
                  stroke-opacity="1" stroke-width="0.5"
                  d=" M-2.302000045776367,25.87299919128418 C-2.302000045776367,26.759000778198242 -2.302000045776367,31.190000534057617 -2.302000045776367,31.190000534057617" />
              </g>
            </g>
            <g opacity="1" transform="matrix(1,0,0,1,0,0)">
              <g opacity="1" transform="matrix(1,0,0,1,0,0)">
                <path stroke-linecap="round" stroke-linejoin="round" fill-opacity="0" stroke="rgb(249,57,32)"
                  stroke-opacity="1" stroke-width="0.5"
                  d=" M18.309999465942383,13.97599983215332 C19.07699966430664,14.418999671936035 22.908000946044922,16.6299991607666 22.908000946044922,16.6299991607666" />
              </g>
            </g>
            <g opacity="1" transform="matrix(1,0,0,1,0,0)">
              <g opacity="1" transform="matrix(1,0,0,1,0,0)">
                <path stroke-linecap="round" stroke-linejoin="round" fill-opacity="0" stroke="rgb(249,57,32)"
                  stroke-opacity="1" stroke-width="0.5"
                  d=" M18.31100082397461,-9.836000442504883 C19.077999114990234,-10.279000282287598 22.917999267578125,-12.489999771118164 22.917999267578125,-12.489999771118164 C22.917999267578125,-12.489999771118164 22.917999267578125,-12.489999771118164 22.917999267578125,-12.489999771118164" />
              </g>
            </g>
          </g>
        </g>
      </g>
    </g>
    <g mask="url(#__lottie_element_74_1)" style="display: block;">
      <g transform="matrix(5.030812740325928,0,0,4.969187259674072,261.5308837890625,239.69886779785156)" opacity="1">
        <g opacity="1" transform="matrix(1,0,0,1,0,0)">
          <g opacity="1" transform="matrix(1,0,0,1,0,0)">
            <path fill="rgb(255,138,0)" fill-opacity="1"
              d=" M12.762999534606934,-8.520000457763672 C11.515000343322754,-9.767999649047852 9.494000434875488,-9.767999649047852 8.246000289916992,-8.520000457763672 C8.246000289916992,-8.520000457763672 -6.163000106811523,5.888999938964844 -6.163000106811523,5.888999938964844 C-6.163000106811523,5.888999938964844 -6.163000106811523,5.888999938964844 -6.163000106811523,5.888999938964844 C-6.163000106811523,5.888999938964844 -12.847000122070312,-0.7950000166893005 -12.847000122070312,-0.7950000166893005 C-14.095000267028809,-2.0420000553131104 -16.117000579833984,-2.0420000553131104 -17.364999771118164,-0.7950000166893005 C-18.613000869750977,0.453000009059906 -18.613000869750977,2.4749999046325684 -17.364999771118164,3.7230000495910645 C-17.364999771118164,3.7230000495910645 -8.42199993133545,12.666000366210938 -8.42199993133545,12.666000366210938 C-7.173999786376953,13.913000106811523 -5.1529998779296875,13.913000106811523 -3.9049999713897705,12.666000366210938 C-3.9049999713897705,12.666000366210938 12.762999534606934,-4.001999855041504 12.762999534606934,-4.001999855041504 C14.01099967956543,-5.25 14.01099967956543,-7.2729997634887695 12.762999534606934,-8.520000457763672z" />
            <path stroke-linecap="round" stroke-linejoin="round" fill-opacity="0" stroke="rgb(249,57,32)"
              stroke-opacity="1" stroke-width="0.5"
              d=" M12.762999534606934,-8.520000457763672 C11.515000343322754,-9.767999649047852 9.494000434875488,-9.767999649047852 8.246000289916992,-8.520000457763672 C8.246000289916992,-8.520000457763672 -6.163000106811523,5.888999938964844 -6.163000106811523,5.888999938964844 C-6.163000106811523,5.888999938964844 -6.163000106811523,5.888999938964844 -6.163000106811523,5.888999938964844 C-6.163000106811523,5.888999938964844 -12.847000122070312,-0.7950000166893005 -12.847000122070312,-0.7950000166893005 C-14.095000267028809,-2.0420000553131104 -16.117000579833984,-2.0420000553131104 -17.364999771118164,-0.7950000166893005 C-18.613000869750977,0.453000009059906 -18.613000869750977,2.4749999046325684 -17.364999771118164,3.7230000495910645 C-17.364999771118164,3.7230000495910645 -8.42199993133545,12.666000366210938 -8.42199993133545,12.666000366210938 C-7.173999786376953,13.913000106811523 -5.1529998779296875,13.913000106811523 -3.9049999713897705,12.666000366210938 C-3.9049999713897705,12.666000366210938 12.762999534606934,-4.001999855041504 12.762999534606934,-4.001999855041504 C14.01099967956543,-5.25 14.01099967956543,-7.2729997634887695 12.762999534606934,-8.520000457763672z" />
          </g>
        </g>
      </g>
    </g>
    <g mask="url(#__lottie_element_65_1)" style="display: block;">
      <g transform="matrix(5.030812740325928,0,0,4.969187259674072,261.5308837890625,239.69886779785156)" opacity="1">
        <g opacity="1" transform="matrix(1,0,0,1,0,0)">
          <g opacity="1" transform="matrix(1,0,0,1,0,0)">
            <path fill="rgb(255,138,0)" fill-opacity="1"
              d=" M12.762999534606934,-8.520000457763672 C11.515000343322754,-9.767999649047852 9.494000434875488,-9.767999649047852 8.246000289916992,-8.520000457763672 C8.246000289916992,-8.520000457763672 -6.163000106811523,5.888999938964844 -6.163000106811523,5.888999938964844 C-6.163000106811523,5.888999938964844 -6.163000106811523,5.888999938964844 -6.163000106811523,5.888999938964844 C-6.163000106811523,5.888999938964844 -12.847000122070312,-0.7950000166893005 -12.847000122070312,-0.7950000166893005 C-14.095000267028809,-2.0420000553131104 -16.117000579833984,-2.0420000553131104 -17.364999771118164,-0.7950000166893005 C-18.613000869750977,0.453000009059906 -18.613000869750977,2.4749999046325684 -17.364999771118164,3.7230000495910645 C-17.364999771118164,3.7230000495910645 -8.42199993133545,12.666000366210938 -8.42199993133545,12.666000366210938 C-7.173999786376953,13.913000106811523 -5.1529998779296875,13.913000106811523 -3.9049999713897705,12.666000366210938 C-3.9049999713897705,12.666000366210938 12.762999534606934,-4.001999855041504 12.762999534606934,-4.001999855041504 C14.01099967956543,-5.25 14.01099967956543,-7.2729997634887695 12.762999534606934,-8.520000457763672z" />
            <path stroke-linecap="round" stroke-linejoin="round" fill-opacity="0" stroke="rgb(249,57,32)"
              stroke-opacity="1" stroke-width="0.5"
              d=" M12.762999534606934,-8.520000457763672 C11.515000343322754,-9.767999649047852 9.494000434875488,-9.767999649047852 8.246000289916992,-8.520000457763672 C8.246000289916992,-8.520000457763672 -6.163000106811523,5.888999938964844 -6.163000106811523,5.888999938964844 C-6.163000106811523,5.888999938964844 -6.163000106811523,5.888999938964844 -6.163000106811523,5.888999938964844 C-6.163000106811523,5.888999938964844 -12.847000122070312,-0.7950000166893005 -12.847000122070312,-0.7950000166893005 C-14.095000267028809,-2.0420000553131104 -16.117000579833984,-2.0420000553131104 -17.364999771118164,-0.7950000166893005 C-18.613000869750977,0.453000009059906 -18.613000869750977,2.4749999046325684 -17.364999771118164,3.7230000495910645 C-17.364999771118164,3.7230000495910645 -8.42199993133545,12.666000366210938 -8.42199993133545,12.666000366210938 C-7.173999786376953,13.913000106811523 -5.1529998779296875,13.913000106811523 -3.9049999713897705,12.666000366210938 C-3.9049999713897705,12.666000366210938 12.762999534606934,-4.001999855041504 12.762999534606934,-4.001999855041504 C14.01099967956543,-5.25 14.01099967956543,-7.2729997634887695 12.762999534606934,-8.520000457763672z" />
          </g>
        </g>
      </g>
    </g>
  </g>
</svg>