<svg xmlns="http://www.w3.org/2000/svg" xmlns:xlink="http://www.w3.org/1999/xlink" viewBox="0 0 1000 1000" width="424"
  height="424" preserveAspectRatio="xMidYMid meet"
  style="width: 100%; height: 100%; transform: translate3d(0px, 0px, 0px); content-visibility: visible; background-color: transparent;">
  <defs>
    <clipPath id="__lottie_element_10">
      <rect width="1000" height="1000" x="0" y="0" />
    </clipPath>
  </defs>
  <g clip-path="url(#__lottie_element_10)">
    <g transform="matrix(0.8999999761581421,0,0,0.8999999761581421,500,500)" opacity="1" style="display: block;">
      <g opacity="1" transform="matrix(1,0,0,1,0,0)">
        <path stroke-linecap="butt" stroke-linejoin="miter" fill-opacity="0" stroke-miterlimit="10"
          stroke="rgb(255,138,0)" stroke-opacity="1" stroke-width="40"
          d=" M-47.26499938964844,-200.93099975585938 C-47.26499938964844,-200.93099975585938 132.18299865722656,-200.93099975585938 132.18299865722656,-200.93099975585938 C141.3040008544922,-200.93099975585938 146.7760009765625,-190.802001953125 141.7779998779297,-183.17300415039062 C141.7779998779297,-183.17300415039062 20.14699935913086,-50.415000915527344 20.14699935913086,-50.415000915527344 C15.256999969482422,-42.95199966430664 20.385000228881836,-33.007999420166016 29.301000595092773,-32.665000915527344 C29.301000595092773,-32.665000915527344 170.90499877929688,-39.43600082397461 170.90499877929688,-39.43600082397461 C173.14199829101562,-39.349998474121094 174.2689971923828,-36.70000076293945 172.77999877929688,-35.02899932861328 C172.77999877929688,-35.02899932861328 -105.78800201416016,294.2690124511719 -105.78800201416016,294.2690124511719 C-107.6510009765625,296.3609924316406 -111.08999633789062,294.70599365234375 -110.61900329589844,291.94500732421875 C-110.61900329589844,291.94500732421875 -45.237998962402344,55.0369987487793 -45.237998962402344,55.0369987487793 C-44.04199981689453,48.03099822998047 -49.43899917602539,41.6349983215332 -56.54600143432617,41.6349983215332 C-56.54600143432617,41.6349983215332 -158.0290069580078,53.18600082397461 -158.0290069580078,53.18600082397461 C-160.90699768066406,53.18600082397461 -162.80099487304688,50.183998107910156 -161.56100463867188,47.58700180053711 C-161.56100463867188,47.58700180053711 -57.617000579833984,-194.4010009765625 -57.617000579833984,-194.4010009765625 C-55.7130012512207,-198.39100646972656 -51.68600082397461,-200.93099975585938 -47.26499938964844,-200.93099975585938z" />
      </g>
    </g>
    <g style="display: none;">
      <g>
        <g>
          <path stroke-linecap="round" stroke-linejoin="miter" fill-opacity="0" stroke-miterlimit="10" />
        </g>
        <g>
          <path stroke-linecap="round" stroke-linejoin="miter" fill-opacity="0" stroke-miterlimit="10" />
        </g>
      </g>
    </g>
    <g transform="matrix(0.800000011920929,0,0,0.800000011920929,549.3735961914062,535.4137573242188)" opacity="1"
      style="display: block;">
      <g opacity="1" transform="matrix(1,0,0,1,0,0)">
        <path fill="rgb(249,57,32)" fill-opacity="1"
          d=" M277.8680114746094,177.06900024414062 C277.8680114746094,194.19000244140625 263.989013671875,208.06900024414062 246.8679962158203,208.06900024414062 C229.7469940185547,208.06900024414062 215.8679962158203,194.19000244140625 215.8679962158203,177.06900024414062 C215.8679962158203,159.947998046875 229.7469940185547,146.06900024414062 246.8679962158203,146.06900024414062 C263.989013671875,146.06900024414062 277.8680114746094,159.947998046875 277.8680114746094,177.06900024414062z" />
      </g>
    </g>
    <g transform="matrix(0.800000011920929,0,0,0.800000011920929,458.77362060546875,446.81378173828125)" opacity="1"
      style="display: block;">
      <g opacity="1" transform="matrix(1,0,0,1,0,0)">
        <path fill="rgb(249,57,32)" fill-opacity="1"
          d=" M-175.1320037841797,-265.9309997558594 C-175.1320037841797,-248.80999755859375 -189.01100158691406,-234.93099975585938 -206.1320037841797,-234.93099975585938 C-223.2530059814453,-234.93099975585938 -237.1320037841797,-248.80999755859375 -237.1320037841797,-265.9309997558594 C-237.1320037841797,-283.052001953125 -223.2530059814453,-296.9309997558594 -206.1320037841797,-296.9309997558594 C-189.01100158691406,-296.9309997558594 -175.1320037841797,-283.052001953125 -175.1320037841797,-265.9309997558594z" />
      </g>
    </g>
  </g>
</svg>