<svg xmlns="http://www.w3.org/2000/svg" xmlns:xlink="http://www.w3.org/1999/xlink" viewBox="0 0 1920 1080" width="424"
  height="238" preserveAspectRatio="xMidYMid meet"
  style="width: 100%; height: 100%; transform: translate3d(0px, 0px, 0px); content-visibility: visible; background-color: transparent;">
  <defs>
    <clipPath id="__lottie_element_2">
      <rect width="1920" height="1080" x="0" y="0" />
    </clipPath>
  </defs>
  <g clip-path="url(#__lottie_element_2)">
    <g transform="matrix(2.640000104904175,0,0,2.640000104904175,163.8477783203125,151.96133422851562)" opacity="1"
      style="display: block;">
      <g opacity="1" transform="matrix(1,0,0,1,26.312000274658203,283.1180114746094)">
        <path fill="rgb(255,138,0)" fill-opacity="1"
          d=" M-26.062000274658203,19.492000579833984 C-26.062000274658203,19.492000579833984 -26.062000274658203,18.02199935913086 -26.062000274658203,18.02199935913086 C-26.062000274658203,5.610000133514404 -25.275999069213867,-7.065999984741211 -23.72599983215332,-19.492000579833984 C-23.72599983215332,-19.492000579833984 26.062000274658203,-13.279000282287598 26.062000274658203,-13.279000282287598 C24.768999099731445,-2.9049999713897705 24.11199951171875,7.678999900817871 24.11199951171875,18.183000564575195 C24.11199951171875,18.183000564575195 24.11199951171875,19.16900062561035 24.11199951171875,19.16900062561035 C24.11199951171875,19.16900062561035 -26.062000274658203,19.492000579833984 -26.062000274658203,19.492000579833984z" />
      </g>
      <g opacity="1" transform="matrix(1,0,0,1,576.2529907226562,281.8819885253906)">
        <path fill="rgb(255,138,0)" fill-opacity="1"
          d=" M-24.08099937438965,18.884000778198242 C-24.10099983215332,8.388999938964844 -24.775999069213867,-2.188999891281128 -26.094999313354492,-12.552000045776367 C-26.094999313354492,-12.552000045776367 23.679000854492188,-18.884000778198242 23.679000854492188,-18.884000778198242 C25.261999130249023,-6.456999778747559 26.073999404907227,6.223999977111816 26.094999313354492,18.797000885009766 C26.094999313354492,18.797000885009766 -24.08099937438965,18.884000778198242 -24.08099937438965,18.884000778198242z" />
      </g>
      <g opacity="1" transform="matrix(1,0,0,1,38.78799819946289,214.70700073242188)">
        <path fill="rgb(255,138,0)" fill-opacity="1"
          d=" M19.447999954223633,24.21299934387207 C19.447999954223633,24.21299934387207 -29.163999557495117,11.777000427246094 -29.163999557495117,11.777000427246094 C-26.04800033569336,-0.39899998903274536 -22.121000289916992,-12.506999969482422 -17.488000869750977,-24.21299934387207 C-17.488000869750977,-24.21299934387207 29.163999557495117,-5.739999771118164 29.163999557495117,-5.739999771118164 C25.308000564575195,3.996000051498413 22.040000915527344,14.074999809265137 19.447999954223633,24.21299934387207z" />
      </g>
      <g opacity="1" transform="matrix(1,0,0,1,563.64599609375,214.18099975585938)">
        <path fill="rgb(255,138,0)" fill-opacity="1"
          d=" M-19.400999069213867,24.23900032043457 C-22.023000717163086,14.10099983215332 -25.309999465942383,4.0370001792907715 -29.176000595092773,-5.670000076293945 C-29.176000595092773,-5.670000076293945 17.430999755859375,-24.23900032043457 17.430999755859375,-24.23900032043457 C22.08099937438965,-12.572999954223633 26.0310001373291,-0.48500001430511475 29.177000045776367,11.696000099182129 C29.177000045776367,11.696000099182129 -19.400999069213867,24.23900032043457 -19.400999069213867,24.23900032043457z" />
      </g>
      <g opacity="1" transform="matrix(1,0,0,1,67.84300231933594,152.43899536132812)">
        <path fill="rgb(255,138,0)" fill-opacity="1"
          d=" M13.527999877929688,28.049999237060547 C13.527999877929688,28.049999237060547 -30.423999786376953,3.8450000286102295 -30.423999786376953,3.8450000286102295 C-24.37299919128418,-7.140999794006348 -17.55500030517578,-17.871999740600586 -10.156000137329102,-28.049999237060547 C-10.156000137329102,-28.049999237060547 30.423999786376953,1.4579999446868896 30.423999786376953,1.4579999446868896 C24.256000518798828,9.944999694824219 18.56999969482422,18.892000198364258 13.527999877929688,28.049999237060547z" />
      </g>
      <g opacity="1" transform="matrix(1,0,0,1,534.4910278320312,152.02499389648438)">
        <path fill="rgb(255,138,0)" fill-opacity="1"
          d=" M-13.482000350952148,28.062000274658203 C-18.55299949645996,18.89900016784668 -24.253000259399414,9.965999603271484 -30.42099952697754,1.5140000581741333 C-30.42099952697754,1.5140000581741333 10.111000061035156,-28.062000274658203 10.111000061035156,-28.062000274658203 C17.5049991607666,-17.929000854492188 24.34000015258789,-7.2170000076293945 30.42099952697754,3.7679998874664307 C30.42099952697754,3.7679998874664307 -13.482000350952148,28.062000274658203 -13.482000350952148,28.062000274658203z" />
      </g>
      <g opacity="1" transform="matrix(1,0,0,1,111.54399871826172,99.52200317382812)">
        <path fill="rgb(255,138,0)" fill-opacity="1"
          d=" M6.815999984741211,30.104999542236328 C6.815999984741211,30.104999542236328 -29.767000198364258,-4.232999801635742 -29.767000198364258,-4.232999801635742 C-21.177000045776367,-13.38599967956543 -11.918999671936035,-22.08799934387207 -2.24399995803833,-30.104999542236328 C-2.24399995803833,-30.104999542236328 29.767000198364258,8.53600025177002 29.767000198364258,8.53600025177002 C21.698999404907227,15.218999862670898 13.97700023651123,22.47599983215332 6.815999984741211,30.104999542236328z" />
      </g>
      <g opacity="1" transform="matrix(1,0,0,1,490.7099914550781,99.2040023803711)">
        <path fill="rgb(255,138,0)" fill-opacity="1"
          d=" M-6.75,30.11400032043457 C-13.95199966430664,22.479999542236328 -21.694000244140625,15.227999687194824 -29.7549991607666,8.564000129699707 C-29.7549991607666,8.564000129699707 2.2019999027252197,-30.11400032043457 2.2019999027252197,-30.11400032043457 C11.864999771118164,-22.132999420166016 21.13599967956543,-13.451000213623047 29.7549991607666,-4.302999973297119 C29.7549991607666,-4.302999973297119 -6.75,30.11400032043457 -6.75,30.11400032043457z" />
      </g>
      <g opacity="1" transform="matrix(1,0,0,1,167.0749969482422,59.222999572753906)">
        <path fill="rgb(255,138,0)" fill-opacity="1"
          d=" M-0.3109999895095825,30.284000396728516 C-0.3109999895095825,30.284000396728516 -27.250999450683594,-12.04699993133545 -27.250999450683594,-12.04699993133545 C-16.655000686645508,-18.784000396728516 -5.5320000648498535,-24.923999786376953 5.809000015258789,-30.284000396728516 C5.809000015258789,-30.284000396728516 27.250999450683594,15.079000473022461 27.250999450683594,15.079000473022461 C17.79400062561035,19.54800033569336 8.520999908447266,24.663999557495117 -0.3109999895095825,30.284000396728516z" />
      </g>
      <g opacity="1" transform="matrix(1,0,0,1,435.08599853515625,58.974998474121094)">
        <path fill="rgb(255,138,0)" fill-opacity="1"
          d=" M0.375,30.285999298095703 C-8.475000381469727,24.676000595092773 -17.764999389648438,19.576000213623047 -27.236000061035156,15.126999855041504 C-27.236000061035156,15.126999855041504 -5.9019999504089355,-30.285999298095703 -5.9019999504089355,-30.285999298095703 C5.4710001945495605,-24.94499969482422 16.618000030517578,-18.820999145507812 27.236000061035156,-12.08899974822998 C27.236000061035156,-12.08899974822998 0.375,30.285999298095703 0.375,30.285999298095703z" />
      </g>
      <g opacity="1" transform="matrix(1,0,0,1,231.04299926757812,34.13999938964844)">
        <path fill="rgb(255,138,0)" fill-opacity="1"
          d=" M-7.479000091552734,28.55900001525879 C-7.479000091552734,28.55900001525879 -23.007999420166016,-19.156999588012695 -23.007999420166016,-19.156999588012695 C-11.086000442504883,-23.033000946044922 1.2289999723434448,-26.197999954223633 13.600000381469727,-28.55900001525879 C13.600000381469727,-28.55900001525879 23.007999420166016,20.724000930786133 23.007999420166016,20.724000930786133 C12.701000213623047,22.694000244140625 2.446000099182129,25.325000762939453 -7.479000091552734,28.55900001525879z" />
      </g>
      <g opacity="1" transform="matrix(1,0,0,1,371.0350036621094,33.994998931884766)">
        <path fill="rgb(255,138,0)" fill-opacity="1"
          d=" M7.5329999923706055,28.53700065612793 C-2.4230000972747803,25.31800079345703 -12.684000015258789,22.707000732421875 -22.958999633789062,20.775999069213867 C-22.958999633789062,20.775999069213867 -13.678000450134277,-28.53700065612793 -13.678000450134277,-28.53700065612793 C-1.3300000429153442,-26.208999633789062 10.998000144958496,-23.072999954223633 22.958999633789062,-19.207000732421875 C22.958999633789062,-19.207000732421875 7.5329999923706055,28.53700065612793 7.5329999923706055,28.53700065612793z" />
      </g>
      <g opacity="1" transform="matrix(1,0,0,1,300.9989929199219,25.58799934387207)">
        <path fill="rgb(255,138,0)" fill-opacity="1"
          d=" M-15.706000328063965,25.336999893188477 C-15.706000328063965,25.336999893188477 -18.871999740600586,-24.73900032043457 -18.871999740600586,-24.73900032043457 C-12.579999923706055,-25.136999130249023 -6.204999923706055,-25.336999893188477 0.07599999755620956,-25.336999893188477 C0.07599999755620956,-25.336999893188477 0.32100000977516174,-25.336999893188477 0.32100000977516174,-25.336999893188477 C6.451000213623047,-25.336999893188477 12.697999954223633,-25.145999908447266 18.871999740600586,-24.773000717163086 C18.871999740600586,-24.773000717163086 15.824999809265137,25.31399917602539 15.824999809265137,25.31399917602539 C10.597000122070312,24.989999771118164 5.084000110626221,24.944000244140625 0.10100000351667404,24.836999893188477 C-5.1570000648498535,24.836999893188477 -10.463000297546387,25.003999710083008 -15.706000328063965,25.336999893188477z" />
      </g>
    </g>
    <g transform="matrix(-1.5517531633377075,-2.1358048915863037,2.1358048915863037,-1.5517531633377075,647.39794921875,1292.5263671875)"
      opacity="1" style="display: block;">
      <g opacity="1" transform="matrix(1,0,0,1,81.99299621582031,109.38099670410156)">
        <path fill="rgb(249,57,32)" fill-opacity="1"
          d=" M-28.85300064086914,30.506999969482422 C-31.68400001525879,29.57900047302246 -34.69900131225586,29.059999465942383 -37.84000015258789,29.059999465942383 C-53.77399826049805,29.059999465942383 -66.69100189208984,41.97600173950195 -66.69100189208984,57.9109992980957 C-66.69100189208984,63.60300064086914 -65.0199966430664,68.8949966430664 -62.17300033569336,73.36599731445312 C-62.17300033569336,73.36599731445312 -81.74299621582031,93.66100311279297 -81.74299621582031,93.66100311279297 C-81.74299621582031,93.66100311279297 -61.67300033569336,109.12999725341797 -61.67300033569336,109.12999725341797 C-61.67300033569336,109.12999725341797 -46.983001708984375,85.25800323486328 -46.983001708984375,85.25800323486328 C-44.108001708984375,86.22000122070312 -41.03900146484375,86.76200103759766 -37.84000015258789,86.76200103759766 C-21.9060001373291,86.76200103759766 -8.989999771118164,73.84400177001953 -8.989999771118164,57.9109992980957 C-8.989999771118164,51.8849983215332 -10.843000411987305,46.29499816894531 -14.00100040435791,41.667999267578125 C-14.00100040435791,41.667999267578125 81.74299621582031,-109.12999725341797 81.74299621582031,-109.12999725341797 C81.74299621582031,-109.12999725341797 -28.85300064086914,30.506999969482422 -28.85300064086914,30.506999969482422z M-37.84000015258789,72.6500015258789 C-45.97999954223633,72.6500015258789 -52.57899856567383,66.05000305175781 -52.57899856567383,57.9109992980957 C-52.57899856567383,49.770999908447266 -45.97999954223633,43.172000885009766 -37.84000015258789,43.172000885009766 C-29.700000762939453,43.172000885009766 -23.101999282836914,49.770999908447266 -23.101999282836914,57.9109992980957 C-23.101999282836914,66.05000305175781 -29.700000762939453,72.6500015258789 -37.84000015258789,72.6500015258789z" />
      </g>
    </g>
  </g>
</svg>