<svg xmlns="http://www.w3.org/2000/svg" width="3" height="22" viewBox="0 0 6 44">
  <defs>
    <style>
      .cls-1 {
        fill: #fff;
        fill-rule: evenodd;
      }
    </style>
  </defs>
  <path id="menu.svg" class="cls-1" d="M264.348,106.181h5.3c0.192,0,.348-1.381.348-3.087s-0.156-3.089-.348-3.089h-5.3c-0.193,0-.348,1.386-0.348,3.089S264.155,106.181,264.348,106.181Zm5.3,12.732h-5.3c-0.193,0-.348,1.386-0.348,3.088s0.155,3.087.348,3.087h5.3c0.192,0,.348-1.378.348-3.087S269.844,118.913,269.652,118.913Zm0,18.908h-5.3c-0.193,0-.348,1.386-0.348,3.087s0.155,3.089.348,3.089h5.3c0.192,0,.348-1.381.348-3.089S269.844,137.821,269.652,137.821Z" transform="translate(-264 -100)"/>
</svg>
