<?xml version="1.0" encoding="UTF-8"?>
<svg width="32px" height="32px" viewBox="0 0 32 32" version="1.1" xmlns="http://www.w3.org/2000/svg"
  xmlns:xlink="http://www.w3.org/1999/xlink">
  <title>Icon=Code Splitting</title>
  <g id="Page-1" stroke="none" stroke-width="1" fill="none" fill-rule="evenodd">
    <g id="Icon=Code-Splitting">
      <rect id="Rectangle" x="0" y="0" width="32" height="32"></rect>
      <g id="split-arrow" transform="translate(5, 4)" fill="#0B0C0E" fill-rule="nonzero">
        <path
          d="M20.1719252,1.93681116e-08 L14.7674179,0.00140555562 C14.1510207,0.00129300715 13.6479904,0.491710515 13.6361762,1.104283 C13.6220356,1.73443175 14.154662,2.25026356 14.7905141,2.25026356 L17.4710856,2.25026356 L12.7132715,6.97942452 C12.2715295,7.41853533 12.2715295,8.13044373 12.7132715,8.56955454 L12.7132715,8.56955454 C13.1550428,9.00863622 13.8712645,9.00863622 14.3130358,8.56955454 L19.0708499,3.84039357 L19.0708499,6.55776365 C19.0708499,7.17876864 19.5773241,7.68219265 20.2020916,7.68219265 L20.2020916,7.68219265 C20.8268592,7.68219265 21.3333333,7.17876864 21.3333333,6.55776365 L21.3333333,1.15535082 C21.3330738,0.517740859 20.8133979,0.000775334031 20.1719252,1.93681116e-08 L20.1719252,1.93681116e-08 Z M2.26248343,3.84039357 L2.26248343,6.55776365 C2.26248343,7.17876864 1.75600926,7.68219265 1.13124171,7.68219265 L1.13124171,7.68219265 C0.506474167,7.68219265 0,7.17876864 0,6.55776365 L0,1.15535082 C0.000259547319,0.517740859 0.519935459,0.000775334031 1.16140816,0 L6.56827221,0 C7.18466938,0 7.68769965,0.490304979 7.69951392,1.10287746 C7.71129769,1.73443175 7.17867138,2.25026356 6.54281927,2.25026356 L3.86224775,2.25026356 L11.4679629,9.808769 C11.6799435,10.020204 11.7986448,10.3067426 11.7979118,10.6052395 L11.7979118,22.875571 C11.7979118,23.496576 11.2914342,24 10.6666667,24 C10.0418991,24 9.53542495,23.496576 9.53542495,22.875571 L9.53542495,11.0690665 L2.26248343,3.84039357 Z"
          id="Shape"></path>
      </g>
    </g>
  </g>
</svg>