<svg xmlns="http://www.w3.org/2000/svg" width="24" height="28" viewBox="0 0 24 28" fill="none">
  <path
    d="M16.6133 0.41956C16.28 0.419498 15.9599 0.550227 15.722 0.783644C15.484 1.01706 15.3471 1.33453 15.3407 1.66781L16.6133 0.41956ZM16.6133 0.41956L22.6934 0.417969L16.6133 0.41956ZM16.6135 0.91956L16.6133 0.91956C16.4109 0.919522 16.2166 0.99889 16.0721 1.1406M16.6135 0.91956L16.0721 1.1406M16.6135 0.91956L22.6931 0.917969C22.9071 0.918316 23.1123 1.00352 23.2635 1.15491C23.4148 1.30632 23.4999 1.51157 23.5 1.72561C23.5 1.72568 23.5 1.72575 23.5 1.72581V7.84015C23.5 8.04507 23.4186 8.2416 23.2737 8.3865C23.1288 8.5314 22.9323 8.6128 22.7274 8.6128C22.5224 8.6128 22.3259 8.5314 22.181 8.3865L21.8275 8.74005L22.181 8.3865C22.0361 8.2416 21.9547 8.04507 21.9547 7.84015V4.76459V3.55748L21.1012 4.41104L15.7486 9.76357C15.7486 9.76357 15.7486 9.76357 15.7486 9.76358M16.6135 0.91956L15.7486 9.76358M16.0721 1.1406C15.9276 1.28231 15.8445 1.47506 15.8406 1.6774L15.8406 1.67896C15.8313 2.09694 16.1895 2.46485 16.6393 2.46485H19.655H20.8621L20.0085 3.31841L14.656 8.67094M16.0721 1.1406L14.656 8.67094M14.656 8.67094C14.656 8.67094 14.656 8.67094 14.656 8.67095C14.5111 8.81585 14.4297 9.01236 14.4297 9.21726C14.4297 9.42216 14.5111 9.61867 14.656 9.76357C14.656 9.76357 14.656 9.76358 14.656 9.76359M14.656 8.67094V9.76359M14.656 9.76359C14.8009 9.90846 14.9974 9.98985 15.2023 9.98985C15.4072 9.98985 15.6037 9.90846 15.7486 9.76358M14.656 9.76359L15.7486 9.76358M2.89884 4.41102L2.04529 3.55754V4.76459V7.84015C2.04529 8.04507 1.96389 8.2416 1.81899 8.3865L2.17254 8.74005L1.81899 8.3865C1.67409 8.5314 1.47757 8.6128 1.27265 8.6128C1.06773 8.6128 0.871203 8.5314 0.726304 8.3865C0.581404 8.2416 0.5 8.04507 0.5 7.84015L0.5 1.72582C0.5 1.72579 0.5 1.72577 0.5 1.72575C0.5 1.7257 0.5 1.72566 0.5 1.72561C0.50014 1.51157 0.585184 1.30632 0.736477 1.15491C0.887756 1.00351 1.09291 0.918298 1.30693 0.917969L7.38931 0.917969L7.3894 0.917969C7.59178 0.917932 7.78609 0.997299 7.93057 1.13901L8.28069 0.782054L7.93057 1.13901C8.07505 1.28072 8.15817 1.47347 8.16205 1.67581C8.16969 2.09749 7.80958 2.46485 7.36067 2.46485H4.34503H3.13776L3.99151 3.31844L12.5473 11.8726C12.5474 11.8727 12.5475 11.8728 12.5476 11.8729C12.6191 11.9448 12.6758 12.03 12.7145 12.1238C12.7531 12.2178 12.7729 12.3184 12.7726 12.4199V12.4212V26.3089C12.7726 26.5138 12.6912 26.7104 12.5463 26.8553C12.4014 27.0002 12.2049 27.0816 12 27.0816C11.7951 27.0816 11.5986 27.0002 11.4537 26.8553C11.3088 26.7104 11.2274 26.5138 11.2274 26.3089V12.9461V12.739L11.0809 12.5926L2.89884 4.41102ZM0.37275 8.74005C0.134082 8.50138 0 8.17768 0 7.84015V1.72561C0.000140231 1.37903 0.137809 1.04667 0.38278 0.801499L0.37275 8.74005Z"
    fill="#0B0C0E" stroke="#0B0C0E" />
</svg>