<svg width="32" height="32" viewBox="0 0 32 32" fill="none" xmlns="http://www.w3.org/2000/svg">
  <path
    d="M27.1803 11.831L27.1668 11.8378L27.1538 11.8453L16.3641 18.0794C16.285 18.118 16.2456 18.1276 16.2179 18.1322C16.1764 18.1391 16.1299 18.1404 16 18.1404C15.8701 18.1404 15.8236 18.1391 15.7821 18.1322C15.7544 18.1276 15.715 18.118 15.6359 18.0794L4.85025 11.8476C4.52483 11.6502 4.408 11.2347 4.57266 10.8026C4.61258 10.7257 4.64129 10.6894 4.66455 10.6661C4.68962 10.6411 4.72982 10.6097 4.8197 10.5647L4.83318 10.558L4.84623 10.5504L15.6499 4.30831L15.6638 4.30029L15.6771 4.2914C15.8693 4.16328 16.1307 4.16328 16.3229 4.2914L16.3362 4.30029L16.3501 4.30831L27.1497 10.5481C27.4752 10.7455 27.592 11.1611 27.4273 11.5932C27.3874 11.6701 27.3587 11.7064 27.3354 11.7296C27.3104 11.7547 27.2702 11.7861 27.1803 11.831ZM4.84623 16.647L4.83318 16.6394L4.8197 16.6327C4.72982 16.5877 4.68962 16.5563 4.66455 16.5313C4.64129 16.508 4.61258 16.4717 4.57266 16.3948C4.41299 15.9758 4.518 15.5724 4.8212 15.3683L15.1368 21.3467C15.6583 21.6861 16.3417 21.6861 16.8632 21.3467L27.1813 15.3669C27.2705 15.4116 27.3105 15.4428 27.3354 15.4678C27.3587 15.491 27.3874 15.5273 27.4273 15.6042C27.592 16.0363 27.4752 16.4519 27.1498 16.6493L16.3501 22.8891L16.3362 22.8971L16.3229 22.906C16.1307 23.0341 15.8693 23.0341 15.6771 22.906L15.6638 22.8971L15.6499 22.8891L4.84623 16.647ZM4.84623 21.4486L4.83318 21.4411L4.8197 21.4343C4.72982 21.3894 4.68962 21.358 4.66455 21.3329C4.64129 21.3097 4.61258 21.2734 4.57266 21.1965C4.41299 20.7775 4.518 20.3741 4.8212 20.17L15.1368 26.1483C15.6583 26.4878 16.3417 26.4878 16.8632 26.1483L27.1813 20.1685C27.2705 20.2132 27.3105 20.2444 27.3354 20.2694C27.3587 20.2927 27.3874 20.329 27.4273 20.4059C27.592 20.838 27.4752 21.2535 27.1498 21.4509L16.3501 27.6907L16.3362 27.6988L16.3229 27.7077C16.1307 27.8358 15.8693 27.8358 15.6771 27.7077L15.6638 27.6988L15.6499 27.6907L4.84623 21.4486Z"
    fill="#0B0C0E" stroke="#0B0C0E" />
</svg>