<svg width="32" height="32" viewBox="0 0 32 32" fill="none" xmlns="http://www.w3.org/2000/svg">
  <path
    d="M16.9614 11.5714L16.7683 12.2151H17.4403H22.4286C22.6319 12.2151 22.8196 12.3229 22.9218 12.4978C23.0244 12.6733 23.0262 12.8898 22.9268 13.0664L22.9266 13.0665L13.2838 30.2086C13.1803 30.3926 12.9875 30.5 12.7852 30.5C12.7176 30.5 12.6475 30.4877 12.5788 30.4614C12.314 30.3586 12.1648 30.077 12.2287 29.7999C12.2287 29.7999 12.2287 29.7999 12.2287 29.7998L15.1406 17.1845L15.282 16.572H14.6534H9.57144C9.35875 16.572 9.16386 16.4539 9.0655 16.2659L9.06509 16.2651C8.96686 16.0781 8.98042 15.8508 9.10172 15.675C9.10177 15.6749 9.10182 15.6748 9.10187 15.6748L18.7444 1.74727L18.7446 1.74695C18.9052 1.51462 19.2077 1.43457 19.4606 1.55729L19.4624 1.55816C19.7153 1.67956 19.8424 1.96758 19.7618 2.23654C19.7618 2.23657 19.7618 2.2366 19.7618 2.23663L16.9614 11.5714Z"
    fill="#0B0C0E" stroke="#0B0C0E" />
</svg>