<svg width="30" height="30" viewBox="0 0 30 30" fill="none" xmlns="http://www.w3.org/2000/svg">
  <path
    d="M8.96136 10.5714L8.76826 11.2151H9.44027H14.4286C14.6319 11.2151 14.8196 11.3229 14.9218 11.4978C15.0244 11.6733 15.0262 11.8898 14.9268 12.0664L14.9266 12.0665L5.28383 29.2086C5.18028 29.3926 4.98746 29.5 4.78521 29.5C4.71765 29.5 4.64745 29.4877 4.57877 29.4614C4.31401 29.3586 4.16483 29.077 4.22869 28.7999C4.2287 28.7999 4.22871 28.7999 4.22871 28.7998L7.1406 16.1845L7.28196 15.572H6.65341H1.57144C1.35875 15.572 1.16386 15.4539 1.0655 15.2659L1.06509 15.2651C0.966863 15.0781 0.980416 14.8508 1.10172 14.675C1.10177 14.6749 1.10182 14.6748 1.10187 14.6748L10.7444 0.747271L10.7446 0.746953C10.9052 0.51462 11.2077 0.434573 11.4606 0.557285L11.4624 0.558164C11.7153 0.679563 11.8424 0.967579 11.7618 1.23654C11.7618 1.23657 11.7618 1.2366 11.7618 1.23663L8.96136 10.5714Z"
    fill="#0B0C0E" stroke="#0B0C0E" />
</svg>