<svg width="32" height="32" viewBox="0 0 32 32" fill="none" xmlns="http://www.w3.org/2000/svg">
  <path
    d="M27.4304 14.8709L27.4304 14.8709L27.431 14.8764C28.1254 21.2101 23.4968 26.8543 17.1274 27.4304L17.1274 27.4303L17.1175 27.4314C11.0559 28.1015 5.52681 23.783 4.57111 17.7267H15.4777L13.5569 19.6379C12.8771 20.3143 12.8771 21.3537 13.5569 22.0302C14.2354 22.7052 15.2757 22.7052 15.9541 22.0302L20.7881 17.2204C21.4679 16.544 21.4679 15.5046 20.7881 14.8282L15.9541 10.0184C15.2757 9.34339 14.2354 9.34339 13.5569 10.0184C12.8771 10.6949 12.8771 11.7343 13.5569 12.4107L15.4777 14.3219H4.565C5.39003 8.71784 10.2421 4.5 15.964 4.5C21.8713 4.5 26.8515 8.9956 27.4304 14.8709Z"
    fill="#0B0C0E" stroke="#0B0C0E" />
</svg>