<svg width="32" height="32" viewBox="0 0 32 32" fill="none" xmlns="http://www.w3.org/2000/svg">
  <g clip-path="url(#clip0_2074_498)">
    <path fill-rule="evenodd" clip-rule="evenodd"
      d="M16.0086 5.11719L18.5641 6.52527L18.4813 6.6748L15.9258 5.26671L16.0086 5.11719Z" fill="#0B0C0E" />
    <path
      d="M15.975 5.52018C16.1641 5.52018 16.3174 5.36722 16.3174 5.17855C16.3174 4.98987 16.1641 4.83691 15.975 4.83691C15.7859 4.83691 15.6326 4.98987 15.6326 5.17855C15.6326 5.36722 15.7859 5.52018 15.975 5.52018Z"
      fill="#0B0C0E" />
    <path
      d="M18.5226 6.94107C18.7117 6.94107 18.865 6.78812 18.865 6.59944C18.865 6.41076 18.7117 6.25781 18.5226 6.25781C18.3335 6.25781 18.1802 6.41076 18.1802 6.59944C18.1802 6.78812 18.3335 6.94107 18.5226 6.94107Z"
      fill="#0B0C0E" />
    <path fill-rule="evenodd" clip-rule="evenodd"
      d="M16.0092 5.26626L13.4531 6.69314L13.3695 6.54407L15.9256 5.11719L16.0092 5.26626Z" fill="#0B0C0E" />
    <path
      d="M13.411 6.94107C13.6001 6.94107 13.7534 6.78812 13.7534 6.59944C13.7534 6.41076 13.6001 6.25781 13.411 6.25781C13.2219 6.25781 13.0686 6.41076 13.0686 6.59944C13.0686 6.78812 13.2219 6.94107 13.411 6.94107Z"
      fill="#0B0C0E" />
    <path fill-rule="evenodd" clip-rule="evenodd"
      d="M15.9258 26.7329L18.4813 25.3242L18.5641 25.4737L16.0086 26.8824L15.9258 26.7329Z" fill="#0B0C0E" />
    <path
      d="M15.975 27.1628C16.1641 27.1628 16.3174 27.0098 16.3174 26.8211C16.3174 26.6324 16.1641 26.4795 15.975 26.4795C15.7859 26.4795 15.6326 26.6324 15.6326 26.8211C15.6326 27.0098 15.7859 27.1628 15.975 27.1628Z"
      fill="#0B0C0E" />
    <path
      d="M18.5226 25.7409C18.7117 25.7409 18.865 25.588 18.865 25.3993C18.865 25.2106 18.7117 25.0576 18.5226 25.0576C18.3335 25.0576 18.1802 25.2106 18.1802 25.3993C18.1802 25.588 18.3335 25.7409 18.5226 25.7409Z"
      fill="#0B0C0E" />
    <path fill-rule="evenodd" clip-rule="evenodd"
      d="M15.9256 26.8826L13.3695 25.4557L13.4531 25.3066L16.0092 26.7335L15.9256 26.8826Z" fill="#0B0C0E" />
    <path
      d="M13.411 25.7409C13.6001 25.7409 13.7534 25.588 13.7534 25.3993C13.7534 25.2106 13.6001 25.0576 13.411 25.0576C13.2219 25.0576 13.0686 25.2106 13.0686 25.3993C13.0686 25.588 13.2219 25.7409 13.411 25.7409Z"
      fill="#0B0C0E" />
    <path fill-rule="evenodd" clip-rule="evenodd"
      d="M6.52905 10.5448L9.02578 9.03418L9.11456 9.18024L6.61782 10.6908L6.52905 10.5448Z" fill="#0B0C0E" />
    <path
      d="M6.56616 10.9459C6.75527 10.9459 6.90857 10.793 6.90857 10.6043C6.90857 10.4156 6.75527 10.2627 6.56616 10.2627C6.37705 10.2627 6.22375 10.4156 6.22375 10.6043C6.22375 10.793 6.37705 10.9459 6.56616 10.9459Z"
      fill="#0B0C0E" />
    <path
      d="M4.59253 9.8151C4.78164 9.8151 4.93494 9.66214 4.93494 9.47347C4.93494 9.28479 4.78164 9.13184 4.59253 9.13184C4.40343 9.13184 4.25012 9.28479 4.25012 9.47347C4.25012 9.66214 4.40343 9.8151 4.59253 9.8151Z"
      fill="#0B0C0E" />
    <path
      d="M9.0702 9.44889C9.2593 9.44889 9.4126 9.29594 9.4126 9.10726C9.4126 8.91858 9.2593 8.76562 9.0702 8.76562C8.88109 8.76562 8.72778 8.91858 8.72778 9.10726C8.72778 9.29594 8.88109 9.44889 9.0702 9.44889Z"
      fill="#0B0C0E" />
    <path fill-rule="evenodd" clip-rule="evenodd"
      d="M6.65912 10.6191L6.62603 13.5406L6.45483 13.5387L6.48793 10.6172L6.65912 10.6191Z" fill="#0B0C0E" />
    <path
      d="M6.52417 13.8718C6.71328 13.8718 6.86658 13.7188 6.86658 13.5301C6.86658 13.3415 6.71328 13.1885 6.52417 13.1885C6.33506 13.1885 6.18176 13.3415 6.18176 13.5301C6.18176 13.7188 6.33506 13.8718 6.52417 13.8718Z"
      fill="#0B0C0E" />
    <path fill-rule="evenodd" clip-rule="evenodd"
      d="M4.57464 9.37402L6.61596 10.5435L6.53071 10.6917L4.48938 9.52215L4.57464 9.37402Z" fill="#0B0C0E" />
    <path fill-rule="evenodd" clip-rule="evenodd"
      d="M25.2753 21.3801L25.3243 18.4678L25.4955 18.4706L25.4465 21.383L25.2753 21.3801Z" fill="#0B0C0E" />
    <path
      d="M25.3761 21.7233C25.5652 21.7233 25.7185 21.5703 25.7185 21.3817C25.7185 21.193 25.5652 21.04 25.3761 21.04C25.187 21.04 25.0337 21.193 25.0337 21.3817C25.0337 21.5703 25.187 21.7233 25.3761 21.7233Z"
      fill="#0B0C0E" />
    <path
      d="M27.3493 22.8532C27.5384 22.8532 27.6917 22.7003 27.6917 22.5116C27.6917 22.3229 27.5384 22.1699 27.3493 22.1699C27.1602 22.1699 27.0068 22.3229 27.0068 22.5116C27.0068 22.7003 27.1602 22.8532 27.3493 22.8532Z"
      fill="#0B0C0E" />
    <path
      d="M25.4099 18.8111C25.599 18.8111 25.7523 18.6582 25.7523 18.4695C25.7523 18.2809 25.599 18.1279 25.4099 18.1279C25.2208 18.1279 25.0675 18.2809 25.0675 18.4695C25.0675 18.6582 25.2208 18.8111 25.4099 18.8111Z"
      fill="#0B0C0E" />
    <path fill-rule="evenodd" clip-rule="evenodd"
      d="M25.4045 21.4552L22.8918 22.9561L22.8038 22.8095L25.3166 21.3086L25.4045 21.4552Z" fill="#0B0C0E" />
    <path
      d="M22.864 23.2341C23.0531 23.2341 23.2064 23.0811 23.2064 22.8924C23.2064 22.7038 23.0531 22.5508 22.864 22.5508C22.6749 22.5508 22.5216 22.7038 22.5216 22.8924C22.5216 23.0811 22.6749 23.2341 22.864 23.2341Z"
      fill="#0B0C0E" />
    <path fill-rule="evenodd" clip-rule="evenodd"
      d="M27.3596 22.6253L25.3182 21.4557L25.4035 21.3076L27.4448 22.4771L27.3596 22.6253Z" fill="#0B0C0E" />
    <path fill-rule="evenodd" clip-rule="evenodd"
      d="M6.5093 21.4208L6.44995 18.5083L6.62112 18.5049L6.68047 21.4173L6.5093 21.4208Z" fill="#0B0C0E" />
    <path
      d="M6.57922 21.7604C6.76833 21.7604 6.92164 21.6074 6.92164 21.4187C6.92164 21.2301 6.76833 21.0771 6.57922 21.0771C6.39012 21.0771 6.23682 21.2301 6.23682 21.4187C6.23682 21.6074 6.39012 21.7604 6.57922 21.7604Z"
      fill="#0B0C0E" />
    <path
      d="M4.61047 22.8981C4.79958 22.8981 4.95288 22.7451 4.95288 22.5565C4.95288 22.3678 4.79958 22.2148 4.61047 22.2148C4.42137 22.2148 4.26807 22.3678 4.26807 22.5565C4.26807 22.7451 4.42137 22.8981 4.61047 22.8981Z"
      fill="#0B0C0E" />
    <path
      d="M6.53564 18.8483C6.72475 18.8483 6.87805 18.6954 6.87805 18.5067C6.87805 18.318 6.72475 18.165 6.53564 18.165C6.34654 18.165 6.19324 18.318 6.19324 18.5067C6.19324 18.6954 6.34654 18.8483 6.53564 18.8483Z"
      fill="#0B0C0E" />
    <path fill-rule="evenodd" clip-rule="evenodd"
      d="M6.6382 21.3457L9.15604 22.8375L9.06863 22.9844L6.55078 21.4926L6.6382 21.3457Z" fill="#0B0C0E" />
    <path
      d="M9.09693 23.2624C9.28603 23.2624 9.43934 23.1094 9.43934 22.9207C9.43934 22.7321 9.28603 22.5791 9.09693 22.5791C8.90782 22.5791 8.75452 22.7321 8.75452 22.9207C8.75452 23.1094 8.90782 23.2624 9.09693 23.2624Z"
      fill="#0B0C0E" />
    <path fill-rule="evenodd" clip-rule="evenodd"
      d="M4.51501 22.5226L6.55178 21.3457L6.63758 21.4935L4.60082 22.6704L4.51501 22.5226Z" fill="#0B0C0E" />
    <path fill-rule="evenodd" clip-rule="evenodd"
      d="M25.2987 10.66L22.7968 9.15908L22.885 9.0127L25.3869 10.5136L25.2987 10.66Z" fill="#0B0C0E" />
    <path
      d="M25.3505 10.9147C25.5396 10.9147 25.6929 10.7618 25.6929 10.5731C25.6929 10.3844 25.5396 10.2314 25.3505 10.2314C25.1614 10.2314 25.0081 10.3844 25.0081 10.5731C25.0081 10.7618 25.1614 10.9147 25.3505 10.9147Z"
      fill="#0B0C0E" />
    <path
      d="M27.3198 9.77701C27.5089 9.77701 27.6622 9.62406 27.6622 9.43538C27.6622 9.2467 27.5089 9.09375 27.3198 9.09375C27.1307 9.09375 26.9774 9.2467 26.9774 9.43538C26.9774 9.62406 27.1307 9.77701 27.3198 9.77701Z"
      fill="#0B0C0E" />
    <path
      d="M22.841 9.4274C23.0302 9.4274 23.1834 9.27445 23.1834 9.08577C23.1834 8.8971 23.0302 8.74414 22.841 8.74414C22.6519 8.74414 22.4987 8.8971 22.4987 9.08577C22.4987 9.27445 22.6519 9.4274 22.841 9.4274Z"
      fill="#0B0C0E" />
    <path fill-rule="evenodd" clip-rule="evenodd"
      d="M25.4284 10.585L25.4718 13.507L25.3006 13.5096L25.2572 10.5875L25.4284 10.585Z" fill="#0B0C0E" />
    <path
      d="M25.4024 13.8404C25.5915 13.8404 25.7448 13.6875 25.7448 13.4989C25.7448 13.3102 25.5915 13.1572 25.4024 13.1572C25.2133 13.1572 25.0599 13.3102 25.0599 13.4989C25.0599 13.6875 25.2133 13.8404 25.4024 13.8404Z"
      fill="#0B0C0E" />
    <path fill-rule="evenodd" clip-rule="evenodd"
      d="M27.4228 9.48377L25.3861 10.6601L25.3003 10.5123L27.3371 9.33594L27.4228 9.48377Z" fill="#0B0C0E" />
    <path d="M18.5576 11.1484L15.957 9.65039L13.3564 11.1484L15.957 12.6465L18.5576 11.1484Z" fill="#0B0C0E" />
    <path d="M15.957 15.6426V12.6465L13.3564 11.1484V14.1445L15.957 15.6426Z" fill="white" />
    <path d="M15.9569 15.6426V12.6465L18.5575 11.1484V14.1445L15.9569 15.6426Z" fill="white" />
    <path
      d="M15.9569 9.58398L13.2992 11.115V14.1767L15.9569 15.7077L18.6145 14.1767V11.115L15.9569 9.58398ZM18.4433 11.1475L15.9569 12.5801L13.4704 11.1481L15.9569 9.71551L18.4433 11.1475ZM13.4133 11.246L15.8998 12.678V15.5426L13.4133 14.11V11.246ZM16.0139 15.5426V12.678L18.5004 11.2455V14.11L16.0139 15.5426Z"
      fill="white" />
    <path d="M15.7042 16.1582L13.1036 14.6602L10.5031 16.1582L13.1036 17.6562L15.7042 16.1582Z" fill="white" />
    <path d="M13.1036 20.6523V17.6562L10.5031 16.1582V19.1543L13.1036 20.6523Z" fill="#0B0C0E" />
    <path d="M13.1035 20.6523V17.6562L15.7042 16.1582V19.1543L13.1035 20.6523Z" fill="white" />
    <path
      d="M13.1035 14.5947L10.4458 16.1258V19.1874L13.1035 20.7184L15.7611 19.1874V16.1258L13.1035 14.5947ZM15.5899 16.1582L13.1035 17.5908L10.617 16.1588L13.1035 14.7262L15.5899 16.1582ZM10.5599 16.2568L13.0464 17.6887V20.5533L10.5599 19.1207V16.2561V16.2568ZM13.1605 20.5533V17.6887L15.647 16.2561V19.1207L13.1605 20.5533Z"
      fill="white" />
    <path d="M21.411 16.1582L18.8104 14.6602L16.2098 16.1582L18.8104 17.6562L21.411 16.1582Z" fill="white" />
    <path d="M18.8104 20.6523V17.6562L16.2098 16.1582V19.1543L18.8104 20.6523Z" fill="white" />
    <path d="M18.8103 20.6523V17.6562L21.4109 16.1582V19.1543L18.8103 20.6523Z" fill="#0B0C0E" />
    <path
      d="M18.8108 14.5947L16.1531 16.1258V19.1874L18.8108 20.7184L21.4684 19.1874V16.1258L18.8108 14.5947ZM21.2972 16.1582L18.8108 17.5908L16.3243 16.1588L18.8108 14.7262L21.2972 16.1582ZM16.2672 16.2568L18.7537 17.6887V20.5533L16.2672 19.1213V16.2568ZM18.8678 20.5539V17.6893L21.3543 16.2568V19.1213L18.8678 20.5539Z"
      fill="white" />
    <path d="M21.411 12.8564L18.8104 11.3584L16.2098 12.8564L18.8104 14.3545L21.411 12.8564Z" fill="#0B0C0E" />
    <path d="M18.8104 17.3506V14.3545L16.2098 12.8564V15.8525L18.8104 17.3506Z" fill="white" />
    <path d="M18.8103 17.3506V14.3545L21.4109 12.8564V15.8525L18.8103 17.3506Z" fill="#0B0C0E" />
    <path
      d="M18.8108 11.293L16.1531 12.8241V15.8856L18.8108 17.4167L21.4684 15.8856V12.8241L18.8108 11.293ZM21.2972 12.8565L18.8108 14.2891L16.3243 12.8571L18.8108 11.4245L21.2972 12.8571V12.8565ZM16.2672 12.955L18.7537 14.387V17.2516L16.2672 15.8196V12.955ZM18.8678 17.2522V14.3876L21.3543 12.955V15.8196L18.8678 17.2522Z"
      fill="white" />
    <path d="M15.7042 12.8564L13.1036 11.3584L10.5031 12.8564L13.1036 14.3545L15.7042 12.8564Z" fill="#0B0C0E" />
    <path d="M13.1036 17.3506V14.3545L10.5031 12.8564V15.8525L13.1036 17.3506Z" fill="#0B0C0E" />
    <path d="M13.1035 17.3506V14.3545L15.7042 12.8564V15.8525L13.1035 17.3506Z" fill="white" />
    <path
      d="M13.1035 11.293L10.4458 12.8241V15.8856L13.1035 17.4167L15.7611 15.8856V12.8241L13.1035 11.293ZM15.5899 12.8565L13.1035 14.2891L10.617 12.8571L13.1035 11.4245L15.5899 12.8571V12.8565ZM10.5599 12.955L13.0464 14.387V17.2516L10.5599 15.819V12.9544V12.955ZM13.1605 17.2516V14.387L15.647 12.9544V15.819L13.1605 17.2516Z"
      fill="white" />
    <path d="M18.5576 17.8096L15.957 16.3115L13.3564 17.8096L15.957 19.3077L18.5576 17.8096Z" fill="white" />
    <path d="M15.957 22.3037V19.3076L13.3564 17.8096V20.8057L15.957 22.3037Z" fill="#0B0C0E" />
    <path d="M15.9569 22.3037V19.3076L18.5575 17.8096V20.8057L15.9569 22.3037Z" fill="#0B0C0E" />
    <path
      d="M15.9569 16.2461L13.2992 17.7771V20.8387L15.9569 22.3698L18.6145 20.8387V17.7771L15.9569 16.2461ZM18.4433 17.8096L15.9569 19.2422L13.4704 17.8102L15.9569 16.3776L18.4433 17.8096ZM13.4133 17.9081L15.8998 19.3401V22.2047L13.4133 20.7727V17.9081ZM16.0139 22.2052V19.3407L18.5004 17.9081V20.7727L16.0139 22.2052Z"
      fill="white" />
    <path d="M18.5576 14.5645L15.957 13.0664L13.3564 14.5645L15.957 16.0626L18.5576 14.5645Z" fill="#0B0C0E" />
    <path d="M15.957 19.0586V16.0625L13.3564 14.5645V17.5605L15.957 19.0586Z" fill="#0B0C0E" />
    <path d="M15.9569 19.0586V16.0625L18.5575 14.5645V17.5605L15.9569 19.0586Z" fill="#0B0C0E" />
    <path
      d="M15.9569 19.1247L13.2992 17.5936V14.5321L15.9569 13.001L18.6145 14.5321V17.5936L15.9569 19.1247ZM13.4133 17.5282L15.9569 18.9932L18.5004 17.5282V14.5975L15.9569 13.1325L13.4133 14.5975V17.5282Z"
      fill="white" />
    <path d="M13.3857 14.5166L13.3286 14.6152L15.9292 16.1133L15.9863 16.0147L13.3857 14.5166Z" fill="white" />
    <path d="M18.5311 14.5215L15.9302 16.0191L15.9872 16.1177L18.5881 14.6202L18.5311 14.5215Z" fill="white" />
    <path d="M16.0138 16.0625H15.8997V19.0586H16.0138V16.0625Z" fill="white" />
    <path d="M24.2127 11.1232L16.0817 6.43945V9.39798L21.6446 12.6025L24.2127 11.1232Z" fill="#0B0C0E" />
    <path
      d="M16.1958 6.63703L23.985 11.1238L21.6452 12.4715L16.1958 9.3325V6.63703ZM16.0817 6.44002V9.39854L21.6452 12.603L24.2133 11.1238L16.0817 6.43945V6.44002Z"
      fill="#0B0C0E" />
    <path d="M10.2739 12.6116L15.8534 9.39798V6.43945L7.70581 11.1323L10.2739 12.6116Z" fill="#0B0C0E" />
    <path
      d="M15.7392 6.63646V9.33193L10.2743 12.48L7.93457 11.1323L15.7392 6.63646ZM15.8533 6.43945L7.7063 11.1323L10.2743 12.6116L15.8533 9.39798V6.43945Z"
      fill="#0B0C0E" />
    <path d="M21.7542 12.8025V19.2252L24.3222 20.7045V11.3232L21.7542 12.8025Z" fill="#0B0C0E" />
    <path
      d="M24.2081 11.5208V20.5074L21.8683 19.1597V12.8686L24.2081 11.5208ZM24.3222 11.3239L21.7542 12.8031V19.2252L24.3222 20.7045V11.3232V11.3239Z"
      fill="#0B0C0E" />
    <path d="M10.1801 12.821L7.61206 11.3418V20.6865L10.1801 19.2073V12.821Z" fill="#0B0C0E" />
    <path
      d="M7.72619 11.5388L10.066 12.8865V19.1412L7.72619 20.4889V11.5388ZM7.61206 11.3418V20.6865L10.1801 19.2073V12.821L7.61206 11.3418Z"
      fill="#0B0C0E" />
    <path d="M7.73083 20.8807L15.8533 25.5593V22.6007L10.2989 19.4014L7.73083 20.8807Z" fill="#0B0C0E" />
    <path
      d="M10.2989 19.5329L15.7392 22.6668V25.3622L7.95911 20.8807L10.2989 19.5329ZM10.2989 19.4014L7.73083 20.8807L15.8533 25.5593V22.6007L10.2989 19.4014Z"
      fill="#0B0C0E" />
    <path d="M16.0817 22.6014V25.5599L24.1882 20.8904L21.6201 19.4111L16.0817 22.6014Z" fill="#0B0C0E" />
    <path
      d="M21.6202 19.5426L23.96 20.8904L16.1953 25.3629V22.6674L21.6202 19.5426ZM21.6202 19.4111L16.0812 22.602V25.5605L24.1883 20.8904L21.6202 19.4111Z"
      fill="#0B0C0E" />
    <path d="M18.5576 14.5645L15.957 13.0664L13.3564 14.5645L15.957 16.0626L18.5576 14.5645Z" fill="#0B0C0E" />
    <path d="M15.957 19.0586V16.0625L13.3564 14.5645V17.5605L15.957 19.0586Z" fill="#0B0C0E" />
    <path d="M15.9569 19.0586V16.0625L18.5575 14.5645V17.5605L15.9569 19.0586Z" fill="#0B0C0E" />
    <path
      d="M15.9569 13.001L13.2992 14.5321V17.5936L15.9569 19.1247L18.6145 17.5936V14.5321L15.9569 13.001ZM18.4433 14.5645L15.9569 15.9971L13.4704 14.5651L15.9569 13.1325L18.4433 14.5651V14.5645ZM13.4133 14.663L15.8998 16.095V18.9596L13.4133 17.527V14.663ZM16.0139 18.9596V16.095L18.5004 14.6624V17.527L16.0139 18.9596Z"
      fill="white" />
  </g>
  <defs>
    <clipPath id="clip0_2074_498">
      <rect width="24" height="22.3256" fill="white" transform="translate(4 4.83691)" />
    </clipPath>
  </defs>
</svg>