<svg width="32" height="32" viewBox="0 0 32 32" fill="none" xmlns="http://www.w3.org/2000/svg">
  <g clip-path="url(#clip0_2067_12725)">
    <path fill-rule="evenodd" clip-rule="evenodd"
      d="M16.0086 5.11719L18.5641 6.52527L18.4813 6.6748L15.9258 5.26671L16.0086 5.11719Z" fill="#0B0C0E" />
    <path
      d="M15.9752 5.52042C16.1643 5.52042 16.3176 5.36747 16.3176 5.17879C16.3176 4.99011 16.1643 4.83716 15.9752 4.83716C15.7861 4.83716 15.6328 4.99011 15.6328 5.17879C15.6328 5.36747 15.7861 5.52042 15.9752 5.52042Z"
      fill="#0B0C0E" />
    <path
      d="M18.5221 6.94168C18.7112 6.94168 18.8645 6.78873 18.8645 6.60005C18.8645 6.41138 18.7112 6.25842 18.5221 6.25842C18.333 6.25842 18.1797 6.41138 18.1797 6.60005C18.1797 6.78873 18.333 6.94168 18.5221 6.94168Z"
      fill="#0B0C0E" />
    <path fill-rule="evenodd" clip-rule="evenodd"
      d="M16.0088 5.26638L13.4527 6.69326L13.3691 6.54419L15.9253 5.11731L16.0088 5.26638Z" fill="#0B0C0E" />
    <path
      d="M13.4108 6.94168C13.5999 6.94168 13.7532 6.78873 13.7532 6.60005C13.7532 6.41138 13.5999 6.25842 13.4108 6.25842C13.2217 6.25842 13.0684 6.41138 13.0684 6.60005C13.0684 6.78873 13.2217 6.94168 13.4108 6.94168Z"
      fill="#0B0C0E" />
    <path fill-rule="evenodd" clip-rule="evenodd"
      d="M15.9258 26.7333L18.4813 25.3247L18.5641 25.4742L16.0086 26.8829L15.9258 26.7333Z" fill="#0B0C0E" />
    <path
      d="M15.9752 27.1628C16.1643 27.1628 16.3176 27.0098 16.3176 26.8211C16.3176 26.6324 16.1643 26.4795 15.9752 26.4795C15.7861 26.4795 15.6328 26.6324 15.6328 26.8211C15.6328 27.0098 15.7861 27.1628 15.9752 27.1628Z"
      fill="#0B0C0E" />
    <path
      d="M18.5221 25.741C18.7112 25.741 18.8645 25.5881 18.8645 25.3994C18.8645 25.2107 18.7112 25.0577 18.5221 25.0577C18.333 25.0577 18.1797 25.2107 18.1797 25.3994C18.1797 25.5881 18.333 25.741 18.5221 25.741Z"
      fill="#0B0C0E" />
    <path fill-rule="evenodd" clip-rule="evenodd"
      d="M15.9253 26.8825L13.3691 25.4556L13.4527 25.3065L16.0088 26.7334L15.9253 26.8825Z" fill="#0B0C0E" />
    <path
      d="M13.4108 25.741C13.5999 25.741 13.7532 25.5881 13.7532 25.3994C13.7532 25.2107 13.5999 25.0577 13.4108 25.0577C13.2217 25.0577 13.0684 25.2107 13.0684 25.3994C13.0684 25.5881 13.2217 25.741 13.4108 25.741Z"
      fill="#0B0C0E" />
    <path fill-rule="evenodd" clip-rule="evenodd"
      d="M6.5293 10.5451L9.02603 9.03455L9.1148 9.18061L6.61807 10.6912L6.5293 10.5451Z" fill="#0B0C0E" />
    <path
      d="M6.56604 10.9461C6.75514 10.9461 6.90845 10.7931 6.90845 10.6044C6.90845 10.4158 6.75514 10.2628 6.56604 10.2628C6.37693 10.2628 6.22363 10.4158 6.22363 10.6044C6.22363 10.7931 6.37693 10.9461 6.56604 10.9461Z"
      fill="#0B0C0E" />
    <path
      d="M4.59241 9.81534C4.78152 9.81534 4.93482 9.66239 4.93482 9.47371C4.93482 9.28503 4.78152 9.13208 4.59241 9.13208C4.4033 9.13208 4.25 9.28503 4.25 9.47371C4.25 9.66239 4.4033 9.81534 4.59241 9.81534Z"
      fill="#0B0C0E" />
    <path
      d="M9.06995 9.44925C9.25906 9.44925 9.41236 9.2963 9.41236 9.10762C9.41236 8.91894 9.25906 8.76599 9.06995 8.76599C8.88084 8.76599 8.72754 8.91894 8.72754 9.10762C8.72754 9.2963 8.88084 9.44925 9.06995 9.44925Z"
      fill="#0B0C0E" />
    <path fill-rule="evenodd" clip-rule="evenodd"
      d="M6.65937 10.6192L6.62627 13.5407L6.45508 13.5388L6.48818 10.6173L6.65937 10.6192Z" fill="#0B0C0E" />
    <path
      d="M6.52405 13.8722C6.71316 13.8722 6.86646 13.7193 6.86646 13.5306C6.86646 13.342 6.71316 13.189 6.52405 13.189C6.33494 13.189 6.18164 13.342 6.18164 13.5306C6.18164 13.7193 6.33494 13.8722 6.52405 13.8722Z"
      fill="#0B0C0E" />
    <path fill-rule="evenodd" clip-rule="evenodd"
      d="M4.57451 9.37463L6.61584 10.5441L6.53059 10.6923L4.48926 9.52276L4.57451 9.37463Z" fill="#0B0C0E" />
    <path fill-rule="evenodd" clip-rule="evenodd"
      d="M25.2754 21.3804L25.3245 18.468L25.4956 18.4709L25.4466 21.3833L25.2754 21.3804Z" fill="#0B0C0E" />
    <path
      d="M25.3756 21.7234C25.5647 21.7234 25.718 21.5704 25.718 21.3818C25.718 21.1931 25.5647 21.0402 25.3756 21.0402C25.1865 21.0402 25.0332 21.1931 25.0332 21.3818C25.0332 21.5704 25.1865 21.7234 25.3756 21.7234Z"
      fill="#0B0C0E" />
    <path
      d="M27.3493 22.8537C27.5384 22.8537 27.6917 22.7008 27.6917 22.512C27.6917 22.3234 27.5384 22.1704 27.3493 22.1704C27.1602 22.1704 27.0068 22.3234 27.0068 22.512C27.0068 22.7008 27.1602 22.8537 27.3493 22.8537Z"
      fill="#0B0C0E" />
    <path
      d="M25.4098 18.8109C25.5989 18.8109 25.7522 18.658 25.7522 18.4693C25.7522 18.2806 25.5989 18.1277 25.4098 18.1277C25.2207 18.1277 25.0674 18.2806 25.0674 18.4693C25.0674 18.658 25.2207 18.8109 25.4098 18.8109Z"
      fill="#0B0C0E" />
    <path fill-rule="evenodd" clip-rule="evenodd"
      d="M25.4044 21.455L22.8917 22.9559L22.8037 22.8094L25.3165 21.3085L25.4044 21.455Z" fill="#0B0C0E" />
    <path
      d="M22.8639 23.2341C23.053 23.2341 23.2063 23.0811 23.2063 22.8924C23.2063 22.7038 23.053 22.5508 22.8639 22.5508C22.6747 22.5508 22.5215 22.7038 22.5215 22.8924C22.5215 23.0811 22.6747 23.2341 22.8639 23.2341Z"
      fill="#0B0C0E" />
    <path fill-rule="evenodd" clip-rule="evenodd"
      d="M27.3597 22.6254L25.3184 21.4559L25.4036 21.3077L27.4449 22.4773L27.3597 22.6254Z" fill="#0B0C0E" />
    <path fill-rule="evenodd" clip-rule="evenodd"
      d="M6.50955 21.421L6.4502 18.5086L6.62137 18.5051L6.68072 21.4176L6.50955 21.421Z" fill="#0B0C0E" />
    <path
      d="M6.57874 21.761C6.76784 21.761 6.92115 21.608 6.92115 21.4193C6.92115 21.2307 6.76784 21.0778 6.57874 21.0778C6.38963 21.0778 6.23633 21.2307 6.23633 21.4193C6.23633 21.608 6.38963 21.761 6.57874 21.761Z"
      fill="#0B0C0E" />
    <path
      d="M4.60999 22.8986C4.79909 22.8986 4.95239 22.7456 4.95239 22.557C4.95239 22.3683 4.79909 22.2153 4.60999 22.2153C4.42088 22.2153 4.26758 22.3683 4.26758 22.557C4.26758 22.7456 4.42088 22.8986 4.60999 22.8986Z"
      fill="#0B0C0E" />
    <path
      d="M6.53577 18.8486C6.72488 18.8486 6.87817 18.6956 6.87817 18.5069C6.87817 18.3183 6.72488 18.1653 6.53577 18.1653C6.34666 18.1653 6.19336 18.3183 6.19336 18.5069C6.19336 18.6956 6.34666 18.8486 6.53577 18.8486Z"
      fill="#0B0C0E" />
    <path fill-rule="evenodd" clip-rule="evenodd"
      d="M6.6382 21.3458L9.15604 22.8376L9.06863 22.9845L6.55078 21.4927L6.6382 21.3458Z" fill="#0B0C0E" />
    <path
      d="M9.09632 23.2625C9.28542 23.2625 9.43873 23.1096 9.43873 22.9209C9.43873 22.7322 9.28542 22.5792 9.09632 22.5792C8.90721 22.5792 8.75391 22.7322 8.75391 22.9209C8.75391 23.1096 8.90721 23.2625 9.09632 23.2625Z"
      fill="#0B0C0E" />
    <path fill-rule="evenodd" clip-rule="evenodd"
      d="M4.51465 22.5224L6.55141 21.3455L6.63721 21.4933L4.60045 22.6702L4.51465 22.5224Z" fill="#0B0C0E" />
    <path fill-rule="evenodd" clip-rule="evenodd"
      d="M25.2988 10.66L22.7969 9.15908L22.8851 9.0127L25.387 10.5136L25.2988 10.66Z" fill="#0B0C0E" />
    <path
      d="M25.3502 10.9153C25.5393 10.9153 25.6927 10.7624 25.6927 10.5737C25.6927 10.385 25.5393 10.2321 25.3502 10.2321C25.1611 10.2321 25.0078 10.385 25.0078 10.5737C25.0078 10.7624 25.1611 10.9153 25.3502 10.9153Z"
      fill="#0B0C0E" />
    <path
      d="M27.32 9.77774C27.5091 9.77774 27.6623 9.62479 27.6623 9.43611C27.6623 9.24744 27.5091 9.09448 27.32 9.09448C27.1308 9.09448 26.9775 9.24744 26.9775 9.43611C26.9775 9.62479 27.1308 9.77774 27.32 9.77774Z"
      fill="#0B0C0E" />
    <path
      d="M22.8414 9.42753C23.0305 9.42753 23.1838 9.27457 23.1838 9.08589C23.1838 8.89722 23.0305 8.74426 22.8414 8.74426C22.6523 8.74426 22.499 8.89722 22.499 9.08589C22.499 9.27457 22.6523 9.42753 22.8414 9.42753Z"
      fill="#0B0C0E" />
    <path fill-rule="evenodd" clip-rule="evenodd"
      d="M25.428 10.5854L25.4714 13.5075L25.3002 13.51L25.2568 10.588L25.428 10.5854Z" fill="#0B0C0E" />
    <path
      d="M25.402 13.8408C25.5911 13.8408 25.7444 13.6879 25.7444 13.4992C25.7444 13.3105 25.5911 13.1576 25.402 13.1576C25.2129 13.1576 25.0596 13.3105 25.0596 13.4992C25.0596 13.6879 25.2129 13.8408 25.402 13.8408Z"
      fill="#0B0C0E" />
    <path fill-rule="evenodd" clip-rule="evenodd"
      d="M27.4223 9.48426L25.3856 10.6606L25.2998 10.5128L27.3366 9.33643L27.4223 9.48426Z" fill="#0B0C0E" />
    <path d="M18.5576 11.1482L15.957 9.65015L13.3564 11.1482L15.957 12.6462L18.5576 11.1482Z" fill="#0B0C0E" />
    <path d="M15.957 15.6425V12.6464L13.3564 11.1483V14.1444L15.957 15.6425Z" fill="white" />
    <path d="M15.957 15.6425V12.6464L18.5576 11.1483V14.1444L15.957 15.6425Z" fill="white" />
    <path
      d="M15.9565 9.58459L13.2988 11.1156V14.1773L15.9565 15.7084L18.6142 14.1773V11.1156L15.9565 9.58459ZM18.443 11.1481L15.9565 12.5807L13.4701 11.1487L15.9565 9.71612L18.443 11.1481ZM13.413 11.2466L15.8994 12.6786V15.5432L13.413 14.1106V11.2466ZM16.0136 15.5432V12.6786L18.5 11.2461V14.1106L16.0136 15.5432Z"
      fill="white" />
    <path d="M15.7041 16.1588L13.1035 14.6608L10.5029 16.1588L13.1035 17.6569L15.7041 16.1588Z" fill="white" />
    <path d="M13.1035 20.653V17.6569L10.5029 16.1588V19.1549L13.1035 20.653Z" fill="#0B0C0E" />
    <path d="M13.1035 20.653V17.6569L15.7042 16.1588V19.1549L13.1035 20.653Z" fill="white" />
    <path
      d="M13.103 14.5952L10.4453 16.1262V19.1879L13.103 20.7189L15.7606 19.1879V16.1262L13.103 14.5952ZM15.5895 16.1587L13.103 17.5913L10.6165 16.1593L13.103 14.7267L15.5895 16.1587ZM10.5595 16.2572L13.0459 17.6892V20.5538L10.5595 19.1212V16.2566V16.2572ZM13.16 20.5538V17.6892L15.6465 16.2566V19.1212L13.16 20.5538Z"
      fill="white" />
    <path d="M21.4112 16.1588L18.8106 14.6608L16.21 16.1588L18.8106 17.6569L21.4112 16.1588Z" fill="white" />
    <path d="M18.8106 20.653V17.6569L16.21 16.1588V19.1549L18.8106 20.653Z" fill="white" />
    <path d="M18.8105 20.653V17.6569L21.4111 16.1588V19.1549L18.8105 20.653Z" fill="#0B0C0E" />
    <path
      d="M18.811 14.5952L16.1533 16.1262V19.1879L18.811 20.7189L21.4687 19.1879V16.1262L18.811 14.5952ZM21.2975 16.1587L18.811 17.5913L16.3246 16.1593L18.811 14.7267L21.2975 16.1587ZM16.2675 16.2572L18.7539 17.6892V20.5538L16.2675 19.1218V16.2572ZM18.8681 20.5544V17.6898L21.3545 16.2572V19.1218L18.8681 20.5544Z"
      fill="white" />
    <path d="M21.4112 12.8563L18.8106 11.3583L16.21 12.8563L18.8106 14.3544L21.4112 12.8563Z" fill="#0B0C0E" />
    <path d="M18.8106 17.3505V14.3544L16.21 12.8563V15.8524L18.8106 17.3505Z" fill="white" />
    <path d="M18.8105 17.3505V14.3544L21.4111 12.8563V15.8524L18.8105 17.3505Z" fill="#0B0C0E" />
    <path
      d="M18.811 11.2928L16.1533 12.8239V15.8855L18.811 17.4166L21.4687 15.8855V12.8239L18.811 11.2928ZM21.2975 12.8564L18.811 14.2889L16.3246 12.857L18.811 11.4244L21.2975 12.857V12.8564ZM16.2675 12.9549L18.7539 14.3869V17.2515L16.2675 15.8195V12.9549ZM18.8681 17.252V14.3875L21.3545 12.9549V15.8195L18.8681 17.252Z"
      fill="white" />
    <path d="M15.7041 12.8563L13.1035 11.3583L10.5029 12.8563L13.1035 14.3544L15.7041 12.8563Z" fill="#0B0C0E" />
    <path d="M13.1035 17.3505V14.3544L10.5029 12.8563V15.8524L13.1035 17.3505Z" fill="#0B0C0E" />
    <path d="M13.1035 17.3505V14.3544L15.7042 12.8563V15.8524L13.1035 17.3505Z" fill="white" />
    <path
      d="M13.103 11.2928L10.4453 12.8239V15.8855L13.103 17.4166L15.7606 15.8855V12.8239L13.103 11.2928ZM15.5895 12.8564L13.103 14.2889L10.6165 12.857L13.103 11.4244L15.5895 12.857V12.8564ZM10.5595 12.9549L13.0459 14.3869V17.2515L10.5595 15.8189V12.9543V12.9549ZM13.16 17.2515V14.3869L15.6465 12.9543V15.8189L13.16 17.2515Z"
      fill="white" />
    <path d="M18.5576 17.8099L15.957 16.3119L13.3564 17.8099L15.957 19.308L18.5576 17.8099Z" fill="white" />
    <path d="M15.957 22.3041V19.308L13.3564 17.8099V20.806L15.957 22.3041Z" fill="#0B0C0E" />
    <path d="M15.957 22.3041V19.308L18.5576 17.8099V20.806L15.957 22.3041Z" fill="#0B0C0E" />
    <path
      d="M15.9565 16.2465L13.2988 17.7775V20.8391L15.9565 22.3701L18.6142 20.8391V17.7775L15.9565 16.2465ZM18.443 17.81L15.9565 19.2426L13.4701 17.8105L15.9565 16.378L18.443 17.81ZM13.413 17.9085L15.8994 19.3405V22.205L13.413 20.773V17.9085ZM16.0136 22.2056V19.3411L18.5 17.9085V20.773L16.0136 22.2056Z"
      fill="white" />
    <path d="M18.5576 14.5645L15.957 13.0664L13.3564 14.5645L15.957 16.0626L18.5576 14.5645Z" fill="#0B0C0E" />
    <path d="M15.957 19.0588V16.0626L13.3564 14.5646V17.5607L15.957 19.0588Z" fill="#0B0C0E" />
    <path d="M15.957 19.0588V16.0626L18.5576 14.5646V17.5607L15.957 19.0588Z" fill="#0B0C0E" />
    <path
      d="M15.9565 19.1246L13.2988 17.5935V14.5319L15.9565 13.0009L18.6142 14.5319V17.5935L15.9565 19.1246ZM13.413 17.528L15.9565 18.993L18.5 17.528V14.5974L15.9565 13.1324L13.413 14.5974V17.528Z"
      fill="white" />
    <path d="M13.3852 14.5166L13.3281 14.6152L15.9287 16.1133L15.9858 16.0147L13.3852 14.5166Z" fill="white" />
    <path d="M18.5306 14.5212L15.9297 16.0188L15.9867 16.1175L18.5876 14.6199L18.5306 14.5212Z" fill="white" />
    <path d="M16.0136 16.0625H15.8994V19.0586H16.0136V16.0625Z" fill="white" />
    <path d="M24.2131 11.1238L16.082 6.44006V9.39859L21.645 12.6031L24.2131 11.1238Z" fill="#0B0C0E" />
    <path
      d="M16.1962 6.63691L23.9854 11.1237L21.6456 12.4714L16.1962 9.33237V6.63691ZM16.082 6.4399V9.39842L21.6456 12.6029L24.2137 11.1237L16.082 6.43933V6.4399Z"
      fill="#0B0C0E" />
    <path d="M10.2741 12.6121L15.8537 9.39847V6.43994L7.70605 11.1328L10.2741 12.6121Z" fill="#0B0C0E" />
    <path
      d="M15.739 6.63695V9.33242L10.2741 12.4805L7.93433 11.1328L15.739 6.63695ZM15.8531 6.43994L7.70605 11.1328L10.2741 12.6121L15.8531 9.39847V6.43994Z"
      fill="#0B0C0E" />
    <path d="M21.7539 12.8028V19.2255L24.322 20.7047V11.3235L21.7539 12.8028Z" fill="#0B0C0E" />
    <path
      d="M24.2078 11.5211V20.5077L21.868 19.1599V12.8688L24.2078 11.5211ZM24.322 11.3241L21.7539 12.8033V19.2255L24.322 20.7047V11.3235V11.3241Z"
      fill="#0B0C0E" />
    <path d="M10.1804 12.821L7.6123 11.3418V20.6865L10.1804 19.2073V12.821Z" fill="#0B0C0E" />
    <path
      d="M7.72644 11.5388L10.0662 12.8865V19.1412L7.72644 20.4889V11.5388ZM7.6123 11.3418V20.6865L10.1804 19.2073V12.821L7.6123 11.3418Z"
      fill="#0B0C0E" />
    <path d="M7.73047 20.8813L15.853 25.5599V22.6013L10.2985 19.402L7.73047 20.8813Z" fill="#0B0C0E" />
    <path
      d="M10.2985 19.5335L15.7388 22.6674V25.3629L7.95874 20.8813L10.2985 19.5335ZM10.2985 19.402L7.73047 20.8813L15.853 25.5599V22.6013L10.2985 19.402Z"
      fill="#0B0C0E" />
    <path d="M16.082 22.6014V25.5599L24.1886 20.8904L21.6205 19.4111L16.082 22.6014Z" fill="#0B0C0E" />
    <path
      d="M21.6201 19.5426L23.9599 20.8904L16.1952 25.3629V22.6674L21.6201 19.5426ZM21.6201 19.4111L16.0811 22.602V25.5605L24.1881 20.8904L21.6201 19.4111Z"
      fill="#0B0C0E" />
    <path d="M18.5576 14.5645L15.957 13.0664L13.3564 14.5645L15.957 16.0626L18.5576 14.5645Z" fill="#0B0C0E" />
    <path d="M15.957 19.0588V16.0626L13.3564 14.5646V17.5607L15.957 19.0588Z" fill="#0B0C0E" />
    <path d="M15.957 19.0588V16.0626L18.5576 14.5646V17.5607L15.957 19.0588Z" fill="#0B0C0E" />
    <path
      d="M15.9565 13.0009L13.2988 14.5319V17.5935L15.9565 19.1246L18.6142 17.5935V14.5319L15.9565 13.0009ZM18.443 14.5644L15.9565 15.9969L13.4701 14.565L15.9565 13.1324L18.443 14.565V14.5644ZM13.413 14.6629L15.8994 16.0949V18.9595L13.413 17.5269V14.6629ZM16.0136 18.9595V16.0949L18.5 14.6623V17.5269L16.0136 18.9595Z"
      fill="white" />
  </g>
  <defs>
    <clipPath id="clip0_2067_12725">
      <rect width="24" height="22.3256" fill="white" transform="translate(4 4.83716)" />
    </clipPath>
  </defs>
</svg>