<svg xmlns="http://www.w3.org/2000/svg" width="26" height="30" viewBox="0 0 26 30" fill="none">
  <path
    d="M4.66916 22.7222H5.16916V22.2222V1.66667C5.16916 1.02059 5.68975 0.5 6.33583 0.5C6.98191 0.5 7.5025 1.02059 7.5025 1.66667V22.2222V22.7222H8.0025H10.7803C11.2554 22.7222 11.6837 23.011 11.8622 23.4455C12.0405 23.8796 11.9408 24.3768 11.6045 24.7131L7.16006 29.1576C7.07033 29.2473 6.97235 29.32 6.8594 29.3778H6.84803L6.75657 29.4154C6.62336 29.4703 6.48784 29.5 6.33583 29.5C6.18382 29.5 6.0483 29.4703 5.91509 29.4154L5.82363 29.3778H5.81648C5.70004 29.3166 5.59633 29.2423 5.5116 29.1576L1.06716 24.7131L1.06719 24.7131L1.06298 24.709C0.728836 24.3826 0.623498 23.8796 0.806514 23.4525C0.997502 23.0069 1.4214 22.7222 1.89139 22.7222H4.66916ZM24.9378 5.28689L24.9378 5.28691L24.942 5.29102C25.2704 5.61181 25.3745 6.11466 25.197 6.55099C25.0053 6.99462 24.5824 7.27778 24.1136 7.27778H21.3358H20.8358V7.77778V28.3333C20.8358 28.9794 20.3152 29.5 19.6692 29.5C19.0231 29.5 18.5025 28.9794 18.5025 28.3333V7.77778V7.27778H18.0025H15.2247C14.7496 7.27778 14.3213 6.98901 14.1428 6.55448C13.9645 6.12037 14.0641 5.62324 14.4005 5.28689L18.8449 0.842442C18.9347 0.752716 19.0326 0.680024 19.1456 0.622222H19.157L19.2484 0.584561C19.3816 0.529711 19.5172 0.5 19.6692 0.5C19.8212 0.5 19.9567 0.529711 20.0899 0.584561L20.1814 0.622222H20.1885C20.3049 0.683358 20.4087 0.757714 20.4934 0.842442L24.9378 5.28689Z"
    fill="#0B0C0E" stroke="#0B0C0E" />
</svg>