<svg width="32" height="32" viewBox="0 0 32 32" fill="none" xmlns="http://www.w3.org/2000/svg">
  <path
    d="M8.05576 7.61049C11.7439 4.26812 17.2694 3.46713 21.7516 5.99395C25.3156 8.06462 27.5 11.8588 27.5 16C27.5 16.2464 27.4201 16.4128 27.3164 16.5164C27.2128 16.6201 27.0464 16.7 26.8 16.7C26.5536 16.7 26.3872 16.6201 26.2836 16.5164C26.1799 16.4128 26.1 16.2464 26.1 16C26.1 10.4439 21.5561 5.9 16 5.9C13.2235 5.9 10.5709 7.03593 8.67523 9.05803L7.88588 9.9H9.04H11.92C12.1664 9.9 12.3328 9.97994 12.4364 10.0836C12.5401 10.1872 12.62 10.3536 12.62 10.6C12.62 10.8464 12.5401 11.0128 12.4364 11.1164C12.3328 11.2201 12.1664 11.3 11.92 11.3H6.52C6.27362 11.3 6.10716 11.2201 6.00355 11.1164C5.89994 11.0128 5.82 10.8464 5.82 10.6V5.2C5.82 4.95362 5.89994 4.78716 6.00355 4.68355C6.10716 4.57994 6.27362 4.5 6.52 4.5C6.76638 4.5 6.93284 4.57994 7.03645 4.68355C7.14006 4.78716 7.22 4.95362 7.22 5.2V7.24V8.3679L8.05576 7.61049ZM23.3248 22.942L24.1141 22.1H22.96H20.08C19.8336 22.1 19.6672 22.0201 19.5636 21.9164C19.4599 21.8128 19.38 21.6464 19.38 21.4C19.38 21.1536 19.4599 20.9872 19.5636 20.8836C19.6672 20.7799 19.8336 20.7 20.08 20.7H25.48C25.8369 20.7 26.18 20.9881 26.18 21.4V26.8C26.18 27.0464 26.1001 27.2128 25.9964 27.3164C25.8928 27.4201 25.7264 27.5 25.48 27.5C25.2336 27.5 25.0672 27.4201 24.9636 27.3164C24.8599 27.2128 24.78 27.0464 24.78 26.8V24.64V23.4776L23.9361 24.277C21.7444 26.3534 18.9859 27.5 16 27.5C9.67614 27.5 4.5 22.3239 4.5 16C4.5 15.7536 4.57994 15.5872 4.68355 15.4836C4.78716 15.3799 4.95362 15.3 5.2 15.3C5.44638 15.3 5.61284 15.3799 5.71645 15.4836C5.82006 15.5872 5.9 15.7536 5.9 16C5.9 21.5561 10.4439 26.1 16 26.1C18.7765 26.1 21.4291 24.9641 23.3248 22.942ZM16 12.9C17.7639 12.9 19.1 14.2361 19.1 16C19.1 17.7639 17.7639 19.1 16 19.1C14.2361 19.1 12.9 17.7639 12.9 16C12.9 14.2361 14.2361 12.9 16 12.9Z"
    fill="#0B0C0E" stroke="#0B0C0E" />
</svg>