<svg width="32" height="32" viewBox="0 0 32 32" fill="none" xmlns="http://www.w3.org/2000/svg">
  <path
    d="M27.3931 18.7605L27.4057 18.7981C27.4981 19.0753 27.5 19.2446 27.5 19.6V24.4C27.5 26.1639 26.1639 27.5 24.4 27.5H7.6C5.83614 27.5 4.5 26.1639 4.5 24.4V19.6C4.5 19.2446 4.50194 19.0753 4.59434 18.7981L4.60688 18.7605L4.61333 18.7214L6.53133 7.09352C6.85115 5.62501 8.10391 4.5 9.64 4.5H22.36C23.9267 4.5 25.2624 5.65211 25.465 7.07071L25.4649 7.07073L25.4667 7.08137L27.3867 18.7214L27.3931 18.7605ZM6.28645 18.6464L6.14 18.7929V18.8661C6.12986 18.8802 6.11968 18.8954 6.11 18.9115C6.09125 18.9428 6.07507 18.9758 6.06182 19.0105C5.89929 19.2416 5.89976 19.4747 5.89998 19.5883C5.89999 19.5923 5.9 19.5962 5.9 19.6V24.4C5.9 24.8736 6.06006 25.3072 6.37645 25.6236C6.69284 25.9399 7.12638 26.1 7.6 26.1H24.4C24.8736 26.1 25.3072 25.9399 25.6236 25.6236C25.9399 25.3072 26.1 24.8736 26.1 24.4V19.72C26.1 19.6081 26.0723 19.5155 26.0494 19.4544C26.0287 19.3991 26.0031 19.3482 25.9897 19.3213L25.9872 19.3164C25.9829 19.3079 25.9796 19.3012 25.9769 19.2957C25.9674 19.1984 25.9367 19.1094 25.89 19.0315C25.8729 19.0031 25.8543 18.9776 25.8371 18.9561L25.8072 18.8964C25.7321 18.7462 25.6435 18.6064 25.5186 18.4814C25.4421 18.405 25.36 18.3421 25.2735 18.2876C25.2042 18.1862 25.1166 18.1243 25.0436 18.0878C25.0274 18.0797 25.0115 18.0726 24.996 18.0664C24.7627 17.8993 24.5263 17.8998 24.4117 17.9C24.4077 17.9 24.4038 17.9 24.4 17.9H7.6C7.48809 17.9 7.3955 17.9277 7.33444 17.9506C7.27908 17.9713 7.22821 17.9968 7.20131 18.0103L7.19639 18.0128C7.19085 18.0156 7.1861 18.0179 7.18193 18.02H6.74V18.2482C6.70003 18.2716 6.66648 18.2951 6.64 18.315C6.55084 18.3819 6.46877 18.464 6.41494 18.518C6.41202 18.5209 6.40919 18.5237 6.40645 18.5264L6.28645 18.6464ZM6.23075 18.7621C6.23266 18.76 6.23378 18.7588 6.23383 18.7588C6.23388 18.7588 6.23294 18.7598 6.23075 18.7621ZM25.7662 18.8788C25.7663 18.8789 25.7674 18.88 25.7693 18.8821C25.767 18.8798 25.7661 18.8787 25.7662 18.8788ZM21.3 22C21.3 21.7536 21.3799 21.5872 21.4836 21.4836C21.5872 21.3799 21.7536 21.3 22 21.3C22.2464 21.3 22.4128 21.3799 22.5164 21.4836C22.6201 21.5872 22.7 21.7536 22.7 22C22.7 22.2464 22.6201 22.4128 22.5164 22.5164C22.4128 22.6201 22.2464 22.7 22 22.7C21.7536 22.7 21.5872 22.6201 21.4836 22.5164C21.3799 22.4128 21.3 22.2464 21.3 22Z"
    fill="#0B0C0E" stroke="#0B0C0E" />
</svg>