<svg width="32" height="32" viewBox="0 0 32 32" fill="none" xmlns="http://www.w3.org/2000/svg">
  <path
    d="M9.8284 10.7457C9.58366 10.7457 9.34442 10.8183 9.14094 10.9543C8.93745 11.0903 8.77885 11.2836 8.6852 11.5097C8.59154 11.7358 8.56704 11.9846 8.61478 12.2246C8.66252 12.4646 8.78036 12.6851 8.95341 12.8582L13.9371 17.8406C14.0167 17.916 14.0707 18.0144 14.0915 18.122C14.1124 18.2296 14.099 18.341 14.0533 18.4406C14.0147 18.5436 13.9446 18.6318 13.8531 18.6928C13.7616 18.7538 13.6533 18.7845 13.5434 18.7806C13.4708 18.7806 13.3991 18.7662 13.3321 18.7383C13.2652 18.7104 13.2044 18.6696 13.1534 18.6181L6.16845 11.6357C5.88833 11.3537 5.55507 11.1301 5.18796 10.9778C4.82085 10.8255 4.42718 10.7474 4.02972 10.7482C3.39598 10.7482 2.79224 10.9382 2.286 11.2932C1.81709 11.6261 1.4517 12.0846 1.23189 12.616C1.01208 13.1474 0.946783 13.7301 1.04351 14.2969C1.14851 14.9057 1.44351 15.4644 1.891 15.9132L3.81223 17.8369C4.04097 18.0656 3.98723 18.3106 3.93473 18.4369C3.89607 18.5403 3.82594 18.629 3.73422 18.6904C3.6425 18.7518 3.53382 18.783 3.42348 18.7794H2.55474C2.22721 18.7794 1.91308 18.9095 1.68148 19.1411C1.44987 19.3727 1.31976 19.6868 1.31976 20.0144C1.31976 20.3419 1.44987 20.656 1.68148 20.8876C1.91308 21.1192 2.22721 21.2493 2.55474 21.2493H3.43598C4.06972 21.2493 4.66972 21.0631 5.17721 20.7081C5.64588 20.3744 6.01103 19.9154 6.23079 19.3837C6.45054 18.852 6.51602 18.2691 6.41969 17.7019C6.31165 17.0883 6.01549 16.5235 5.5722 16.0857L3.64723 14.1607C3.56622 14.0855 3.51101 13.9867 3.48946 13.8782C3.46792 13.7698 3.48113 13.6574 3.52723 13.5569C3.56592 13.454 3.63595 13.3658 3.72746 13.3048C3.81896 13.2438 3.92732 13.2131 4.03722 13.2169C4.18222 13.2169 4.31972 13.2732 4.42472 13.3794L11.4096 20.3631C11.6898 20.6451 12.023 20.8687 12.3901 21.021C12.7572 21.1734 13.1509 21.2514 13.5484 21.2506C14.0401 21.2556 14.5254 21.1385 14.9609 20.9099C15.3963 20.6813 15.7682 20.3482 16.0433 19.9406L16.4708 20.3656C16.7506 20.6477 17.0836 20.8715 17.4505 21.0241C17.8174 21.1766 18.2109 21.2549 18.6083 21.2543H18.6708C19.293 21.2571 19.9008 21.0672 20.4108 20.7106C20.8783 20.3794 21.2408 19.9219 21.4632 19.3869C21.6832 18.8494 21.7532 18.2669 21.6532 17.7044C21.5456 17.0909 21.2498 16.5261 20.807 16.0882L18.8808 14.1644C18.8 14.0893 18.745 13.9907 18.7235 13.8826C18.7019 13.7744 18.715 13.6622 18.7608 13.5619C18.7994 13.4587 18.8693 13.3702 18.9608 13.3088C19.0522 13.2474 19.1606 13.2161 19.2708 13.2194H20.587C20.5187 13.5751 20.5153 13.9401 20.577 14.2969C20.682 14.9057 20.977 15.4644 21.4245 15.9132L25.8769 20.3656C26.157 20.6477 26.4902 20.8716 26.8573 21.0241C27.2244 21.1767 27.6181 21.2549 28.0157 21.2543C29.6606 21.2543 31.0031 19.9169 30.9994 18.2681C31.0046 18.1024 30.9766 17.9373 30.9168 17.7826C30.857 17.628 30.7667 17.4869 30.6513 17.3678C30.536 17.2487 30.3978 17.154 30.2451 17.0893C30.0925 17.0246 29.9283 16.9913 29.7625 16.9913C29.5967 16.9913 29.4326 17.0246 29.2799 17.0893C29.1272 17.154 28.9891 17.2487 28.8737 17.3678C28.7583 17.4869 28.6681 17.628 28.6083 17.7826C28.5485 17.9373 28.5204 18.1024 28.5257 18.2681C28.5257 18.4035 28.472 18.5334 28.3764 18.6292C28.2808 18.725 28.151 18.779 28.0157 18.7794C27.9435 18.7793 27.8721 18.7649 27.8056 18.737C27.7391 18.7091 27.6788 18.6683 27.6282 18.6169L23.1745 14.1644C23.0938 14.0893 23.0388 13.9907 23.017 13.8827C22.9953 13.7746 23.008 13.6624 23.0532 13.5619C23.0918 13.4587 23.1618 13.3702 23.2532 13.3088C23.3447 13.2474 23.4531 13.2161 23.5632 13.2194H24.3045C24.632 13.2194 24.9461 13.0893 25.1777 12.8577C25.4093 12.6261 25.5394 12.312 25.5394 11.9845C25.5394 11.6569 25.4093 11.3428 25.1777 11.1112C24.9461 10.8796 24.632 10.7495 24.3045 10.7495H19.2708C18.637 10.7495 18.0345 10.937 17.5283 11.2932C17.0594 11.6261 16.694 12.0846 16.4742 12.616C16.2544 13.1474 16.1891 13.7301 16.2858 14.2969C16.3908 14.9057 16.6846 15.4644 17.1321 15.9132L19.0533 17.8381C19.1343 17.9133 19.1895 18.0122 19.211 18.1206C19.2326 18.229 19.2194 18.3414 19.1733 18.4419C19.135 18.5445 19.0654 18.6325 18.9743 18.6933C18.8832 18.7541 18.7752 18.7846 18.6658 18.7806H18.6033C18.5311 18.781 18.4596 18.7671 18.3929 18.7396C18.3261 18.7122 18.2655 18.6717 18.2145 18.6206L15.6871 16.0957L15.6821 16.0882L10.7021 11.1107C10.4702 10.8783 10.1555 10.7475 9.82715 10.747L9.8284 10.7457ZM4.02847 11.8295C4.54847 11.8295 5.03596 12.0295 5.40346 12.3982L12.3909 19.3831C12.6996 19.6919 13.1096 19.8619 13.5459 19.8619C13.8699 19.8651 14.1875 19.7706 14.4571 19.5906C14.7266 19.4107 14.9357 19.1537 15.0571 18.8531C15.3133 18.2319 15.1821 17.5531 14.7058 17.0756L9.71965 12.0932C9.7049 12.0792 9.69315 12.0623 9.68513 12.0436C9.6771 12.0249 9.67296 12.0048 9.67296 11.9845C9.67296 11.9641 9.6771 11.944 9.68513 11.9253C9.69315 11.9066 9.7049 11.8897 9.71965 11.8757C9.78215 11.8132 9.8784 11.8132 9.93965 11.8757L17.4471 19.3831C17.7558 19.6919 18.1658 19.8619 18.602 19.8619H18.6645C18.9888 19.8653 19.3067 19.7709 19.5765 19.591C19.8463 19.411 20.0556 19.1539 20.177 18.8531C20.3035 18.555 20.3372 18.2257 20.2737 17.9081C20.2101 17.5906 20.0523 17.2996 19.8208 17.0731L17.8945 15.1482C17.6194 14.8786 17.4322 14.5322 17.3572 14.1544C17.2823 13.7765 17.3232 13.3849 17.4746 13.0307C17.6188 12.6735 17.8673 12.368 18.1877 12.1542C18.5081 11.9404 18.8856 11.8281 19.2708 11.832H24.3045C24.392 11.832 24.4595 11.8995 24.4595 11.9857C24.4595 12.0732 24.392 12.1395 24.3045 12.1395H23.5632C23.2389 12.136 22.9211 12.2304 22.6513 12.4104C22.3814 12.5903 22.1722 12.8475 22.0507 13.1482C21.9244 13.4464 21.8909 13.7758 21.9547 14.0934C22.0184 14.4109 22.1765 14.7019 22.4082 14.9282L26.8607 19.3831C27.1707 19.6919 27.5807 19.8619 28.0157 19.8619C28.8932 19.8619 29.6081 19.1481 29.6081 18.2706C29.6081 18.1831 29.6769 18.1156 29.7644 18.1156C29.8506 18.1156 29.9181 18.1831 29.9181 18.2706C29.918 18.5202 29.8686 18.7674 29.7729 18.9979C29.6772 19.2284 29.537 19.4379 29.3603 19.6142C29.1836 19.7905 28.974 19.9303 28.7432 20.0256C28.5125 20.1208 28.2653 20.1697 28.0157 20.1694C27.4969 20.1694 27.0094 19.9694 26.6407 19.6006L22.1882 15.1469C21.9134 14.8774 21.7263 14.5313 21.6513 14.1537C21.5764 13.7761 21.6172 13.3847 21.7682 13.0307C21.9169 12.6665 22.1723 12.3559 22.5007 12.1395H19.2708C18.9467 12.1362 18.6291 12.2308 18.3596 12.4107C18.09 12.5906 17.8809 12.8477 17.7595 13.1482C17.632 13.4459 17.5976 13.7753 17.6607 14.093C17.7238 14.4107 17.8816 14.7018 18.1133 14.9282L20.0395 16.8531C20.3146 17.1228 20.5019 17.4691 20.5768 17.847C20.6518 18.2248 20.6109 18.6164 20.4595 18.9706C20.3159 19.3277 20.0678 19.6332 19.7478 19.8471C19.4278 20.0609 19.0507 20.1733 18.6658 20.1694H18.602C18.0833 20.1694 17.5958 19.9694 17.2271 19.6006L15.4496 17.8256C15.5308 18.2006 15.4921 18.5931 15.3371 18.9706C15.1934 19.3277 14.9454 19.6332 14.6254 19.8471C14.3054 20.0609 13.9282 20.1733 13.5434 20.1694C13.0246 20.1694 12.5346 19.9694 12.1659 19.6006L5.18221 12.6157C5.03096 12.4634 4.85099 12.3427 4.65272 12.2605C4.45446 12.1783 4.24185 12.1363 4.02722 12.137C3.70291 12.1335 3.38509 12.2279 3.11527 12.4079C2.84545 12.5878 2.63616 12.845 2.51474 13.1457C2.38806 13.4437 2.35417 13.7729 2.4175 14.0905C2.48083 14.408 2.63844 14.6991 2.86974 14.9257L4.79471 16.8506C5.07002 17.1201 5.25754 17.4664 5.3327 17.8443C5.40787 18.2221 5.36718 18.6138 5.21596 18.9681C5.07225 19.3254 4.82402 19.631 4.50374 19.8449C4.18347 20.0588 3.80609 20.171 3.42098 20.1669H2.55474C2.46724 20.1669 2.401 20.0994 2.401 20.0131C2.401 19.9269 2.46849 19.8594 2.55474 19.8594H3.42348C3.74779 19.8628 4.06561 19.7684 4.33544 19.5885C4.60526 19.4085 4.81455 19.1514 4.93596 18.8506C5.06276 18.5527 5.09646 18.2234 5.03266 17.9059C4.96886 17.5884 4.81053 17.2977 4.57847 17.0719L2.65474 15.1457C2.38015 14.8763 2.19319 14.5303 2.11826 14.153C2.04333 13.7757 2.08393 13.3846 2.23475 13.0307C2.54099 12.2895 3.22598 11.8307 4.02972 11.8307L4.02847 11.8295Z"
    fill="#0B0C0E" />
</svg>