<svg xmlns="http://www.w3.org/2000/svg" width="30" height="12" viewBox="0 0 30 12" fill="none">
  <path
    d="M8.8284 0.746094C8.58366 0.746111 8.34442 0.818698 8.14094 0.954676C7.93745 1.09065 7.77885 1.28392 7.6852 1.51003C7.59154 1.73614 7.56704 1.98494 7.61478 2.22497C7.66252 2.46501 7.78036 2.6855 7.95341 2.85857L12.9371 7.841C13.0167 7.91636 13.0707 8.01474 13.0915 8.12234C13.1124 8.22994 13.099 8.34137 13.0533 8.441C13.0147 8.54394 12.9446 8.63214 12.8531 8.69315C12.7616 8.75415 12.6533 8.78488 12.5434 8.78099C12.4708 8.78095 12.3991 8.76657 12.3321 8.73868C12.2652 8.7108 12.2044 8.66995 12.1534 8.61849L5.16845 1.63608C4.88833 1.35411 4.55507 1.13049 4.18796 0.978157C3.82085 0.825822 3.42718 0.747795 3.02972 0.748594C2.39598 0.748594 1.79224 0.938591 1.286 1.29359C0.817085 1.62647 0.451698 2.085 0.231889 2.61639C0.0120797 3.14778 -0.0532174 3.73043 0.0435131 4.2973C0.148512 4.90604 0.443508 5.46478 0.891002 5.91353L2.81223 7.83725C3.04097 8.066 2.98723 8.311 2.93473 8.43725C2.89607 8.54065 2.82594 8.62932 2.73422 8.69077C2.6425 8.75221 2.53382 8.78333 2.42348 8.77974H1.55474C1.22721 8.77974 0.913082 8.90986 0.681478 9.14146C0.449873 9.37306 0.319759 9.68719 0.319759 10.0147C0.319759 10.3423 0.449873 10.6564 0.681478 10.888C0.913082 11.1196 1.22721 11.2497 1.55474 11.2497H2.43598C3.06972 11.2497 3.66972 11.0635 4.17721 10.7085C4.64588 10.3748 5.01103 9.91576 5.23079 9.38405C5.45054 8.85234 5.51602 8.26947 5.41969 7.70226C5.31165 7.08866 5.01549 6.52384 4.5722 6.08603L2.64723 4.16105C2.56622 4.08586 2.51101 3.98702 2.48946 3.87861C2.46792 3.77021 2.48113 3.65776 2.52723 3.55731C2.56592 3.45436 2.63595 3.36616 2.72746 3.30516C2.81896 3.24415 2.92732 3.21343 3.03722 3.21731C3.18222 3.21731 3.31972 3.27356 3.42472 3.37981L10.4096 10.3635C10.6898 10.6454 11.023 10.8691 11.3901 11.0214C11.7572 11.1737 12.1509 11.2518 12.5484 11.251C13.0401 11.2559 13.5254 11.1389 13.9609 10.9103C14.3963 10.6816 14.7682 10.3486 15.0433 9.94098L15.4708 10.366C15.7506 10.6481 16.0836 10.8719 16.4505 11.0244C16.8174 11.177 17.2109 11.2552 17.6083 11.2547H17.6708C18.293 11.2575 18.9008 11.0676 19.4108 10.711C19.8783 10.3797 20.2408 9.92223 20.4632 9.38723C20.6832 8.84974 20.7532 8.26725 20.6532 7.70476C20.5456 7.09131 20.2498 6.5265 19.807 6.08853L17.8808 4.1648C17.8 4.0897 17.745 3.99108 17.7235 3.88294C17.7019 3.77479 17.715 3.66261 17.7608 3.56231C17.7994 3.45911 17.8693 3.37058 17.9608 3.30916C18.0522 3.24773 18.1606 3.21649 18.2708 3.21981H19.587C19.5187 3.57543 19.5153 3.94047 19.577 4.2973C19.682 4.90604 19.977 5.46478 20.4245 5.91353L24.8769 10.366C25.157 10.6481 25.4902 10.8719 25.8573 11.0245C26.2244 11.177 26.6181 11.2553 27.0157 11.2547C28.6606 11.2547 30.0031 9.91723 29.9994 8.2685C30.0046 8.10276 29.9766 7.93766 29.9168 7.78299C29.857 7.62833 29.7667 7.48726 29.6513 7.36816C29.536 7.24906 29.3978 7.15436 29.2451 7.08969C29.0925 7.02501 28.9283 6.99169 28.7625 6.99169C28.5967 6.99169 28.4326 7.02501 28.2799 7.08969C28.1272 7.15436 27.9891 7.24906 27.8737 7.36816C27.7583 7.48726 27.6681 7.62833 27.6083 7.78299C27.5485 7.93766 27.5204 8.10276 27.5257 8.2685C27.5257 8.40387 27.472 8.53372 27.3764 8.62956C27.2808 8.7254 27.151 8.77941 27.0157 8.77974C26.9435 8.77965 26.8721 8.76523 26.8056 8.73734C26.7391 8.70944 26.6788 8.66862 26.6282 8.61724L22.1745 4.1648C22.0938 4.08963 22.0388 3.9911 22.017 3.88304C21.9953 3.77497 22.008 3.66281 22.0532 3.56231C22.0918 3.45911 22.1618 3.37058 22.2532 3.30916C22.3447 3.24773 22.4531 3.21649 22.5632 3.21981H23.3045C23.632 3.21981 23.9461 3.0897 24.1777 2.85809C24.4093 2.62649 24.5394 2.31237 24.5394 1.98483C24.5394 1.65729 24.4093 1.34317 24.1777 1.11156C23.9461 0.879958 23.632 0.749844 23.3045 0.749844H18.2708C17.637 0.749844 17.0345 0.937341 16.5283 1.29359C16.0594 1.62647 15.694 2.085 15.4742 2.61639C15.2544 3.14778 15.1891 3.73043 15.2858 4.2973C15.3908 4.90604 15.6846 5.46478 16.1321 5.91353L18.0533 7.8385C18.1343 7.9137 18.1895 8.01254 18.211 8.12094C18.2326 8.22935 18.2194 8.34179 18.1733 8.44225C18.135 8.54487 18.0654 8.63283 17.9743 8.69364C17.8832 8.75444 17.7752 8.78501 17.6658 8.78099H17.6033C17.5311 8.78139 17.4596 8.76745 17.3929 8.73998C17.3261 8.71252 17.2655 8.67207 17.2145 8.62099L14.6871 6.09603L14.6821 6.08853L9.70214 1.11109C9.47021 0.878668 9.15549 0.747836 8.82715 0.747344L8.8284 0.746094ZM3.02847 1.82983C3.54847 1.82983 4.03596 2.02983 4.40346 2.39857L11.3909 9.38348C11.6996 9.69223 12.1096 9.86223 12.5459 9.86223C12.8699 9.86545 13.1875 9.77092 13.4571 9.59098C13.7266 9.41104 13.9357 9.15404 14.0571 8.85349C14.3133 8.23225 14.1821 7.55351 13.7058 7.07601L8.71965 2.09358C8.7049 2.07956 8.69315 2.0627 8.68513 2.044C8.6771 2.02531 8.67296 2.00517 8.67296 1.98483C8.67296 1.96448 8.6771 1.94435 8.68513 1.92565C8.69315 1.90696 8.7049 1.89009 8.71965 1.87608C8.78215 1.81358 8.8784 1.81358 8.93965 1.87608L16.4471 9.38348C16.7558 9.69223 17.1658 9.86223 17.602 9.86223H17.6645C17.9888 9.8657 18.3067 9.77129 18.5765 9.59133C18.8463 9.41138 19.0556 9.15424 19.177 8.85349C19.3035 8.55539 19.3372 8.22605 19.2737 7.90851C19.2101 7.59096 19.0523 7.29996 18.8208 7.07351L16.8945 5.14854C16.6194 4.87894 16.4322 4.53255 16.3572 4.15472C16.2823 3.7769 16.3232 3.38526 16.4746 3.03106C16.6188 2.67386 16.8673 2.36841 17.1877 2.15457C17.5081 1.94074 17.8856 1.82844 18.2708 1.83233H23.3045C23.392 1.83233 23.4595 1.89983 23.4595 1.98608C23.4595 2.07358 23.392 2.13983 23.3045 2.13983H22.5632C22.2389 2.13635 21.9211 2.23076 21.6513 2.41072C21.3814 2.59068 21.1722 2.84782 21.0507 3.14856C20.9244 3.44679 20.8909 3.7762 20.9547 4.09375C21.0184 4.4113 21.1765 4.70224 21.4082 4.92854L25.8607 9.38348C26.1707 9.69223 26.5807 9.86223 27.0157 9.86223C27.8932 9.86223 28.6081 9.14849 28.6081 8.271C28.6081 8.1835 28.6769 8.116 28.7644 8.116C28.8506 8.116 28.9181 8.1835 28.9181 8.271C28.918 8.52061 28.8686 8.76775 28.7729 8.99828C28.6772 9.22882 28.537 9.43823 28.3603 9.61456C28.1836 9.79089 27.974 9.93068 27.7432 10.0259C27.5125 10.1212 27.2653 10.1701 27.0157 10.1697C26.4969 10.1697 26.0094 9.96973 25.6407 9.60098L21.1882 5.14729C20.9134 4.87779 20.7263 4.53162 20.6513 4.15405C20.5764 3.77649 20.6172 3.3851 20.7682 3.03106C20.9169 2.66691 21.1723 2.35623 21.5007 2.13983H18.2708C17.9467 2.13661 17.6291 2.23113 17.3596 2.41107C17.09 2.59102 16.8809 2.84802 16.7595 3.14856C16.632 3.4463 16.5976 3.77566 16.6607 4.09335C16.7238 4.41104 16.8816 4.70219 17.1133 4.92854L19.0395 6.85352C19.3146 7.12312 19.5019 7.46951 19.5768 7.84733C19.6518 8.22515 19.6109 8.6168 19.4595 8.97099C19.3159 9.3281 19.0678 9.63356 18.7478 9.84743C18.4278 10.0613 18.0507 10.1736 17.6658 10.1697H17.602C17.0833 10.1697 16.5958 9.96973 16.2271 9.60098L14.4496 7.826C14.5308 8.201 14.4921 8.59349 14.3371 8.97099C14.1934 9.3281 13.9454 9.63356 13.6254 9.84743C13.3054 10.0613 12.9282 10.1736 12.5434 10.1697C12.0246 10.1697 11.5346 9.96973 11.1659 9.60098L4.18221 2.61607C4.03096 2.46379 3.85099 2.34306 3.65272 2.26088C3.45446 2.1787 3.24185 2.1367 3.02722 2.13733C2.70291 2.13386 2.38509 2.22826 2.11527 2.40822C1.84545 2.58818 1.63616 2.84532 1.51474 3.14606C1.38806 3.44405 1.35417 3.77331 1.4175 4.09085C1.48083 4.40839 1.63844 4.69945 1.86974 4.92604L3.79471 6.85102C4.07002 7.12048 4.25754 7.4668 4.3327 7.84463C4.40787 8.22246 4.36718 8.61418 4.21596 8.96849C4.07225 9.3258 3.82402 9.6314 3.50374 9.84528C3.18347 10.0592 2.80609 10.1714 2.42098 10.1672H1.55474C1.46724 10.1672 1.401 10.0997 1.401 10.0135C1.401 9.92723 1.46849 9.85973 1.55474 9.85973H2.42348C2.74779 9.8632 3.06561 9.76879 3.33544 9.58883C3.60526 9.40888 3.81455 9.15174 3.93596 8.85099C4.06276 8.55305 4.09646 8.22372 4.03266 7.90627C3.96886 7.58881 3.81053 7.29808 3.57847 7.07226L1.65474 5.14604C1.38015 4.87664 1.19319 4.53069 1.11826 4.15339C1.04333 3.77608 1.08393 3.38494 1.23475 3.03106C1.54099 2.28982 2.22598 1.83108 3.02972 1.83108L3.02847 1.82983Z"
    fill="#0B0C0E" />
</svg>