<svg width="32" height="32" viewBox="0 0 32 32" fill="none" xmlns="http://www.w3.org/2000/svg">
  <path
    d="M12.2278 6.90145L12.2276 6.91135L12.2277 6.92125C12.2354 7.43718 12.1414 7.94956 11.951 8.42915C11.7606 8.90873 11.4776 9.34611 11.1182 9.71632C10.7588 10.0865 10.33 10.3823 9.85622 10.5868C9.38472 10.7902 8.87792 10.8993 8.3645 10.9078C7.85108 10.8993 7.34428 10.7902 6.87278 10.5868C6.39903 10.3823 5.9702 10.0865 5.61078 9.71632C5.25135 9.34611 4.96838 8.90873 4.77801 8.42915C4.58765 7.94956 4.49362 7.43718 4.5013 6.92125L4.50145 6.91135L4.5012 6.90146C4.48835 6.38168 4.57852 5.8645 4.76651 5.37974C4.9545 4.89498 5.23658 4.45223 5.5965 4.07701C5.95643 3.70179 6.38706 3.40153 6.86358 3.19354C7.33752 2.98668 7.84753 2.87516 8.3645 2.86531C8.88147 2.87516 9.39147 2.98668 9.86541 3.19354C10.3419 3.40153 10.7726 3.70179 11.1325 4.07701L11.4933 3.73089L11.1325 4.07701C11.4924 4.45223 11.7745 4.89498 11.9625 5.37974C12.1505 5.8645 12.2406 6.38168 12.2278 6.90145ZM8.38119 4.04708L8.36469 4.04653L8.34819 4.04707C7.98244 4.05901 7.62272 4.14362 7.29 4.29596C6.95728 4.44831 6.6582 4.66535 6.41019 4.93444C6.16219 5.20352 5.97021 5.51928 5.84546 5.8633C5.72224 6.20306 5.66702 6.56369 5.6829 6.92468C5.68255 7.63769 5.95838 8.32334 6.45282 8.83755C6.95039 9.35503 7.63013 9.65809 8.3476 9.68236L8.36443 9.68293L8.38126 9.68237C9.10809 9.65799 9.79588 9.34753 10.2949 8.81853C10.7909 8.29283 11.0605 7.5936 11.0462 6.87138C11.0641 6.14688 10.796 5.44424 10.2997 4.91565L9.93517 5.2579L10.2997 4.91565C9.80024 4.38376 9.1104 4.07144 8.38119 4.04708ZM7.77371 20.745V13.7731H8.95528V17.2872V18.5548L9.82065 17.6285C10.4726 16.9307 11.2606 16.3738 12.136 15.9921C13.0112 15.6105 13.9553 15.4121 14.91 15.4093H18.1816V15.4094L18.1926 15.4092C19.3463 15.3837 20.4546 14.9543 21.3242 14.1956C22.1938 13.4369 22.7696 12.3971 22.9512 11.2575L23.02 10.8258L22.6013 10.6999C21.7798 10.4531 21.0602 9.94686 20.5503 9.25704C20.0404 8.56723 19.7674 7.73087 19.7723 6.87304L19.7725 6.87304L19.7723 6.86274C19.7568 5.81953 20.1557 4.81277 20.8815 4.06333C21.6054 3.31593 22.5955 2.88533 23.6355 2.86532C24.1525 2.87517 24.6625 2.98668 25.1364 3.19354C25.6129 3.40153 26.0436 3.70179 26.4035 4.07701C26.7634 4.45222 27.0455 4.89498 27.2335 5.37974C27.4215 5.8645 27.5116 6.38168 27.4988 6.90145L27.4986 6.90955L27.4987 6.91765C27.5054 7.80263 27.2165 8.66454 26.6777 9.3666C26.1388 10.0687 25.381 10.5707 24.5243 10.793L24.1951 10.8784L24.1537 11.2161C23.9737 12.6829 23.2691 14.0351 22.17 15.023C21.0718 16.0101 19.6539 16.5669 18.1776 16.5908H14.9092V16.5908L14.9002 16.5909C13.6516 16.6134 12.4416 17.0279 11.4415 17.7759C10.4414 18.5238 9.70179 19.5673 9.32734 20.7587L9.18488 21.2119L9.63028 21.3773C10.5017 21.7009 11.2334 22.3175 11.7 23.1215C12.1665 23.9254 12.3389 24.8666 12.1876 25.7838C12.0363 26.7009 11.5707 27.5368 10.8705 28.1483C10.1733 28.7572 9.28666 29.1057 8.36161 29.1347C7.84731 29.1245 7.33996 29.0137 6.86821 28.8084C6.39298 28.6016 5.96322 28.3031 5.60355 27.9299C5.24388 27.5568 4.96138 27.1163 4.77223 26.6338C4.58308 26.1513 4.491 25.6362 4.50126 25.118L4.5014 25.1109L4.50134 25.1039C4.49387 24.2281 4.7745 23.3741 5.3 22.6734C5.8255 21.9727 6.56675 21.4642 7.40962 21.2262L7.77371 21.1233V20.745ZM21.7051 8.81853C22.0918 9.22844 22.5918 9.50713 23.1355 9.62318V9.74298L23.6519 9.72601C24.0165 9.71403 24.3751 9.62984 24.7069 9.47833C25.0387 9.32681 25.3372 9.11098 25.585 8.84333C25.8328 8.57567 26.0251 8.26152 26.1507 7.91904L25.6812 7.74691L26.1507 7.91904C26.275 7.58001 26.3315 7.2199 26.317 6.85915C26.3141 6.15193 26.0319 5.47431 25.5317 4.97402C25.0288 4.47113 24.3467 4.18861 23.6355 4.18861C22.9243 4.18861 22.2422 4.47113 21.7393 4.97402C21.2379 5.47545 20.9556 6.15502 20.9539 6.86398C20.9376 7.58883 21.2074 8.29103 21.7051 8.81853Z"
    fill="#0B0C0E" stroke="#0B0C0E" />
</svg>