<svg width="32" height="32" viewBox="0 0 32 32" fill="none" xmlns="http://www.w3.org/2000/svg">
  <path
    d="M24.0714 19.4286V19.9286H24.5714H26.2857C26.6078 19.9286 26.9166 20.0565 27.1443 20.2842C27.3721 20.512 27.5 20.8208 27.5 21.1429V26.2857C27.5 26.6078 27.3721 26.9166 27.1443 27.1443C26.9166 27.3721 26.6078 27.5 26.2857 27.5H21.1429C20.8208 27.5 20.512 27.3721 20.2842 27.1443C20.0565 26.9166 19.9286 26.6078 19.9286 26.2857V21.1429C19.9286 20.8208 20.0565 20.512 20.2842 20.2842C20.512 20.0565 20.8208 19.9286 21.1429 19.9286H22.8571H23.3571V19.4286V17.7143C23.3571 17.3544 23.2142 17.0092 22.9596 16.7546C22.7051 16.5001 22.3599 16.3571 22 16.3571H10C9.64006 16.3571 9.29487 16.5001 9.04036 16.7546C8.78584 17.0092 8.64286 17.3543 8.64286 17.7143V19.4286V19.9286H9.14286H10.8571C11.1792 19.9286 11.488 20.0565 11.7158 20.2842C11.9435 20.512 12.0714 20.8208 12.0714 21.1429V26.2857C12.0714 26.6078 11.9435 26.9166 11.7158 27.1443C11.488 27.3721 11.1792 27.5 10.8571 27.5H5.71429C5.39224 27.5 5.08338 27.3721 4.85566 27.1443C4.62793 26.9166 4.5 26.6078 4.5 26.2857V21.1429C4.5 20.8208 4.62793 20.512 4.85566 20.2842C5.08338 20.0565 5.39224 19.9286 5.71429 19.9286H7.42857H7.92857V19.4286V17.7143C7.92857 17.1649 8.14681 16.638 8.53528 16.2496C8.92375 15.8611 9.45062 15.6429 10 15.6429H15.1429H15.6429V15.1429V12.5714V12.0714H15.1429H13.4286C13.1065 12.0714 12.7977 11.9435 12.5699 11.7158C12.3422 11.488 12.2143 11.1792 12.2143 10.8571V5.71429C12.2143 5.39224 12.3422 5.08338 12.5699 4.85566C12.7977 4.62793 13.1065 4.5 13.4286 4.5H18.5714C18.8935 4.5 19.2023 4.62793 19.4301 4.85566C19.6578 5.08338 19.7857 5.39224 19.7857 5.71429V10.8571C19.7857 11.1792 19.6578 11.488 19.4301 11.7158C19.2023 11.9435 18.8935 12.0714 18.5714 12.0714H16.8571H16.3571V12.5714V15.1429V15.6429H16.8571H22C22.5494 15.6429 23.0763 15.8611 23.4647 16.2496C23.8532 16.638 24.0714 17.1649 24.0714 17.7143V19.4286Z"
    fill="#0B0C0E" stroke="#0B0C0E" />
</svg>