<?xml version="1.0" encoding="UTF-8"?>
<svg width="243px" height="203px" viewBox="0 0 243 203" version="1.1" xmlns="http://www.w3.org/2000/svg" xmlns:xlink="http://www.w3.org/1999/xlink">
    <!-- Generator: Sketch 46.2 (44496) - http://www.bohemiancoding.com/sketch -->
    <title>logo</title>
    <desc>Created with Sketch.</desc>
    <defs>
        <polygon id="path-1" points="64.2823694 0 0 23.6766452 10.16004 111.823621 64.2823694 143 118.843602 111.403757 129 23.2598243"></polygon>
    </defs>
    <g id="Page-1" stroke="none" stroke-width="1" fill="none" fill-rule="evenodd">
        <g id="Case-1---2" transform="translate(-152.000000, -104.000000)">
            <g id="logo" transform="translate(152.000000, 104.000000)">
                <g id="symbol" transform="translate(56.000000, 0.000000)">
                    <mask id="mask-2" fill="white">
                        <use xlink:href="#path-1"></use>
                    </mask>
                    <use id="body" fill="#DD0031" xlink:href="#path-1"></use>
                    <rect id="cover" fill="#C3002F" mask="url(#mask-2)" x="64" y="0" width="71" height="151"></rect>
                    <path d="M51,61 L72.1262136,61 C75.2330252,61 77.8219961,60.0939177 79.8932039,58.2817259 C81.9644117,56.4695341 83,53.8578851 83,50.4467005 C83,46.6091179 82.0679705,43.9086373 80.2038835,42.3451777 C78.3397965,40.7817181 75.6472668,40 72.1262136,40 L51,40 L51,61 Z M37,29 L72.8155668,29 C79.4213528,29 84.7196642,30.5406008 88.7106599,33.6218487 C92.7016556,36.7030966 94.6971235,41.3599128 94.6971235,47.592437 C94.6971235,51.3739685 93.7854011,54.6127316 91.9619289,57.3088235 C90.1384568,60.0049154 87.540908,62.0882279 84.1692047,63.5588235 L84.1692047,63.7689076 C88.7106826,64.7493046 92.1511445,66.9376581 94.4906937,70.3340336 C96.8302429,73.7304091 98,77.9845683 98,83.0966387 C98,86.0378298 97.4839307,88.7864018 96.4517766,91.342437 C95.4196226,93.8984722 93.8026055,96.1043325 91.6006768,97.960084 C89.3987482,99.8158356 86.5775694,101.286409 83.1370558,102.371849 C79.6965423,103.457288 75.6023926,104 70.8544839,104 L37,104 L37,29 Z M51,93 L73.6832845,93 C77.5835972,93 80.6114262,91.9858098 82.7668622,89.9573991 C84.9222982,87.9289884 86,85.0583145 86,81.3452915 C86,77.7010281 84.9222982,74.8991129 82.7668622,72.9394619 C80.6114262,70.9798108 77.5835972,70 73.6832845,70 L51,70 L51,93 Z" id="B" fill="#FFFFFF" mask="url(#mask-2)"></path>
                </g>
                <path d="M0,175.486 L4.104,175.486 L4.104,178.374 L4.18,178.45 C4.83866996,177.360661 5.69999468,176.50567 6.764,175.885 C7.82800532,175.26433 9.00599354,174.954 10.298,174.954 C12.4513441,174.954 14.1486605,175.511328 15.39,176.626 C16.6313395,177.740672 17.252,179.412656 17.252,181.642 L17.252,195.132 L12.92,195.132 L12.92,182.782 C12.8693331,181.236659 12.540003,180.11567 11.932,179.419 C11.323997,178.72233 10.3740065,178.374 9.082,178.374 C8.34732966,178.374 7.68866958,178.506999 7.106,178.773 C6.52333042,179.039001 6.02933536,179.406331 5.624,179.875 C5.21866464,180.343669 4.90200114,180.894664 4.674,181.528 C4.44599886,182.161337 4.332,182.832663 4.332,183.542 L4.332,195.132 L0,195.132 L0,175.486 Z M39.5801667,194.106 C39.5801667,197.070015 38.7505083,199.280326 37.0911667,200.737 C35.431825,202.193674 33.0441822,202.922 29.9281667,202.922 C28.9401617,202.922 27.9458383,202.820668 26.9451667,202.618 C25.944495,202.415332 25.0325041,202.073336 24.2091667,201.592 C23.3858292,201.110664 22.6955028,200.477337 22.1381667,199.692 C21.5808305,198.906663 21.2515005,197.944006 21.1501667,196.804 L25.4821667,196.804 C25.608834,197.412003 25.8241651,197.905998 26.1281667,198.286 C26.4321682,198.666002 26.7931646,198.963666 27.2111667,199.179 C27.6291687,199.394334 28.0914975,199.533666 28.5981667,199.597 C29.1048359,199.660334 29.6368305,199.692 30.1941667,199.692 C31.9421754,199.692 33.2214959,199.261338 34.0321667,198.4 C34.8428374,197.538662 35.2481667,196.297341 35.2481667,194.676 L35.2481667,191.674 L35.1721667,191.674 C34.5641636,192.763339 33.7345052,193.611997 32.6831667,194.22 C31.6318281,194.828003 30.4981727,195.132 29.2821667,195.132 C27.7114921,195.132 26.3751722,194.859669 25.2731667,194.315 C24.1711611,193.770331 23.2591703,193.023005 22.5371667,192.073 C21.815163,191.122995 21.2895016,190.02734 20.9601667,188.786 C20.6308317,187.54466 20.4661667,186.214674 20.4661667,184.796 C20.4661667,183.47866 20.6688313,182.224673 21.0741667,181.034 C21.479502,179.843327 22.0621629,178.798338 22.8221667,177.899 C23.5821705,176.999662 24.5131611,176.284003 25.6151667,175.752 C26.7171722,175.219997 27.9648264,174.954 29.3581667,174.954 C30.5995062,174.954 31.7394948,175.213664 32.7781667,175.733 C33.8168385,176.252336 34.6148305,177.069328 35.1721667,178.184 L35.2481667,178.184 L35.2481667,175.486 L39.5801667,175.486 L39.5801667,194.106 Z M29.9661667,191.712 C30.9288381,191.712 31.74583,191.515669 32.4171667,191.123 C33.0885033,190.730331 33.6331646,190.211003 34.0511667,189.565 C34.4691687,188.918997 34.7731657,188.184337 34.9631667,187.361 C35.1531676,186.537663 35.2481667,185.708004 35.2481667,184.872 C35.2481667,184.035996 35.1468343,183.225337 34.9441667,182.44 C34.741499,181.654663 34.4311687,180.958003 34.0131667,180.35 C33.5951646,179.741997 33.0505033,179.260668 32.3791667,178.906 C31.70783,178.551332 30.9035047,178.374 29.9661667,178.374 C29.0034952,178.374 28.1928366,178.576665 27.5341667,178.982 C26.8754967,179.387335 26.343502,179.912997 25.9381667,180.559 C25.5328313,181.205003 25.2415009,181.939663 25.0641667,182.763 C24.8868324,183.586337 24.7981667,184.403329 24.7981667,185.214 C24.7981667,186.024671 24.899499,186.816329 25.1021667,187.589 C25.3048343,188.361671 25.6151646,189.051997 26.0331667,189.66 C26.4511687,190.268003 26.9831634,190.761998 27.6291667,191.142 C28.2751699,191.522002 29.0541621,191.712 29.9661667,191.712 Z M48.8363333,184.796 L42.0343333,175.486 L47.2783333,175.486 L51.3823333,181.528 L55.6763333,175.486 L60.6923333,175.486 L54.0043333,184.568 L61.5283333,195.132 L56.3223333,195.132 L51.3443333,187.874 L46.5183333,195.132 L41.4263333,195.132 L48.8363333,184.796 Z M63.1465,182.744 L74.2045,182.744 L74.2045,186.848 L63.1465,186.848 L63.1465,182.744 Z M78.0646666,168 L82.3966666,168 L82.3966666,178.032 L82.4726666,178.032 C82.7766681,177.550664 83.1439978,177.120002 83.5746666,176.74 C84.0053354,176.359998 84.4803307,176.037001 84.9996666,175.771 C85.5190026,175.504999 86.0636638,175.302334 86.6336666,175.163 C87.2036695,175.023666 87.7673305,174.954 88.3246666,174.954 C89.8700077,174.954 91.2189942,175.226331 92.3716666,175.771 C93.5243391,176.315669 94.4806628,177.062995 95.2406666,178.013 C96.0006704,178.963005 96.5706647,180.071327 96.9506666,181.338 C97.3306685,182.604673 97.5206666,183.959993 97.5206666,185.404 C97.5206666,186.72134 97.3496683,188.00066 97.0076666,189.242 C96.6656649,190.48334 96.1463368,191.578995 95.4496666,192.529 C94.7529965,193.479005 93.8726719,194.238997 92.8086666,194.809 C91.7446613,195.379003 90.4906738,195.664 89.0466666,195.664 C88.3879967,195.664 87.7230033,195.619667 87.0516666,195.531 C86.3803299,195.442333 85.7406697,195.271335 85.1326666,195.018 C84.5246636,194.764665 83.9736691,194.435335 83.4796666,194.03 C82.9856642,193.624665 82.5740016,193.09267 82.2446666,192.434 L82.1686666,192.434 L82.1686666,195.132 L78.0646666,195.132 L78.0646666,168 Z M93.1886666,185.328 C93.1886666,184.441329 93.0746678,183.580004 92.8466666,182.744 C92.6186655,181.907996 92.2766689,181.167003 91.8206666,180.521 C91.3646643,179.874997 90.79467,179.355669 90.1106666,178.963 C89.4266632,178.570331 88.6413377,178.374 87.7546666,178.374 C85.9306575,178.374 84.5563379,179.007327 83.6316666,180.274 C82.7069953,181.540673 82.2446666,183.225323 82.2446666,185.328 C82.2446666,186.316005 82.3649988,187.234329 82.6056666,188.083 C82.8463345,188.931671 83.2073309,189.659997 83.6886666,190.268 C84.1700024,190.876003 84.7463299,191.357332 85.4176666,191.712 C86.0890033,192.066668 86.8679955,192.244 87.7546666,192.244 C88.7426716,192.244 89.5786632,192.041335 90.2626666,191.636 C90.94667,191.230665 91.5103311,190.705003 91.9536666,190.059 C92.3970022,189.412997 92.7136657,188.678337 92.9036666,187.855 C93.0936676,187.031663 93.1886666,186.189338 93.1886666,185.328 Z M109.778833,195.664 C108.208159,195.664 106.808506,195.404336 105.579833,194.885 C104.35116,194.365664 103.312504,193.650005 102.463833,192.738 C101.615162,191.825995 100.969169,190.736673 100.525833,189.47 C100.082498,188.203327 99.8608333,186.810008 99.8608333,185.29 C99.8608333,183.795326 100.082498,182.414673 100.525833,181.148 C100.969169,179.881327 101.615162,178.792005 102.463833,177.88 C103.312504,176.967995 104.35116,176.252336 105.579833,175.733 C106.808506,175.213664 108.208159,174.954 109.778833,174.954 C111.349508,174.954 112.74916,175.213664 113.977833,175.733 C115.206506,176.252336 116.245162,176.967995 117.093833,177.88 C117.942504,178.792005 118.588498,179.881327 119.031833,181.148 C119.475169,182.414673 119.696833,183.795326 119.696833,185.29 C119.696833,186.810008 119.475169,188.203327 119.031833,189.47 C118.588498,190.736673 117.942504,191.825995 117.093833,192.738 C116.245162,193.650005 115.206506,194.365664 113.977833,194.885 C112.74916,195.404336 111.349508,195.664 109.778833,195.664 Z M109.778833,192.244 C110.741505,192.244 111.577496,192.041335 112.286833,191.636 C112.99617,191.230665 113.578831,190.69867 114.034833,190.04 C114.490836,189.38133 114.826499,188.640337 115.041833,187.817 C115.257168,186.993663 115.364833,186.151338 115.364833,185.29 C115.364833,184.453996 115.257168,183.618004 115.041833,182.782 C114.826499,181.945996 114.490836,181.205003 114.034833,180.559 C113.578831,179.912997 112.99617,179.387335 112.286833,178.982 C111.577496,178.576665 110.741505,178.374 109.778833,178.374 C108.816162,178.374 107.98017,178.576665 107.270833,178.982 C106.561496,179.387335 105.978836,179.912997 105.522833,180.559 C105.066831,181.205003 104.731168,181.945996 104.515833,182.782 C104.300499,183.618004 104.192833,184.453996 104.192833,185.29 C104.192833,186.151338 104.300499,186.993663 104.515833,187.817 C104.731168,188.640337 105.066831,189.38133 105.522833,190.04 C105.978836,190.69867 106.561496,191.230665 107.270833,191.636 C107.98017,192.041335 108.816162,192.244 109.778833,192.244 Z M131.917,195.664 C130.346325,195.664 128.946673,195.404336 127.718,194.885 C126.489327,194.365664 125.450671,193.650005 124.602,192.738 C123.753329,191.825995 123.107335,190.736673 122.664,189.47 C122.220664,188.203327 121.999,186.810008 121.999,185.29 C121.999,183.795326 122.220664,182.414673 122.664,181.148 C123.107335,179.881327 123.753329,178.792005 124.602,177.88 C125.450671,176.967995 126.489327,176.252336 127.718,175.733 C128.946673,175.213664 130.346325,174.954 131.917,174.954 C133.487674,174.954 134.887327,175.213664 136.116,175.733 C137.344673,176.252336 138.383329,176.967995 139.232,177.88 C140.080671,178.792005 140.726664,179.881327 141.17,181.148 C141.613335,182.414673 141.835,183.795326 141.835,185.29 C141.835,186.810008 141.613335,188.203327 141.17,189.47 C140.726664,190.736673 140.080671,191.825995 139.232,192.738 C138.383329,193.650005 137.344673,194.365664 136.116,194.885 C134.887327,195.404336 133.487674,195.664 131.917,195.664 Z M131.917,192.244 C132.879671,192.244 133.715663,192.041335 134.425,191.636 C135.134337,191.230665 135.716998,190.69867 136.173,190.04 C136.629002,189.38133 136.964666,188.640337 137.18,187.817 C137.395334,186.993663 137.503,186.151338 137.503,185.29 C137.503,184.453996 137.395334,183.618004 137.18,182.782 C136.964666,181.945996 136.629002,181.205003 136.173,180.559 C135.716998,179.912997 135.134337,179.387335 134.425,178.982 C133.715663,178.576665 132.879671,178.374 131.917,178.374 C130.954328,178.374 130.118337,178.576665 129.409,178.982 C128.699663,179.387335 128.117002,179.912997 127.661,180.559 C127.204998,181.205003 126.869334,181.945996 126.654,182.782 C126.438666,183.618004 126.331,184.453996 126.331,185.29 C126.331,186.151338 126.438666,186.993663 126.654,187.817 C126.869334,188.640337 127.204998,189.38133 127.661,190.04 C128.117002,190.69867 128.699663,191.230665 129.409,191.636 C130.118337,192.041335 130.954328,192.244 131.917,192.244 Z M143.073167,175.486 L146.341167,175.486 L146.341167,169.596 L150.673167,169.596 L150.673167,175.486 L154.587167,175.486 L154.587167,178.716 L150.673167,178.716 L150.673167,189.204 C150.673167,189.660002 150.692166,190.052665 150.730167,190.382 C150.768167,190.711335 150.856833,190.989999 150.996167,191.218 C151.135501,191.446001 151.344499,191.616999 151.623167,191.731 C151.901835,191.845001 152.281831,191.902 152.763167,191.902 C153.067168,191.902 153.371165,191.895667 153.675167,191.883 C153.979168,191.870333 154.283165,191.826 154.587167,191.75 L154.587167,195.094 C154.105831,195.144667 153.637169,195.195333 153.181167,195.246 C152.725164,195.296667 152.256502,195.322 151.775167,195.322 C150.635161,195.322 149.716837,195.214334 149.020167,194.999 C148.323496,194.783666 147.778835,194.467002 147.386167,194.049 C146.993498,193.630998 146.727501,193.105337 146.588167,192.472 C146.448833,191.838663 146.3665,191.116671 146.341167,190.306 L146.341167,178.716 L143.073167,178.716 L143.073167,175.486 Z M160.575333,188.824 C160.702001,190.090673 161.183329,190.977331 162.019333,191.484 C162.855337,191.990669 163.855994,192.244 165.021333,192.244 C165.426669,192.244 165.888997,192.212334 166.408333,192.149 C166.927669,192.085666 167.415331,191.965334 167.871333,191.788 C168.327336,191.610666 168.700998,191.351002 168.992333,191.009 C169.283668,190.666998 169.416667,190.217336 169.391333,189.66 C169.366,189.102664 169.163335,188.646668 168.783333,188.292 C168.403331,187.937332 167.91567,187.652334 167.320333,187.437 C166.724997,187.221666 166.047337,187.038001 165.287333,186.886 C164.527329,186.733999 163.754671,186.569334 162.969333,186.392 C162.158663,186.214666 161.37967,185.999335 160.632333,185.746 C159.884996,185.492665 159.21367,185.150669 158.618333,184.72 C158.022997,184.289331 157.548002,183.738337 157.193333,183.067 C156.838665,182.395663 156.661333,181.566005 156.661333,180.578 C156.661333,179.513995 156.920997,178.621004 157.440333,177.899 C157.959669,177.176996 158.618329,176.594336 159.416333,176.151 C160.214337,175.707664 161.100995,175.397334 162.076333,175.22 C163.051671,175.042666 163.982662,174.954 164.869333,174.954 C165.882672,174.954 166.851662,175.061666 167.776333,175.277 C168.701005,175.492334 169.536996,175.840664 170.284333,176.322 C171.03167,176.803336 171.652331,177.430329 172.146333,178.203 C172.640336,178.975671 172.950666,179.906661 173.077333,180.996 L168.555333,180.996 C168.352666,179.957328 167.87767,179.260668 167.130333,178.906 C166.382996,178.551332 165.528005,178.374 164.565333,178.374 C164.261332,178.374 163.900335,178.399333 163.482333,178.45 C163.064331,178.500667 162.671668,178.595666 162.304333,178.735 C161.936998,178.874334 161.626668,179.076999 161.373333,179.343 C161.119999,179.609001 160.993333,179.957331 160.993333,180.388 C160.993333,180.920003 161.176998,181.350665 161.544333,181.68 C161.911668,182.009335 162.392997,182.281666 162.988333,182.497 C163.58367,182.712334 164.261329,182.895999 165.021333,183.048 C165.781337,183.200001 166.566663,183.364666 167.377333,183.542 C168.162671,183.719334 168.935329,183.934665 169.695333,184.188 C170.455337,184.441335 171.132997,184.783331 171.728333,185.214 C172.32367,185.644669 172.804998,186.18933 173.172333,186.848 C173.539668,187.50667 173.723333,188.317329 173.723333,189.28 C173.723333,190.445339 173.457336,191.433329 172.925333,192.244 C172.393331,193.054671 171.703004,193.713331 170.854333,194.22 C170.005662,194.726669 169.062005,195.093999 168.023333,195.322 C166.984661,195.550001 165.958672,195.664 164.945333,195.664 C163.703994,195.664 162.557672,195.524668 161.506333,195.246 C160.454995,194.967332 159.543004,194.543003 158.770333,193.973 C157.997663,193.402997 157.389669,192.693671 156.946333,191.845 C156.502998,190.996329 156.268667,189.989339 156.243333,188.824 L160.575333,188.824 Z M174.6575,175.486 L177.9255,175.486 L177.9255,169.596 L182.2575,169.596 L182.2575,175.486 L186.1715,175.486 L186.1715,178.716 L182.2575,178.716 L182.2575,189.204 C182.2575,189.660002 182.2765,190.052665 182.3145,190.382 C182.3525,190.711335 182.441166,190.989999 182.5805,191.218 C182.719834,191.446001 182.928832,191.616999 183.2075,191.731 C183.486168,191.845001 183.866164,191.902 184.3475,191.902 C184.651501,191.902 184.955498,191.895667 185.2595,191.883 C185.563501,191.870333 185.867498,191.826 186.1715,191.75 L186.1715,195.094 C185.690164,195.144667 185.221502,195.195333 184.7655,195.246 C184.309498,195.296667 183.840836,195.322 183.3595,195.322 C182.219494,195.322 181.30117,195.214334 180.6045,194.999 C179.90783,194.783666 179.363169,194.467002 178.9705,194.049 C178.577831,193.630998 178.311834,193.105337 178.1725,192.472 C178.033166,191.838663 177.950833,191.116671 177.9255,190.306 L177.9255,178.716 L174.6575,178.716 L174.6575,175.486 Z M188.891667,175.486 L192.957667,175.486 L192.957667,179.286 L193.033667,179.286 C193.160334,178.753997 193.407331,178.234669 193.774667,177.728 C194.142002,177.221331 194.585331,176.759002 195.104667,176.341 C195.624002,175.922998 196.20033,175.587335 196.833667,175.334 C197.467003,175.080665 198.112997,174.954 198.771667,174.954 C199.278336,174.954 199.626666,174.966667 199.816667,174.992 C200.006668,175.017333 200.202999,175.042667 200.405667,175.068 L200.405667,179.248 C200.101665,179.197333 199.791335,179.153 199.474667,179.115 C199.157998,179.077 198.847668,179.058 198.543667,179.058 C197.808996,179.058 197.11867,179.203665 196.472667,179.495 C195.826663,179.786335 195.263002,180.216997 194.781667,180.787 C194.300331,181.357003 193.920335,182.059996 193.641667,182.896 C193.362999,183.732004 193.223667,184.694661 193.223667,185.784 L193.223667,195.132 L188.891667,195.132 L188.891667,175.486 Z M218.325833,190.762 C218.325833,191.294003 218.395499,191.673999 218.534833,191.902 C218.674167,192.130001 218.946498,192.244 219.351833,192.244 L219.807833,192.244 C219.985167,192.244 220.187832,192.218667 220.415833,192.168 L220.415833,195.17 C220.263832,195.220667 220.067501,195.277666 219.826833,195.341 C219.586165,195.404334 219.339168,195.461333 219.085833,195.512 C218.832499,195.562667 218.579168,195.600667 218.325833,195.626 C218.072499,195.651333 217.857167,195.664 217.679833,195.664 C216.793162,195.664 216.058503,195.486668 215.475833,195.132 C214.893164,194.777332 214.513167,194.156671 214.335833,193.27 C213.474496,194.106004 212.416839,194.713998 211.162833,195.094 C209.908827,195.474002 208.699172,195.664 207.533833,195.664 C206.647162,195.664 205.798504,195.543668 204.987833,195.303 C204.177163,195.062332 203.461503,194.707669 202.840833,194.239 C202.220163,193.770331 201.726168,193.175004 201.358833,192.453 C200.991498,191.730996 200.807833,190.888671 200.807833,189.926 C200.807833,188.709994 201.029498,187.722004 201.472833,186.962 C201.916169,186.201996 202.49883,185.606669 203.220833,185.176 C203.942837,184.745331 204.753495,184.435001 205.652833,184.245 C206.552171,184.054999 207.457829,183.909334 208.369833,183.808 C209.15517,183.655999 209.902496,183.548334 210.611833,183.485 C211.32117,183.421666 211.948164,183.314001 212.492833,183.162 C213.037503,183.009999 213.468165,182.775668 213.784833,182.459 C214.101501,182.142332 214.259833,181.667337 214.259833,181.034 C214.259833,180.476664 214.126835,180.020668 213.860833,179.666 C213.594832,179.311332 213.265502,179.039001 212.872833,178.849 C212.480165,178.658999 212.043169,178.532334 211.561833,178.469 C211.080497,178.405666 210.624502,178.374 210.193833,178.374 C208.977827,178.374 207.97717,178.627331 207.191833,179.134 C206.406496,179.640669 205.963167,180.425995 205.861833,181.49 L201.529833,181.49 C201.605834,180.223327 201.909831,179.172004 202.441833,178.336 C202.973836,177.499996 203.651496,176.828669 204.474833,176.322 C205.298171,175.815331 206.229161,175.460668 207.267833,175.258 C208.306505,175.055332 209.370494,174.954 210.459833,174.954 C211.422505,174.954 212.372495,175.055332 213.309833,175.258 C214.247171,175.460668 215.089496,175.789998 215.836833,176.246 C216.58417,176.702002 217.185831,177.290996 217.641833,178.013 C218.097836,178.735004 218.325833,179.615328 218.325833,180.654 L218.325833,190.762 Z M213.993833,185.29 C213.335163,185.720669 212.524505,185.980333 211.561833,186.069 C210.599162,186.157667 209.636505,186.290666 208.673833,186.468 C208.217831,186.544 207.774502,186.651666 207.343833,186.791 C206.913164,186.930334 206.533168,187.120332 206.203833,187.361 C205.874498,187.601668 205.614834,187.918331 205.424833,188.311 C205.234832,188.703669 205.139833,189.178664 205.139833,189.736 C205.139833,190.217336 205.279165,190.622665 205.557833,190.952 C205.836501,191.281335 206.172165,191.540999 206.564833,191.731 C206.957502,191.921001 207.388164,192.054 207.856833,192.13 C208.325502,192.206 208.749831,192.244 209.129833,192.244 C209.611169,192.244 210.130497,192.180667 210.687833,192.054 C211.245169,191.927333 211.770831,191.712002 212.264833,191.408 C212.758836,191.103998 213.170498,190.717669 213.499833,190.249 C213.829168,189.780331 213.993833,189.204003 213.993833,188.52 L213.993833,185.29 Z M222.718,175.486 L226.822,175.486 L226.822,178.146 L226.898,178.146 C227.506003,177.005994 228.354661,176.189002 229.444,175.695 C230.533339,175.200998 231.711327,174.954 232.978,174.954 C234.523341,174.954 235.872327,175.226331 237.025,175.771 C238.177672,176.315669 239.133996,177.062995 239.894,178.013 C240.654004,178.963005 241.223998,180.071327 241.604,181.338 C241.984002,182.604673 242.174,183.959993 242.174,185.404 C242.174,186.72134 242.003002,188.00066 241.661,189.242 C241.318998,190.48334 240.79967,191.578995 240.103,192.529 C239.40633,193.479005 238.526005,194.238997 237.462,194.809 C236.397995,195.379003 235.144007,195.664 233.7,195.664 C233.066663,195.664 232.433336,195.607001 231.8,195.493 C231.166663,195.378999 230.558669,195.195335 229.976,194.942 C229.39333,194.688665 228.855002,194.365669 228.361,193.973 C227.866997,193.580331 227.455335,193.118003 227.126,192.586 L227.05,192.586 L227.05,202.39 L222.718,202.39 L222.718,175.486 Z M237.842,185.328 C237.842,184.441329 237.728001,183.580004 237.5,182.744 C237.271999,181.907996 236.930002,181.167003 236.474,180.521 C236.017998,179.874997 235.448003,179.355669 234.764,178.963 C234.079996,178.570331 233.294671,178.374 232.408,178.374 C230.583991,178.374 229.209671,179.007327 228.285,180.274 C227.360329,181.540673 226.898,183.225323 226.898,185.328 C226.898,186.316005 227.018332,187.234329 227.259,188.083 C227.499668,188.931671 227.860664,189.659997 228.342,190.268 C228.823336,190.876003 229.399663,191.357332 230.071,191.712 C230.742337,192.066668 231.521329,192.244 232.408,192.244 C233.396005,192.244 234.231996,192.041335 234.916,191.636 C235.600003,191.230665 236.163664,190.705003 236.607,190.059 C237.050335,189.412997 237.366999,188.678337 237.557,187.855 C237.747001,187.031663 237.842,186.189338 237.842,185.328 Z" id="ngx-bootstrap" fill="#333333"></path>
            </g>
        </g>
    </g>
</svg>