<?xml version="1.0" encoding="UTF-8"?>
<svg width="129px" height="143px" viewBox="0 0 129 143" version="1.1" xmlns="http://www.w3.org/2000/svg" xmlns:xlink="http://www.w3.org/1999/xlink">
    <!-- Generator: Sketch 48.2 (47327) - http://www.bohemiancoding.com/sketch -->
    <title>symbol</title>
    <desc>Created with Sketch.</desc>
    <defs>
        <polygon id="path-1" points="64.2823694 0 0 23.6766452 10.16004 111.823621 64.2823694 143 118.843602 111.403757 129 23.2598243"></polygon>
    </defs>
    <g id="Case-1---2" stroke="none" stroke-width="1" fill="none" fill-rule="evenodd" transform="translate(-208.000000, -104.000000)">
        <g id="logo" transform="translate(152.000000, 104.000000)">
            <g id="symbol" transform="translate(56.000000, 0.000000)">
                <mask id="mask-2" fill="white">
                    <use xlink:href="#path-1"></use>
                </mask>
                <use id="body" fill="#DD0031" xlink:href="#path-1"></use>
                <rect id="cover" fill="#C3002F" mask="url(#mask-2)" x="64" y="0" width="71" height="151"></rect>
                <path d="M51,61 L72.1262136,61 C75.2330252,61 77.8219961,60.0939177 79.8932039,58.2817259 C81.9644117,56.4695341 83,53.8578851 83,50.4467005 C83,46.6091179 82.0679705,43.9086373 80.2038835,42.3451777 C78.3397965,40.7817181 75.6472668,40 72.1262136,40 L51,40 L51,61 Z M37,29 L72.8155668,29 C79.4213528,29 84.7196642,30.5406008 88.7106599,33.6218487 C92.7016556,36.7030966 94.6971235,41.3599128 94.6971235,47.592437 C94.6971235,51.3739685 93.7854011,54.6127316 91.9619289,57.3088235 C90.1384568,60.0049154 87.540908,62.0882279 84.1692047,63.5588235 L84.1692047,63.7689076 C88.7106826,64.7493046 92.1511445,66.9376581 94.4906937,70.3340336 C96.8302429,73.7304091 98,77.9845683 98,83.0966387 C98,86.0378298 97.4839307,88.7864018 96.4517766,91.342437 C95.4196226,93.8984722 93.8026055,96.1043325 91.6006768,97.960084 C89.3987482,99.8158356 86.5775694,101.286409 83.1370558,102.371849 C79.6965423,103.457288 75.6023926,104 70.8544839,104 L37,104 L37,29 Z M51,93 L73.6832845,93 C77.5835972,93 80.6114262,91.9858098 82.7668622,89.9573991 C84.9222982,87.9289884 86,85.0583145 86,81.3452915 C86,77.7010281 84.9222982,74.8991129 82.7668622,72.9394619 C80.6114262,70.9798108 77.5835972,70 73.6832845,70 L51,70 L51,93 Z" id="B" fill="#FFFFFF" mask="url(#mask-2)"></path>
            </g>
        </g>
    </g>
</svg>