<svg width="24" height="24" viewBox="0 0 24 24" fill="none" xmlns="http://www.w3.org/2000/svg">
  <path d="M18 5C19.1046 5 20 5.89543 20 7V21C20 22.1046 19.1046 23 18 23H6C4.89543 23 4 22.1046 4 21V3.5C4 2.39543 4.89543 1.5 6 1.5H18C18.5523 1.5 19 1.94772 19 2.5C19 3.05228 18.5523 3.5 18 3.5H7.25C6.83579 3.5 6.5 3.83579 6.5 4.25C6.5 4.66421 6.83579 5 7.25 5H10C10.5523 5 11 5.44772 11 6V14.7929C11 15.2383 11.5386 15.4614 11.8536 15.1464L13.6464 13.3536C13.8417 13.1583 14.1583 13.1583 14.3536 13.3536L16.1464 15.1464C16.4614 15.4614 17 15.2383 17 14.7929V6C17 5.44772 17.4477 5 18 5Z" fill="#262F56"/>
</svg>
