<svg width="24" height="24" viewBox="0 0 24 24" fill="none" xmlns="http://www.w3.org/2000/svg">
  <path opacity="0.1" fill-rule="evenodd" clip-rule="evenodd" d="M0 12C0 5.37258 5.37258 0 12 0C18.6274 0 24 5.37258 24 12C24 18.6274 18.6274 24 12 24C5.37258 24 0 18.6274 0 12Z" fill="white"/>
  <path fill-rule="evenodd" clip-rule="evenodd" d="M18.3996 11.9912C18.3996 12.424 18.3555 12.8563 18.269 13.2776C18.1846 13.6889 18.0596 14.0927 17.8958 14.4787C17.7359 14.8579 17.5374 15.2233 17.3055 15.5641C17.0771 15.9027 16.8139 16.2204 16.5248 16.5099C16.2351 16.7983 15.9164 17.0607 15.5779 17.2901C15.236 17.5204 14.8701 17.7186 14.4907 17.8793C14.1041 18.0422 13.6994 18.167 13.2884 18.2513C12.8666 18.338 12.4328 18.3823 11.9993 18.3823C11.5656 18.3823 11.1318 18.338 10.7105 18.2513C10.2989 18.167 9.89422 18.0422 9.50795 17.8793C9.12856 17.7186 8.76228 17.5204 8.42039 17.2901C8.08194 17.0607 7.76317 16.7983 7.47409 16.5099C7.18471 16.2204 6.92156 15.9027 6.6928 15.5641C6.46216 15.2233 6.26339 14.8579 6.10277 14.4787C5.93899 14.0927 5.81369 13.6889 5.72899 13.2776C5.64337 12.8563 5.59961 12.424 5.59961 11.9912C5.59961 11.5581 5.64335 11.1249 5.72902 10.7045C5.81371 10.2932 5.93902 9.88882 6.10279 9.50342C6.26342 9.12396 6.46219 8.75823 6.69283 8.41744C6.92159 8.07854 7.18474 7.76147 7.47412 7.47155C7.7632 7.18319 8.08196 6.92139 8.42042 6.69234C8.7623 6.46108 9.12859 6.26295 9.50797 6.10191C9.89425 5.93866 10.2989 5.81354 10.7105 5.72992C11.1318 5.6438 11.5656 5.6001 11.9993 5.6001C12.4328 5.6001 12.8666 5.6438 13.2885 5.72992C13.6994 5.81357 14.1041 5.93869 14.4907 6.10191C14.8701 6.26292 15.2361 6.46108 15.5779 6.69234C15.9164 6.92139 16.2352 7.18319 16.5249 7.47155C16.814 7.76147 17.0771 8.07854 17.3055 8.41744C17.5374 8.75823 17.7359 9.12398 17.8958 9.50342C18.0596 9.88882 18.1846 10.2932 18.269 10.7045C18.3555 11.1249 18.3996 11.5581 18.3996 11.9912ZM9.6673 7.05463C8.14314 7.77334 7.00558 9.17575 6.65087 10.8659C6.79496 10.8672 9.07258 10.8959 11.6968 10.1996C10.7508 8.52133 9.74012 7.15171 9.6673 7.05463ZM12.1496 11.0401C9.33541 11.8814 6.63494 11.8208 6.53807 11.8171C6.53649 11.8758 6.53369 11.9325 6.53369 11.9912C6.53369 13.3933 7.0634 14.6715 7.93407 15.638C7.93219 15.6352 9.42792 12.9855 12.3774 12.033C12.4487 12.0093 12.5212 11.9881 12.5931 11.9675C12.4559 11.6573 12.3062 11.3465 12.1496 11.0401ZM15.6089 7.89504C14.6466 7.04776 13.3831 6.53382 11.9993 6.53382C11.5552 6.53382 11.1242 6.5875 10.7114 6.68673C10.7933 6.79659 11.8199 8.15656 12.7546 9.8704C14.817 9.09837 15.5954 7.915 15.6089 7.89504ZM12.9656 12.8719C12.9535 12.8759 12.9413 12.8794 12.9294 12.8837C9.70458 14.0063 8.65148 16.2687 8.64008 16.2934C9.56796 17.0139 10.7318 17.4486 11.9993 17.4486C12.7562 17.4486 13.4772 17.2947 14.1332 17.0161C14.0522 16.5393 13.7347 14.8678 12.9656 12.8719ZM15.0535 16.5174C16.2808 15.6905 17.1524 14.3773 17.3955 12.8562C17.283 12.82 15.7539 12.3366 13.9897 12.6191C14.7066 14.5864 14.9979 16.1885 15.0535 16.5174ZM13.1753 10.6837C13.3022 10.9439 13.425 11.2088 13.5385 11.4751C13.5788 11.5706 13.6182 11.6642 13.6566 11.7578C15.5342 11.5219 17.384 11.9188 17.4631 11.935C17.4506 10.6412 16.9871 9.45379 16.2202 8.52416C16.2099 8.5388 15.3333 9.80361 13.1753 10.6837Z" fill="white"/>
</svg>
