<svg xmlns="http://www.w3.org/2000/svg" xmlns:xlink="http://www.w3.org/1999/xlink" width="21" height="21" viewBox="0 0 21 21"><defs><path id="a" d="M1408 34.94l2.8-.94.91 2.71-2.8.93z"/><path id="b" d="M1412.39 45.12c-7.22 2.16-10.35.49-12.51-6.73-2.16-7.22-.49-10.34 6.73-12.51 7.22-2.17 10.34-.49 12.51 6.73 2.16 7.22.49 10.35-6.73 12.51zm3.77-9.2c-.18-.57-.8-.87-1.37-.69l-1.36.45-.91-2.7 1.36-.45c.57-.18.87-.81.69-1.38a1.09 1.09 0 0 0-1.38-.68l-1.36.45-.47-1.41c-.18-.57-.8-.88-1.37-.69-.57.18-.88.8-.69 1.38l.47 1.41-2.81.94-.47-1.41c-.18-.58-.8-.88-1.37-.69-.57.18-.88.8-.69 1.37l.47 1.41-1.36.46c-.57.18-.87.8-.69 1.37.15.43.55.72 1.01.74a.8.8 0 0 0 .37-.05l1.36-.45.9 2.7-1.36.45a1.09 1.09 0 0 0 .32 2.12c.12.02.25-.02.37-.05l1.36-.45.47 1.41c.16.42.56.72 1.01.74.12.01.25-.02.37-.05.57-.19.87-.81.69-1.38l-.47-1.41 2.8-.94.47 1.41a1.12 1.12 0 0 0 1.38.69c.57-.19.87-.81.69-1.38l-.47-1.41 1.36-.45c.57-.19.87-.81.68-1.38z"/></defs><desc>Generated with Avocode.</desc><g transform="translate(-1399 -25)"><use fill="#fff" xlink:href="#a"/></g><g transform="translate(-1399 -25)"><use fill="#fff" xlink:href="#b"/></g></svg>