<svg width="20" height="16" viewBox="0 0 20 16" fill="none" xmlns="http://www.w3.org/2000/svg">
  <path d="M0 3.2C0 2.0799 0 1.51984 0.217987 1.09202C0.409734 0.715695 0.715695 0.409734 1.09202 0.217987C1.51984 0 2.0799 0 3.2 0H6.28741C6.91355 0 7.22662 0 7.5108 0.0863016C7.76238 0.162704 7.99643 0.287962 8.19955 0.454909C8.42899 0.643487 8.60265 0.903978 8.94997 1.42496L9.05003 1.57504C9.39735 2.09602 9.57101 2.35651 9.80045 2.54509C10.0036 2.71204 10.2376 2.8373 10.4892 2.9137C10.7734 3 11.0864 3 11.7126 3H16.8C17.9201 3 18.4802 3 18.908 3.21799C19.2843 3.40973 19.5903 3.71569 19.782 4.09202C20 4.51984 20 5.0799 20 6.2V12.8C20 13.9201 20 14.4802 19.782 14.908C19.5903 15.2843 19.2843 15.5903 18.908 15.782C18.4802 16 17.9201 16 16.8 16H3.2C2.0799 16 1.51984 16 1.09202 15.782C0.715695 15.5903 0.409734 15.2843 0.217987 14.908C0 14.4802 0 13.9201 0 12.8V3.2Z" fill="#262F56"/>
</svg>
