<svg xmlns="http://www.w3.org/2000/svg" xmlns:xlink="http://www.w3.org/1999/xlink" width="21" height="21" viewBox="0 0 21 21"><defs><path id="a" d="M1372.29 25a10.32 10.32 0 0 1 8.32 16.33c-1.31 1.79-3 3.03-5.07 3.72-.24.04-.42.01-.54-.09a.57.57 0 0 1-.17-.41l.01-1.02v-1.8c0-.87-.23-1.5-.69-1.9.51-.06.96-.14 1.37-.25.41-.1.83-.28 1.26-.52.43-.24.79-.54 1.08-.89.29-.35.53-.82.71-1.4.19-.59.28-1.26.28-2.02 0-1.06-.35-1.98-1.06-2.76.33-.81.29-1.72-.11-2.73-.25-.08-.61-.03-1.08.15-.48.17-.89.37-1.23.59l-.51.32a9.22 9.22 0 0 0-2.57-.35c-.89 0-1.75.11-2.58.35l-.56-.36a7.26 7.26 0 0 0-1.12-.52c-.51-.2-.89-.26-1.14-.18a3.57 3.57 0 0 0-.11 2.73 4 4 0 0 0-1.06 2.76c0 .76.09 1.43.28 2.01.18.58.42 1.05.7 1.41.29.35.65.65 1.08.89.43.24.85.42 1.26.52.4.11.86.19 1.37.25-.35.32-.57.78-.66 1.38-.18.08-.38.15-.6.2-.21.04-.47.06-.76.06-.3 0-.59-.09-.88-.28-.29-.2-.54-.48-.74-.84a2.19 2.19 0 0 0-.65-.7 2.14 2.14 0 0 0-.66-.32l-.27-.04a.87.87 0 0 0-.39.06c-.07.04-.09.09-.07.15.03.07.07.13.12.19.06.06.11.12.18.16l.09.07c.2.09.39.26.58.51.2.25.34.48.43.68l.13.31c.12.34.31.61.59.82.28.21.57.35.9.41.32.05.63.08.93.09.3 0 .54-.01.74-.05l.31-.05v1.18l.01.73c0 .16-.06.3-.17.41-.12.1-.3.13-.54.09a10.11 10.11 0 0 1-5.07-3.72 9.96 9.96 0 0 1-1.96-6.04A10.32 10.32 0 0 1 1372.29 25zm-6.39 14.77c-.04.07-.1.08-.18.03-.09-.05-.12-.1-.09-.16.03-.05.08-.06.17-.03.09.05.12.1.1.16zm.41.46c-.05.06-.12.05-.21-.04-.08-.1-.09-.17-.03-.22.06-.05.13-.04.22.04.08.1.09.17.02.22zm.4.6c-.07.05-.14.02-.22-.09-.08-.12-.08-.2 0-.24.08-.07.15-.04.22.08.08.1.08.19 0 .25zm.57.56c-.07.08-.16.07-.27-.04-.12-.1-.14-.18-.05-.25.07-.08.16-.07.26.04.11.1.13.18.06.25zm.76.34c-.04.1-.12.13-.25.08-.16-.04-.21-.1-.18-.2.04-.1.12-.13.26-.1.14.05.2.12.17.22zm.84.06c0 .1-.07.15-.21.15-.15.02-.23-.03-.23-.15 0-.09.07-.14.22-.14.15-.02.22.03.22.14zm.78-.13c.02.09-.04.15-.19.19-.14.03-.22 0-.24-.11-.02-.11.05-.17.19-.2.14-.02.22.02.24.12z"/></defs><desc>Generated with Avocode.</desc><g transform="translate(-1362 -25)"><use fill="#fff" xlink:href="#a"/></g></svg>