<svg width="24" height="24" viewBox="0 0 24 24" fill="none" xmlns="http://www.w3.org/2000/svg">
  <path opacity="0.1" fill-rule="evenodd" clip-rule="evenodd" d="M0 12C0 5.37258 5.37258 0 12 0C18.6274 0 24 5.37258 24 12C24 18.6274 18.6274 24 12 24C5.37258 24 0 18.6274 0 12Z" fill="white"/>
  <path fill-rule="evenodd" clip-rule="evenodd" d="M12.0002 5.6001C10.2621 5.6001 10.0439 5.6077 9.36125 5.63876C8.67991 5.66997 8.21484 5.77783 7.8079 5.9361C7.38696 6.09957 7.02989 6.31824 6.67415 6.67411C6.31815 7.02985 6.09948 7.38692 5.93548 7.80772C5.77681 8.21479 5.66881 8.68 5.63814 9.36107C5.60761 10.0437 5.59961 10.262 5.59961 12.0002C5.59961 13.7383 5.60734 13.9558 5.63828 14.6385C5.66961 15.3198 5.77748 15.7849 5.93561 16.1918C6.09921 16.6127 6.31788 16.9698 6.67375 17.3256C7.02936 17.6816 7.38643 17.9008 7.8071 18.0642C8.2143 18.2225 8.67951 18.3304 9.36072 18.3616C10.0434 18.3926 10.2614 18.4002 11.9994 18.4002C13.7377 18.4002 13.9552 18.3926 14.6378 18.3616C15.3192 18.3304 15.7848 18.2225 16.192 18.0642C16.6128 17.9008 16.9693 17.6816 17.3249 17.3256C17.6809 16.9698 17.8996 16.6127 18.0636 16.1919C18.2209 15.7849 18.3289 15.3197 18.3609 14.6386C18.3916 13.9559 18.3996 13.7383 18.3996 12.0002C18.3996 10.262 18.3916 10.0439 18.3609 9.3612C18.3289 8.67986 18.2209 8.21479 18.0636 7.80785C17.8996 7.38692 17.6809 7.02985 17.3249 6.67411C16.9689 6.31811 16.6129 6.09944 16.1916 5.9361C15.7836 5.77783 15.3182 5.66997 14.6369 5.63876C13.9542 5.6077 13.7369 5.6001 11.9982 5.6001H12.0002ZM11.426 6.75343C11.5964 6.75316 11.7866 6.75343 12.0002 6.75343C13.709 6.75343 13.9115 6.75956 14.5863 6.79023C15.2103 6.81876 15.549 6.92303 15.7746 7.01063C16.0733 7.12663 16.2862 7.2653 16.5101 7.4893C16.7341 7.7133 16.8728 7.92664 16.989 8.22531C17.0766 8.45064 17.181 8.78931 17.2094 9.41332C17.2401 10.088 17.2468 10.2907 17.2468 11.9987C17.2468 13.7067 17.2401 13.9094 17.2094 14.584C17.1809 15.208 17.0766 15.5467 16.989 15.7721C16.873 16.0707 16.7341 16.2834 16.5101 16.5073C16.2861 16.7313 16.0734 16.8699 15.7746 16.9859C15.5493 17.0739 15.2103 17.1779 14.5863 17.2065C13.9117 17.2371 13.709 17.2438 12.0002 17.2438C10.2912 17.2438 10.0887 17.2371 9.41402 17.2065C8.79002 17.1777 8.45134 17.0734 8.22561 16.9858C7.92694 16.8698 7.7136 16.7311 7.4896 16.5071C7.2656 16.2831 7.12693 16.0703 7.01066 15.7715C6.92306 15.5462 6.81866 15.2075 6.79026 14.5835C6.75959 13.9088 6.75346 13.7062 6.75346 11.9971C6.75346 10.288 6.75959 10.0864 6.79026 9.41172C6.81879 8.78771 6.92306 8.44904 7.01066 8.22344C7.12666 7.92477 7.2656 7.71143 7.4896 7.48743C7.7136 7.26343 7.92694 7.12476 8.22561 7.00849C8.45121 6.92049 8.79002 6.81649 9.41402 6.78783C10.0044 6.76116 10.2332 6.75316 11.426 6.75182V6.75343ZM15.4165 7.81611C14.9925 7.81611 14.6485 8.15971 14.6485 8.58385C14.6485 9.00785 14.9925 9.35185 15.4165 9.35185C15.8405 9.35185 16.1845 9.00785 16.1845 8.58385C16.1845 8.15984 15.8405 7.81611 15.4165 7.81611ZM12.0002 8.71345C10.1851 8.71345 8.71352 10.1851 8.71352 12.0001C8.71352 13.8152 10.1851 15.2862 12.0002 15.2862C13.8153 15.2862 15.2864 13.8152 15.2864 12.0001C15.2864 10.1851 13.8153 8.71345 12.0002 8.71345ZM12.0002 9.86679C13.1783 9.86679 14.1336 10.8219 14.1336 12.0001C14.1336 13.1783 13.1783 14.1335 12.0002 14.1335C10.8219 14.1335 9.86684 13.1783 9.86684 12.0001C9.86684 10.8219 10.8219 9.86679 12.0002 9.86679Z" fill="white"/>
</svg>
