<svg width="24" height="24" viewBox="0 0 24 24" fill="none" xmlns="http://www.w3.org/2000/svg">
  <path d="M21 24H12C11.7348 24 11.4804 23.8946 11.2929 23.7071C11.1054 23.5196 11 23.2652 11 23V21C11 20.7348 11.1054 20.4804 11.2929 20.2929C11.4804 20.1054 11.7348 20 12 20H21C21.2652 20 21.5196 20.1054 21.7071 20.2929C21.8946 20.4804 22 20.7348 22 21V23C22 23.2652 21.8946 23.5196 21.7071 23.7071C21.5196 23.8946 21.2652 24 21 24Z" fill="#D6B1FF"/>
  <path d="M21 0H3C2.73478 0 2.48043 0.105356 2.29289 0.292892C2.10536 0.480429 2 0.734784 2 1V3C2 3.26522 2.10536 3.51957 2.29289 3.70711C2.48043 3.89464 2.73478 4 3 4H21C21.2652 4 21.5196 3.89464 21.7071 3.70711C21.8946 3.51957 22 3.26522 22 3V1C22 0.734784 21.8946 0.480429 21.7071 0.292892C21.5196 0.105356 21.2652 0 21 0Z" fill="#2EC5CE"/>
  <path d="M21 6H3C2.73478 6 2.48043 6.10536 2.29289 6.29289C2.10536 6.48043 2 6.73478 2 7V17C2 17.2652 2.10536 17.5196 2.29289 17.7071C2.48043 17.8946 2.73478 18 3 18H21C21.2652 18 21.5196 17.8946 21.7071 17.7071C21.8946 17.5196 22 17.2652 22 17V7C22 6.73478 21.8946 6.48043 21.7071 6.29289C21.5196 6.10536 21.2652 6 21 6Z" fill="#8C30F5"/>
</svg>
