<svg width="24" height="24" viewBox="0 0 24 24" fill="none" xmlns="http://www.w3.org/2000/svg">
  <path d="M9 10H2C1.73478 10 1.48043 9.89464 1.29289 9.70711C1.10536 9.51957 1 9.26522 1 9V2C1 1.73478 1.10536 1.48043 1.29289 1.29289C1.48043 1.10536 1.73478 1 2 1H9C9.26522 1 9.51957 1.10536 9.70711 1.29289C9.89464 1.48043 10 1.73478 10 2V9C10 9.26522 9.89464 9.51957 9.70711 9.70711C9.51957 9.89464 9.26522 10 9 10Z" fill="#8C30F5"/>
  <path d="M9 23H2C1.73478 23 1.48043 22.8946 1.29289 22.7071C1.10536 22.5196 1 22.2652 1 22V15C1 14.7348 1.10536 14.4804 1.29289 14.2929C1.48043 14.1054 1.73478 14 2 14H9C9.26522 14 9.51957 14.1054 9.70711 14.2929C9.89464 14.4804 10 14.7348 10 15V22C10 22.2652 9.89464 22.5196 9.70711 22.7071C9.51957 22.8946 9.26522 23 9 23Z" fill="#8C30F5"/>
  <path d="M13 2H23V4H13V2Z" fill="#2EC5CE"/>
  <path d="M23 15H13V17H23V15Z" fill="#2EC5CE"/>
  <path d="M23 20H13V22H23V20Z" fill="#D6B1FF"/>
  <path d="M23 7H13V9H23V7Z" fill="#D6B1FF"/>
</svg>
