<svg width="24" height="24" viewBox="0 0 24 24" fill="none" xmlns="http://www.w3.org/2000/svg">
  <path opacity="0.1" fill-rule="evenodd" clip-rule="evenodd" d="M0 12C0 5.37258 5.37258 0 12 0C18.6274 0 24 5.37258 24 12C24 18.6274 18.6274 24 12 24C5.37258 24 0 18.6274 0 12Z" fill="white"/>
  <path fill-rule="evenodd" clip-rule="evenodd" d="M11.6406 9.75395L11.6658 10.1692L11.2461 10.1183C9.71843 9.92343 8.38383 9.26245 7.25067 8.15236L6.69668 7.60154L6.55399 8.0083C6.25181 8.91502 6.44487 9.87258 7.0744 10.5166C7.41015 10.8725 7.33461 10.9234 6.75544 10.7115C6.55399 10.6437 6.37772 10.5929 6.36093 10.6183C6.30218 10.6776 6.50363 11.4488 6.66311 11.7538C6.88134 12.1775 7.32621 12.5927 7.81305 12.8385L8.22434 13.0334L7.73751 13.0419C7.26746 13.0419 7.25067 13.0503 7.30103 13.2283C7.46891 13.7791 8.13201 14.3638 8.87066 14.618L9.39108 14.796L8.93781 15.0672C8.26631 15.457 7.4773 15.6773 6.68829 15.6942C6.31057 15.7027 6 15.7366 6 15.762C6 15.8468 7.02404 16.3213 7.61999 16.5077C9.40786 17.0586 11.5315 16.8213 13.1263 15.8807C14.2595 15.2112 15.3926 13.8808 15.9214 12.5927C16.2068 11.9063 16.4922 10.6522 16.4922 10.0505C16.4922 9.66073 16.5174 9.60989 16.9874 9.14382C17.2644 8.87265 17.5246 8.57606 17.575 8.49132C17.6589 8.33031 17.6505 8.33031 17.2224 8.47437C16.509 8.72859 16.4083 8.69469 16.7608 8.31336C17.021 8.04219 17.3316 7.5507 17.3316 7.40664C17.3316 7.38122 17.2057 7.42359 17.063 7.49986C16.9119 7.5846 16.5761 7.71171 16.3243 7.78797L15.8711 7.93203L15.4598 7.65239C15.2331 7.49986 14.9142 7.33038 14.7463 7.27953C14.3182 7.16089 13.6635 7.17784 13.2774 7.31343C12.2282 7.69476 11.5651 8.67774 11.6406 9.75395Z" fill="white"/>
</svg>
