<svg width="19" height="14" viewBox="0 0 19 14" fill="none" xmlns="http://www.w3.org/2000/svg">
  <path fill-rule="evenodd" clip-rule="evenodd" d="M10.7194 13.5311C10.6495 13.4615 10.5941 13.3787 10.5563 13.2876C10.5185 13.1965 10.499 13.0988 10.499 13.0001C10.499 12.9015 10.5185 12.8038 10.5563 12.7127C10.5941 12.6216 10.6495 12.5388 10.7194 12.4691L16.1899 7.00012L10.7194 1.53112C10.5785 1.39029 10.4994 1.19929 10.4994 1.00012C10.4994 0.800961 10.5785 0.609954 10.7194 0.469124C10.8602 0.328294 11.0512 0.249177 11.2504 0.249177C11.4495 0.249177 11.6405 0.328294 11.7814 0.469124L17.7814 6.46912C17.8512 6.53879 17.9066 6.62156 17.9444 6.71267C17.9822 6.80379 18.0017 6.90147 18.0017 7.00012C18.0017 7.09878 17.9822 7.19646 17.9444 7.28757C17.9066 7.37869 17.8512 7.46146 17.7814 7.53112L11.7814 13.5311C11.7117 13.601 11.6289 13.6564 11.5378 13.6942C11.4467 13.732 11.349 13.7515 11.2504 13.7515C11.1517 13.7515 11.054 13.732 10.9629 13.6942C10.8718 13.6564 10.789 13.601 10.7194 13.5311V13.5311ZM7.28136 13.5311C7.35121 13.4615 7.40662 13.3787 7.44443 13.2876C7.48224 13.1965 7.5017 13.0988 7.5017 13.0001C7.5017 12.9015 7.48224 12.8038 7.44443 12.7127C7.40662 12.6216 7.35121 12.5388 7.28136 12.4691L1.81086 7.00012L7.28136 1.53112C7.42219 1.39029 7.50131 1.19929 7.50131 1.00012C7.50131 0.800961 7.42219 0.609954 7.28136 0.469124C7.14053 0.328294 6.94953 0.249177 6.75036 0.249177C6.5512 0.249177 6.36019 0.328294 6.21936 0.469124L0.219364 6.46912C0.149519 6.53879 0.0941051 6.62156 0.0562954 6.71267C0.0184857 6.80379 -0.000976562 6.90147 -0.000976562 7.00012C-0.000976562 7.09878 0.0184857 7.19646 0.0562954 7.28757C0.0941051 7.37869 0.149519 7.46146 0.219364 7.53112L6.21936 13.5311C6.28903 13.601 6.3718 13.6564 6.46291 13.6942C6.55403 13.732 6.65171 13.7515 6.75036 13.7515C6.84902 13.7515 6.9467 13.732 7.03782 13.6942C7.12893 13.6564 7.2117 13.601 7.28136 13.5311V13.5311Z" fill="#6F6F6F"/>
</svg>
