<svg width="22" height="22" viewBox="0 0 22 22" fill="none" xmlns="http://www.w3.org/2000/svg">
  <path fill-rule="evenodd" clip-rule="evenodd" d="M7.89961 0.600098H7.86066H7.86065C6.77358 0.60009 5.9029 0.600084 5.19913 0.657584C4.47646 0.716628 3.8509 0.840759 3.27506 1.13417C2.35306 1.60395 1.60346 2.35355 1.13368 3.27554C0.840271 3.85139 0.71614 4.47695 0.657096 5.19962C0.599595 5.90339 0.599602 6.77406 0.59961 7.86113V7.86115V7.9001V14.1001V14.139V14.1391C0.599602 15.2261 0.599595 16.0968 0.657096 16.8006C0.71614 17.5232 0.840271 18.1488 1.13368 18.7247C1.60346 19.6466 2.35306 20.3962 3.27506 20.866C3.8509 21.1594 4.47646 21.2836 5.19913 21.3426C5.90288 21.4001 6.77354 21.4001 7.86057 21.4001H7.86066H7.89961H14.0996H14.1386H14.1386C15.2257 21.4001 16.0963 21.4001 16.8001 21.3426C17.5228 21.2836 18.1483 21.1594 18.7242 20.866C19.6462 20.3962 20.3958 19.6466 20.8655 18.7247C21.1589 18.1488 21.2831 17.5232 21.3421 16.8006C21.3996 16.0968 21.3996 15.2262 21.3996 14.1391V14.1391V14.1001V7.9001V7.86115V7.86106C21.3996 6.77402 21.3996 5.90337 21.3421 5.19962C21.2831 4.47695 21.1589 3.85139 20.8655 3.27554C20.3958 2.35355 19.6462 1.60395 18.7242 1.13417C18.1483 0.840759 17.5228 0.716628 16.8001 0.657584C16.0963 0.600084 15.2256 0.60009 14.1386 0.600098H14.1386H14.0996H7.89961ZM4.09224 2.73798C4.37204 2.59541 4.73435 2.50156 5.34571 2.45161C5.96756 2.4008 6.76465 2.4001 7.89961 2.4001H14.0996C15.2346 2.4001 16.0317 2.4008 16.6535 2.45161C17.2649 2.50156 17.6272 2.59541 17.907 2.73798C18.4903 3.03519 18.9645 3.50943 19.2617 4.09273C19.4043 4.37253 19.4982 4.73484 19.5481 5.34619C19.5989 5.96805 19.5996 6.76514 19.5996 7.9001V13.4264L17.6144 10.7098C16.8155 9.61651 15.1838 9.61651 14.3848 10.7098L11.7288 14.3443C10.9659 15.3884 9.42765 15.4448 8.59018 14.4596L8.02349 13.7929C7.22483 12.8533 5.7744 12.8533 4.97574 13.7929L2.45978 16.7528C2.45676 16.7206 2.45387 16.6877 2.45112 16.654C2.40031 16.0321 2.39961 15.2351 2.39961 14.1001V7.9001C2.39961 6.76514 2.40031 5.96805 2.45112 5.34619C2.50107 4.73484 2.59492 4.37253 2.73749 4.09273C3.0347 3.50943 3.50894 3.03519 4.09224 2.73798ZM9.49962 7.0001C9.49962 8.38081 8.38033 9.5001 6.99962 9.5001C5.61891 9.5001 4.49962 8.38081 4.49962 7.0001C4.49962 5.61938 5.61891 4.5001 6.99962 4.5001C8.38033 4.5001 9.49962 5.61938 9.49962 7.0001Z" fill="#262F56"/>
</svg>
