<svg width="18" height="18" viewBox="0 0 18 18" fill="none" xmlns="http://www.w3.org/2000/svg">
  <path d="M15.7503 14.25L11.8848 10.3845C12.5994 9.29847 12.8856 7.98587 12.688 6.70088C12.4904 5.41589 11.8231 4.24992 10.8152 3.42871C9.8073 2.60751 8.53055 2.18948 7.23214 2.25557C5.93373 2.32166 4.70602 2.86717 3.78672 3.78647C2.86741 4.70578 2.32191 5.93348 2.25582 7.2319C2.18973 8.53031 2.60775 9.80706 3.42896 10.815C4.25016 11.8229 5.41613 12.4902 6.70112 12.6878C7.98611 12.8854 9.29871 12.5992 10.3848 11.8845L14.2503 15.75L15.7503 14.25ZM3.75029 7.50004C3.75029 5.43229 5.43254 3.75004 7.50029 3.75004C9.56804 3.75004 11.2503 5.43229 11.2503 7.50004C11.2503 9.56779 9.56804 11.25 7.50029 11.25C5.43254 11.25 3.75029 9.56779 3.75029 7.50004Z" fill="#7F9AB3"/>
</svg>
