<svg width="120" height="54" viewBox="0 0 120 54" fill="none" xmlns="http://www.w3.org/2000/svg">
<g clip-path="url(#clip0_1_3)">
<path fill-rule="evenodd" clip-rule="evenodd" d="M90.4734 30.3096H86.0951V24.5947H90.3298C91.767 24.5947 92.8555 24.8245 93.5656 25.2769C94.2573 25.7182 94.5936 26.4156 94.5936 27.4092C94.5936 29.3609 93.2458 30.3096 90.4734 30.3096ZM86.0951 16.1412H89.354C90.8675 16.1412 92.003 16.3102 92.7288 16.6438C93.4138 16.959 93.7468 17.5892 93.7468 18.5704C93.7468 19.0264 93.6356 19.4437 93.4121 19.8178C93.1279 20.3397 92.7293 20.683 92.1946 20.8676C91.6389 21.0594 90.8329 21.1567 89.799 21.1567H86.0951V16.1412ZM95.478 22.5779C97.3647 21.5676 98.3209 20.0339 98.3209 18.0133C98.3209 17.3833 98.2152 16.7768 98.0075 16.2109C97.7998 15.6444 97.4938 15.1203 97.0976 14.6516C96.7033 14.1852 96.2422 13.7941 95.7282 13.4888C95.1256 13.1255 94.436 12.8765 93.6778 12.7488C92.9342 12.6237 92.0444 12.5606 91.0327 12.5606H84.2166C83.2573 12.5606 82.5463 12.7843 82.103 13.2253C81.6596 13.6666 81.4345 14.3841 81.4345 15.3576V28.3878V31.0934V33.8905H84.2166H85.4337H90.6458C91.7596 33.8905 92.7484 33.8345 93.5844 33.7243C94.4296 33.6136 95.1903 33.4191 95.8484 33.1452C96.9039 32.6841 97.7545 31.9601 98.3756 30.9931C98.9963 30.0277 99.3112 28.9277 99.3112 27.7236C99.3112 25.2496 98.0223 23.5208 95.478 22.5779Z" fill="#1963D1"/>
<path fill-rule="evenodd" clip-rule="evenodd" d="M67.73 17.5192L67.7559 17.5896L67.7816 17.5192L70.6032 25.3462H67.7559H64.9084L67.73 17.5192ZM63.6541 28.9126H67.7559H71.8572L73.694 33.8554H78.5191L77.1788 30.4835C77.1126 30.3108 77.0405 30.1266 76.9573 29.9211L71.0482 14.9828C70.8298 14.427 70.5922 13.9573 70.3422 13.5867C70.0833 13.2026 69.7389 12.8875 69.3178 12.6501C68.8939 12.4115 68.3687 12.2904 67.7559 12.2904C67.1429 12.2904 66.6177 12.4115 66.1938 12.6501C65.773 12.8875 65.4283 13.2026 65.1694 13.5867C64.9194 13.9573 64.6819 14.427 64.4634 14.9828L58.5543 29.9211C58.4708 30.1266 58.3988 30.3108 58.3328 30.4835L56.9925 33.8554H61.8176L63.6541 28.9126Z" fill="#1963D1"/>
<path fill-rule="evenodd" clip-rule="evenodd" d="M111.176 30.3096H106.797V24.5947H111.032C112.469 24.5947 113.558 24.8245 114.268 25.2769C114.959 25.7182 115.296 26.4156 115.296 27.4092C115.296 29.3609 113.948 30.3096 111.176 30.3096ZM106.797 16.1412H110.056C111.569 16.1412 112.705 16.3102 113.431 16.6438C114.116 16.959 114.449 17.5892 114.449 18.5704C114.449 19.0264 114.338 19.4437 114.114 19.8178C113.83 20.3397 113.431 20.683 112.897 20.8676C112.341 21.0594 111.535 21.1567 110.501 21.1567H106.797V16.1412ZM116.18 22.5779C118.067 21.5676 119.023 20.0339 119.023 18.0133C119.023 17.3833 118.917 16.7768 118.71 16.2109C118.502 15.6444 118.196 15.1203 117.8 14.6516C117.405 14.1852 116.944 13.7941 116.43 13.4888C115.828 13.1255 115.138 12.8765 114.38 12.7488C113.636 12.6237 112.747 12.5606 111.735 12.5606H104.919C103.959 12.5606 103.248 12.7843 102.805 13.2253C102.362 13.6666 102.137 14.3841 102.137 15.3576V28.3878V31.0934V33.8905H104.919H106.136H111.348C112.462 33.8905 113.451 33.8345 114.287 33.7243C115.132 33.6136 115.892 33.4191 116.551 33.1452C117.606 32.6841 118.457 31.9601 119.078 30.9931C119.699 30.0277 120.013 28.9277 120.013 27.7236C120.013 25.2496 118.724 23.5208 116.18 22.5779Z" fill="#1963D1"/>
<path fill-rule="evenodd" clip-rule="evenodd" d="M10.2007 27.1405C7.15614 22.2413 5.52656 16.4448 6.62151 10.5715C6.99524 8.56815 8.61056 7.01218 10.6332 6.69501C12.443 6.41127 13.7511 6.26915 16.3145 6.48119C15.3906 8.00702 14.844 9.52905 14.2694 11.0083C12.9891 10.9622 11.6849 11.217 11.2717 11.3437C10.2315 15.17 11.5739 21.721 15.6294 27.1405H10.2007Z" fill="#1963D1"/>
<path fill-rule="evenodd" clip-rule="evenodd" d="M15.1637 15.2169C16.4921 9.61041 19.459 4.36489 24.4068 0.982632C26.0944 -0.171302 28.3427 -0.134822 29.9982 1.06421C31.4794 2.13682 32.5053 2.95661 34.1672 4.91031C32.4297 5.33921 30.9618 6.03106 29.5043 6.6725C28.6319 5.73897 27.5285 5.00151 27.1461 4.80037C23.6917 6.77409 19.9857 12.351 19.0026 19.037L15.1637 15.2169Z" fill="#1963D1"/>
<path fill-rule="evenodd" clip-rule="evenodd" d="M27.1461 10.2776C32.0694 7.24803 37.8948 5.62644 43.7968 6.71603C45.81 7.08793 47.3739 8.69533 47.6926 10.7081C47.9775 12.509 48.1206 13.8106 47.9075 16.3614C46.3739 15.4421 44.8446 14.8982 43.3579 14.3264C43.4045 13.0524 43.1483 11.7546 43.0208 11.3434C39.1756 10.3083 32.5926 11.6441 27.1461 15.6797V10.2776Z" fill="#1963D1"/>
<path fill-rule="evenodd" clip-rule="evenodd" d="M39.1291 15.2167C44.7632 16.5386 50.0346 19.4909 53.4335 24.4145C54.5931 26.0938 54.5565 28.331 53.3515 29.9785C52.2736 31.4523 51.4498 32.4733 49.4865 34.127C49.0555 32.3978 48.3602 30.9373 47.7156 29.487C48.6537 28.6186 49.3948 27.5209 49.597 27.1404C47.6135 23.7029 42.0092 20.0151 35.2902 19.0367L39.1291 15.2167Z" fill="#1963D1"/>
<path fill-rule="evenodd" clip-rule="evenodd" d="M44.0922 27.14C47.1367 32.0392 48.7663 37.8357 47.6711 43.709C47.2976 45.7124 45.6823 47.2686 43.6597 47.5858C41.8498 47.8693 40.5418 48.0114 37.9784 47.7993C38.9023 46.2735 39.4489 44.7515 40.0235 43.2723C41.3037 43.3186 42.6077 43.0638 43.0212 42.9369C44.0614 39.1105 42.719 32.5595 38.6632 27.14H44.0922Z" fill="#1963D1"/>
<path fill-rule="evenodd" clip-rule="evenodd" d="M39.1289 39.0643C37.8005 44.6708 34.8336 49.9163 29.8858 53.2986C28.1981 54.4523 25.9499 54.4161 24.2944 53.217C22.8132 52.1444 21.7873 51.3246 20.1254 49.3709C21.8629 48.9418 23.3308 48.2502 24.7883 47.6087C25.6607 48.542 26.7641 49.2795 27.1465 49.4806C30.6009 47.5069 34.3068 41.9303 35.29 35.2443L39.1289 39.0643Z" fill="#1963D1"/>
<path fill-rule="evenodd" clip-rule="evenodd" d="M27.146 44.0033C22.2226 47.0329 16.3973 48.6545 10.4953 47.5647C8.48211 47.193 6.91821 45.5854 6.59973 43.5727C6.3146 41.772 6.17178 40.4703 6.38461 37.9193C7.91821 38.8386 9.44774 39.3825 10.9342 39.9546C10.8877 41.2286 11.144 42.5261 11.2713 42.9373C15.1165 43.9727 21.6997 42.6366 27.146 38.601V44.0033Z" fill="#1963D1"/>
<path fill-rule="evenodd" clip-rule="evenodd" d="M15.1642 39.0642C9.53 37.7423 4.25863 34.7902 0.859707 29.8664C-0.299914 28.187 -0.263254 25.9501 0.941682 24.3024C2.01958 22.8288 2.84341 21.8076 4.80674 20.1538C5.23775 21.8828 5.93301 23.3435 6.57762 24.7939C5.63948 25.662 4.89839 26.76 4.69626 27.1405C6.6797 30.578 12.2841 34.2658 19.003 35.2444L15.1642 39.0642Z" fill="#1963D1"/>
<path fill-rule="evenodd" clip-rule="evenodd" d="M58.1093 40.0435H59.0951L58.6002 38.904L58.1093 40.0435ZM57.1157 41.1749L58.3751 38.3059H58.8413L60.1009 41.1749H59.5694L59.2789 40.4871H57.9253L57.631 41.1749H57.1157Z" fill="#1963D1"/>
<path fill-rule="evenodd" clip-rule="evenodd" d="M60.4366 41.1746V40.8369L61.6838 39.4286H60.4817V39.026H62.3137V39.3637L61.0665 40.7715H62.3137V41.1746H60.4366Z" fill="#1963D1"/>
<path fill-rule="evenodd" clip-rule="evenodd" d="M64.264 40.2511H63.1518C63.1678 40.4165 63.2238 40.5521 63.3193 40.658C63.4147 40.7639 63.5415 40.8166 63.6996 40.8166C63.8496 40.8166 63.9748 40.7651 64.0759 40.662C64.1767 40.5592 64.2393 40.4221 64.264 40.2511ZM63.6464 38.9774C63.9626 38.9774 64.2266 39.0812 64.4379 39.2887C64.6492 39.4964 64.7548 39.7627 64.7548 40.0882V40.0966C64.7548 40.4112 64.655 40.6772 64.4562 40.8941C64.2571 41.1112 64.0036 41.2196 63.6955 41.2196C63.3681 41.2196 63.1141 41.1092 62.9328 40.888C62.7516 40.6671 62.6609 40.3922 62.6609 40.0639C62.6609 40.0368 62.6637 39.9907 62.6688 39.9256H64.2559C64.2284 39.7518 64.1589 39.6178 64.0471 39.5228C63.9353 39.4278 63.7991 39.3802 63.6383 39.3802C63.4257 39.3802 63.2294 39.4655 63.0494 39.6365L62.7589 39.3802C62.9853 39.1116 63.2811 38.9774 63.6464 38.9774Z" fill="#1963D1"/>
<path fill-rule="evenodd" clip-rule="evenodd" d="M65.2501 41.1748V39.0262H65.7491V39.5104C65.9018 39.144 66.1567 38.969 66.5138 38.9852V39.5063H66.4853C66.2587 39.5063 66.0795 39.5788 65.9474 39.7239C65.815 39.8693 65.7491 40.0801 65.7491 40.3568V41.1748H65.2501Z" fill="#1963D1"/>
<path fill-rule="evenodd" clip-rule="evenodd" d="M67.6088 40.5989C67.7315 40.7279 67.8799 40.7925 68.0545 40.7925C68.2292 40.7925 68.3756 40.7294 68.4942 40.6032C68.6126 40.4771 68.6722 40.3106 68.6722 40.1047V40.0966C68.6722 39.8929 68.6121 39.7277 68.4922 39.6C68.3723 39.4726 68.2264 39.4088 68.0545 39.4088C67.8799 39.4088 67.7315 39.4734 67.6088 39.6018C67.4863 39.7308 67.4247 39.8957 67.4247 40.0966V40.1047C67.4247 40.3053 67.4863 40.4702 67.6088 40.5989ZM68.1732 41.2196C67.8733 41.2196 67.6279 41.0934 67.4369 40.8411V41.1748H66.9382V38.2042H67.4369V39.3842C67.6279 39.1159 67.8733 38.9814 68.1732 38.9814C68.443 38.9814 68.6775 39.082 68.8763 39.2826C69.0757 39.4835 69.175 39.7546 69.175 40.0966V40.1047C69.175 40.4464 69.0764 40.7177 68.8786 40.9186C68.6808 41.1193 68.4458 41.2196 68.1732 41.2196Z" fill="#1963D1"/>
<path fill-rule="evenodd" clip-rule="evenodd" d="M70.4474 40.8612C70.6134 40.8612 70.7511 40.8186 70.8603 40.733C70.9696 40.6476 71.024 40.5372 71.024 40.4016V40.2547C70.8769 40.1979 70.7132 40.1696 70.5332 40.1696C70.3723 40.1696 70.2476 40.2007 70.159 40.263C70.0706 40.3256 70.0263 40.4135 70.0263 40.5278V40.5356C70.0263 40.636 70.0655 40.7155 70.1449 40.7738C70.2236 40.8323 70.3247 40.8612 70.4474 40.8612ZM70.3084 41.2194C70.0928 41.2194 69.911 41.1611 69.7626 41.0446C69.6139 40.9278 69.5396 40.7649 69.5396 40.5562V40.548C69.5396 40.32 69.6205 40.1478 69.7829 40.0312C69.9448 39.9145 70.1625 39.8559 70.4349 39.8559C70.634 39.8559 70.8277 39.8858 71.0156 39.9456V39.8927C71.0156 39.5806 70.8372 39.4248 70.48 39.4248C70.2837 39.4248 70.078 39.4696 69.8626 39.559L69.7277 39.1724C70.0029 39.0559 70.2756 38.9977 70.5457 38.9977C70.8669 38.9977 71.1057 39.0774 71.261 39.2376C71.4166 39.3921 71.4942 39.6132 71.4942 39.9008V41.1745H71.0118V40.906C70.8372 41.115 70.6027 41.2194 70.3084 41.2194Z" fill="#1963D1"/>
<path fill-rule="evenodd" clip-rule="evenodd" d="M72.9378 40.6212L73.5022 39.026H74.0173L73.1586 41.2315C73.0712 41.4539 72.9747 41.6107 72.8683 41.7017C72.7619 41.7926 72.6214 41.838 72.447 41.838C72.2642 41.838 72.0939 41.7931 71.9355 41.7034L72.1036 41.3414C72.2072 41.3959 72.3039 41.4228 72.3938 41.4228C72.4674 41.4228 72.5269 41.4045 72.5717 41.3678C72.6166 41.3313 72.6596 41.2682 72.7003 41.1785L71.8009 39.026H72.3324L72.9378 40.6212Z" fill="#1963D1"/>
<path fill-rule="evenodd" clip-rule="evenodd" d="M75.3178 41.2235C74.9988 41.2235 74.7331 41.1158 74.5202 40.9002C74.3077 40.6844 74.2012 40.4219 74.2012 40.1126V40.1045C74.2012 39.7952 74.3082 39.5305 74.5225 39.3108C74.7364 39.0912 75.0044 38.9812 75.326 38.9812C75.6669 38.9812 75.9543 39.1049 76.189 39.3516L75.8782 39.6812C75.7061 39.5021 75.521 39.4127 75.3219 39.4127C75.1447 39.4127 74.996 39.479 74.8761 39.612C74.7562 39.745 74.6964 39.9064 74.6964 40.0964V40.1045C74.6964 40.2973 74.7567 40.4599 74.8782 40.5929C74.9993 40.7257 75.1541 40.7923 75.3425 40.7923C75.5385 40.7923 75.7254 40.7042 75.9026 40.5278L76.2012 40.8207C76.0839 40.9509 75.9571 41.0505 75.8209 41.1199C75.6844 41.189 75.5167 41.2235 75.3178 41.2235Z" fill="#1963D1"/>
<path fill-rule="evenodd" clip-rule="evenodd" d="M77.4157 40.8612C77.5819 40.8612 77.7196 40.8186 77.8288 40.733C77.9381 40.6476 77.9925 40.5372 77.9925 40.4016V40.2547C77.8451 40.1979 77.6817 40.1696 77.5017 40.1696C77.3408 40.1696 77.2161 40.2007 77.1275 40.263C77.0389 40.3256 76.9946 40.4135 76.9946 40.5278V40.5356C76.9946 40.636 77.034 40.7155 77.1132 40.7738C77.1921 40.8323 77.2932 40.8612 77.4157 40.8612ZM77.2767 41.2194C77.0613 41.2194 76.8795 41.1611 76.7308 41.0446C76.5822 40.9278 76.5081 40.7649 76.5081 40.5562V40.548C76.5081 40.32 76.589 40.1478 76.7512 40.0312C76.9134 39.9145 77.1308 39.8559 77.4034 39.8559C77.6025 39.8559 77.796 39.8858 77.9841 39.9456V39.8927C77.9841 39.5806 77.8057 39.4248 77.4485 39.4248C77.2522 39.4248 77.0463 39.4696 76.8309 39.559L76.696 39.1724C76.9714 39.0559 77.2441 38.9977 77.5139 38.9977C77.8355 38.9977 78.0743 39.0774 78.2295 39.2376C78.3851 39.3921 78.4625 39.6132 78.4625 39.9008V41.1745H77.9803V40.906C77.8057 41.115 77.5712 41.2194 77.2767 41.2194Z" fill="#1963D1"/>
<path fill-rule="evenodd" clip-rule="evenodd" d="M79.0518 41.1746V39.0261H79.5507V39.3554C79.7307 39.1059 79.9555 38.9812 80.2254 38.9812C80.468 38.9812 80.6569 39.0552 80.7918 39.2029C80.9268 39.3508 80.9942 39.551 80.9942 39.8033V41.1746H80.4996V39.9538C80.4996 39.7856 80.4591 39.6561 80.3789 39.5649C80.2982 39.4742 80.1844 39.4286 80.0372 39.4286C79.8901 39.4286 79.7722 39.4762 79.6834 39.5713C79.595 39.6663 79.5507 39.7965 79.5507 39.9619V41.1746H79.0518Z" fill="#1963D1"/>
<path fill-rule="evenodd" clip-rule="evenodd" d="M85.2474 40.3404V40.3323C85.2474 40.0772 85.0512 39.9497 84.6586 39.9497H83.861V40.731H84.6953C84.8699 40.731 85.0053 40.6978 85.1023 40.6312C85.1991 40.5648 85.2474 40.4678 85.2474 40.3404ZM85.0878 39.1398V39.1317C85.0878 39.0177 85.0448 38.9291 84.959 38.8652C84.873 38.8016 84.7485 38.7695 84.5848 38.7695H83.861V39.5264H84.5481C84.7171 39.5264 84.8493 39.4937 84.9447 39.4286C85.0402 39.3638 85.0878 39.2675 85.0878 39.1398ZM83.3661 41.1746V38.3259H84.6502C84.9799 38.3259 85.2296 38.41 85.3987 38.5782C85.5267 38.7059 85.5909 38.8632 85.5909 39.0501V39.0583C85.5909 39.3407 85.4544 39.5523 85.1818 39.6931C85.3673 39.7585 85.5084 39.8438 85.6051 39.9497C85.7019 40.0554 85.7505 40.2005 85.7505 40.3852V40.3933C85.7505 40.6428 85.655 40.8354 85.4641 40.9709C85.2734 41.1067 85.0155 41.1746 84.6909 41.1746H83.3661Z" fill="#1963D1"/>
<path fill-rule="evenodd" clip-rule="evenodd" d="M86.6338 39.9499H87.742C87.7257 39.7845 87.6697 39.6487 87.5742 39.543C87.4787 39.4371 87.3519 39.3842 87.1938 39.3842C87.0414 39.3842 86.9151 39.4359 86.8158 39.5387C86.716 39.6418 86.6554 39.7789 86.6338 39.9499ZM87.2511 41.2234C86.9349 41.2234 86.6709 41.1198 86.4596 40.9123C86.2483 40.7046 86.1429 40.4368 86.1429 40.1085V40.1004C86.1429 39.7857 86.2425 39.5205 86.4416 39.3049C86.6404 39.0893 86.8927 38.9814 87.1982 38.9814C87.5253 38.9814 87.7794 39.0918 87.9609 39.3127C88.1422 39.5339 88.2325 39.8088 88.2325 40.1368C88.2325 40.1642 88.23 40.2101 88.2246 40.2754H86.6378C86.6651 40.4492 86.7346 40.5832 86.8463 40.6782C86.9581 40.7732 87.0956 40.8208 87.2593 40.8208C87.4693 40.8208 87.6643 40.7352 87.8443 40.5645L88.1348 40.8208C87.9054 41.0894 87.6111 41.2234 87.2511 41.2234Z" fill="#1963D1"/>
<path fill-rule="evenodd" clip-rule="evenodd" d="M89.5619 40.6212L90.1263 39.026H90.6416L89.7829 41.2315C89.6955 41.4539 89.5988 41.6107 89.4926 41.7017C89.3862 41.7926 89.2457 41.838 89.071 41.838C88.8885 41.838 88.7182 41.7931 88.5598 41.7034L88.7279 41.3414C88.8312 41.3959 88.9282 41.4228 89.0181 41.4228C89.0917 41.4228 89.151 41.4045 89.196 41.3678C89.2409 41.3313 89.2839 41.2682 89.3246 41.1785L88.4249 39.026H88.9567L89.5619 40.6212Z" fill="#1963D1"/>
<path fill-rule="evenodd" clip-rule="evenodd" d="M91.0627 41.1746V39.0261H91.5617V39.3554C91.7417 39.1059 91.9667 38.9812 92.2363 38.9812C92.4789 38.9812 92.6678 39.0552 92.8028 39.2029C92.9377 39.3508 93.0054 39.551 93.0054 39.8033V41.1746H92.5105V39.9538C92.5105 39.7856 92.47 39.6561 92.3898 39.5649C92.3091 39.4742 92.1953 39.4286 92.0482 39.4286C91.901 39.4286 91.7832 39.4762 91.6946 39.5713C91.606 39.6663 91.5617 39.7965 91.5617 39.9619V41.1746H91.0627Z" fill="#1963D1"/>
<path fill-rule="evenodd" clip-rule="evenodd" d="M95.0826 40.2511H93.9703C93.9863 40.4165 94.0423 40.5521 94.1378 40.658C94.2333 40.7639 94.36 40.8166 94.5181 40.8166C94.6681 40.8166 94.7933 40.7651 94.8944 40.662C94.9952 40.5592 95.0579 40.4221 95.0826 40.2511ZM94.4649 38.9774C94.7811 38.9774 95.0451 39.0812 95.2564 39.2887C95.4675 39.4964 95.5734 39.7627 95.5734 40.0882V40.0966C95.5734 40.4112 95.4736 40.6772 95.2748 40.8941C95.0757 41.1112 94.8221 41.2196 94.5141 41.2196C94.1867 41.2196 93.9326 41.1092 93.7513 40.888C93.5701 40.6671 93.4794 40.3922 93.4794 40.0639C93.4794 40.0368 93.482 39.9907 93.4876 39.9256H95.0744C95.0469 39.7518 94.9777 39.6178 94.8656 39.5228C94.7539 39.4278 94.6177 39.3802 94.4568 39.3802C94.2442 39.3802 94.0479 39.4655 93.8679 39.6365L93.5774 39.3802C93.804 39.1116 94.0996 38.9774 94.4649 38.9774Z" fill="#1963D1"/>
<path fill-rule="evenodd" clip-rule="evenodd" d="M96.0972 41.1749H96.5961V38.204H96.0972V41.1749Z" fill="#1963D1"/>
<path fill-rule="evenodd" clip-rule="evenodd" d="M97.622 39.026L98.1167 39.7463L98.6198 39.026H99.1472L98.3868 40.0761L99.1801 41.1746H98.6401L98.1086 40.4095L97.5811 41.1746H97.0536L97.8428 40.0799L97.0821 39.026H97.622Z" fill="#1963D1"/>
<path fill-rule="evenodd" clip-rule="evenodd" d="M100.313 40.8612C100.479 40.8612 100.617 40.8186 100.726 40.733C100.835 40.6476 100.89 40.5372 100.89 40.4016V40.2547C100.743 40.1979 100.579 40.1696 100.399 40.1696C100.238 40.1696 100.114 40.2007 100.025 40.263C99.9364 40.3256 99.8921 40.4135 99.8921 40.5278V40.5356C99.8921 40.636 99.9316 40.7155 100.011 40.7738C100.09 40.8323 100.191 40.8612 100.313 40.8612ZM100.174 41.2194C99.9586 41.2194 99.7768 41.1611 99.6284 41.0446C99.4797 40.9278 99.4054 40.7649 99.4054 40.5562V40.548C99.4054 40.32 99.4863 40.1478 99.6487 40.0312C99.8107 39.9145 100.028 39.8559 100.301 39.8559C100.5 39.8559 100.694 39.8858 100.882 39.9456V39.8927C100.882 39.5806 100.703 39.4248 100.346 39.4248C100.15 39.4248 99.9438 39.4696 99.7284 39.559L99.5935 39.1724C99.869 39.0559 100.141 38.9977 100.411 38.9977C100.733 38.9977 100.972 39.0774 101.127 39.2376C101.283 39.3921 101.36 39.6132 101.36 39.9008V41.1745H100.878V40.906C100.703 41.115 100.469 41.2194 100.174 41.2194Z" fill="#1963D1"/>
<path fill-rule="evenodd" clip-rule="evenodd" d="M101.978 41.1749H102.476V38.204H101.978V41.1749Z" fill="#1963D1"/>
<path fill-rule="evenodd" clip-rule="evenodd" d="M104.132 40.7922C104.304 40.7922 104.451 40.7276 104.574 40.5987C104.696 40.4702 104.758 40.3051 104.758 40.1044V40.0963C104.758 39.8954 104.696 39.7307 104.574 39.6018C104.451 39.4731 104.304 39.4085 104.132 39.4085C103.957 39.4085 103.81 39.4716 103.691 39.5977C103.57 39.7239 103.511 39.8901 103.511 40.0963V40.1044C103.511 40.3078 103.57 40.4733 103.691 40.601C103.81 40.7284 103.957 40.7922 104.132 40.7922ZM104.75 41.8258V40.8165C104.559 41.0851 104.314 41.2196 104.013 41.2196C103.744 41.2196 103.509 41.119 103.31 40.9184C103.111 40.7175 103.012 40.4464 103.012 40.1044V40.0963C103.012 39.7543 103.11 39.4832 103.308 39.2823C103.506 39.0817 103.741 38.9814 104.013 38.9814C104.316 38.9814 104.562 39.1075 104.75 39.3599V39.026H105.245V41.8258H104.75Z" fill="#1963D1"/>
<path fill-rule="evenodd" clip-rule="evenodd" d="M109.441 40.3404V40.3323C109.441 40.0772 109.245 39.9497 108.852 39.9497H108.055V40.731H108.889C109.064 40.731 109.199 40.6978 109.296 40.6312C109.393 40.5648 109.441 40.4678 109.441 40.3404ZM109.282 39.1398V39.1317C109.282 39.0177 109.238 38.9291 109.153 38.8652C109.067 38.8016 108.942 38.7695 108.778 38.7695H108.055V39.5264H108.742C108.911 39.5264 109.043 39.4937 109.138 39.4286C109.234 39.3638 109.282 39.2675 109.282 39.1398ZM107.56 41.1746V38.3259H108.844C109.174 38.3259 109.423 38.41 109.592 38.5782C109.72 38.7059 109.785 38.8632 109.785 39.0501V39.0583C109.785 39.3407 109.648 39.5523 109.375 39.6931C109.561 39.7585 109.702 39.8438 109.799 39.9497C109.896 40.0554 109.944 40.2005 109.944 40.3852V40.3933C109.944 40.6428 109.849 40.8354 109.658 40.9709C109.467 41.1067 109.209 41.1746 108.885 41.1746H107.56Z" fill="#1963D1"/>
<path fill-rule="evenodd" clip-rule="evenodd" d="M111.215 40.8612C111.381 40.8612 111.519 40.8186 111.628 40.733C111.737 40.6476 111.792 40.5372 111.792 40.4016V40.2547C111.645 40.1979 111.481 40.1696 111.301 40.1696C111.14 40.1696 111.015 40.2007 110.927 40.263C110.838 40.3256 110.794 40.4135 110.794 40.5278V40.5356C110.794 40.636 110.833 40.7155 110.913 40.7738C110.992 40.8323 111.093 40.8612 111.215 40.8612ZM111.076 41.2194C110.86 41.2194 110.679 41.1611 110.53 41.0446C110.382 40.9278 110.307 40.7649 110.307 40.5562V40.548C110.307 40.32 110.388 40.1478 110.551 40.0312C110.713 39.9145 110.93 39.8559 111.203 39.8559C111.402 39.8559 111.595 39.8858 111.784 39.9456V39.8927C111.784 39.5806 111.605 39.4248 111.248 39.4248C111.051 39.4248 110.846 39.4696 110.63 39.559L110.495 39.1724C110.771 39.0559 111.043 38.9977 111.313 38.9977C111.635 38.9977 111.874 39.0774 112.029 39.2376C112.185 39.3921 112.262 39.6132 112.262 39.9008V41.1745H111.779V40.906C111.605 41.115 111.371 41.2194 111.076 41.2194Z" fill="#1963D1"/>
<path fill-rule="evenodd" clip-rule="evenodd" d="M112.851 41.1746V39.0261H113.35V39.3554C113.53 39.1059 113.755 38.9812 114.025 38.9812C114.267 38.9812 114.456 39.0552 114.591 39.2029C114.726 39.3508 114.794 39.551 114.794 39.8033V41.1746H114.299V39.9538C114.299 39.7856 114.258 39.6561 114.178 39.5649C114.098 39.4742 113.984 39.4286 113.837 39.4286C113.689 39.4286 113.571 39.4762 113.483 39.5713C113.394 39.6663 113.35 39.7965 113.35 39.9619V41.1746H112.851Z" fill="#1963D1"/>
<path fill-rule="evenodd" clip-rule="evenodd" d="M115.387 41.1747V38.2039H115.886V39.9782L116.782 39.0262H117.383L116.524 39.9009L117.411 41.1747H116.831L116.193 40.2427L115.886 40.5601V41.1747H115.387Z" fill="#1963D1"/>
<path fill-rule="evenodd" clip-rule="evenodd" d="M117.796 41.1745H118.295V39.026H117.796V41.1745Z" fill="#1963D1"/>
</g>
<defs>
<clipPath id="clip0_1_3">
<rect width="120" height="54" fill="white"/>
</clipPath>
</defs>
</svg>
