<svg width="140" height="28" viewBox="0 0 140 28" fill="none" xmlns="http://www.w3.org/2000/svg">
  <g clip-path="url(#clip0_2094_5187)">
    <mask id="mask0_2094_5187" style="mask-type:luminance" maskUnits="userSpaceOnUse" x="0" y="0" width="141"
      height="28">
      <path d="M140.065 0.836914H0V27.6702H140.065V0.836914Z" fill="white" />
    </mask>
    <g mask="url(#mask0_2094_5187)">
      <mask id="mask1_2094_5187" style="mask-type:luminance" maskUnits="userSpaceOnUse" x="0" y="0" width="141"
        height="28">
        <path d="M140.065 0.836914H0V27.6702H140.065V0.836914Z" fill="white" />
      </mask>
      <g mask="url(#mask1_2094_5187)">
        <path
          d="M29.6419 3.0842C27.3768 2.03435 24.9548 1.27137 22.4227 0.836914C22.1117 1.39386 21.7484 2.14298 21.498 2.73889C18.8063 2.33789 16.1393 2.33789 13.4971 2.73889C13.2467 2.14298 12.8751 1.39386 12.5614 0.836914C10.0265 1.27137 7.60175 2.03715 5.33663 3.08976C0.767855 9.92898 -0.470665 16.5983 0.148596 23.173C3.17885 25.4146 6.11553 26.7764 9.00265 27.6675C9.71549 26.6956 10.3513 25.6625 10.8989 24.5737C9.85584 24.181 8.85678 23.6965 7.91277 23.134C8.16321 22.9502 8.40818 22.758 8.64486 22.5603C14.4026 25.2281 20.6585 25.2281 26.3475 22.5603C26.5869 22.758 26.8318 22.9502 27.0796 23.134C26.1328 23.6993 25.131 24.1838 24.0879 24.5765C24.6356 25.6625 25.2686 26.6984 25.9842 27.6702C28.8741 26.7792 31.8135 25.4174 34.8437 23.173C35.5703 15.5513 33.6025 8.94318 29.6419 3.0842ZM11.6834 19.1296C9.95495 19.1296 8.5375 17.5312 8.5375 15.5847C8.5375 13.6382 9.92468 12.037 11.6834 12.037C13.4421 12.037 14.8595 13.6354 14.8292 15.5847C14.832 17.5312 13.4421 19.1296 11.6834 19.1296ZM23.309 19.1296C21.5806 19.1296 20.1631 17.5312 20.1631 15.5847C20.1631 13.6382 21.5502 12.037 23.309 12.037C25.0676 12.037 26.4851 13.6354 26.4548 15.5847C26.4548 17.5312 25.0676 19.1296 23.309 19.1296Z"
          fill="#0B0C0E" />
        <path
          d="M47.0225 7.68262H54.536C56.3472 7.68262 57.8774 7.96943 59.1327 8.54031C60.3846 9.11113 61.3234 9.90757 61.9455 10.9268C62.5672 11.946 62.8809 13.1128 62.8809 14.4271C62.8809 15.7137 62.5561 16.8805 61.9067 17.9247C61.2572 18.9717 60.269 19.7988 58.9399 20.4087C57.6107 21.0185 55.9644 21.3248 53.9968 21.3248H47.0225V7.68262ZM53.9196 17.8579C55.1389 17.8579 56.0776 17.5488 56.7324 16.9333C57.3876 16.3151 57.7152 15.4742 57.7152 14.4077C57.7152 13.4191 57.4231 12.631 56.8398 12.0406C56.2566 11.4503 55.373 11.1523 54.192 11.1523H51.8416V17.8579H53.9196Z"
          fill="#0B0C0E" />
        <path
          d="M74.1295 21.3076C73.0891 21.0347 72.1503 20.6393 71.3167 20.1186V16.8828C71.9469 17.3756 72.7917 17.7822 73.8513 18.1025C74.9109 18.4199 75.935 18.5786 76.9255 18.5786C77.3879 18.5786 77.7376 18.5174 77.9741 18.3948C78.211 18.2723 78.3295 18.1247 78.3295 17.9549C78.3295 17.7599 78.2662 17.5984 78.1367 17.4675C78.0072 17.3367 77.7568 17.228 77.3855 17.1361L75.0735 16.6098C73.7496 16.298 72.8108 15.8663 72.2525 15.3122C71.6937 14.7608 71.4155 14.0368 71.4155 13.1401C71.4155 12.3854 71.6577 11.7311 72.1479 11.1713C72.6348 10.6116 73.3284 10.18 74.2283 9.87644C75.1286 9.57014 76.1796 9.41699 77.3879 9.41699C78.4667 9.41699 79.4548 9.53393 80.3552 9.76786C81.255 10.0018 81.9981 10.2997 82.59 10.6645V13.7249C81.9842 13.3601 81.2905 13.0733 80.4981 12.8561C79.7081 12.6417 78.8965 12.5358 78.0594 12.5358C76.8511 12.5358 76.2487 12.7447 76.2487 13.1596C76.2487 13.3546 76.3422 13.4993 76.5293 13.5968C76.7164 13.6943 77.0603 13.7945 77.5587 13.9003L79.485 14.2512C80.7432 14.4712 81.6815 14.8583 82.2979 15.4096C82.9147 15.961 83.2227 16.777 83.2227 17.8574C83.2227 19.0409 82.7137 19.9793 81.6925 20.6755C80.6713 21.3717 79.2236 21.7198 77.3467 21.7198C76.2429 21.717 75.1699 21.5805 74.1295 21.3076Z"
          fill="#0B0C0E" />
        <path
          d="M87.7701 20.8984C86.6668 20.3526 85.8327 19.6119 85.2767 18.6763C84.7208 17.7406 84.4402 16.688 84.4402 15.5184C84.4402 14.3488 84.729 13.3018 85.307 12.3801C85.885 11.4583 86.7326 10.7343 87.8502 10.208C88.9674 9.6817 90.3023 9.41992 91.8574 9.41992C93.7838 9.41992 95.383 9.82928 96.6546 10.648V14.2152C96.2061 13.9033 95.6828 13.6499 95.0856 13.455C94.4884 13.26 93.85 13.1625 93.1674 13.1625C91.973 13.1625 91.04 13.3825 90.3656 13.8253C89.6912 14.2681 89.353 14.8445 89.353 15.5602C89.353 16.2619 89.6802 16.8356 90.3354 17.2867C90.9906 17.735 91.9399 17.9606 93.1866 17.9606C93.8279 17.9606 94.4611 17.8659 95.0856 17.6793C95.7078 17.49 96.2445 17.2589 96.693 16.9859V20.4362C95.2813 21.2938 93.6437 21.7227 91.7802 21.7227C90.2116 21.7171 88.8738 21.4442 87.7701 20.8984Z"
          fill="#0B0C0E" />
        <path
          d="M101.46 20.8982C100.348 20.3524 99.5006 19.6061 98.9169 18.6565C98.3336 17.7069 98.0391 16.6487 98.0391 15.4791C98.0391 14.3096 98.3307 13.2653 98.9169 12.3492C99.503 11.433 100.345 10.7145 101.452 10.1938C102.555 9.67303 103.874 9.41406 105.401 9.41406C106.929 9.41406 108.247 9.67303 109.351 10.1938C110.455 10.7145 111.297 11.4274 111.875 12.338C112.453 13.2486 112.742 14.2929 112.742 15.4764C112.742 16.6459 112.453 17.7041 111.875 18.6537C111.297 19.6033 110.452 20.3496 109.34 20.8953C108.228 21.4412 106.915 21.7141 105.399 21.7141C103.882 21.7141 102.569 21.4439 101.46 20.8982ZM107.314 17.4396C107.782 16.9662 108.019 16.3396 108.019 15.5599C108.019 14.7802 107.785 14.1592 107.314 13.6997C106.846 13.2375 106.207 13.0063 105.399 13.0063C104.576 13.0063 103.931 13.2375 103.461 13.6997C102.993 14.162 102.759 14.7802 102.759 15.5599C102.759 16.3396 102.993 16.9662 103.461 17.4396C103.929 17.913 104.576 18.1525 105.399 18.1525C106.207 18.1497 106.846 17.913 107.314 17.4396Z"
          fill="#0B0C0E" />
        <path
          d="M124.318 10.1387V14.3492C123.828 14.0233 123.195 13.8618 122.41 13.8618C121.383 13.8618 120.591 14.1765 120.04 14.8059C119.487 15.4352 119.212 16.4154 119.212 17.7409V21.3276H114.492V9.92431H119.116V13.55C119.372 12.2244 119.788 11.247 120.36 10.6149C120.93 9.98556 121.667 9.6709 122.564 9.6709C123.244 9.6709 123.828 9.82685 124.318 10.1387Z"
          fill="#0B0C0E" />
        <path
          d="M140 7.29297V21.3278H135.28V18.7743C134.88 19.735 134.275 20.4674 133.461 20.9686C132.646 21.4671 131.638 21.7177 130.444 21.7177C129.376 21.7177 128.446 21.4559 127.65 20.9296C126.855 20.4033 126.241 19.6821 125.809 18.7659C125.38 17.8498 125.162 16.8139 125.162 15.6555C125.149 14.4608 125.377 13.3887 125.848 12.4391C126.316 11.4895 126.979 10.7488 127.832 10.2169C128.685 9.68504 129.66 9.41771 130.752 9.41771C133.001 9.41771 134.509 10.4063 135.28 12.3806V7.29297H140ZM134.575 17.3625C135.057 16.8891 135.296 16.2737 135.296 15.5218C135.296 14.795 135.062 14.2018 134.595 13.7479C134.126 13.294 133.485 13.0657 132.679 13.0657C131.883 13.0657 131.248 13.2968 130.772 13.759C130.295 14.2213 130.059 14.82 130.059 15.5608C130.059 16.3015 130.295 16.9058 130.772 17.3736C131.248 17.8414 131.875 18.0753 132.66 18.0753C133.455 18.0726 134.093 17.8358 134.575 17.3625Z"
          fill="#0B0C0E" />
        <path
          d="M66.8582 11.1376C68.1576 11.1376 69.2115 10.1801 69.2115 8.99897C69.2115 7.81783 68.1576 6.86035 66.8582 6.86035C65.5583 6.86035 64.5049 7.81783 64.5049 8.99897C64.5049 10.1801 65.5583 11.1376 66.8582 11.1376Z"
          fill="#0B0C0E" />
        <path d="M64.5029 12.6113C65.9448 13.2406 67.734 13.2685 69.209 12.6113V21.3887H64.5029V12.6113Z"
          fill="#0B0C0E" />
      </g>
    </g>
  </g>
  <defs>
    <clipPath id="clip0_2094_5187">
      <rect width="140" height="26.8333" fill="white" transform="translate(0 0.836914)" />
    </clipPath>
  </defs>
</svg>