<svg xmlns="http://www.w3.org/2000/svg" width="141" height="41" viewBox="0 0 141 41" fill="none">
  <path fill-rule="evenodd" clip-rule="evenodd"
    d="M138.752 39.6964C138.296 39.6946 137.858 39.5124 137.536 39.1897C137.213 38.8669 137.031 38.4296 137.029 37.9731C137.049 37.5294 137.239 37.1105 137.56 36.8036C137.881 36.4966 138.308 36.3253 138.752 36.3253C139.196 36.3253 139.623 36.4966 139.944 36.8036C140.265 37.1105 140.456 37.5294 140.476 37.9731C140.476 38.9171 139.705 39.6964 138.752 39.6964ZM138.752 35.9357C137.623 35.9357 136.706 36.842 136.706 37.9731C136.706 39.106 137.623 39.9917 138.752 39.9917C139.885 39.9917 140.8 39.1042 140.8 37.9731C140.8 36.842 139.883 35.9357 138.752 35.9357ZM138.366 37.8204V37.1664H138.744C138.96 37.1664 139.202 37.2313 139.202 37.4804C139.202 37.7587 138.933 37.8204 138.699 37.8204H138.366ZM139.614 37.4876C139.614 36.9965 139.194 36.8147 138.763 36.8147H137.956V39.1114H138.366V38.1519H138.663L139.202 39.113H139.705L139.083 38.1072C139.41 38.0372 139.614 37.8184 139.614 37.4876ZM126.729 8.36847C127.285 8.37972 127.838 8.27982 128.356 8.07467C128.873 7.86953 129.345 7.56321 129.742 7.17369C130.14 6.78416 130.456 6.31927 130.671 5.80617C130.887 5.29307 130.998 4.74212 130.998 4.18554C130.998 3.62895 130.887 3.07789 130.672 2.56471C130.456 2.05152 130.141 1.58648 129.743 1.19679C129.346 0.807108 128.875 0.500668 128.357 0.29531C127.84 0.0899522 127.287 -0.0102045 126.731 0.000820707C125.635 0.0227398 124.593 0.473165 123.826 1.25539C123.059 2.03762 122.63 3.08931 122.63 4.18465C122.63 5.27998 123.059 6.33167 123.826 7.1139C124.593 7.89613 125.634 8.34655 126.729 8.36847ZM115.503 11.9814V18.1194H123.265V39.6984H130.191V18.1194H137.954V11.9814H115.503ZM55.0801 8.36847C55.6296 8.36861 56.1738 8.26052 56.6815 8.05032C57.1892 7.84013 57.6506 7.53191 58.0392 7.1434C58.4278 6.75488 58.7361 6.29364 58.9464 5.78597C59.1567 5.2783 59.265 4.73416 59.265 4.18465C59.265 3.63513 59.1567 3.09099 58.9464 2.58332C58.7361 2.07565 58.4278 1.61441 58.0392 1.2259C57.6506 0.83738 57.1892 0.529163 56.6815 0.318968C56.1738 0.108773 55.6296 0.000683854 55.0801 0.000820707C53.985 0.0227398 52.9421 0.473165 52.1754 1.25539C51.4087 2.03762 50.9792 3.08931 50.9792 4.18465C50.9792 5.27998 51.4087 6.33167 52.1754 7.1139C52.9421 7.89613 53.985 8.34655 55.0801 8.36847ZM43.853 18.1177H51.6164V39.6984H58.5404V18.1194H66.3056V11.9814H43.8547L43.853 18.1177ZM103.724 39.6984H110.651V11.9987H103.725L103.724 39.6984ZM89.7108 27.2336C89.7108 30.9274 87.6304 34.7344 83.2467 34.7344C78.8029 34.7344 78.0528 30.639 78.0528 27.3486V11.9987H71.127V29.3106C71.127 34.9679 74.1273 40.5068 81.3431 40.5068C85.4386 40.5068 88.7289 38.0248 89.9407 35.2545H90.0556V39.6984H96.6346V11.9987H89.7106L89.7108 27.2336ZM30.1113 11.1902C26.0142 11.1902 22.7256 13.6722 21.5137 16.4425H21.397V11.9987H14.8196V39.6984H21.7437V24.4633C21.7437 20.7696 23.8223 16.9608 28.2078 16.9608C32.6499 16.9608 33.4017 21.058 33.4017 24.3484V39.6984H40.3257V22.3831C40.3257 16.7292 37.3272 11.1902 30.1113 11.1902ZM0.799927 39.6984H7.72399V11.9987H0.799927V39.6984Z"
    fill="#0B0C0E" />
</svg>